%TF.GenerationSoftware,KiCad,Pcbnew,9.0.6-9.0.6~ubuntu25.04.1*%
%TF.CreationDate,2026-02-06T09:58:14-08:00*%
%TF.ProjectId,driverModule,64726976-6572-44d6-9f64-756c652e6b69,rev?*%
%TF.SameCoordinates,Original*%
%TF.FileFunction,Paste,Bot*%
%TF.FilePolarity,Positive*%
%FSLAX46Y46*%
G04 Gerber Fmt 4.6, Leading zero omitted, Abs format (unit mm)*
G04 Created by KiCad (PCBNEW 9.0.6-9.0.6~ubuntu25.04.1) date 2026-02-06 09:58:14*
%MOMM*%
%LPD*%
G01*
G04 APERTURE LIST*
G04 Aperture macros list*
%AMRoundRect*
0 Rectangle with rounded corners*
0 $1 Rounding radius*
0 $2 $3 $4 $5 $6 $7 $8 $9 X,Y pos of 4 corners*
0 Add a 4 corners polygon primitive as box body*
4,1,4,$2,$3,$4,$5,$6,$7,$8,$9,$2,$3,0*
0 Add four circle primitives for the rounded corners*
1,1,$1+$1,$2,$3*
1,1,$1+$1,$4,$5*
1,1,$1+$1,$6,$7*
1,1,$1+$1,$8,$9*
0 Add four rect primitives between the rounded corners*
20,1,$1+$1,$2,$3,$4,$5,0*
20,1,$1+$1,$4,$5,$6,$7,0*
20,1,$1+$1,$6,$7,$8,$9,0*
20,1,$1+$1,$8,$9,$2,$3,0*%
G04 Aperture macros list end*
%ADD10RoundRect,0.155000X-0.155000X0.212500X-0.155000X-0.212500X0.155000X-0.212500X0.155000X0.212500X0*%
%ADD11RoundRect,0.160000X-0.160000X0.197500X-0.160000X-0.197500X0.160000X-0.197500X0.160000X0.197500X0*%
%ADD12R,1.050000X0.600000*%
%ADD13R,0.300000X0.650000*%
%ADD14RoundRect,0.162500X-0.162500X0.650000X-0.162500X-0.650000X0.162500X-0.650000X0.162500X0.650000X0*%
%ADD15RoundRect,0.155000X0.155000X-0.212500X0.155000X0.212500X-0.155000X0.212500X-0.155000X-0.212500X0*%
%ADD16RoundRect,0.250000X0.475000X-0.250000X0.475000X0.250000X-0.475000X0.250000X-0.475000X-0.250000X0*%
%ADD17RoundRect,0.160000X-0.197500X-0.160000X0.197500X-0.160000X0.197500X0.160000X-0.197500X0.160000X0*%
%ADD18R,0.600000X1.050000*%
%ADD19R,0.650000X0.300000*%
G04 APERTURE END LIST*
D10*
%TO.C,C3*%
X133250000Y-92572500D03*
X133250000Y-93707500D03*
%TD*%
%TO.C,C5*%
X127410000Y-111932500D03*
X127410000Y-113067500D03*
%TD*%
%TO.C,C7*%
X127070000Y-98500000D03*
X127070000Y-99635000D03*
%TD*%
D11*
%TO.C,R10*%
X135990000Y-99492500D03*
X135990000Y-100687500D03*
%TD*%
D12*
%TO.C,U5*%
X131220000Y-93172500D03*
X129980000Y-93172500D03*
X131220000Y-93947500D03*
X129980000Y-93947500D03*
D13*
X129600000Y-92010000D03*
X130100000Y-92010000D03*
X130600000Y-92010000D03*
X131100000Y-92010000D03*
X131600000Y-92010000D03*
X131600000Y-95110000D03*
X131100000Y-95110000D03*
X130600000Y-95110000D03*
X130100000Y-95110000D03*
X129600000Y-95110000D03*
%TD*%
D14*
%TO.C,U6*%
X128825000Y-98482500D03*
X130095000Y-98482500D03*
X131365000Y-98482500D03*
X132635000Y-98482500D03*
X132635000Y-105657500D03*
X131365000Y-105657500D03*
X130095000Y-105657500D03*
X128825000Y-105657500D03*
%TD*%
D11*
%TO.C,R203*%
X163322000Y-101257500D03*
X163322000Y-102452500D03*
%TD*%
D15*
%TO.C,C6*%
X135560000Y-110917500D03*
X135560000Y-109782500D03*
%TD*%
D16*
%TO.C,C201*%
X156822000Y-101205000D03*
X156822000Y-99305000D03*
%TD*%
D15*
%TO.C,C4*%
X126760000Y-104017500D03*
X126760000Y-102882500D03*
%TD*%
D17*
%TO.C,R14*%
X139980000Y-112180000D03*
X141175000Y-112180000D03*
%TD*%
D18*
%TO.C,U4*%
X130947500Y-111610000D03*
X130947500Y-110370000D03*
X130172500Y-111610000D03*
X130172500Y-110370000D03*
D19*
X132110000Y-109990000D03*
X132110000Y-110490000D03*
X132110000Y-110990000D03*
X132110000Y-111490000D03*
X132110000Y-111990000D03*
X129010000Y-111990000D03*
X129010000Y-111490000D03*
X129010000Y-110990000D03*
X129010000Y-110490000D03*
X129010000Y-109990000D03*
%TD*%
M02*
