%TF.GenerationSoftware,KiCad,Pcbnew,9.0.6-9.0.6~ubuntu25.04.1*%
%TF.CreationDate,2026-02-06T09:58:13-08:00*%
%TF.ProjectId,driverModule,64726976-6572-44d6-9f64-756c652e6b69,rev?*%
%TF.SameCoordinates,Original*%
%TF.FileFunction,Copper,L4,Bot*%
%TF.FilePolarity,Positive*%
%FSLAX46Y46*%
G04 Gerber Fmt 4.6, Leading zero omitted, Abs format (unit mm)*
G04 Created by KiCad (PCBNEW 9.0.6-9.0.6~ubuntu25.04.1) date 2026-02-06 09:58:13*
%MOMM*%
%LPD*%
G01*
G04 APERTURE LIST*
G04 Aperture macros list*
%AMRoundRect*
0 Rectangle with rounded corners*
0 $1 Rounding radius*
0 $2 $3 $4 $5 $6 $7 $8 $9 X,Y pos of 4 corners*
0 Add a 4 corners polygon primitive as box body*
4,1,4,$2,$3,$4,$5,$6,$7,$8,$9,$2,$3,0*
0 Add four circle primitives for the rounded corners*
1,1,$1+$1,$2,$3*
1,1,$1+$1,$4,$5*
1,1,$1+$1,$6,$7*
1,1,$1+$1,$8,$9*
0 Add four rect primitives between the rounded corners*
20,1,$1+$1,$2,$3,$4,$5,0*
20,1,$1+$1,$4,$5,$6,$7,0*
20,1,$1+$1,$6,$7,$8,$9,0*
20,1,$1+$1,$8,$9,$2,$3,0*%
G04 Aperture macros list end*
%TA.AperFunction,ComponentPad*%
%ADD10RoundRect,0.250000X-0.600000X-0.725000X0.600000X-0.725000X0.600000X0.725000X-0.600000X0.725000X0*%
%TD*%
%TA.AperFunction,ComponentPad*%
%ADD11O,1.700000X1.950000*%
%TD*%
%TA.AperFunction,ComponentPad*%
%ADD12R,1.520000X1.520000*%
%TD*%
%TA.AperFunction,ComponentPad*%
%ADD13C,1.520000*%
%TD*%
%TA.AperFunction,ComponentPad*%
%ADD14C,2.200000*%
%TD*%
%TA.AperFunction,ComponentPad*%
%ADD15C,2.362200*%
%TD*%
%TA.AperFunction,SMDPad,CuDef*%
%ADD16RoundRect,0.155000X-0.155000X0.212500X-0.155000X-0.212500X0.155000X-0.212500X0.155000X0.212500X0*%
%TD*%
%TA.AperFunction,SMDPad,CuDef*%
%ADD17RoundRect,0.160000X-0.160000X0.197500X-0.160000X-0.197500X0.160000X-0.197500X0.160000X0.197500X0*%
%TD*%
%TA.AperFunction,SMDPad,CuDef*%
%ADD18R,0.300000X0.650000*%
%TD*%
%TA.AperFunction,SMDPad,CuDef*%
%ADD19R,2.480000X1.550000*%
%TD*%
%TA.AperFunction,SMDPad,CuDef*%
%ADD20RoundRect,0.162500X-0.162500X0.650000X-0.162500X-0.650000X0.162500X-0.650000X0.162500X0.650000X0*%
%TD*%
%TA.AperFunction,SMDPad,CuDef*%
%ADD21RoundRect,0.155000X0.155000X-0.212500X0.155000X0.212500X-0.155000X0.212500X-0.155000X-0.212500X0*%
%TD*%
%TA.AperFunction,SMDPad,CuDef*%
%ADD22RoundRect,0.250000X0.475000X-0.250000X0.475000X0.250000X-0.475000X0.250000X-0.475000X-0.250000X0*%
%TD*%
%TA.AperFunction,SMDPad,CuDef*%
%ADD23RoundRect,0.160000X-0.197500X-0.160000X0.197500X-0.160000X0.197500X0.160000X-0.197500X0.160000X0*%
%TD*%
%TA.AperFunction,SMDPad,CuDef*%
%ADD24R,0.650000X0.300000*%
%TD*%
%TA.AperFunction,SMDPad,CuDef*%
%ADD25R,1.550000X2.480000*%
%TD*%
%TA.AperFunction,ViaPad*%
%ADD26C,0.600000*%
%TD*%
%TA.AperFunction,Conductor*%
%ADD27C,0.200000*%
%TD*%
%TA.AperFunction,Conductor*%
%ADD28C,0.300000*%
%TD*%
%TA.AperFunction,Conductor*%
%ADD29C,0.250000*%
%TD*%
%TA.AperFunction,Conductor*%
%ADD30C,0.500000*%
%TD*%
%TA.AperFunction,Conductor*%
%ADD31C,1.000000*%
%TD*%
G04 APERTURE END LIST*
D10*
%TO.P,J6,1,Pin_1*%
%TO.N,GND*%
X138720000Y-116170000D03*
D11*
%TO.P,J6,2,Pin_2*%
%TO.N,/AD7171/V2*%
X141220000Y-116170000D03*
%TO.P,J6,3,Pin_3*%
%TO.N,GND*%
X143720000Y-116170000D03*
%TO.P,J6,4,Pin_4*%
%TO.N,/AD7171/V1*%
X146220000Y-116170000D03*
%TD*%
D12*
%TO.P,J1,1,1*%
%TO.N,GND*%
X149950000Y-66655000D03*
D13*
%TO.P,J1,2,2*%
%TO.N,/CAN_H*%
X146450000Y-66655000D03*
%TO.P,J1,3,3*%
%TO.N,/CAN_L*%
X142950000Y-66655000D03*
%TO.P,J1,4,4*%
%TO.N,/LIN_BUS*%
X139450000Y-66655000D03*
D14*
%TO.P,J1,S1,SHIELD1*%
%TO.N,GND*%
X152450000Y-58745000D03*
%TO.P,J1,S2,SHIELD2*%
X136950000Y-58745000D03*
%TD*%
D15*
%TO.P,J4,1,1*%
%TO.N,+12V*%
X200488549Y-79733401D03*
%TO.P,J4,2,2*%
%TO.N,/Harness/WindowMotorA*%
X200488549Y-83933398D03*
%TO.P,J4,3,3*%
%TO.N,GND*%
X194988550Y-79733401D03*
%TO.P,J4,4,4*%
%TO.N,/Harness/WindowMotorB*%
X194988550Y-83933398D03*
%TD*%
D12*
%TO.P,J5,1,1*%
%TO.N,/Harness/keyFobOpen12V*%
X201900000Y-66655000D03*
D13*
%TO.P,J5,2,2*%
%TO.N,/Harness/KeyFobClose12V*%
X198400000Y-66655000D03*
%TO.P,J5,3,3*%
%TO.N,/LatchPositionThroughSignal*%
X194900000Y-66655000D03*
%TO.P,J5,4,4*%
%TO.N,/LatchSensorGreenConnector*%
X191400000Y-66655000D03*
%TO.P,J5,5,5*%
%TO.N,/LatchSensorPurpleConnector*%
X187900000Y-66655000D03*
D14*
%TO.P,J5,S1,SHIELD1*%
%TO.N,GND*%
X204400000Y-58745000D03*
%TO.P,J5,S2,SHIELD2*%
X185400000Y-58745000D03*
%TD*%
D12*
%TO.P,J3,1,1*%
%TO.N,/Harness/MirrorMotorXYB*%
X175800000Y-66655000D03*
D13*
%TO.P,J3,2,2*%
%TO.N,/Harness/MirrorMotorXA*%
X172300000Y-66655000D03*
%TO.P,J3,3,3*%
%TO.N,/Harness/MirrorMotorYA*%
X168800000Y-66655000D03*
%TO.P,J3,4,4*%
%TO.N,/Harness/LatchMotorA*%
X165300000Y-66655000D03*
%TO.P,J3,5,5*%
%TO.N,/Harness/LatchMotorB*%
X161800000Y-66655000D03*
D14*
%TO.P,J3,S1,SHIELD1*%
%TO.N,GND*%
X178300000Y-58745000D03*
%TO.P,J3,S2,SHIELD2*%
X159300000Y-58745000D03*
%TD*%
D16*
%TO.P,C3,1*%
%TO.N,+3V3*%
X133250000Y-92572500D03*
%TO.P,C3,2*%
%TO.N,GND*%
X133250000Y-93707500D03*
%TD*%
%TO.P,C5,1*%
%TO.N,+3V3*%
X127410000Y-111932500D03*
%TO.P,C5,2*%
%TO.N,GND*%
X127410000Y-113067500D03*
%TD*%
%TO.P,C7,1*%
%TO.N,/AD7171/ain1+*%
X127070000Y-98500000D03*
%TO.P,C7,2*%
%TO.N,GND*%
X127070000Y-99635000D03*
%TD*%
D17*
%TO.P,R10,1*%
%TO.N,+3V3*%
X135990000Y-99492500D03*
%TO.P,R10,2*%
%TO.N,/AD7171/V1*%
X135990000Y-100687500D03*
%TD*%
D18*
%TO.P,U5,1,SCK*%
%TO.N,/SpiClock*%
X129600000Y-92010000D03*
%TO.P,U5,2,DOUT/~{RDY}*%
%TO.N,/SpiMasterInput*%
X130100000Y-92010000D03*
%TO.P,U5,3,AIN+*%
%TO.N,/AD7171/ain1+*%
X130600000Y-92010000D03*
%TO.P,U5,4,AIN-*%
%TO.N,GND*%
X131100000Y-92010000D03*
%TO.P,U5,5,REFIN+*%
%TO.N,+3V3*%
X131600000Y-92010000D03*
%TO.P,U5,6,REFIN-*%
%TO.N,GND*%
X131600000Y-95110000D03*
%TO.P,U5,7,GND*%
X131100000Y-95110000D03*
%TO.P,U5,8,VDD*%
%TO.N,+3V3*%
X130600000Y-95110000D03*
%TO.P,U5,9,~{PDRST}*%
%TO.N,/~{pdrst1}*%
X130100000Y-95110000D03*
%TO.P,U5,10,GND*%
%TO.N,GND*%
X129600000Y-95110000D03*
D19*
%TO.P,U5,11,PAD*%
X130600000Y-93560000D03*
%TD*%
D20*
%TO.P,U6,1,OUTA*%
%TO.N,/AD7171/ain1+*%
X128825000Y-98482500D03*
%TO.P,U6,2,-IN_A*%
X130095000Y-98482500D03*
%TO.P,U6,3,+IN_A*%
%TO.N,/AD7171/V1*%
X131365000Y-98482500D03*
%TO.P,U6,4,V-*%
%TO.N,GND*%
X132635000Y-98482500D03*
%TO.P,U6,5,+IN_B*%
%TO.N,/AD7171/V2*%
X132635000Y-105657500D03*
%TO.P,U6,6,-IN_B*%
%TO.N,/AD7171/ain2+*%
X131365000Y-105657500D03*
%TO.P,U6,7,OUTB*%
X130095000Y-105657500D03*
%TO.P,U6,8,V+*%
%TO.N,+3V3*%
X128825000Y-105657500D03*
%TD*%
D17*
%TO.P,R203,1*%
%TO.N,/Motors Interface/CS*%
X163322000Y-101257500D03*
%TO.P,R203,2*%
%TO.N,GND*%
X163322000Y-102452500D03*
%TD*%
D21*
%TO.P,C6,1*%
%TO.N,/AD7171/ain2+*%
X135560000Y-110917500D03*
%TO.P,C6,2*%
%TO.N,GND*%
X135560000Y-109782500D03*
%TD*%
D22*
%TO.P,C201,1*%
%TO.N,/WindowMotorCurrentSense*%
X156822000Y-101205000D03*
%TO.P,C201,2*%
%TO.N,GND*%
X156822000Y-99305000D03*
%TD*%
D21*
%TO.P,C4,1*%
%TO.N,+3V3*%
X126760000Y-104017500D03*
%TO.P,C4,2*%
%TO.N,GND*%
X126760000Y-102882500D03*
%TD*%
D23*
%TO.P,R14,1*%
%TO.N,+3V3*%
X139980000Y-112180000D03*
%TO.P,R14,2*%
%TO.N,/AD7171/V2*%
X141175000Y-112180000D03*
%TD*%
D24*
%TO.P,U4,1,SCK*%
%TO.N,/SpiClock*%
X132110000Y-109990000D03*
%TO.P,U4,2,DOUT/~{RDY}*%
%TO.N,/SpiMasterInput*%
X132110000Y-110490000D03*
%TO.P,U4,3,AIN+*%
%TO.N,/AD7171/ain2+*%
X132110000Y-110990000D03*
%TO.P,U4,4,AIN-*%
%TO.N,GND*%
X132110000Y-111490000D03*
%TO.P,U4,5,REFIN+*%
%TO.N,+3V3*%
X132110000Y-111990000D03*
%TO.P,U4,6,REFIN-*%
%TO.N,GND*%
X129010000Y-111990000D03*
%TO.P,U4,7,GND*%
X129010000Y-111490000D03*
%TO.P,U4,8,VDD*%
%TO.N,+3V3*%
X129010000Y-110990000D03*
%TO.P,U4,9,~{PDRST}*%
%TO.N,/~{pdrst2}*%
X129010000Y-110490000D03*
%TO.P,U4,10,GND*%
%TO.N,GND*%
X129010000Y-109990000D03*
D25*
%TO.P,U4,11,PAD*%
X130560000Y-110990000D03*
%TD*%
D26*
%TO.N,GND*%
X185200000Y-110400000D03*
X151200000Y-83500000D03*
X158600000Y-113100000D03*
X153100000Y-101915000D03*
X148300000Y-83100000D03*
X126400000Y-76200000D03*
X158600000Y-109400000D03*
X181800000Y-97200000D03*
X189100000Y-92500000D03*
X136400000Y-105100000D03*
X135570000Y-108590000D03*
X205800000Y-108600000D03*
X181700000Y-104200000D03*
X191900000Y-90400000D03*
X120900000Y-70700000D03*
X156920000Y-87480000D03*
X204300000Y-101000000D03*
X208800000Y-94600000D03*
X157300000Y-96300000D03*
X183700000Y-95700000D03*
X160500000Y-84700000D03*
X209400000Y-97800000D03*
X205800000Y-110300000D03*
X154600000Y-77300000D03*
X136400000Y-103500000D03*
X154400000Y-82300000D03*
X150320000Y-90910000D03*
X122200000Y-63200000D03*
X132670000Y-99940000D03*
X181700000Y-106200000D03*
X122200000Y-77600000D03*
X181700000Y-105200000D03*
X160600000Y-111100000D03*
X205800000Y-109400000D03*
X136400000Y-104300000D03*
X186400000Y-103000000D03*
X127070000Y-100780000D03*
X205800000Y-107800000D03*
X156400000Y-111100000D03*
X157900000Y-90800000D03*
X189100000Y-88400000D03*
X122600000Y-59200000D03*
X164500000Y-102500000D03*
X181800000Y-98200000D03*
X130620000Y-113220000D03*
X136400000Y-105900000D03*
X186400000Y-90400000D03*
X133510000Y-95180000D03*
X181800000Y-96200000D03*
X209300000Y-102100000D03*
X151070000Y-88160000D03*
X123500000Y-75800000D03*
%TO.N,+5V*%
X143460000Y-102360000D03*
X185850000Y-94170000D03*
%TO.N,+3V3*%
X125800000Y-63000000D03*
X152820000Y-94900000D03*
X129800000Y-63270000D03*
X210760000Y-66690000D03*
X130870000Y-95940000D03*
X168700000Y-83130000D03*
X153810000Y-99752500D03*
X158230000Y-83700000D03*
X123500000Y-63700000D03*
X127090000Y-105710000D03*
X168700000Y-77370000D03*
X151240000Y-81020000D03*
X135960000Y-97520000D03*
X134130000Y-112010000D03*
X206650000Y-102150000D03*
X132860000Y-91080000D03*
X127400000Y-110840000D03*
%TO.N,+12V*%
X176610000Y-80220000D03*
X123700000Y-76650000D03*
X150730000Y-105110000D03*
X164190000Y-110220000D03*
X163480000Y-105200000D03*
X156890000Y-81290000D03*
X149520000Y-88960000D03*
X150730000Y-105710000D03*
X194870000Y-76400000D03*
X150730000Y-106300000D03*
X119450000Y-76400000D03*
%TO.N,/LatchPositionThroughSignal*%
X173700000Y-73100000D03*
X166350000Y-73100000D03*
%TO.N,/WindowMotorCurrentSense*%
X149970000Y-99065000D03*
X155700000Y-101300000D03*
%TO.N,/LIN_BUS*%
X129550000Y-69450000D03*
%TO.N,/Harness/WindowMotorA*%
X182100000Y-94100000D03*
X177840000Y-99270000D03*
%TO.N,/Harness/WindowMotorB*%
X182300000Y-102900000D03*
X181920000Y-108230000D03*
%TO.N,/CAN_RX*%
X133150000Y-85100000D03*
X127200000Y-60200000D03*
%TO.N,/SpiMasterInput*%
X126920000Y-93350000D03*
X148600000Y-87100000D03*
X149090000Y-77820000D03*
X127680000Y-86380000D03*
X144480000Y-87360000D03*
X159000000Y-86900000D03*
X128790000Y-90870000D03*
%TO.N,/SpiMasterOutput*%
X144760000Y-86320000D03*
X146870000Y-77150000D03*
%TO.N,/MirrorSpiChipSelect*%
X154080000Y-101860000D03*
X150740000Y-77940000D03*
X150125000Y-86975000D03*
X148500000Y-88600000D03*
X150690000Y-100590000D03*
%TO.N,/SpiClock*%
X144470000Y-88490000D03*
X125130000Y-93790000D03*
X126930000Y-87530000D03*
%TO.N,/WindowMotorDir*%
X151780000Y-101916000D03*
X149235000Y-100865000D03*
%TO.N,/CAN_TX*%
X128850000Y-71350000D03*
X128700000Y-65450000D03*
%TO.N,/KeyfobOpen3v3*%
X169000000Y-87250000D03*
X140400000Y-93100000D03*
%TO.N,/KeyfobClose3v3*%
X140000000Y-92250000D03*
X167850000Y-80450000D03*
%TO.N,/WindowMotorEnable*%
X157030000Y-102400000D03*
X147450000Y-98450000D03*
X154200000Y-98450000D03*
%TO.N,/Motors Interface/G*%
X163500000Y-103700000D03*
X150700000Y-107100000D03*
%TO.N,/Motors Interface/Enable*%
X155040000Y-102260000D03*
X162640000Y-88160000D03*
X159310000Y-95190000D03*
X167560000Y-87280000D03*
%TO.N,/Motors Interface/CS*%
X160600000Y-101255000D03*
%TO.N,/~{pdrst2}*%
X136110000Y-96130000D03*
X127660000Y-109900000D03*
X134900000Y-99940000D03*
%TO.N,/~{pdrst1}*%
X128070000Y-81350000D03*
X133470000Y-81370000D03*
X127250000Y-96570000D03*
%TD*%
D27*
%TO.N,GND*%
X127410000Y-113067500D02*
X128842500Y-113067500D01*
X126760000Y-101930000D02*
X127070000Y-101620000D01*
D28*
X131060000Y-111490000D02*
X130560000Y-110990000D01*
D27*
X133250000Y-94920000D02*
X133510000Y-95180000D01*
X135560000Y-108600000D02*
X135570000Y-108590000D01*
D28*
X130620000Y-113220000D02*
X130620000Y-111050000D01*
X131100000Y-95110000D02*
X131600000Y-95110000D01*
X131100000Y-92010000D02*
X131100000Y-93060000D01*
X133440000Y-95110000D02*
X133510000Y-95180000D01*
X129010000Y-111490000D02*
X130060000Y-111490000D01*
X131100000Y-94060000D02*
X130600000Y-93560000D01*
X130060000Y-111490000D02*
X130560000Y-110990000D01*
X130620000Y-111050000D02*
X130560000Y-110990000D01*
D29*
X157300000Y-96300000D02*
X156822000Y-96778000D01*
D27*
X128982500Y-112017500D02*
X129010000Y-111990000D01*
D29*
X163369500Y-102500000D02*
X163322000Y-102452500D01*
D28*
X129600000Y-95110000D02*
X129600000Y-94560000D01*
D27*
X127070000Y-99635000D02*
X127070000Y-100780000D01*
X127070000Y-101620000D02*
X127070000Y-100780000D01*
X129010000Y-112900000D02*
X129010000Y-111990000D01*
D28*
X132670000Y-99940000D02*
X132670000Y-98517500D01*
X132670000Y-98517500D02*
X132635000Y-98482500D01*
X132110000Y-111490000D02*
X131060000Y-111490000D01*
D27*
X133250000Y-93707500D02*
X133250000Y-94920000D01*
D28*
X131600000Y-95110000D02*
X133440000Y-95110000D01*
D29*
X156822000Y-96778000D02*
X156822000Y-99305000D01*
D27*
X135560000Y-109782500D02*
X135560000Y-108600000D01*
D28*
X131100000Y-95110000D02*
X131100000Y-94060000D01*
D27*
X128842500Y-113067500D02*
X129010000Y-112900000D01*
D28*
X129600000Y-94560000D02*
X130600000Y-93560000D01*
X129010000Y-111490000D02*
X129010000Y-111990000D01*
X131100000Y-93060000D02*
X130600000Y-93560000D01*
X129010000Y-109990000D02*
X129560000Y-109990000D01*
X129560000Y-109990000D02*
X130560000Y-110990000D01*
D29*
X164500000Y-102500000D02*
X163369500Y-102500000D01*
D27*
X126760000Y-102882500D02*
X126760000Y-101930000D01*
D30*
%TO.N,+5V*%
X143460000Y-97620000D02*
X147020000Y-94060000D01*
X147020000Y-94060000D02*
X172270000Y-94060000D01*
X173480000Y-92850000D02*
X184530000Y-92850000D01*
X184530000Y-92850000D02*
X185850000Y-94170000D01*
X172270000Y-94060000D02*
X173480000Y-92850000D01*
X143460000Y-102360000D02*
X143460000Y-97620000D01*
D28*
%TO.N,+3V3*%
X130610000Y-95680000D02*
X130610000Y-95120000D01*
D27*
X133250000Y-92572500D02*
X133250000Y-91470000D01*
D28*
X134130000Y-112010000D02*
X134140000Y-112000000D01*
X132110000Y-111990000D02*
X134110000Y-111990000D01*
X127410000Y-110850000D02*
X127410000Y-111932500D01*
X127090000Y-105710000D02*
X128772500Y-105710000D01*
X129010000Y-110990000D02*
X127550000Y-110990000D01*
X128825000Y-105657500D02*
X128825000Y-104355000D01*
X128472500Y-104017500D02*
X126760000Y-104017500D01*
X130870000Y-95940000D02*
X130610000Y-95680000D01*
X135990000Y-99492500D02*
X135990000Y-97550000D01*
X134110000Y-111990000D02*
X134130000Y-112010000D01*
X132860000Y-91080000D02*
X131930000Y-92010000D01*
X124200000Y-63000000D02*
X125800000Y-63000000D01*
X128480000Y-104010000D02*
X128472500Y-104017500D01*
X128772500Y-105710000D02*
X128825000Y-105657500D01*
X123500000Y-63700000D02*
X123900000Y-63300000D01*
X134300000Y-112180000D02*
X134130000Y-112010000D01*
X131930000Y-92010000D02*
X131600000Y-92010000D01*
X127400000Y-110840000D02*
X127410000Y-110850000D01*
X135990000Y-97550000D02*
X135960000Y-97520000D01*
X139980000Y-112180000D02*
X134300000Y-112180000D01*
X123900000Y-63300000D02*
X124200000Y-63000000D01*
X127550000Y-110990000D02*
X127400000Y-110840000D01*
X128825000Y-104355000D02*
X128480000Y-104010000D01*
D27*
X133250000Y-91470000D02*
X132860000Y-91080000D01*
D28*
X130610000Y-95120000D02*
X130600000Y-95110000D01*
D30*
%TO.N,+12V*%
X159200000Y-78980000D02*
X156890000Y-81290000D01*
D28*
X119700000Y-76650000D02*
X119450000Y-76400000D01*
D30*
X170670000Y-78980000D02*
X159200000Y-78980000D01*
D31*
X163480000Y-109510000D02*
X164190000Y-110220000D01*
X150800000Y-105640000D02*
X161590000Y-105640000D01*
D28*
X146520000Y-89480000D02*
X127520000Y-89480000D01*
X149520000Y-88960000D02*
X149000000Y-89480000D01*
D30*
X146520000Y-86380000D02*
X146520000Y-89480000D01*
X180430000Y-76400000D02*
X176610000Y-80220000D01*
D28*
X124940000Y-77890000D02*
X123700000Y-76650000D01*
D30*
X194870000Y-76400000D02*
X180430000Y-76400000D01*
X148270000Y-84630000D02*
X146520000Y-86380000D01*
D28*
X123700000Y-76650000D02*
X119700000Y-76650000D01*
D30*
X155000000Y-84630000D02*
X148270000Y-84630000D01*
X176610000Y-80220000D02*
X171910000Y-80220000D01*
D31*
X197980000Y-82241950D02*
X200488549Y-79733401D01*
X163480000Y-107530000D02*
X163480000Y-109510000D01*
X164190000Y-110220000D02*
X165311000Y-111341000D01*
D28*
X124940000Y-86900000D02*
X124940000Y-77890000D01*
D30*
X156890000Y-82740000D02*
X155000000Y-84630000D01*
D31*
X197980000Y-107280000D02*
X197980000Y-82241950D01*
X161590000Y-105640000D02*
X163480000Y-107530000D01*
D28*
X149000000Y-89480000D02*
X146520000Y-89480000D01*
D31*
X165311000Y-111341000D02*
X193919000Y-111341000D01*
D30*
X156890000Y-81290000D02*
X156890000Y-82740000D01*
X171910000Y-80220000D02*
X170670000Y-78980000D01*
D28*
X127520000Y-89480000D02*
X124940000Y-86900000D01*
D31*
X193919000Y-111341000D02*
X197980000Y-107280000D01*
X163480000Y-105200000D02*
X163480000Y-107530000D01*
D29*
%TO.N,/LatchPositionThroughSignal*%
X173700000Y-73100000D02*
X166350000Y-73100000D01*
%TO.N,/WindowMotorCurrentSense*%
X155700000Y-100450000D02*
X155700000Y-101300000D01*
X154315000Y-99065000D02*
X155700000Y-100450000D01*
D28*
X155700000Y-101300000D02*
X156727000Y-101300000D01*
D29*
X149970000Y-99065000D02*
X154315000Y-99065000D01*
D28*
X156727000Y-101300000D02*
X156822000Y-101205000D01*
%TO.N,/LIN_BUS*%
X139450000Y-68450000D02*
X138450000Y-69450000D01*
X138450000Y-69450000D02*
X129550000Y-69450000D01*
X139450000Y-66655000D02*
X139450000Y-68450000D01*
D31*
%TO.N,/Harness/WindowMotorA*%
X179755000Y-95225000D02*
X177870000Y-97110000D01*
X177870000Y-97110000D02*
X177870000Y-99240000D01*
X182100000Y-94100000D02*
X182100000Y-94650000D01*
X182000000Y-94750000D02*
X181525000Y-95225000D01*
X177870000Y-99240000D02*
X177840000Y-99270000D01*
X181525000Y-95225000D02*
X179755000Y-95225000D01*
X182100000Y-94650000D02*
X182000000Y-94750000D01*
%TO.N,/Harness/WindowMotorB*%
X194988550Y-83933398D02*
X194988550Y-104561450D01*
X191330000Y-108220000D02*
X181930000Y-108220000D01*
X194988550Y-104561450D02*
X191330000Y-108220000D01*
X194988550Y-90211450D02*
X194988550Y-83933398D01*
X181930000Y-108220000D02*
X181920000Y-108230000D01*
X182300000Y-102900000D02*
X194988550Y-90211450D01*
D28*
%TO.N,/CAN_RX*%
X133100000Y-85050000D02*
X133150000Y-85100000D01*
X128200000Y-85050000D02*
X133100000Y-85050000D01*
X127200000Y-60200000D02*
X127200000Y-84050000D01*
X127200000Y-84050000D02*
X128200000Y-85050000D01*
%TO.N,/SpiMasterInput*%
X126990000Y-93310000D02*
X125660000Y-94640000D01*
X132460000Y-108200000D02*
X133250000Y-108990000D01*
X133080000Y-110490000D02*
X132110000Y-110490000D01*
X125660000Y-107250000D02*
X126610000Y-108200000D01*
X130860000Y-86380000D02*
X131840000Y-87360000D01*
X150050000Y-85650000D02*
X148600000Y-87100000D01*
X133250000Y-110320000D02*
X133080000Y-110490000D01*
X125660000Y-94640000D02*
X125660000Y-107250000D01*
X126610000Y-108200000D02*
X132460000Y-108200000D01*
X130100000Y-92010000D02*
X130100000Y-91385000D01*
X159000000Y-86900000D02*
X157750000Y-85650000D01*
X133250000Y-108990000D02*
X133250000Y-110320000D01*
X129585000Y-90870000D02*
X128790000Y-90870000D01*
X127680000Y-86380000D02*
X130860000Y-86380000D01*
X157750000Y-85650000D02*
X150050000Y-85650000D01*
X130100000Y-91385000D02*
X129585000Y-90870000D01*
X131840000Y-87360000D02*
X144480000Y-87360000D01*
D29*
%TO.N,/MirrorSpiChipSelect*%
X154080000Y-101370000D02*
X153980000Y-101270000D01*
X148500000Y-88600000D02*
X150125000Y-86975000D01*
X153980000Y-101270000D02*
X151370000Y-101270000D01*
X151370000Y-101270000D02*
X150690000Y-100590000D01*
X150125000Y-86975000D02*
X150250000Y-86850000D01*
X154080000Y-101860000D02*
X154080000Y-101370000D01*
D28*
%TO.N,/SpiClock*%
X144470000Y-88490000D02*
X144200000Y-88220000D01*
X132110000Y-108920000D02*
X132110000Y-109990000D01*
X127620000Y-88220000D02*
X126930000Y-87530000D01*
X131970000Y-108780000D02*
X132110000Y-108920000D01*
X125720000Y-108780000D02*
X131970000Y-108780000D01*
X144200000Y-88220000D02*
X127620000Y-88220000D01*
X129600000Y-92010000D02*
X126710000Y-92010000D01*
X124520000Y-94200000D02*
X124520000Y-107580000D01*
X126710000Y-92010000D02*
X124520000Y-94200000D01*
X124520000Y-107580000D02*
X125720000Y-108780000D01*
%TO.N,/WindowMotorDir*%
X150286000Y-101916000D02*
X151780000Y-101916000D01*
X149235000Y-100865000D02*
X150286000Y-101916000D01*
%TO.N,/CAN_TX*%
X128700000Y-65450000D02*
X128700000Y-66650000D01*
X128700000Y-66650000D02*
X128850000Y-66800000D01*
X128850000Y-66800000D02*
X128850000Y-71350000D01*
D29*
%TO.N,/KeyfobOpen3v3*%
X140400000Y-93100000D02*
X163150000Y-93100000D01*
X163150000Y-93100000D02*
X169000000Y-87250000D01*
%TO.N,/KeyfobClose3v3*%
X167700000Y-80600000D02*
X167850000Y-80450000D01*
X159200000Y-92250000D02*
X161650000Y-89800000D01*
X161650000Y-81800000D02*
X162850000Y-80600000D01*
X140000000Y-92250000D02*
X159200000Y-92250000D01*
X161650000Y-89800000D02*
X161650000Y-81800000D01*
X162850000Y-80600000D02*
X167700000Y-80600000D01*
%TO.N,/WindowMotorEnable*%
X158430000Y-96120000D02*
X158430000Y-102100000D01*
X157580000Y-95270000D02*
X158430000Y-96120000D01*
X155470000Y-95270000D02*
X157580000Y-95270000D01*
X147450000Y-98450000D02*
X154200000Y-98450000D01*
X158430000Y-102100000D02*
X158130000Y-102400000D01*
X154200000Y-96540000D02*
X155470000Y-95270000D01*
X154200000Y-98450000D02*
X154200000Y-96540000D01*
X158130000Y-102400000D02*
X157030000Y-102400000D01*
%TO.N,/Motors Interface/G*%
X149390000Y-104260000D02*
X149390000Y-106430000D01*
X163500000Y-103700000D02*
X149950000Y-103700000D01*
X149950000Y-103700000D02*
X149390000Y-104260000D01*
X149390000Y-106430000D02*
X150060000Y-107100000D01*
X150060000Y-107100000D02*
X150700000Y-107100000D01*
D27*
%TO.N,/Motors Interface/Enable*%
X162640000Y-88160000D02*
X166670000Y-88160000D01*
X158851000Y-103159000D02*
X159310000Y-102700000D01*
X166670000Y-88160000D02*
X167150000Y-87680000D01*
X155040000Y-102260000D02*
X155939000Y-103159000D01*
X167160000Y-87680000D02*
X167560000Y-87280000D01*
X159310000Y-102700000D02*
X159310000Y-95190000D01*
X155939000Y-103159000D02*
X158851000Y-103159000D01*
X167150000Y-87680000D02*
X167160000Y-87680000D01*
D28*
%TO.N,/Motors Interface/CS*%
X163322000Y-101257500D02*
X160602500Y-101257500D01*
X160602500Y-101257500D02*
X160600000Y-101255000D01*
%TO.N,/AD7171/ain2+*%
X134160000Y-108630000D02*
X133070000Y-107540000D01*
D27*
X135560000Y-110917500D02*
X134327500Y-110917500D01*
D28*
X132110000Y-110990000D02*
X133710000Y-110990000D01*
X130095000Y-105657500D02*
X131365000Y-105657500D01*
X131540000Y-107510000D02*
X131350000Y-107320000D01*
X133710000Y-110990000D02*
X134055000Y-110645000D01*
X134055000Y-110645000D02*
X134160000Y-110540000D01*
X134160000Y-110540000D02*
X134160000Y-108630000D01*
D27*
X134327500Y-110917500D02*
X134055000Y-110645000D01*
D28*
X133070000Y-107540000D02*
X133070000Y-107510000D01*
X131350000Y-107320000D02*
X131365000Y-107305000D01*
X131365000Y-107305000D02*
X131365000Y-105657500D01*
X133070000Y-107510000D02*
X131540000Y-107510000D01*
%TO.N,/AD7171/ain1+*%
X130600000Y-92010000D02*
X130600000Y-91450000D01*
X134360000Y-91330000D02*
X134360000Y-95900000D01*
X130390000Y-96890000D02*
X130095000Y-97185000D01*
D27*
X128807500Y-98500000D02*
X128825000Y-98482500D01*
D28*
X130095000Y-97185000D02*
X130095000Y-98482500D01*
X130600000Y-91450000D02*
X131560000Y-90490000D01*
X133520000Y-90490000D02*
X134360000Y-91330000D01*
X131560000Y-90490000D02*
X133520000Y-90490000D01*
X133370000Y-96890000D02*
X130390000Y-96890000D01*
D27*
X127070000Y-98500000D02*
X128807500Y-98500000D01*
D28*
X128825000Y-98482500D02*
X130095000Y-98482500D01*
X134360000Y-95900000D02*
X133370000Y-96890000D01*
%TO.N,/AD7171/V1*%
X135990000Y-100687500D02*
X137447500Y-100687500D01*
X132017500Y-100687500D02*
X135990000Y-100687500D01*
X131365000Y-98482500D02*
X131365000Y-100035000D01*
X146220000Y-106330000D02*
X146220000Y-116170000D01*
X141350000Y-104590000D02*
X144480000Y-104590000D01*
X137447500Y-100687500D02*
X141350000Y-104590000D01*
X144480000Y-104590000D02*
X146220000Y-106330000D01*
X131365000Y-100035000D02*
X132017500Y-100687500D01*
%TO.N,/AD7171/V2*%
X134297500Y-105657500D02*
X137150000Y-108510000D01*
X141175000Y-110085000D02*
X141175000Y-112180000D01*
X139600000Y-108510000D02*
X141175000Y-110085000D01*
X141175000Y-116125000D02*
X141220000Y-116170000D01*
X137150000Y-108510000D02*
X139600000Y-108510000D01*
X132635000Y-105657500D02*
X134297500Y-105657500D01*
X141175000Y-112180000D02*
X141175000Y-116125000D01*
D27*
%TO.N,/~{pdrst2}*%
X134900000Y-97340000D02*
X136110000Y-96130000D01*
X129010000Y-110490000D02*
X128250000Y-110490000D01*
X128250000Y-110490000D02*
X127660000Y-109900000D01*
X134900000Y-99940000D02*
X134900000Y-97340000D01*
%TO.N,/~{pdrst1}*%
X128090000Y-81370000D02*
X128070000Y-81350000D01*
X130100000Y-96140000D02*
X129670000Y-96570000D01*
X133470000Y-81370000D02*
X128090000Y-81370000D01*
X129670000Y-96570000D02*
X127250000Y-96570000D01*
X130100000Y-95110000D02*
X130100000Y-96140000D01*
%TD*%
%TA.AperFunction,Conductor*%
%TO.N,+12V*%
G36*
X152133039Y-104809685D02*
G01*
X152178794Y-104862489D01*
X152190000Y-104914000D01*
X152190000Y-106506000D01*
X152170315Y-106573039D01*
X152117511Y-106618794D01*
X152066000Y-106630000D01*
X150374000Y-106630000D01*
X150306961Y-106610315D01*
X150261206Y-106557511D01*
X150250000Y-106506000D01*
X150250000Y-104914000D01*
X150269685Y-104846961D01*
X150322489Y-104801206D01*
X150374000Y-104790000D01*
X152066000Y-104790000D01*
X152133039Y-104809685D01*
G37*
%TD.AperFunction*%
%TD*%
M02*
