M48
; DRILL file {KiCad 9.0.6-9.0.6~ubuntu25.04.1} date 2026-02-06T09:58:29-0800
; FORMAT={-:-/ absolute / metric / decimal}
; #@! TF.CreationDate,2026-02-06T09:58:29-08:00
; #@! TF.GenerationSoftware,Kicad,Pcbnew,9.0.6-9.0.6~ubuntu25.04.1
; #@! TF.FileFunction,Plated,1,4,PTH
FMAT,2
METRIC
; #@! TA.AperFunction,Plated,PTH,ViaDrill
T1C0.300
; #@! TA.AperFunction,Plated,PTH,ComponentDrill
T2C0.950
; #@! TA.AperFunction,Plated,PTH,ComponentDrill
T3C1.020
; #@! TA.AperFunction,Plated,PTH,ComponentDrill
T4C1.700
; #@! TA.AperFunction,Plated,PTH,ComponentDrill
T5C1.854
%
G90
G05
T1
X119.45Y-76.4
X120.9Y-70.7
X122.2Y-63.2
X122.2Y-77.6
X122.6Y-59.2
X123.5Y-63.7
X123.5Y-75.8
X123.7Y-76.65
X125.13Y-93.79
X125.8Y-63.0
X126.4Y-76.2
X126.92Y-93.35
X126.93Y-87.53
X127.07Y-100.78
X127.09Y-105.71
X127.2Y-60.2
X127.25Y-96.57
X127.4Y-110.84
X127.66Y-109.9
X127.68Y-86.38
X128.07Y-81.35
X128.7Y-65.45
X128.79Y-90.87
X128.85Y-71.35
X129.55Y-69.45
X129.8Y-63.27
X130.62Y-113.22
X130.87Y-95.94
X132.67Y-99.94
X132.86Y-91.08
X133.15Y-85.1
X133.47Y-81.37
X133.51Y-95.18
X134.13Y-112.01
X134.9Y-99.94
X135.57Y-108.59
X135.96Y-97.52
X136.11Y-96.13
X136.4Y-103.5
X136.4Y-104.3
X136.4Y-105.1
X136.4Y-105.9
X140.0Y-92.25
X140.4Y-93.1
X143.46Y-102.36
X144.47Y-88.49
X144.48Y-87.36
X144.76Y-86.32
X146.87Y-77.15
X147.45Y-98.45
X148.3Y-83.1
X148.5Y-88.6
X148.6Y-87.1
X149.09Y-77.82
X149.235Y-100.865
X149.52Y-88.96
X149.97Y-99.065
X150.125Y-86.975
X150.32Y-90.91
X150.69Y-100.59
X150.7Y-107.1
X150.73Y-105.11
X150.73Y-105.71
X150.73Y-106.3
X150.74Y-77.94
X151.07Y-88.16
X151.2Y-83.5
X151.24Y-81.02
X151.78Y-101.916
X152.82Y-94.9
X153.1Y-101.915
X153.81Y-99.752
X154.08Y-101.86
X154.2Y-98.45
X154.4Y-82.3
X154.6Y-77.3
X155.04Y-102.26
X155.7Y-101.3
X156.4Y-111.1
X156.89Y-81.29
X156.92Y-87.48
X157.03Y-102.4
X157.3Y-96.3
X157.9Y-90.8
X158.23Y-83.7
X158.6Y-109.4
X158.6Y-113.1
X159.0Y-86.9
X159.31Y-95.19
X160.5Y-84.7
X160.6Y-101.255
X160.6Y-111.1
X162.64Y-88.16
X163.48Y-105.2
X163.5Y-103.7
X164.19Y-110.22
X164.5Y-102.5
X166.35Y-73.1
X167.56Y-87.28
X167.85Y-80.45
X168.7Y-77.37
X168.7Y-83.13
X169.0Y-87.25
X173.7Y-73.1
X176.61Y-80.22
X177.84Y-99.27
X181.7Y-104.2
X181.7Y-105.2
X181.7Y-106.2
X181.8Y-96.2
X181.8Y-97.2
X181.8Y-98.2
X181.92Y-108.23
X182.1Y-94.1
X182.3Y-102.9
X183.7Y-95.7
X185.2Y-110.4
X185.85Y-94.17
X186.4Y-90.4
X186.4Y-103.0
X189.1Y-88.4
X189.1Y-92.5
X191.9Y-90.4
X194.87Y-76.4
X204.3Y-101.0
X205.8Y-107.8
X205.8Y-108.6
X205.8Y-109.4
X205.8Y-110.3
X206.65Y-102.15
X208.8Y-94.6
X209.3Y-102.1
X209.4Y-97.8
X210.76Y-66.69
T2
X138.72Y-116.17
X141.22Y-116.17
X143.72Y-116.17
X146.22Y-116.17
T3
X139.45Y-66.655
X142.95Y-66.655
X146.45Y-66.655
X149.95Y-66.655
X161.8Y-66.655
X165.3Y-66.655
X168.8Y-66.655
X172.3Y-66.655
X175.8Y-66.655
X187.9Y-66.655
X191.4Y-66.655
X194.9Y-66.655
X198.4Y-66.655
X201.9Y-66.655
T4
X136.95Y-58.745
X152.45Y-58.745
X159.3Y-58.745
X178.3Y-58.745
X185.4Y-58.745
X204.4Y-58.745
T5
X194.989Y-79.733
X194.989Y-83.933
X200.489Y-79.733
X200.489Y-83.933
M30
