%TF.GenerationSoftware,KiCad,Pcbnew,9.0.6-9.0.6~ubuntu25.04.1*%
%TF.CreationDate,2026-02-06T09:58:12-08:00*%
%TF.ProjectId,driverModule,64726976-6572-44d6-9f64-756c652e6b69,rev?*%
%TF.SameCoordinates,Original*%
%TF.FileFunction,Copper,L3,Inr*%
%TF.FilePolarity,Positive*%
%FSLAX46Y46*%
G04 Gerber Fmt 4.6, Leading zero omitted, Abs format (unit mm)*
G04 Created by KiCad (PCBNEW 9.0.6-9.0.6~ubuntu25.04.1) date 2026-02-06 09:58:12*
%MOMM*%
%LPD*%
G01*
G04 APERTURE LIST*
G04 Aperture macros list*
%AMRoundRect*
0 Rectangle with rounded corners*
0 $1 Rounding radius*
0 $2 $3 $4 $5 $6 $7 $8 $9 X,Y pos of 4 corners*
0 Add a 4 corners polygon primitive as box body*
4,1,4,$2,$3,$4,$5,$6,$7,$8,$9,$2,$3,0*
0 Add four circle primitives for the rounded corners*
1,1,$1+$1,$2,$3*
1,1,$1+$1,$4,$5*
1,1,$1+$1,$6,$7*
1,1,$1+$1,$8,$9*
0 Add four rect primitives between the rounded corners*
20,1,$1+$1,$2,$3,$4,$5,0*
20,1,$1+$1,$4,$5,$6,$7,0*
20,1,$1+$1,$6,$7,$8,$9,0*
20,1,$1+$1,$8,$9,$2,$3,0*%
G04 Aperture macros list end*
%TA.AperFunction,ComponentPad*%
%ADD10RoundRect,0.250000X-0.600000X-0.725000X0.600000X-0.725000X0.600000X0.725000X-0.600000X0.725000X0*%
%TD*%
%TA.AperFunction,ComponentPad*%
%ADD11O,1.700000X1.950000*%
%TD*%
%TA.AperFunction,ComponentPad*%
%ADD12R,1.520000X1.520000*%
%TD*%
%TA.AperFunction,ComponentPad*%
%ADD13C,1.520000*%
%TD*%
%TA.AperFunction,ComponentPad*%
%ADD14C,2.200000*%
%TD*%
%TA.AperFunction,ComponentPad*%
%ADD15C,2.362200*%
%TD*%
%TA.AperFunction,ViaPad*%
%ADD16C,0.600000*%
%TD*%
%TA.AperFunction,Conductor*%
%ADD17C,0.150000*%
%TD*%
G04 APERTURE END LIST*
D10*
%TO.N,GND*%
%TO.C,J6*%
X138720000Y-116170000D03*
D11*
%TO.N,/AD7171/V2*%
X141220000Y-116170000D03*
%TO.N,GND*%
X143720000Y-116170000D03*
%TO.N,/AD7171/V1*%
X146220000Y-116170000D03*
%TD*%
D12*
%TO.N,GND*%
%TO.C,J1*%
X149950000Y-66655000D03*
D13*
%TO.N,/CAN_H*%
X146450000Y-66655000D03*
%TO.N,/CAN_L*%
X142950000Y-66655000D03*
%TO.N,/LIN_BUS*%
X139450000Y-66655000D03*
D14*
%TO.N,GND*%
X152450000Y-58745000D03*
X136950000Y-58745000D03*
%TD*%
D15*
%TO.N,+12V*%
%TO.C,J4*%
X200488549Y-79733401D03*
%TO.N,/Harness/WindowMotorA*%
X200488549Y-83933398D03*
%TO.N,GND*%
X194988550Y-79733401D03*
%TO.N,/Harness/WindowMotorB*%
X194988550Y-83933398D03*
%TD*%
D12*
%TO.N,/Harness/keyFobOpen12V*%
%TO.C,J5*%
X201900000Y-66655000D03*
D13*
%TO.N,/Harness/KeyFobClose12V*%
X198400000Y-66655000D03*
%TO.N,/LatchPositionThroughSignal*%
X194900000Y-66655000D03*
%TO.N,/LatchSensorGreenConnector*%
X191400000Y-66655000D03*
%TO.N,/LatchSensorPurpleConnector*%
X187900000Y-66655000D03*
D14*
%TO.N,GND*%
X204400000Y-58745000D03*
X185400000Y-58745000D03*
%TD*%
D12*
%TO.N,/Harness/MirrorMotorXYB*%
%TO.C,J3*%
X175800000Y-66655000D03*
D13*
%TO.N,/Harness/MirrorMotorXA*%
X172300000Y-66655000D03*
%TO.N,/Harness/MirrorMotorYA*%
X168800000Y-66655000D03*
%TO.N,/Harness/LatchMotorA*%
X165300000Y-66655000D03*
%TO.N,/Harness/LatchMotorB*%
X161800000Y-66655000D03*
D14*
%TO.N,GND*%
X178300000Y-58745000D03*
X159300000Y-58745000D03*
%TD*%
D16*
%TO.N,GND*%
X185200000Y-110400000D03*
X151200000Y-83500000D03*
X158600000Y-113100000D03*
X153100000Y-101915000D03*
X148300000Y-83100000D03*
X126400000Y-76200000D03*
X158600000Y-109400000D03*
X181800000Y-97200000D03*
X189100000Y-92500000D03*
X136400000Y-105100000D03*
X135570000Y-108590000D03*
X205800000Y-108600000D03*
X181700000Y-104200000D03*
X191900000Y-90400000D03*
X120900000Y-70700000D03*
X156920000Y-87480000D03*
X204300000Y-101000000D03*
X208800000Y-94600000D03*
X157300000Y-96300000D03*
X183700000Y-95700000D03*
X160500000Y-84700000D03*
X209400000Y-97800000D03*
X205800000Y-110300000D03*
X154600000Y-77300000D03*
X136400000Y-103500000D03*
X154400000Y-82300000D03*
X150320000Y-90910000D03*
X122200000Y-63200000D03*
X132670000Y-99940000D03*
X181700000Y-106200000D03*
X122200000Y-77600000D03*
X181700000Y-105200000D03*
X160600000Y-111100000D03*
X205800000Y-109400000D03*
X136400000Y-104300000D03*
X186400000Y-103000000D03*
X127070000Y-100780000D03*
X205800000Y-107800000D03*
X156400000Y-111100000D03*
X157900000Y-90800000D03*
X189100000Y-88400000D03*
X122600000Y-59200000D03*
X164500000Y-102500000D03*
X181800000Y-98200000D03*
X130620000Y-113220000D03*
X136400000Y-105900000D03*
X186400000Y-90400000D03*
X133510000Y-95180000D03*
X181800000Y-96200000D03*
X209300000Y-102100000D03*
X151070000Y-88160000D03*
X123500000Y-75800000D03*
%TO.N,+5V*%
X143460000Y-102360000D03*
X185850000Y-94170000D03*
%TO.N,+3V3*%
X125800000Y-63000000D03*
X152820000Y-94900000D03*
X129800000Y-63270000D03*
X210760000Y-66690000D03*
X130870000Y-95940000D03*
X168700000Y-83130000D03*
X153810000Y-99752500D03*
X158230000Y-83700000D03*
X123500000Y-63700000D03*
X127090000Y-105710000D03*
X168700000Y-77370000D03*
X151240000Y-81020000D03*
X135960000Y-97520000D03*
X134130000Y-112010000D03*
X206650000Y-102150000D03*
X132860000Y-91080000D03*
X127400000Y-110840000D03*
%TO.N,+12V*%
X176610000Y-80220000D03*
X123700000Y-76650000D03*
X150730000Y-105110000D03*
X164190000Y-110220000D03*
X163480000Y-105200000D03*
X156890000Y-81290000D03*
X149520000Y-88960000D03*
X150730000Y-105710000D03*
X194870000Y-76400000D03*
X150730000Y-106300000D03*
X119450000Y-76400000D03*
%TO.N,/LatchPositionThroughSignal*%
X173700000Y-73100000D03*
X166350000Y-73100000D03*
%TO.N,/WindowMotorCurrentSense*%
X149970000Y-99065000D03*
X155700000Y-101300000D03*
%TO.N,/LIN_BUS*%
X129550000Y-69450000D03*
%TO.N,/Harness/WindowMotorA*%
X182100000Y-94100000D03*
X177840000Y-99270000D03*
%TO.N,/Harness/WindowMotorB*%
X182300000Y-102900000D03*
X181920000Y-108230000D03*
%TO.N,/CAN_RX*%
X133150000Y-85100000D03*
X127200000Y-60200000D03*
%TO.N,/SpiMasterInput*%
X126920000Y-93350000D03*
X148600000Y-87100000D03*
X149090000Y-77820000D03*
X127680000Y-86380000D03*
X144480000Y-87360000D03*
X159000000Y-86900000D03*
X128790000Y-90870000D03*
%TO.N,/SpiMasterOutput*%
X144760000Y-86320000D03*
X146870000Y-77150000D03*
%TO.N,/MirrorSpiChipSelect*%
X154080000Y-101860000D03*
X150740000Y-77940000D03*
X150125000Y-86975000D03*
X148500000Y-88600000D03*
X150690000Y-100590000D03*
%TO.N,/SpiClock*%
X144470000Y-88490000D03*
X125130000Y-93790000D03*
X126930000Y-87530000D03*
%TO.N,/WindowMotorDir*%
X151780000Y-101916000D03*
X149235000Y-100865000D03*
%TO.N,/CAN_TX*%
X128850000Y-71350000D03*
X128700000Y-65450000D03*
%TO.N,/KeyfobOpen3v3*%
X169000000Y-87250000D03*
X140400000Y-93100000D03*
%TO.N,/KeyfobClose3v3*%
X140000000Y-92250000D03*
X167850000Y-80450000D03*
%TO.N,/WindowMotorEnable*%
X157030000Y-102400000D03*
X147450000Y-98450000D03*
X154200000Y-98450000D03*
%TO.N,/Motors Interface/G*%
X163500000Y-103700000D03*
X150700000Y-107100000D03*
%TO.N,/Motors Interface/Enable*%
X155040000Y-102260000D03*
X162640000Y-88160000D03*
X159310000Y-95190000D03*
X167560000Y-87280000D03*
%TO.N,/Motors Interface/CS*%
X160600000Y-101255000D03*
%TO.N,/~{pdrst2}*%
X136110000Y-96130000D03*
X127660000Y-109900000D03*
X134900000Y-99940000D03*
%TO.N,/~{pdrst1}*%
X128070000Y-81350000D03*
X133470000Y-81370000D03*
X127250000Y-96570000D03*
%TD*%
D17*
%TO.N,/SpiMasterInput*%
X149090000Y-86610000D02*
X148600000Y-87100000D01*
X149090000Y-77820000D02*
X149090000Y-86610000D01*
%TO.N,/SpiMasterOutput*%
X144760000Y-79810000D02*
X144760000Y-86320000D01*
X146870000Y-77150000D02*
X146870000Y-77700000D01*
X146870000Y-77700000D02*
X144760000Y-79810000D01*
%TO.N,/MirrorSpiChipSelect*%
X150125000Y-78765000D02*
X150125000Y-86975000D01*
X150740000Y-78150000D02*
X150125000Y-78765000D01*
%TD*%
%TA.AperFunction,Conductor*%
%TO.N,+3V3*%
G36*
X214242539Y-53620185D02*
G01*
X214288294Y-53672989D01*
X214299500Y-53724500D01*
X214299500Y-119595500D01*
X214279815Y-119662539D01*
X214227011Y-119708294D01*
X214175500Y-119719500D01*
X114824500Y-119719500D01*
X114757461Y-119699815D01*
X114711706Y-119647011D01*
X114700500Y-119595500D01*
X114700500Y-116063713D01*
X117909500Y-116063713D01*
X117909500Y-116276287D01*
X117942754Y-116486243D01*
X117962249Y-116546243D01*
X118008444Y-116688414D01*
X118104951Y-116877820D01*
X118229890Y-117049786D01*
X118380213Y-117200109D01*
X118552179Y-117325048D01*
X118552181Y-117325049D01*
X118552184Y-117325051D01*
X118741588Y-117421557D01*
X118943757Y-117487246D01*
X119153713Y-117520500D01*
X119153714Y-117520500D01*
X119366286Y-117520500D01*
X119366287Y-117520500D01*
X119576243Y-117487246D01*
X119778412Y-117421557D01*
X119967816Y-117325051D01*
X120022255Y-117285499D01*
X120139786Y-117200109D01*
X120139788Y-117200106D01*
X120139792Y-117200104D01*
X120290104Y-117049792D01*
X120290106Y-117049788D01*
X120290109Y-117049786D01*
X120415048Y-116877820D01*
X120415047Y-116877820D01*
X120415051Y-116877816D01*
X120511557Y-116688412D01*
X120577246Y-116486243D01*
X120610500Y-116276287D01*
X120610500Y-116063713D01*
X120577246Y-115853757D01*
X120511557Y-115651588D01*
X120416835Y-115465685D01*
X120415050Y-115462181D01*
X120380237Y-115414264D01*
X137729500Y-115414264D01*
X137729500Y-116925739D01*
X137743981Y-117017170D01*
X137743981Y-117017171D01*
X137800142Y-117127392D01*
X137800145Y-117127396D01*
X137887603Y-117214854D01*
X137887605Y-117214855D01*
X137887609Y-117214859D01*
X137997825Y-117271017D01*
X137997826Y-117271017D01*
X137997828Y-117271018D01*
X138032947Y-117276579D01*
X138089265Y-117285500D01*
X139350734Y-117285499D01*
X139350739Y-117285499D01*
X139350739Y-117285498D01*
X139396454Y-117278258D01*
X139442170Y-117271018D01*
X139442171Y-117271018D01*
X139442172Y-117271017D01*
X139442175Y-117271017D01*
X139552391Y-117214859D01*
X139639859Y-117127391D01*
X139696017Y-117017175D01*
X139696017Y-117017173D01*
X139696018Y-117017172D01*
X139696018Y-117017171D01*
X139699901Y-116992650D01*
X139710500Y-116925735D01*
X139710499Y-115947439D01*
X140229500Y-115947439D01*
X140229500Y-116392560D01*
X140267562Y-116583910D01*
X140267565Y-116583922D01*
X140342226Y-116764171D01*
X140342233Y-116764184D01*
X140450627Y-116926406D01*
X140450630Y-116926410D01*
X140588589Y-117064369D01*
X140588593Y-117064372D01*
X140750815Y-117172766D01*
X140750828Y-117172773D01*
X140931077Y-117247434D01*
X140931082Y-117247436D01*
X141049633Y-117271017D01*
X141122439Y-117285499D01*
X141122443Y-117285500D01*
X141122444Y-117285500D01*
X141317557Y-117285500D01*
X141317558Y-117285499D01*
X141508918Y-117247436D01*
X141689178Y-117172770D01*
X141851407Y-117064372D01*
X141989372Y-116926407D01*
X142097770Y-116764178D01*
X142104301Y-116748412D01*
X142172434Y-116583922D01*
X142172436Y-116583918D01*
X142210500Y-116392556D01*
X142210500Y-115947444D01*
X142210499Y-115947439D01*
X142729500Y-115947439D01*
X142729500Y-116392560D01*
X142767562Y-116583910D01*
X142767565Y-116583922D01*
X142842226Y-116764171D01*
X142842233Y-116764184D01*
X142950627Y-116926406D01*
X142950630Y-116926410D01*
X143088589Y-117064369D01*
X143088593Y-117064372D01*
X143250815Y-117172766D01*
X143250828Y-117172773D01*
X143431077Y-117247434D01*
X143431082Y-117247436D01*
X143549633Y-117271017D01*
X143622439Y-117285499D01*
X143622443Y-117285500D01*
X143622444Y-117285500D01*
X143817557Y-117285500D01*
X143817558Y-117285499D01*
X144008918Y-117247436D01*
X144189178Y-117172770D01*
X144351407Y-117064372D01*
X144489372Y-116926407D01*
X144597770Y-116764178D01*
X144604301Y-116748412D01*
X144672434Y-116583922D01*
X144672436Y-116583918D01*
X144710500Y-116392556D01*
X144710500Y-115947444D01*
X144710499Y-115947439D01*
X145229500Y-115947439D01*
X145229500Y-116392560D01*
X145267562Y-116583910D01*
X145267565Y-116583922D01*
X145342226Y-116764171D01*
X145342233Y-116764184D01*
X145450627Y-116926406D01*
X145450630Y-116926410D01*
X145588589Y-117064369D01*
X145588593Y-117064372D01*
X145750815Y-117172766D01*
X145750828Y-117172773D01*
X145931077Y-117247434D01*
X145931082Y-117247436D01*
X146049633Y-117271017D01*
X146122439Y-117285499D01*
X146122443Y-117285500D01*
X146122444Y-117285500D01*
X146317557Y-117285500D01*
X146317558Y-117285499D01*
X146508918Y-117247436D01*
X146689178Y-117172770D01*
X146851407Y-117064372D01*
X146989372Y-116926407D01*
X147097770Y-116764178D01*
X147104301Y-116748412D01*
X147172434Y-116583922D01*
X147172436Y-116583918D01*
X147210500Y-116392556D01*
X147210500Y-116123713D01*
X209549500Y-116123713D01*
X209549500Y-116336287D01*
X209582754Y-116546243D01*
X209628948Y-116688414D01*
X209648444Y-116748414D01*
X209744951Y-116937820D01*
X209869890Y-117109786D01*
X210020213Y-117260109D01*
X210192179Y-117385048D01*
X210192181Y-117385049D01*
X210192184Y-117385051D01*
X210381588Y-117481557D01*
X210583757Y-117547246D01*
X210793713Y-117580500D01*
X210793714Y-117580500D01*
X211006286Y-117580500D01*
X211006287Y-117580500D01*
X211216243Y-117547246D01*
X211418412Y-117481557D01*
X211607816Y-117385051D01*
X211629789Y-117369086D01*
X211779786Y-117260109D01*
X211779788Y-117260106D01*
X211779792Y-117260104D01*
X211930104Y-117109792D01*
X211930106Y-117109788D01*
X211930109Y-117109786D01*
X212055048Y-116937820D01*
X212055047Y-116937820D01*
X212055051Y-116937816D01*
X212151557Y-116748412D01*
X212217246Y-116546243D01*
X212250500Y-116336287D01*
X212250500Y-116123713D01*
X212217246Y-115913757D01*
X212151557Y-115711588D01*
X212055051Y-115522184D01*
X212055049Y-115522181D01*
X212055048Y-115522179D01*
X211930109Y-115350213D01*
X211779786Y-115199890D01*
X211607820Y-115074951D01*
X211418414Y-114978444D01*
X211418413Y-114978443D01*
X211418412Y-114978443D01*
X211216243Y-114912754D01*
X211216241Y-114912753D01*
X211216240Y-114912753D01*
X211054957Y-114887208D01*
X211006287Y-114879500D01*
X210793713Y-114879500D01*
X210745042Y-114887208D01*
X210583760Y-114912753D01*
X210381585Y-114978444D01*
X210192179Y-115074951D01*
X210020213Y-115199890D01*
X209869890Y-115350213D01*
X209744951Y-115522179D01*
X209648444Y-115711585D01*
X209582753Y-115913760D01*
X209577418Y-115947444D01*
X209549500Y-116123713D01*
X147210500Y-116123713D01*
X147210500Y-115947444D01*
X147172436Y-115756082D01*
X147154005Y-115711585D01*
X147097773Y-115575828D01*
X147097766Y-115575815D01*
X146989372Y-115413593D01*
X146989369Y-115413589D01*
X146851410Y-115275630D01*
X146851406Y-115275627D01*
X146689184Y-115167233D01*
X146689171Y-115167226D01*
X146508922Y-115092565D01*
X146508910Y-115092562D01*
X146317560Y-115054500D01*
X146317556Y-115054500D01*
X146122444Y-115054500D01*
X146122439Y-115054500D01*
X145931089Y-115092562D01*
X145931077Y-115092565D01*
X145750828Y-115167226D01*
X145750815Y-115167233D01*
X145588593Y-115275627D01*
X145588589Y-115275630D01*
X145450630Y-115413589D01*
X145450627Y-115413593D01*
X145342233Y-115575815D01*
X145342226Y-115575828D01*
X145267565Y-115756077D01*
X145267562Y-115756089D01*
X145229500Y-115947439D01*
X144710499Y-115947439D01*
X144672436Y-115756082D01*
X144654005Y-115711585D01*
X144597773Y-115575828D01*
X144597766Y-115575815D01*
X144489372Y-115413593D01*
X144489369Y-115413589D01*
X144351410Y-115275630D01*
X144351406Y-115275627D01*
X144189184Y-115167233D01*
X144189171Y-115167226D01*
X144008922Y-115092565D01*
X144008910Y-115092562D01*
X143817560Y-115054500D01*
X143817556Y-115054500D01*
X143622444Y-115054500D01*
X143622439Y-115054500D01*
X143431089Y-115092562D01*
X143431077Y-115092565D01*
X143250828Y-115167226D01*
X143250815Y-115167233D01*
X143088593Y-115275627D01*
X143088589Y-115275630D01*
X142950630Y-115413589D01*
X142950627Y-115413593D01*
X142842233Y-115575815D01*
X142842226Y-115575828D01*
X142767565Y-115756077D01*
X142767562Y-115756089D01*
X142729500Y-115947439D01*
X142210499Y-115947439D01*
X142172436Y-115756082D01*
X142154005Y-115711585D01*
X142097773Y-115575828D01*
X142097766Y-115575815D01*
X141989372Y-115413593D01*
X141989369Y-115413589D01*
X141851410Y-115275630D01*
X141851406Y-115275627D01*
X141689184Y-115167233D01*
X141689171Y-115167226D01*
X141508922Y-115092565D01*
X141508910Y-115092562D01*
X141317560Y-115054500D01*
X141317556Y-115054500D01*
X141122444Y-115054500D01*
X141122439Y-115054500D01*
X140931089Y-115092562D01*
X140931077Y-115092565D01*
X140750828Y-115167226D01*
X140750815Y-115167233D01*
X140588593Y-115275627D01*
X140588589Y-115275630D01*
X140450630Y-115413589D01*
X140450627Y-115413593D01*
X140342233Y-115575815D01*
X140342226Y-115575828D01*
X140267565Y-115756077D01*
X140267562Y-115756089D01*
X140229500Y-115947439D01*
X139710499Y-115947439D01*
X139710499Y-115414266D01*
X139710499Y-115414264D01*
X139710499Y-115414260D01*
X139696018Y-115322829D01*
X139696018Y-115322828D01*
X139696017Y-115322826D01*
X139696017Y-115322825D01*
X139639859Y-115212609D01*
X139639857Y-115212607D01*
X139639854Y-115212603D01*
X139552396Y-115125145D01*
X139552393Y-115125143D01*
X139552391Y-115125141D01*
X139442175Y-115068983D01*
X139442174Y-115068982D01*
X139442171Y-115068981D01*
X139350735Y-115054500D01*
X138089260Y-115054500D01*
X138089260Y-115054501D01*
X137997829Y-115068981D01*
X137997828Y-115068981D01*
X137887607Y-115125142D01*
X137887603Y-115125145D01*
X137800145Y-115212603D01*
X137800142Y-115212608D01*
X137743981Y-115322827D01*
X137743981Y-115322828D01*
X137729500Y-115414264D01*
X120380237Y-115414264D01*
X120290109Y-115290213D01*
X120139786Y-115139890D01*
X119967820Y-115014951D01*
X119778414Y-114918444D01*
X119778413Y-114918443D01*
X119778412Y-114918443D01*
X119576243Y-114852754D01*
X119576241Y-114852753D01*
X119576240Y-114852753D01*
X119414957Y-114827208D01*
X119366287Y-114819500D01*
X119153713Y-114819500D01*
X119105042Y-114827208D01*
X118943760Y-114852753D01*
X118741585Y-114918444D01*
X118552179Y-115014951D01*
X118380213Y-115139890D01*
X118229890Y-115290213D01*
X118104951Y-115462179D01*
X118008444Y-115651585D01*
X117942753Y-115853760D01*
X117933250Y-115913760D01*
X117909500Y-116063713D01*
X114700500Y-116063713D01*
X114700500Y-113162007D01*
X130179500Y-113162007D01*
X130179500Y-113277992D01*
X130209519Y-113390028D01*
X130238515Y-113440250D01*
X130267512Y-113490473D01*
X130349527Y-113572488D01*
X130449973Y-113630481D01*
X130562007Y-113660500D01*
X130562009Y-113660500D01*
X130677991Y-113660500D01*
X130677993Y-113660500D01*
X130790027Y-113630481D01*
X130890473Y-113572488D01*
X130972488Y-113490473D01*
X131030481Y-113390027D01*
X131060500Y-113277993D01*
X131060500Y-113162007D01*
X131030481Y-113049973D01*
X131025882Y-113042007D01*
X158159500Y-113042007D01*
X158159500Y-113157992D01*
X158189519Y-113270028D01*
X158194118Y-113277993D01*
X158247512Y-113370473D01*
X158329527Y-113452488D01*
X158429973Y-113510481D01*
X158542007Y-113540500D01*
X158542009Y-113540500D01*
X158657991Y-113540500D01*
X158657993Y-113540500D01*
X158770027Y-113510481D01*
X158870473Y-113452488D01*
X158952488Y-113370473D01*
X159010481Y-113270027D01*
X159040500Y-113157993D01*
X159040500Y-113042007D01*
X159010481Y-112929973D01*
X158952488Y-112829527D01*
X158870473Y-112747512D01*
X158820250Y-112718515D01*
X158770028Y-112689519D01*
X158714010Y-112674509D01*
X158657993Y-112659500D01*
X158542007Y-112659500D01*
X158429971Y-112689519D01*
X158329527Y-112747512D01*
X158329524Y-112747514D01*
X158247514Y-112829524D01*
X158247512Y-112829527D01*
X158189519Y-112929971D01*
X158159500Y-113042007D01*
X131025882Y-113042007D01*
X130972488Y-112949527D01*
X130890473Y-112867512D01*
X130824682Y-112829527D01*
X130790028Y-112809519D01*
X130734010Y-112794509D01*
X130677993Y-112779500D01*
X130562007Y-112779500D01*
X130449971Y-112809519D01*
X130349527Y-112867512D01*
X130349524Y-112867514D01*
X130267514Y-112949524D01*
X130267512Y-112949527D01*
X130209519Y-113049971D01*
X130179500Y-113162007D01*
X114700500Y-113162007D01*
X114700500Y-111042007D01*
X155959500Y-111042007D01*
X155959500Y-111157992D01*
X155989519Y-111270028D01*
X156018515Y-111320250D01*
X156047512Y-111370473D01*
X156129527Y-111452488D01*
X156229973Y-111510481D01*
X156342007Y-111540500D01*
X156342009Y-111540500D01*
X156457991Y-111540500D01*
X156457993Y-111540500D01*
X156570027Y-111510481D01*
X156670473Y-111452488D01*
X156752488Y-111370473D01*
X156810481Y-111270027D01*
X156840500Y-111157993D01*
X156840500Y-111042007D01*
X160159500Y-111042007D01*
X160159500Y-111157992D01*
X160189519Y-111270028D01*
X160218515Y-111320250D01*
X160247512Y-111370473D01*
X160329527Y-111452488D01*
X160429973Y-111510481D01*
X160542007Y-111540500D01*
X160542009Y-111540500D01*
X160657991Y-111540500D01*
X160657993Y-111540500D01*
X160770027Y-111510481D01*
X160870473Y-111452488D01*
X160952488Y-111370473D01*
X161010481Y-111270027D01*
X161040500Y-111157993D01*
X161040500Y-111042007D01*
X161010481Y-110929973D01*
X160952488Y-110829527D01*
X160870473Y-110747512D01*
X160806332Y-110710480D01*
X160770028Y-110689519D01*
X160698945Y-110670473D01*
X160657993Y-110659500D01*
X160542007Y-110659500D01*
X160429971Y-110689519D01*
X160329527Y-110747512D01*
X160329524Y-110747514D01*
X160247514Y-110829524D01*
X160247512Y-110829527D01*
X160189519Y-110929971D01*
X160159500Y-111042007D01*
X156840500Y-111042007D01*
X156810481Y-110929973D01*
X156752488Y-110829527D01*
X156670473Y-110747512D01*
X156606332Y-110710480D01*
X156570028Y-110689519D01*
X156498945Y-110670473D01*
X156457993Y-110659500D01*
X156342007Y-110659500D01*
X156229971Y-110689519D01*
X156129527Y-110747512D01*
X156129524Y-110747514D01*
X156047514Y-110829524D01*
X156047512Y-110829527D01*
X155989519Y-110929971D01*
X155959500Y-111042007D01*
X114700500Y-111042007D01*
X114700500Y-109842007D01*
X127219500Y-109842007D01*
X127219500Y-109957992D01*
X127249519Y-110070028D01*
X127262135Y-110091879D01*
X127307512Y-110170473D01*
X127389527Y-110252488D01*
X127489973Y-110310481D01*
X127602007Y-110340500D01*
X127602009Y-110340500D01*
X127717991Y-110340500D01*
X127717993Y-110340500D01*
X127830027Y-110310481D01*
X127930473Y-110252488D01*
X128012488Y-110170473D01*
X128017376Y-110162007D01*
X163749500Y-110162007D01*
X163749500Y-110277993D01*
X163758205Y-110310480D01*
X163779519Y-110390028D01*
X163808515Y-110440250D01*
X163837512Y-110490473D01*
X163919527Y-110572488D01*
X164019973Y-110630481D01*
X164132007Y-110660500D01*
X164132009Y-110660500D01*
X164247991Y-110660500D01*
X164247993Y-110660500D01*
X164360027Y-110630481D01*
X164460473Y-110572488D01*
X164542488Y-110490473D01*
X164600481Y-110390027D01*
X164613348Y-110342007D01*
X184759500Y-110342007D01*
X184759500Y-110457993D01*
X184774509Y-110514010D01*
X184789519Y-110570028D01*
X184818515Y-110620250D01*
X184847512Y-110670473D01*
X184929527Y-110752488D01*
X185029973Y-110810481D01*
X185142007Y-110840500D01*
X185142009Y-110840500D01*
X185257991Y-110840500D01*
X185257993Y-110840500D01*
X185370027Y-110810481D01*
X185470473Y-110752488D01*
X185552488Y-110670473D01*
X185610481Y-110570027D01*
X185640500Y-110457993D01*
X185640500Y-110342007D01*
X185610481Y-110229973D01*
X185552488Y-110129527D01*
X185470473Y-110047512D01*
X185420250Y-110018515D01*
X185370028Y-109989519D01*
X185314010Y-109974509D01*
X185257993Y-109959500D01*
X185142007Y-109959500D01*
X185029971Y-109989519D01*
X184929527Y-110047512D01*
X184929524Y-110047514D01*
X184847514Y-110129524D01*
X184847512Y-110129527D01*
X184789519Y-110229971D01*
X184767947Y-110310481D01*
X184759500Y-110342007D01*
X164613348Y-110342007D01*
X164630500Y-110277993D01*
X164630500Y-110162007D01*
X164600481Y-110049973D01*
X164542488Y-109949527D01*
X164460473Y-109867512D01*
X164382007Y-109822209D01*
X164360028Y-109809519D01*
X164304010Y-109794509D01*
X164247993Y-109779500D01*
X164132007Y-109779500D01*
X164019971Y-109809519D01*
X163919527Y-109867512D01*
X163919524Y-109867514D01*
X163837514Y-109949524D01*
X163837512Y-109949527D01*
X163779519Y-110049971D01*
X163768290Y-110091879D01*
X163749500Y-110162007D01*
X128017376Y-110162007D01*
X128070481Y-110070027D01*
X128100500Y-109957993D01*
X128100500Y-109842007D01*
X128070481Y-109729973D01*
X128012488Y-109629527D01*
X127930473Y-109547512D01*
X127880250Y-109518515D01*
X127830028Y-109489519D01*
X127774010Y-109474509D01*
X127717993Y-109459500D01*
X127602007Y-109459500D01*
X127489971Y-109489519D01*
X127389527Y-109547512D01*
X127389524Y-109547514D01*
X127307514Y-109629524D01*
X127307512Y-109629527D01*
X127249519Y-109729971D01*
X127219500Y-109842007D01*
X114700500Y-109842007D01*
X114700500Y-109342007D01*
X158159500Y-109342007D01*
X158159500Y-109457992D01*
X158189519Y-109570028D01*
X158218515Y-109620250D01*
X158247512Y-109670473D01*
X158329527Y-109752488D01*
X158429973Y-109810481D01*
X158542007Y-109840500D01*
X158542009Y-109840500D01*
X158657991Y-109840500D01*
X158657993Y-109840500D01*
X158770027Y-109810481D01*
X158870473Y-109752488D01*
X158952488Y-109670473D01*
X159010481Y-109570027D01*
X159040500Y-109457993D01*
X159040500Y-109342007D01*
X159010481Y-109229973D01*
X158952488Y-109129527D01*
X158870473Y-109047512D01*
X158789012Y-109000480D01*
X158770028Y-108989519D01*
X158710772Y-108973642D01*
X158657993Y-108959500D01*
X158542007Y-108959500D01*
X158429971Y-108989519D01*
X158329527Y-109047512D01*
X158329524Y-109047514D01*
X158247514Y-109129524D01*
X158247512Y-109129527D01*
X158189519Y-109229971D01*
X158159500Y-109342007D01*
X114700500Y-109342007D01*
X114700500Y-108532007D01*
X135129500Y-108532007D01*
X135129500Y-108647993D01*
X135135531Y-108670500D01*
X135159519Y-108760028D01*
X135165293Y-108770028D01*
X135217512Y-108860473D01*
X135299527Y-108942488D01*
X135399973Y-109000481D01*
X135512007Y-109030500D01*
X135512009Y-109030500D01*
X135627991Y-109030500D01*
X135627993Y-109030500D01*
X135740027Y-109000481D01*
X135840473Y-108942488D01*
X135922488Y-108860473D01*
X135980481Y-108760027D01*
X136010500Y-108647993D01*
X136010500Y-108532007D01*
X135980481Y-108419973D01*
X135922488Y-108319527D01*
X135840473Y-108237512D01*
X135775501Y-108200000D01*
X135740028Y-108179519D01*
X135711992Y-108172007D01*
X181479500Y-108172007D01*
X181479500Y-108287993D01*
X181490628Y-108329524D01*
X181509519Y-108400028D01*
X181521035Y-108419973D01*
X181567512Y-108500473D01*
X181649527Y-108582488D01*
X181749973Y-108640481D01*
X181862007Y-108670500D01*
X181862009Y-108670500D01*
X181977991Y-108670500D01*
X181977993Y-108670500D01*
X182090027Y-108640481D01*
X182190473Y-108582488D01*
X182272488Y-108500473D01*
X182330481Y-108400027D01*
X182360500Y-108287993D01*
X182360500Y-108172007D01*
X182330481Y-108059973D01*
X182272488Y-107959527D01*
X182190473Y-107877512D01*
X182118295Y-107835839D01*
X182090028Y-107819519D01*
X182020263Y-107800826D01*
X181977993Y-107789500D01*
X181862007Y-107789500D01*
X181749971Y-107819519D01*
X181649527Y-107877512D01*
X181649524Y-107877514D01*
X181567514Y-107959524D01*
X181567512Y-107959527D01*
X181509519Y-108059971D01*
X181479500Y-108172007D01*
X135711992Y-108172007D01*
X135654737Y-108156666D01*
X135627993Y-108149500D01*
X135512007Y-108149500D01*
X135399971Y-108179519D01*
X135299527Y-108237512D01*
X135299524Y-108237514D01*
X135217514Y-108319524D01*
X135217512Y-108319527D01*
X135159519Y-108419971D01*
X135137950Y-108500472D01*
X135129500Y-108532007D01*
X114700500Y-108532007D01*
X114700500Y-106461995D01*
X116769500Y-106461995D01*
X116769500Y-106698004D01*
X116769501Y-106698020D01*
X116800306Y-106932010D01*
X116861394Y-107159993D01*
X116951714Y-107378045D01*
X116951719Y-107378056D01*
X116994693Y-107452488D01*
X117069727Y-107582450D01*
X117069729Y-107582453D01*
X117069730Y-107582454D01*
X117213406Y-107769697D01*
X117213412Y-107769704D01*
X117380295Y-107936587D01*
X117380302Y-107936593D01*
X117423874Y-107970027D01*
X117567550Y-108080273D01*
X117687455Y-108149500D01*
X117771943Y-108198280D01*
X117771948Y-108198282D01*
X117771951Y-108198284D01*
X117990007Y-108288606D01*
X118217986Y-108349693D01*
X118451989Y-108380500D01*
X118451996Y-108380500D01*
X118688004Y-108380500D01*
X118688011Y-108380500D01*
X118922014Y-108349693D01*
X119149993Y-108288606D01*
X119368049Y-108198284D01*
X119572450Y-108080273D01*
X119759699Y-107936592D01*
X119926592Y-107769699D01*
X120070273Y-107582450D01*
X120188284Y-107378049D01*
X120278606Y-107159993D01*
X120339693Y-106932014D01*
X120344511Y-106895419D01*
X141374000Y-106895419D01*
X141374000Y-107064784D01*
X141400495Y-107232067D01*
X141400495Y-107232070D01*
X141452830Y-107393140D01*
X141512618Y-107510480D01*
X141529722Y-107544049D01*
X141629273Y-107681069D01*
X141749033Y-107800829D01*
X141886053Y-107900380D01*
X142002136Y-107959527D01*
X142036961Y-107977271D01*
X142198032Y-108029606D01*
X142198033Y-108029606D01*
X142198036Y-108029607D01*
X142365317Y-108056102D01*
X142365318Y-108056102D01*
X142534682Y-108056102D01*
X142534683Y-108056102D01*
X142701964Y-108029607D01*
X142701967Y-108029606D01*
X142701968Y-108029606D01*
X142863038Y-107977271D01*
X142863038Y-107977270D01*
X142863041Y-107977270D01*
X143013947Y-107900380D01*
X143150967Y-107800829D01*
X143209789Y-107742007D01*
X205359500Y-107742007D01*
X205359500Y-107857992D01*
X205389519Y-107970028D01*
X205393701Y-107977271D01*
X205447512Y-108070473D01*
X205447514Y-108070475D01*
X205489358Y-108112319D01*
X205522843Y-108173642D01*
X205517859Y-108243334D01*
X205489358Y-108287681D01*
X205447514Y-108329524D01*
X205447512Y-108329527D01*
X205389519Y-108429971D01*
X205359500Y-108542007D01*
X205359500Y-108657992D01*
X205389519Y-108770028D01*
X205418515Y-108820250D01*
X205447512Y-108870473D01*
X205447514Y-108870475D01*
X205489358Y-108912319D01*
X205522843Y-108973642D01*
X205517859Y-109043334D01*
X205489358Y-109087681D01*
X205447514Y-109129524D01*
X205447512Y-109129527D01*
X205389519Y-109229971D01*
X205359500Y-109342007D01*
X205359500Y-109457992D01*
X205389519Y-109570028D01*
X205418515Y-109620250D01*
X205447512Y-109670473D01*
X205447514Y-109670475D01*
X205535274Y-109758235D01*
X205534092Y-109759416D01*
X205569606Y-109808056D01*
X205573758Y-109877802D01*
X205539544Y-109938721D01*
X205530360Y-109946678D01*
X205447514Y-110029524D01*
X205447512Y-110029527D01*
X205389519Y-110129971D01*
X205359500Y-110242007D01*
X205359500Y-110357992D01*
X205389519Y-110470028D01*
X205418515Y-110520250D01*
X205447512Y-110570473D01*
X205529527Y-110652488D01*
X205629973Y-110710481D01*
X205742007Y-110740500D01*
X205742009Y-110740500D01*
X205857991Y-110740500D01*
X205857993Y-110740500D01*
X205970027Y-110710481D01*
X206070473Y-110652488D01*
X206152488Y-110570473D01*
X206210481Y-110470027D01*
X206240500Y-110357993D01*
X206240500Y-110242007D01*
X206210481Y-110129973D01*
X206210223Y-110129527D01*
X206188487Y-110091879D01*
X206152488Y-110029527D01*
X206070473Y-109947512D01*
X206064726Y-109941765D01*
X206065908Y-109940582D01*
X206030397Y-109891955D01*
X206026238Y-109822209D01*
X206060447Y-109761287D01*
X206069640Y-109753320D01*
X206070470Y-109752489D01*
X206070473Y-109752488D01*
X206152488Y-109670473D01*
X206210481Y-109570027D01*
X206240500Y-109457993D01*
X206240500Y-109342007D01*
X206210481Y-109229973D01*
X206152488Y-109129527D01*
X206110642Y-109087681D01*
X206077157Y-109026358D01*
X206082141Y-108956666D01*
X206110642Y-108912319D01*
X206152488Y-108870473D01*
X206210481Y-108770027D01*
X206240500Y-108657993D01*
X206240500Y-108542007D01*
X206210481Y-108429973D01*
X206152488Y-108329527D01*
X206110642Y-108287681D01*
X206077157Y-108226358D01*
X206082141Y-108156666D01*
X206110642Y-108112319D01*
X206152488Y-108070473D01*
X206210481Y-107970027D01*
X206240500Y-107857993D01*
X206240500Y-107742007D01*
X206210481Y-107629973D01*
X206152488Y-107529527D01*
X206070473Y-107447512D01*
X206020250Y-107418515D01*
X205970028Y-107389519D01*
X205898945Y-107370473D01*
X205857993Y-107359500D01*
X205742007Y-107359500D01*
X205629971Y-107389519D01*
X205529527Y-107447512D01*
X205529524Y-107447514D01*
X205447514Y-107529524D01*
X205447512Y-107529527D01*
X205389519Y-107629971D01*
X205359500Y-107742007D01*
X143209789Y-107742007D01*
X143270727Y-107681069D01*
X143370278Y-107544049D01*
X143447168Y-107393143D01*
X143482275Y-107285096D01*
X143499504Y-107232070D01*
X143499504Y-107232069D01*
X143499505Y-107232066D01*
X143526000Y-107064785D01*
X143526000Y-107042007D01*
X150259500Y-107042007D01*
X150259500Y-107157992D01*
X150289519Y-107270028D01*
X150298219Y-107285096D01*
X150347512Y-107370473D01*
X150429527Y-107452488D01*
X150529973Y-107510481D01*
X150642007Y-107540500D01*
X150642009Y-107540500D01*
X150757991Y-107540500D01*
X150757993Y-107540500D01*
X150870027Y-107510481D01*
X150970473Y-107452488D01*
X151052488Y-107370473D01*
X151110481Y-107270027D01*
X151140500Y-107157993D01*
X151140500Y-107042007D01*
X151110481Y-106929973D01*
X151052488Y-106829527D01*
X151025642Y-106802681D01*
X150992157Y-106741358D01*
X150997141Y-106671666D01*
X151025642Y-106627319D01*
X151042481Y-106610480D01*
X151082488Y-106570473D01*
X151140481Y-106470027D01*
X151170500Y-106357993D01*
X151170500Y-106242007D01*
X151140481Y-106129973D01*
X151105871Y-106070028D01*
X151104124Y-106067001D01*
X151087650Y-105999101D01*
X151104124Y-105942999D01*
X151140478Y-105880032D01*
X151140479Y-105880030D01*
X151140481Y-105880027D01*
X151170500Y-105767993D01*
X151170500Y-105652007D01*
X151140481Y-105539973D01*
X151132620Y-105526358D01*
X151101237Y-105472001D01*
X151084763Y-105404102D01*
X151101237Y-105347999D01*
X151140478Y-105280032D01*
X151140479Y-105280030D01*
X151140481Y-105280027D01*
X151170500Y-105167993D01*
X151170500Y-105142007D01*
X163039500Y-105142007D01*
X163039500Y-105257993D01*
X163045405Y-105280030D01*
X163069519Y-105370028D01*
X163093936Y-105412319D01*
X163127512Y-105470473D01*
X163209527Y-105552488D01*
X163309973Y-105610481D01*
X163422007Y-105640500D01*
X163422009Y-105640500D01*
X163537991Y-105640500D01*
X163537993Y-105640500D01*
X163650027Y-105610481D01*
X163750473Y-105552488D01*
X163832488Y-105470473D01*
X163890481Y-105370027D01*
X163920500Y-105257993D01*
X163920500Y-105142007D01*
X163890481Y-105029973D01*
X163832488Y-104929527D01*
X163750473Y-104847512D01*
X163680975Y-104807387D01*
X163650028Y-104789519D01*
X163594010Y-104774509D01*
X163537993Y-104759500D01*
X163422007Y-104759500D01*
X163309971Y-104789519D01*
X163209527Y-104847512D01*
X163209524Y-104847514D01*
X163127514Y-104929524D01*
X163127512Y-104929527D01*
X163069519Y-105029971D01*
X163056187Y-105079730D01*
X163039500Y-105142007D01*
X151170500Y-105142007D01*
X151170500Y-105052007D01*
X151140481Y-104939973D01*
X151082488Y-104839527D01*
X151000473Y-104757512D01*
X150946513Y-104726358D01*
X150900028Y-104699519D01*
X150803451Y-104673642D01*
X150787993Y-104669500D01*
X150672007Y-104669500D01*
X150559971Y-104699519D01*
X150459527Y-104757512D01*
X150459524Y-104757514D01*
X150377514Y-104839524D01*
X150377512Y-104839527D01*
X150319519Y-104939971D01*
X150313693Y-104961716D01*
X150289500Y-105052007D01*
X150289500Y-105167993D01*
X150313615Y-105257993D01*
X150319520Y-105280029D01*
X150319520Y-105280030D01*
X150358763Y-105348000D01*
X150375236Y-105415900D01*
X150358763Y-105472000D01*
X150319520Y-105539969D01*
X150319520Y-105539970D01*
X150319519Y-105539972D01*
X150319519Y-105539973D01*
X150289500Y-105652007D01*
X150289500Y-105767993D01*
X150318146Y-105874904D01*
X150319520Y-105880029D01*
X150319520Y-105880030D01*
X150355876Y-105943000D01*
X150372349Y-106010900D01*
X150355876Y-106067000D01*
X150319520Y-106129969D01*
X150319520Y-106129970D01*
X150319519Y-106129972D01*
X150319519Y-106129973D01*
X150289500Y-106242007D01*
X150289500Y-106357993D01*
X150292725Y-106370028D01*
X150319519Y-106470028D01*
X150337768Y-106501635D01*
X150377512Y-106570473D01*
X150377514Y-106570475D01*
X150404357Y-106597318D01*
X150437842Y-106658641D01*
X150432858Y-106728333D01*
X150404359Y-106772679D01*
X150347512Y-106829527D01*
X150289519Y-106929971D01*
X150259500Y-107042007D01*
X143526000Y-107042007D01*
X143526000Y-106895419D01*
X143499505Y-106728138D01*
X143499504Y-106728134D01*
X143499504Y-106728133D01*
X143447169Y-106567063D01*
X143397954Y-106470473D01*
X143370278Y-106416155D01*
X143270727Y-106279135D01*
X143150967Y-106159375D01*
X143013947Y-106059824D01*
X142955357Y-106029971D01*
X142863038Y-105982932D01*
X142701967Y-105930597D01*
X142576503Y-105910725D01*
X142534683Y-105904102D01*
X142365317Y-105904102D01*
X142309556Y-105912933D01*
X142198034Y-105930597D01*
X142198031Y-105930597D01*
X142036961Y-105982932D01*
X141886052Y-106059824D01*
X141807877Y-106116621D01*
X141749033Y-106159375D01*
X141749031Y-106159377D01*
X141749030Y-106159377D01*
X141629275Y-106279132D01*
X141629275Y-106279133D01*
X141629273Y-106279135D01*
X141606499Y-106310481D01*
X141529722Y-106416154D01*
X141452830Y-106567063D01*
X141400495Y-106728133D01*
X141400495Y-106728136D01*
X141374000Y-106895419D01*
X120344511Y-106895419D01*
X120370500Y-106698011D01*
X120370500Y-106461989D01*
X120339693Y-106227986D01*
X120278606Y-106000007D01*
X120188284Y-105781951D01*
X120188282Y-105781948D01*
X120188280Y-105781943D01*
X120134164Y-105688213D01*
X120070273Y-105577550D01*
X119974310Y-105452488D01*
X119926593Y-105390302D01*
X119926587Y-105390295D01*
X119759704Y-105223412D01*
X119759697Y-105223406D01*
X119572454Y-105079730D01*
X119572453Y-105079729D01*
X119572450Y-105079727D01*
X119486270Y-105029971D01*
X119368056Y-104961719D01*
X119368045Y-104961714D01*
X119149993Y-104871394D01*
X118993744Y-104829527D01*
X118922014Y-104810307D01*
X118922013Y-104810306D01*
X118922010Y-104810306D01*
X118688020Y-104779501D01*
X118688017Y-104779500D01*
X118688011Y-104779500D01*
X118451989Y-104779500D01*
X118451983Y-104779500D01*
X118451979Y-104779501D01*
X118217989Y-104810306D01*
X117990006Y-104871394D01*
X117771954Y-104961714D01*
X117771943Y-104961719D01*
X117567545Y-105079730D01*
X117380302Y-105223406D01*
X117380295Y-105223412D01*
X117213412Y-105390295D01*
X117213406Y-105390302D01*
X117069730Y-105577545D01*
X116951719Y-105781943D01*
X116951714Y-105781954D01*
X116861394Y-106000006D01*
X116800306Y-106227989D01*
X116769501Y-106461979D01*
X116769500Y-106461995D01*
X114700500Y-106461995D01*
X114700500Y-103442007D01*
X135959500Y-103442007D01*
X135959500Y-103557992D01*
X135989519Y-103670028D01*
X136018515Y-103720250D01*
X136047512Y-103770473D01*
X136047514Y-103770475D01*
X136089358Y-103812319D01*
X136122843Y-103873642D01*
X136117859Y-103943334D01*
X136089358Y-103987681D01*
X136047514Y-104029524D01*
X136047512Y-104029527D01*
X135989519Y-104129971D01*
X135986294Y-104142009D01*
X135959500Y-104242007D01*
X135959500Y-104357993D01*
X135962725Y-104370028D01*
X135989519Y-104470028D01*
X136018515Y-104520250D01*
X136047512Y-104570473D01*
X136047514Y-104570475D01*
X136089358Y-104612319D01*
X136122843Y-104673642D01*
X136117859Y-104743334D01*
X136089358Y-104787681D01*
X136047514Y-104829524D01*
X136047512Y-104829527D01*
X135989519Y-104929971D01*
X135962725Y-105029971D01*
X135959500Y-105042007D01*
X135959500Y-105157993D01*
X135974509Y-105214010D01*
X135989519Y-105270028D01*
X135995294Y-105280030D01*
X136047512Y-105370473D01*
X136047514Y-105370475D01*
X136089358Y-105412319D01*
X136122843Y-105473642D01*
X136117859Y-105543334D01*
X136089358Y-105587681D01*
X136047514Y-105629524D01*
X136047512Y-105629527D01*
X135989519Y-105729971D01*
X135975591Y-105781954D01*
X135959500Y-105842007D01*
X135959500Y-105957993D01*
X135972095Y-106005000D01*
X135989519Y-106070028D01*
X136018515Y-106120250D01*
X136047512Y-106170473D01*
X136129527Y-106252488D01*
X136229973Y-106310481D01*
X136342007Y-106340500D01*
X136342009Y-106340500D01*
X136457991Y-106340500D01*
X136457993Y-106340500D01*
X136570027Y-106310481D01*
X136670473Y-106252488D01*
X136752488Y-106170473D01*
X136810481Y-106070027D01*
X136840500Y-105957993D01*
X136840500Y-105842007D01*
X136810481Y-105729973D01*
X136752488Y-105629527D01*
X136710642Y-105587681D01*
X136677157Y-105526358D01*
X136682141Y-105456666D01*
X136710642Y-105412319D01*
X136718859Y-105404102D01*
X136752488Y-105370473D01*
X136810481Y-105270027D01*
X136840500Y-105157993D01*
X136840500Y-105042007D01*
X136810481Y-104929973D01*
X136810223Y-104929527D01*
X136776660Y-104871394D01*
X136752488Y-104829527D01*
X136710642Y-104787681D01*
X136677157Y-104726358D01*
X136682141Y-104656666D01*
X136710642Y-104612319D01*
X136730348Y-104592613D01*
X136752488Y-104570473D01*
X136810481Y-104470027D01*
X136840500Y-104357993D01*
X136840500Y-104242007D01*
X136813705Y-104142007D01*
X181259500Y-104142007D01*
X181259500Y-104257992D01*
X181289519Y-104370028D01*
X181318515Y-104420250D01*
X181347512Y-104470473D01*
X181429527Y-104552488D01*
X181499025Y-104592613D01*
X181547240Y-104643181D01*
X181560462Y-104711788D01*
X181534494Y-104776653D01*
X181499025Y-104807387D01*
X181429527Y-104847512D01*
X181429524Y-104847514D01*
X181347514Y-104929524D01*
X181347512Y-104929527D01*
X181289519Y-105029971D01*
X181276187Y-105079730D01*
X181259500Y-105142007D01*
X181259500Y-105257993D01*
X181265405Y-105280030D01*
X181289519Y-105370028D01*
X181313936Y-105412319D01*
X181347512Y-105470473D01*
X181429527Y-105552488D01*
X181490483Y-105587681D01*
X181499025Y-105592613D01*
X181547240Y-105643181D01*
X181560462Y-105711788D01*
X181534494Y-105776653D01*
X181499025Y-105807387D01*
X181429527Y-105847512D01*
X181429524Y-105847514D01*
X181347514Y-105929524D01*
X181347512Y-105929527D01*
X181289519Y-106029971D01*
X181262725Y-106129970D01*
X181259500Y-106142007D01*
X181259500Y-106257993D01*
X181265165Y-106279135D01*
X181289519Y-106370028D01*
X181316151Y-106416154D01*
X181347512Y-106470473D01*
X181429527Y-106552488D01*
X181529973Y-106610481D01*
X181642007Y-106640500D01*
X181642009Y-106640500D01*
X181757991Y-106640500D01*
X181757993Y-106640500D01*
X181870027Y-106610481D01*
X181970473Y-106552488D01*
X182052488Y-106470473D01*
X182110481Y-106370027D01*
X182140500Y-106257993D01*
X182140500Y-106142007D01*
X182110481Y-106029973D01*
X182110223Y-106029527D01*
X182092657Y-105999101D01*
X182052488Y-105929527D01*
X181970473Y-105847512D01*
X181900974Y-105807386D01*
X181852759Y-105756820D01*
X181839537Y-105688213D01*
X181865505Y-105623348D01*
X181900975Y-105592613D01*
X181909517Y-105587681D01*
X181970473Y-105552488D01*
X182052488Y-105470473D01*
X182110481Y-105370027D01*
X182140500Y-105257993D01*
X182140500Y-105142007D01*
X182110481Y-105029973D01*
X182052488Y-104929527D01*
X181970473Y-104847512D01*
X181900974Y-104807386D01*
X181852759Y-104756820D01*
X181839537Y-104688213D01*
X181865505Y-104623348D01*
X181900975Y-104592613D01*
X181970473Y-104552488D01*
X182052488Y-104470473D01*
X182110481Y-104370027D01*
X182140500Y-104257993D01*
X182140500Y-104142007D01*
X182110481Y-104029973D01*
X182110223Y-104029527D01*
X182102710Y-104016513D01*
X182052488Y-103929527D01*
X181970473Y-103847512D01*
X181920250Y-103818515D01*
X181870028Y-103789519D01*
X181798945Y-103770473D01*
X181757993Y-103759500D01*
X181642007Y-103759500D01*
X181529971Y-103789519D01*
X181429527Y-103847512D01*
X181429524Y-103847514D01*
X181347514Y-103929524D01*
X181347512Y-103929527D01*
X181289519Y-104029971D01*
X181259500Y-104142007D01*
X136813705Y-104142007D01*
X136810481Y-104129973D01*
X136752488Y-104029527D01*
X136710642Y-103987681D01*
X136677157Y-103926358D01*
X136682141Y-103856666D01*
X136710642Y-103812319D01*
X136752488Y-103770473D01*
X136810481Y-103670027D01*
X136817989Y-103642007D01*
X163059500Y-103642007D01*
X163059500Y-103757993D01*
X163067947Y-103789519D01*
X163089519Y-103870028D01*
X163091606Y-103873642D01*
X163147512Y-103970473D01*
X163229527Y-104052488D01*
X163329973Y-104110481D01*
X163442007Y-104140500D01*
X163442009Y-104140500D01*
X163557991Y-104140500D01*
X163557993Y-104140500D01*
X163670027Y-104110481D01*
X163770473Y-104052488D01*
X163852488Y-103970473D01*
X163910481Y-103870027D01*
X163940500Y-103757993D01*
X163940500Y-103642007D01*
X163910481Y-103529973D01*
X163852488Y-103429527D01*
X163770473Y-103347512D01*
X163706332Y-103310480D01*
X163670028Y-103289519D01*
X163598945Y-103270473D01*
X163557993Y-103259500D01*
X163442007Y-103259500D01*
X163329971Y-103289519D01*
X163229527Y-103347512D01*
X163229524Y-103347514D01*
X163147514Y-103429524D01*
X163147512Y-103429527D01*
X163089519Y-103529971D01*
X163082012Y-103557990D01*
X163059500Y-103642007D01*
X136817989Y-103642007D01*
X136840500Y-103557993D01*
X136840500Y-103442007D01*
X136810481Y-103329973D01*
X136752488Y-103229527D01*
X136670473Y-103147512D01*
X136620250Y-103118515D01*
X136570028Y-103089519D01*
X136514010Y-103074509D01*
X136457993Y-103059500D01*
X136342007Y-103059500D01*
X136229971Y-103089519D01*
X136129527Y-103147512D01*
X136129524Y-103147514D01*
X136047514Y-103229524D01*
X136047512Y-103229527D01*
X135989519Y-103329971D01*
X135959500Y-103442007D01*
X114700500Y-103442007D01*
X114700500Y-102302007D01*
X143019500Y-102302007D01*
X143019500Y-102417993D01*
X143025935Y-102442009D01*
X143049519Y-102530028D01*
X143065665Y-102557993D01*
X143107512Y-102630473D01*
X143189527Y-102712488D01*
X143276513Y-102762710D01*
X143289962Y-102770475D01*
X143289973Y-102770481D01*
X143402007Y-102800500D01*
X143402009Y-102800500D01*
X143517991Y-102800500D01*
X143517993Y-102800500D01*
X143630027Y-102770481D01*
X143730473Y-102712488D01*
X143812488Y-102630473D01*
X143870481Y-102530027D01*
X143900500Y-102417993D01*
X143900500Y-102302007D01*
X143870481Y-102189973D01*
X143868461Y-102186475D01*
X143852017Y-102157993D01*
X143812488Y-102089527D01*
X143730473Y-102007512D01*
X143656736Y-101964939D01*
X143643447Y-101957267D01*
X143643445Y-101957265D01*
X143630030Y-101949520D01*
X143630027Y-101949519D01*
X143517993Y-101919500D01*
X143402007Y-101919500D01*
X143289971Y-101949519D01*
X143189527Y-102007512D01*
X143189524Y-102007514D01*
X143107514Y-102089524D01*
X143107512Y-102089527D01*
X143049519Y-102189971D01*
X143027947Y-102270481D01*
X143019500Y-102302007D01*
X114700500Y-102302007D01*
X114700500Y-101858007D01*
X151339500Y-101858007D01*
X151339500Y-101973993D01*
X151343662Y-101989527D01*
X151369519Y-102086028D01*
X151371796Y-102089971D01*
X151427512Y-102186473D01*
X151509527Y-102268488D01*
X151609973Y-102326481D01*
X151722007Y-102356500D01*
X151722009Y-102356500D01*
X151837991Y-102356500D01*
X151837993Y-102356500D01*
X151950027Y-102326481D01*
X152050473Y-102268488D01*
X152132488Y-102186473D01*
X152190481Y-102086027D01*
X152220500Y-101973993D01*
X152220500Y-101858007D01*
X152220232Y-101857007D01*
X152659500Y-101857007D01*
X152659500Y-101972993D01*
X152663930Y-101989527D01*
X152689519Y-102085028D01*
X152715211Y-102129527D01*
X152747512Y-102185473D01*
X152829527Y-102267488D01*
X152889319Y-102302009D01*
X152917003Y-102317993D01*
X152929973Y-102325481D01*
X153042007Y-102355500D01*
X153042009Y-102355500D01*
X153157991Y-102355500D01*
X153157993Y-102355500D01*
X153270027Y-102325481D01*
X153370473Y-102267488D01*
X153452488Y-102185473D01*
X153498491Y-102105793D01*
X153549057Y-102057579D01*
X153617664Y-102044356D01*
X153682529Y-102070324D01*
X153713264Y-102105795D01*
X153727509Y-102130469D01*
X153727511Y-102130471D01*
X153727512Y-102130473D01*
X153809527Y-102212488D01*
X153896513Y-102262710D01*
X153909186Y-102270027D01*
X153909973Y-102270481D01*
X154022007Y-102300500D01*
X154022009Y-102300500D01*
X154137991Y-102300500D01*
X154137993Y-102300500D01*
X154250027Y-102270481D01*
X154350473Y-102212488D01*
X154387819Y-102175142D01*
X154449142Y-102141657D01*
X154518834Y-102146641D01*
X154574767Y-102188513D01*
X154599184Y-102253977D01*
X154599500Y-102262823D01*
X154599500Y-102317993D01*
X154605935Y-102342009D01*
X154629519Y-102430028D01*
X154645665Y-102457993D01*
X154687512Y-102530473D01*
X154769527Y-102612488D01*
X154856513Y-102662710D01*
X154869962Y-102670475D01*
X154869973Y-102670481D01*
X154982007Y-102700500D01*
X154982009Y-102700500D01*
X155097991Y-102700500D01*
X155097993Y-102700500D01*
X155210027Y-102670481D01*
X155310473Y-102612488D01*
X155392488Y-102530473D01*
X155450481Y-102430027D01*
X155474066Y-102342007D01*
X156589500Y-102342007D01*
X156589500Y-102457992D01*
X156619519Y-102570028D01*
X156644032Y-102612485D01*
X156677512Y-102670473D01*
X156759527Y-102752488D01*
X156859973Y-102810481D01*
X156972007Y-102840500D01*
X156972009Y-102840500D01*
X157087991Y-102840500D01*
X157087993Y-102840500D01*
X157200027Y-102810481D01*
X157300473Y-102752488D01*
X157382488Y-102670473D01*
X157440481Y-102570027D01*
X157470500Y-102457993D01*
X157470500Y-102442007D01*
X164059500Y-102442007D01*
X164059500Y-102557993D01*
X164062725Y-102570028D01*
X164089519Y-102670028D01*
X164089781Y-102670481D01*
X164147512Y-102770473D01*
X164229527Y-102852488D01*
X164329973Y-102910481D01*
X164442007Y-102940500D01*
X164442009Y-102940500D01*
X164557991Y-102940500D01*
X164557993Y-102940500D01*
X164670027Y-102910481D01*
X164770473Y-102852488D01*
X164780954Y-102842007D01*
X181859500Y-102842007D01*
X181859500Y-102957992D01*
X181889519Y-103070028D01*
X181918515Y-103120250D01*
X181947512Y-103170473D01*
X182029527Y-103252488D01*
X182129973Y-103310481D01*
X182242007Y-103340500D01*
X182242009Y-103340500D01*
X182357991Y-103340500D01*
X182357993Y-103340500D01*
X182470027Y-103310481D01*
X182570473Y-103252488D01*
X182652488Y-103170473D01*
X182710481Y-103070027D01*
X182740500Y-102957993D01*
X182740500Y-102942007D01*
X185959500Y-102942007D01*
X185959500Y-103057993D01*
X185962725Y-103070028D01*
X185989519Y-103170028D01*
X186018515Y-103220250D01*
X186047512Y-103270473D01*
X186129527Y-103352488D01*
X186229973Y-103410481D01*
X186342007Y-103440500D01*
X186342009Y-103440500D01*
X186457991Y-103440500D01*
X186457993Y-103440500D01*
X186570027Y-103410481D01*
X186670473Y-103352488D01*
X186752488Y-103270473D01*
X186810481Y-103170027D01*
X186840500Y-103057993D01*
X186840500Y-102942007D01*
X186810481Y-102829973D01*
X186752488Y-102729527D01*
X186670473Y-102647512D01*
X186609810Y-102612488D01*
X186570028Y-102589519D01*
X186514010Y-102574509D01*
X186457993Y-102559500D01*
X186342007Y-102559500D01*
X186229971Y-102589519D01*
X186129527Y-102647512D01*
X186129524Y-102647514D01*
X186047514Y-102729524D01*
X186047512Y-102729527D01*
X185989519Y-102829971D01*
X185967947Y-102910481D01*
X185959500Y-102942007D01*
X182740500Y-102942007D01*
X182740500Y-102842007D01*
X182710481Y-102729973D01*
X182710223Y-102729527D01*
X182700384Y-102712485D01*
X182652488Y-102629527D01*
X182570473Y-102547512D01*
X182506332Y-102510480D01*
X182470028Y-102489519D01*
X182414010Y-102474509D01*
X182357993Y-102459500D01*
X182242007Y-102459500D01*
X182129971Y-102489519D01*
X182029527Y-102547512D01*
X182029524Y-102547514D01*
X181947514Y-102629524D01*
X181947512Y-102629527D01*
X181889519Y-102729971D01*
X181859500Y-102842007D01*
X164780954Y-102842007D01*
X164852488Y-102770473D01*
X164910481Y-102670027D01*
X164940500Y-102557993D01*
X164940500Y-102442007D01*
X164910481Y-102329973D01*
X164852488Y-102229527D01*
X164770473Y-102147512D01*
X164760332Y-102141657D01*
X164759657Y-102141267D01*
X164759656Y-102141267D01*
X164670028Y-102089519D01*
X164598389Y-102070324D01*
X164557993Y-102059500D01*
X164442007Y-102059500D01*
X164329971Y-102089519D01*
X164229527Y-102147512D01*
X164229524Y-102147514D01*
X164147514Y-102229524D01*
X164147512Y-102229527D01*
X164089519Y-102329971D01*
X164065935Y-102417991D01*
X164059500Y-102442007D01*
X157470500Y-102442007D01*
X157470500Y-102342007D01*
X157440481Y-102229973D01*
X157440223Y-102229527D01*
X157424335Y-102202007D01*
X157382488Y-102129527D01*
X157300473Y-102047512D01*
X157290938Y-102042007D01*
X208859500Y-102042007D01*
X208859500Y-102157992D01*
X208889519Y-102270028D01*
X208889781Y-102270481D01*
X208947512Y-102370473D01*
X209029527Y-102452488D01*
X209129973Y-102510481D01*
X209242007Y-102540500D01*
X209242009Y-102540500D01*
X209357991Y-102540500D01*
X209357993Y-102540500D01*
X209470027Y-102510481D01*
X209570473Y-102452488D01*
X209652488Y-102370473D01*
X209710481Y-102270027D01*
X209740500Y-102157993D01*
X209740500Y-102042007D01*
X209710481Y-101929973D01*
X209652488Y-101829527D01*
X209570473Y-101747512D01*
X209496276Y-101704674D01*
X209470028Y-101689519D01*
X209394213Y-101669205D01*
X209357993Y-101659500D01*
X209242007Y-101659500D01*
X209129971Y-101689519D01*
X209029527Y-101747512D01*
X209029524Y-101747514D01*
X208947514Y-101829524D01*
X208947512Y-101829527D01*
X208889519Y-101929971D01*
X208859500Y-102042007D01*
X157290938Y-102042007D01*
X157231192Y-102007512D01*
X157200028Y-101989519D01*
X157138350Y-101972993D01*
X157087993Y-101959500D01*
X156972007Y-101959500D01*
X156859971Y-101989519D01*
X156759527Y-102047512D01*
X156759524Y-102047514D01*
X156677514Y-102129524D01*
X156677512Y-102129527D01*
X156619519Y-102229971D01*
X156589500Y-102342007D01*
X155474066Y-102342007D01*
X155480500Y-102317993D01*
X155480500Y-102202007D01*
X155450481Y-102089973D01*
X155450223Y-102089527D01*
X155442710Y-102076513D01*
X155392488Y-101989527D01*
X155310473Y-101907512D01*
X155238613Y-101866023D01*
X155210028Y-101849519D01*
X155154010Y-101834509D01*
X155097993Y-101819500D01*
X154982007Y-101819500D01*
X154869971Y-101849519D01*
X154769527Y-101907512D01*
X154769524Y-101907514D01*
X154732181Y-101944858D01*
X154670858Y-101978343D01*
X154601166Y-101973359D01*
X154545233Y-101931487D01*
X154520816Y-101866023D01*
X154520500Y-101857177D01*
X154520500Y-101802009D01*
X154520500Y-101802007D01*
X154490481Y-101689973D01*
X154432488Y-101589527D01*
X154350473Y-101507512D01*
X154293295Y-101474500D01*
X154250028Y-101449519D01*
X154194010Y-101434509D01*
X154137993Y-101419500D01*
X154022007Y-101419500D01*
X153909971Y-101449519D01*
X153809527Y-101507512D01*
X153809524Y-101507514D01*
X153727514Y-101589524D01*
X153727507Y-101589533D01*
X153681508Y-101669205D01*
X153630941Y-101717420D01*
X153562333Y-101730642D01*
X153497469Y-101704674D01*
X153466736Y-101669205D01*
X153452488Y-101644527D01*
X153370473Y-101562512D01*
X153306320Y-101525473D01*
X153270028Y-101504519D01*
X153214010Y-101489509D01*
X153157993Y-101474500D01*
X153042007Y-101474500D01*
X152929971Y-101504519D01*
X152829527Y-101562512D01*
X152829524Y-101562514D01*
X152747514Y-101644524D01*
X152747512Y-101644527D01*
X152689519Y-101744971D01*
X152688838Y-101747514D01*
X152659500Y-101857007D01*
X152220232Y-101857007D01*
X152190481Y-101745973D01*
X152189902Y-101744971D01*
X152173996Y-101717420D01*
X152132488Y-101645527D01*
X152050473Y-101563512D01*
X151984588Y-101525473D01*
X151950028Y-101505519D01*
X151894010Y-101490509D01*
X151837993Y-101475500D01*
X151722007Y-101475500D01*
X151609971Y-101505519D01*
X151509527Y-101563512D01*
X151509524Y-101563514D01*
X151427514Y-101645524D01*
X151427512Y-101645527D01*
X151369519Y-101745971D01*
X151369106Y-101747514D01*
X151339500Y-101858007D01*
X114700500Y-101858007D01*
X114700500Y-100722007D01*
X126629500Y-100722007D01*
X126629500Y-100837993D01*
X126635524Y-100860475D01*
X126659519Y-100950028D01*
X126679436Y-100984524D01*
X126717512Y-101050473D01*
X126799527Y-101132488D01*
X126899973Y-101190481D01*
X127012007Y-101220500D01*
X127012009Y-101220500D01*
X127127991Y-101220500D01*
X127127993Y-101220500D01*
X127240027Y-101190481D01*
X127340473Y-101132488D01*
X127422488Y-101050473D01*
X127480481Y-100950027D01*
X127510500Y-100837993D01*
X127510500Y-100807007D01*
X148794500Y-100807007D01*
X148794500Y-100922993D01*
X148799724Y-100942488D01*
X148824519Y-101035028D01*
X148853354Y-101084971D01*
X148882512Y-101135473D01*
X148964527Y-101217488D01*
X149064973Y-101275481D01*
X149177007Y-101305500D01*
X149177009Y-101305500D01*
X149292991Y-101305500D01*
X149292993Y-101305500D01*
X149405027Y-101275481D01*
X149463005Y-101242007D01*
X155259500Y-101242007D01*
X155259500Y-101357992D01*
X155289519Y-101470028D01*
X155309433Y-101504519D01*
X155347512Y-101570473D01*
X155429527Y-101652488D01*
X155529973Y-101710481D01*
X155642007Y-101740500D01*
X155642009Y-101740500D01*
X155757991Y-101740500D01*
X155757993Y-101740500D01*
X155870027Y-101710481D01*
X155970473Y-101652488D01*
X156052488Y-101570473D01*
X156110481Y-101470027D01*
X156140500Y-101357993D01*
X156140500Y-101242007D01*
X156128442Y-101197007D01*
X160159500Y-101197007D01*
X160159500Y-101312992D01*
X160189519Y-101425028D01*
X160218082Y-101474500D01*
X160247512Y-101525473D01*
X160329527Y-101607488D01*
X160429973Y-101665481D01*
X160542007Y-101695500D01*
X160542009Y-101695500D01*
X160657991Y-101695500D01*
X160657993Y-101695500D01*
X160770027Y-101665481D01*
X160870473Y-101607488D01*
X160952488Y-101525473D01*
X161010481Y-101425027D01*
X161040500Y-101312993D01*
X161040500Y-101197007D01*
X161010481Y-101084973D01*
X160952488Y-100984527D01*
X160909968Y-100942007D01*
X203859500Y-100942007D01*
X203859500Y-101057992D01*
X203889519Y-101170028D01*
X203901328Y-101190481D01*
X203947512Y-101270473D01*
X204029527Y-101352488D01*
X204129973Y-101410481D01*
X204242007Y-101440500D01*
X204242009Y-101440500D01*
X204357991Y-101440500D01*
X204357993Y-101440500D01*
X204470027Y-101410481D01*
X204570473Y-101352488D01*
X204652488Y-101270473D01*
X204710481Y-101170027D01*
X204740500Y-101057993D01*
X204740500Y-100942007D01*
X204710481Y-100829973D01*
X204652488Y-100729527D01*
X204570473Y-100647512D01*
X204505451Y-100609971D01*
X204470028Y-100589519D01*
X204414010Y-100574509D01*
X204357993Y-100559500D01*
X204242007Y-100559500D01*
X204129971Y-100589519D01*
X204029527Y-100647512D01*
X204029524Y-100647514D01*
X203947514Y-100729524D01*
X203947512Y-100729527D01*
X203889519Y-100829971D01*
X203859500Y-100942007D01*
X160909968Y-100942007D01*
X160870473Y-100902512D01*
X160820250Y-100873515D01*
X160770028Y-100844519D01*
X160714010Y-100829509D01*
X160657993Y-100814500D01*
X160542007Y-100814500D01*
X160429971Y-100844519D01*
X160329527Y-100902512D01*
X160329524Y-100902514D01*
X160247514Y-100984524D01*
X160247512Y-100984527D01*
X160189519Y-101084971D01*
X160159500Y-101197007D01*
X156128442Y-101197007D01*
X156110481Y-101129973D01*
X156052488Y-101029527D01*
X155970473Y-100947512D01*
X155892535Y-100902514D01*
X155870028Y-100889519D01*
X155814010Y-100874509D01*
X155757993Y-100859500D01*
X155642007Y-100859500D01*
X155529971Y-100889519D01*
X155429527Y-100947512D01*
X155429524Y-100947514D01*
X155347514Y-101029524D01*
X155347512Y-101029527D01*
X155289519Y-101129971D01*
X155259500Y-101242007D01*
X149463005Y-101242007D01*
X149505473Y-101217488D01*
X149587488Y-101135473D01*
X149645481Y-101035027D01*
X149675500Y-100922993D01*
X149675500Y-100807007D01*
X149645481Y-100694973D01*
X149587488Y-100594527D01*
X149524968Y-100532007D01*
X150249500Y-100532007D01*
X150249500Y-100647992D01*
X150279519Y-100760028D01*
X150306643Y-100807007D01*
X150337512Y-100860473D01*
X150419527Y-100942488D01*
X150519973Y-101000481D01*
X150632007Y-101030500D01*
X150632009Y-101030500D01*
X150747991Y-101030500D01*
X150747993Y-101030500D01*
X150860027Y-101000481D01*
X150960473Y-100942488D01*
X151042488Y-100860473D01*
X151100481Y-100760027D01*
X151130500Y-100647993D01*
X151130500Y-100532007D01*
X151100481Y-100419973D01*
X151042488Y-100319527D01*
X150960473Y-100237512D01*
X150910250Y-100208515D01*
X150860028Y-100179519D01*
X150804010Y-100164509D01*
X150747993Y-100149500D01*
X150632007Y-100149500D01*
X150519971Y-100179519D01*
X150419527Y-100237512D01*
X150419524Y-100237514D01*
X150337514Y-100319524D01*
X150337512Y-100319527D01*
X150279519Y-100419971D01*
X150249500Y-100532007D01*
X149524968Y-100532007D01*
X149505473Y-100512512D01*
X149455250Y-100483515D01*
X149405028Y-100454519D01*
X149349010Y-100439509D01*
X149292993Y-100424500D01*
X149177007Y-100424500D01*
X149064971Y-100454519D01*
X148964527Y-100512512D01*
X148964524Y-100512514D01*
X148882514Y-100594524D01*
X148882512Y-100594527D01*
X148824519Y-100694971D01*
X148815261Y-100729524D01*
X148794500Y-100807007D01*
X127510500Y-100807007D01*
X127510500Y-100722007D01*
X127480481Y-100609973D01*
X127422488Y-100509527D01*
X127340473Y-100427512D01*
X127290250Y-100398515D01*
X127240028Y-100369519D01*
X127168971Y-100350480D01*
X127127993Y-100339500D01*
X127012007Y-100339500D01*
X126899971Y-100369519D01*
X126799527Y-100427512D01*
X126799524Y-100427514D01*
X126717514Y-100509524D01*
X126717512Y-100509527D01*
X126659519Y-100609971D01*
X126636744Y-100694971D01*
X126629500Y-100722007D01*
X114700500Y-100722007D01*
X114700500Y-99882007D01*
X132229500Y-99882007D01*
X132229500Y-99997992D01*
X132259519Y-100110028D01*
X132282309Y-100149500D01*
X132317512Y-100210473D01*
X132399527Y-100292488D01*
X132499973Y-100350481D01*
X132612007Y-100380500D01*
X132612009Y-100380500D01*
X132727991Y-100380500D01*
X132727993Y-100380500D01*
X132840027Y-100350481D01*
X132940473Y-100292488D01*
X133022488Y-100210473D01*
X133080481Y-100110027D01*
X133110500Y-99997993D01*
X133110500Y-99882007D01*
X134459500Y-99882007D01*
X134459500Y-99997992D01*
X134489519Y-100110028D01*
X134512309Y-100149500D01*
X134547512Y-100210473D01*
X134629527Y-100292488D01*
X134729973Y-100350481D01*
X134842007Y-100380500D01*
X134842009Y-100380500D01*
X134957991Y-100380500D01*
X134957993Y-100380500D01*
X135070027Y-100350481D01*
X135170473Y-100292488D01*
X135252488Y-100210473D01*
X135310481Y-100110027D01*
X135340500Y-99997993D01*
X135340500Y-99882007D01*
X135310481Y-99769973D01*
X135252488Y-99669527D01*
X135170473Y-99587512D01*
X135120250Y-99558515D01*
X135070028Y-99529519D01*
X135014010Y-99514509D01*
X134957993Y-99499500D01*
X134842007Y-99499500D01*
X134729971Y-99529519D01*
X134629527Y-99587512D01*
X134629524Y-99587514D01*
X134547514Y-99669524D01*
X134547512Y-99669527D01*
X134489519Y-99769971D01*
X134459500Y-99882007D01*
X133110500Y-99882007D01*
X133080481Y-99769973D01*
X133022488Y-99669527D01*
X132940473Y-99587512D01*
X132890250Y-99558515D01*
X132840028Y-99529519D01*
X132784010Y-99514509D01*
X132727993Y-99499500D01*
X132612007Y-99499500D01*
X132499971Y-99529519D01*
X132399527Y-99587512D01*
X132399524Y-99587514D01*
X132317514Y-99669524D01*
X132317512Y-99669527D01*
X132259519Y-99769971D01*
X132229500Y-99882007D01*
X114700500Y-99882007D01*
X114700500Y-99007007D01*
X149529500Y-99007007D01*
X149529500Y-99122993D01*
X149542573Y-99171784D01*
X149559519Y-99235028D01*
X149588515Y-99285250D01*
X149617512Y-99335473D01*
X149699527Y-99417488D01*
X149799973Y-99475481D01*
X149912007Y-99505500D01*
X149912009Y-99505500D01*
X150027991Y-99505500D01*
X150027993Y-99505500D01*
X150140027Y-99475481D01*
X150240473Y-99417488D01*
X150322488Y-99335473D01*
X150380481Y-99235027D01*
X150386649Y-99212007D01*
X177399500Y-99212007D01*
X177399500Y-99327992D01*
X177429519Y-99440028D01*
X177458515Y-99490250D01*
X177487512Y-99540473D01*
X177569527Y-99622488D01*
X177669973Y-99680481D01*
X177782007Y-99710500D01*
X177782009Y-99710500D01*
X177897991Y-99710500D01*
X177897993Y-99710500D01*
X178010027Y-99680481D01*
X178110473Y-99622488D01*
X178192488Y-99540473D01*
X178250481Y-99440027D01*
X178280500Y-99327993D01*
X178280500Y-99212007D01*
X178250481Y-99099973D01*
X178192488Y-98999527D01*
X178110473Y-98917512D01*
X178043951Y-98879105D01*
X178010028Y-98859519D01*
X177954010Y-98844509D01*
X177897993Y-98829500D01*
X177782007Y-98829500D01*
X177669971Y-98859519D01*
X177569527Y-98917512D01*
X177569524Y-98917514D01*
X177487514Y-98999524D01*
X177487512Y-98999527D01*
X177429519Y-99099971D01*
X177399500Y-99212007D01*
X150386649Y-99212007D01*
X150410500Y-99122993D01*
X150410500Y-99007007D01*
X150380481Y-98894973D01*
X150377898Y-98890500D01*
X150360011Y-98859519D01*
X150322488Y-98794527D01*
X150240473Y-98712512D01*
X150190250Y-98683515D01*
X150140028Y-98654519D01*
X150084010Y-98639509D01*
X150027993Y-98624500D01*
X149912007Y-98624500D01*
X149799971Y-98654519D01*
X149699527Y-98712512D01*
X149699524Y-98712514D01*
X149617514Y-98794524D01*
X149617512Y-98794527D01*
X149559519Y-98894971D01*
X149553479Y-98917514D01*
X149529500Y-99007007D01*
X114700500Y-99007007D01*
X114700500Y-98392007D01*
X147009500Y-98392007D01*
X147009500Y-98507992D01*
X147039519Y-98620028D01*
X147051339Y-98640500D01*
X147097512Y-98720473D01*
X147179527Y-98802488D01*
X147279973Y-98860481D01*
X147392007Y-98890500D01*
X147392009Y-98890500D01*
X147507991Y-98890500D01*
X147507993Y-98890500D01*
X147620027Y-98860481D01*
X147720473Y-98802488D01*
X147802488Y-98720473D01*
X147860481Y-98620027D01*
X147890500Y-98507993D01*
X147890500Y-98392007D01*
X153759500Y-98392007D01*
X153759500Y-98507992D01*
X153789519Y-98620028D01*
X153801339Y-98640500D01*
X153847512Y-98720473D01*
X153929527Y-98802488D01*
X154029973Y-98860481D01*
X154142007Y-98890500D01*
X154142009Y-98890500D01*
X154257991Y-98890500D01*
X154257993Y-98890500D01*
X154370027Y-98860481D01*
X154470473Y-98802488D01*
X154552488Y-98720473D01*
X154610481Y-98620027D01*
X154640500Y-98507993D01*
X154640500Y-98392007D01*
X154610481Y-98279973D01*
X154552488Y-98179527D01*
X154470473Y-98097512D01*
X154420250Y-98068515D01*
X154370028Y-98039519D01*
X154314010Y-98024509D01*
X154257993Y-98009500D01*
X154142007Y-98009500D01*
X154029971Y-98039519D01*
X153929527Y-98097512D01*
X153929524Y-98097514D01*
X153847514Y-98179524D01*
X153847512Y-98179527D01*
X153789519Y-98279971D01*
X153759500Y-98392007D01*
X147890500Y-98392007D01*
X147860481Y-98279973D01*
X147802488Y-98179527D01*
X147720473Y-98097512D01*
X147670250Y-98068515D01*
X147620028Y-98039519D01*
X147564010Y-98024509D01*
X147507993Y-98009500D01*
X147392007Y-98009500D01*
X147279971Y-98039519D01*
X147179527Y-98097512D01*
X147179524Y-98097514D01*
X147097514Y-98179524D01*
X147097512Y-98179527D01*
X147039519Y-98279971D01*
X147009500Y-98392007D01*
X114700500Y-98392007D01*
X114700500Y-96512007D01*
X126809500Y-96512007D01*
X126809500Y-96627992D01*
X126839519Y-96740028D01*
X126860665Y-96776653D01*
X126897512Y-96840473D01*
X126979527Y-96922488D01*
X127079973Y-96980481D01*
X127192007Y-97010500D01*
X127192009Y-97010500D01*
X127307991Y-97010500D01*
X127307993Y-97010500D01*
X127420027Y-96980481D01*
X127520473Y-96922488D01*
X127602488Y-96840473D01*
X127660481Y-96740027D01*
X127690500Y-96627993D01*
X127690500Y-96512007D01*
X127660481Y-96399973D01*
X127602488Y-96299527D01*
X127520473Y-96217512D01*
X127440375Y-96171267D01*
X127440373Y-96171265D01*
X127420030Y-96159520D01*
X127420027Y-96159519D01*
X127307993Y-96129500D01*
X127192007Y-96129500D01*
X127079971Y-96159519D01*
X126979527Y-96217512D01*
X126979524Y-96217514D01*
X126897514Y-96299524D01*
X126897512Y-96299527D01*
X126839519Y-96399971D01*
X126809500Y-96512007D01*
X114700500Y-96512007D01*
X114700500Y-96072007D01*
X135669500Y-96072007D01*
X135669500Y-96187993D01*
X135677410Y-96217514D01*
X135699519Y-96300028D01*
X135728515Y-96350250D01*
X135757512Y-96400473D01*
X135839527Y-96482488D01*
X135939973Y-96540481D01*
X136052007Y-96570500D01*
X136052009Y-96570500D01*
X136167991Y-96570500D01*
X136167993Y-96570500D01*
X136280027Y-96540481D01*
X136380473Y-96482488D01*
X136462488Y-96400473D01*
X136520481Y-96300027D01*
X136536027Y-96242007D01*
X156859500Y-96242007D01*
X156859500Y-96357993D01*
X156862725Y-96370028D01*
X156889519Y-96470028D01*
X156918515Y-96520250D01*
X156947512Y-96570473D01*
X157029527Y-96652488D01*
X157129973Y-96710481D01*
X157242007Y-96740500D01*
X157242009Y-96740500D01*
X157357991Y-96740500D01*
X157357993Y-96740500D01*
X157470027Y-96710481D01*
X157570473Y-96652488D01*
X157652488Y-96570473D01*
X157710481Y-96470027D01*
X157740500Y-96357993D01*
X157740500Y-96242007D01*
X157713705Y-96142007D01*
X181359500Y-96142007D01*
X181359500Y-96257992D01*
X181389519Y-96370028D01*
X181407097Y-96400473D01*
X181447512Y-96470473D01*
X181529527Y-96552488D01*
X181599025Y-96592613D01*
X181647240Y-96643181D01*
X181660462Y-96711788D01*
X181634494Y-96776653D01*
X181599025Y-96807387D01*
X181529527Y-96847512D01*
X181529524Y-96847514D01*
X181447514Y-96929524D01*
X181447512Y-96929527D01*
X181389519Y-97029971D01*
X181359500Y-97142007D01*
X181359500Y-97257992D01*
X181389519Y-97370028D01*
X181418515Y-97420250D01*
X181447512Y-97470473D01*
X181529527Y-97552488D01*
X181599025Y-97592613D01*
X181647240Y-97643181D01*
X181660462Y-97711788D01*
X181634494Y-97776653D01*
X181599025Y-97807387D01*
X181529527Y-97847512D01*
X181529524Y-97847514D01*
X181447514Y-97929524D01*
X181447512Y-97929527D01*
X181389519Y-98029971D01*
X181359500Y-98142007D01*
X181359500Y-98257993D01*
X181374509Y-98314010D01*
X181389519Y-98370028D01*
X181402209Y-98392007D01*
X181447512Y-98470473D01*
X181529527Y-98552488D01*
X181629973Y-98610481D01*
X181742007Y-98640500D01*
X181742009Y-98640500D01*
X181857991Y-98640500D01*
X181857993Y-98640500D01*
X181970027Y-98610481D01*
X182070473Y-98552488D01*
X182152488Y-98470473D01*
X182210481Y-98370027D01*
X182240500Y-98257993D01*
X182240500Y-98142007D01*
X182210481Y-98029973D01*
X182152488Y-97929527D01*
X182070473Y-97847512D01*
X182000972Y-97807385D01*
X181952759Y-97756819D01*
X181949904Y-97742007D01*
X208959500Y-97742007D01*
X208959500Y-97857992D01*
X208989519Y-97970028D01*
X209012309Y-98009500D01*
X209047512Y-98070473D01*
X209129527Y-98152488D01*
X209229973Y-98210481D01*
X209342007Y-98240500D01*
X209342009Y-98240500D01*
X209457991Y-98240500D01*
X209457993Y-98240500D01*
X209570027Y-98210481D01*
X209670473Y-98152488D01*
X209752488Y-98070473D01*
X209810481Y-97970027D01*
X209840500Y-97857993D01*
X209840500Y-97742007D01*
X209810481Y-97629973D01*
X209752488Y-97529527D01*
X209670473Y-97447512D01*
X209620250Y-97418515D01*
X209570028Y-97389519D01*
X209514010Y-97374509D01*
X209457993Y-97359500D01*
X209342007Y-97359500D01*
X209229971Y-97389519D01*
X209129527Y-97447512D01*
X209129524Y-97447514D01*
X209047514Y-97529524D01*
X209047512Y-97529527D01*
X208989519Y-97629971D01*
X208959500Y-97742007D01*
X181949904Y-97742007D01*
X181939537Y-97688212D01*
X181965505Y-97623348D01*
X182000975Y-97592613D01*
X182070473Y-97552488D01*
X182152488Y-97470473D01*
X182210481Y-97370027D01*
X182240500Y-97257993D01*
X182240500Y-97142007D01*
X182210481Y-97029973D01*
X182152488Y-96929527D01*
X182070473Y-96847512D01*
X182000974Y-96807386D01*
X181952759Y-96756820D01*
X181939537Y-96688213D01*
X181965505Y-96623348D01*
X182000975Y-96592613D01*
X182070473Y-96552488D01*
X182152488Y-96470473D01*
X182210481Y-96370027D01*
X182240500Y-96257993D01*
X182240500Y-96142007D01*
X182210481Y-96029973D01*
X182210223Y-96029527D01*
X182202710Y-96016513D01*
X182152488Y-95929527D01*
X182070473Y-95847512D01*
X182020250Y-95818515D01*
X181970028Y-95789519D01*
X181914010Y-95774509D01*
X181857993Y-95759500D01*
X181742007Y-95759500D01*
X181629971Y-95789519D01*
X181529527Y-95847512D01*
X181529524Y-95847514D01*
X181447514Y-95929524D01*
X181447512Y-95929527D01*
X181389519Y-96029971D01*
X181359500Y-96142007D01*
X157713705Y-96142007D01*
X157710481Y-96129973D01*
X157652488Y-96029527D01*
X157570473Y-95947512D01*
X157520250Y-95918515D01*
X157470028Y-95889519D01*
X157414010Y-95874509D01*
X157357993Y-95859500D01*
X157242007Y-95859500D01*
X157129971Y-95889519D01*
X157029527Y-95947512D01*
X157029524Y-95947514D01*
X156947514Y-96029524D01*
X156947512Y-96029527D01*
X156889519Y-96129971D01*
X156870278Y-96201783D01*
X156859500Y-96242007D01*
X136536027Y-96242007D01*
X136550500Y-96187993D01*
X136550500Y-96072007D01*
X136520481Y-95959973D01*
X136462488Y-95859527D01*
X136380473Y-95777512D01*
X136330250Y-95748515D01*
X136280028Y-95719519D01*
X136224010Y-95704509D01*
X136167993Y-95689500D01*
X136052007Y-95689500D01*
X135939971Y-95719519D01*
X135839527Y-95777512D01*
X135839524Y-95777514D01*
X135757514Y-95859524D01*
X135757512Y-95859527D01*
X135699519Y-95959971D01*
X135696705Y-95970475D01*
X135669500Y-96072007D01*
X114700500Y-96072007D01*
X114700500Y-95642007D01*
X183259500Y-95642007D01*
X183259500Y-95757992D01*
X183289519Y-95870028D01*
X183318515Y-95920250D01*
X183347512Y-95970473D01*
X183429527Y-96052488D01*
X183529973Y-96110481D01*
X183642007Y-96140500D01*
X183642009Y-96140500D01*
X183757991Y-96140500D01*
X183757993Y-96140500D01*
X183870027Y-96110481D01*
X183970473Y-96052488D01*
X184052488Y-95970473D01*
X184110481Y-95870027D01*
X184140500Y-95757993D01*
X184140500Y-95642007D01*
X184110481Y-95529973D01*
X184052488Y-95429527D01*
X183970473Y-95347512D01*
X183920250Y-95318515D01*
X183870028Y-95289519D01*
X183814010Y-95274509D01*
X183757993Y-95259500D01*
X183642007Y-95259500D01*
X183529971Y-95289519D01*
X183429527Y-95347512D01*
X183429524Y-95347514D01*
X183347514Y-95429524D01*
X183347512Y-95429527D01*
X183289519Y-95529971D01*
X183259500Y-95642007D01*
X114700500Y-95642007D01*
X114700500Y-95122007D01*
X133069500Y-95122007D01*
X133069500Y-95237993D01*
X133075263Y-95259500D01*
X133099519Y-95350028D01*
X133105293Y-95360028D01*
X133157512Y-95450473D01*
X133239527Y-95532488D01*
X133339973Y-95590481D01*
X133452007Y-95620500D01*
X133452009Y-95620500D01*
X133567991Y-95620500D01*
X133567993Y-95620500D01*
X133680027Y-95590481D01*
X133780473Y-95532488D01*
X133862488Y-95450473D01*
X133920481Y-95350027D01*
X133950500Y-95237993D01*
X133950500Y-95132007D01*
X158869500Y-95132007D01*
X158869500Y-95247992D01*
X158899519Y-95360028D01*
X158928515Y-95410250D01*
X158957512Y-95460473D01*
X159039527Y-95542488D01*
X159139973Y-95600481D01*
X159252007Y-95630500D01*
X159252009Y-95630500D01*
X159367991Y-95630500D01*
X159367993Y-95630500D01*
X159480027Y-95600481D01*
X159580473Y-95542488D01*
X159662488Y-95460473D01*
X159720481Y-95360027D01*
X159750500Y-95247993D01*
X159750500Y-95132007D01*
X159720481Y-95019973D01*
X159662488Y-94919527D01*
X159580473Y-94837512D01*
X159530250Y-94808515D01*
X159480028Y-94779519D01*
X159424010Y-94764509D01*
X159367993Y-94749500D01*
X159252007Y-94749500D01*
X159139971Y-94779519D01*
X159039527Y-94837512D01*
X159039524Y-94837514D01*
X158957514Y-94919524D01*
X158957512Y-94919527D01*
X158899519Y-95019971D01*
X158869500Y-95132007D01*
X133950500Y-95132007D01*
X133950500Y-95122007D01*
X133920481Y-95009973D01*
X133862488Y-94909527D01*
X133780473Y-94827512D01*
X133730250Y-94798515D01*
X133680028Y-94769519D01*
X133605314Y-94749500D01*
X133567993Y-94739500D01*
X133452007Y-94739500D01*
X133339971Y-94769519D01*
X133239527Y-94827512D01*
X133239524Y-94827514D01*
X133157514Y-94909524D01*
X133157512Y-94909527D01*
X133099519Y-95009971D01*
X133091339Y-95040500D01*
X133069500Y-95122007D01*
X114700500Y-95122007D01*
X114700500Y-93732007D01*
X124689500Y-93732007D01*
X124689500Y-93847993D01*
X124703308Y-93899527D01*
X124719519Y-93960028D01*
X124742581Y-93999971D01*
X124777512Y-94060473D01*
X124859527Y-94142488D01*
X124959973Y-94200481D01*
X125072007Y-94230500D01*
X125072009Y-94230500D01*
X125187991Y-94230500D01*
X125187993Y-94230500D01*
X125300027Y-94200481D01*
X125400473Y-94142488D01*
X125482488Y-94060473D01*
X125493149Y-94042007D01*
X181659500Y-94042007D01*
X181659500Y-94157993D01*
X181674509Y-94214010D01*
X181689519Y-94270028D01*
X181718515Y-94320250D01*
X181747512Y-94370473D01*
X181829527Y-94452488D01*
X181929973Y-94510481D01*
X182042007Y-94540500D01*
X182042009Y-94540500D01*
X182157991Y-94540500D01*
X182157993Y-94540500D01*
X182270027Y-94510481D01*
X182370473Y-94452488D01*
X182452488Y-94370473D01*
X182510481Y-94270027D01*
X182540500Y-94157993D01*
X182540500Y-94112007D01*
X185409500Y-94112007D01*
X185409500Y-94227993D01*
X185410172Y-94230500D01*
X185439519Y-94340028D01*
X185457097Y-94370473D01*
X185497512Y-94440473D01*
X185579527Y-94522488D01*
X185679973Y-94580481D01*
X185792007Y-94610500D01*
X185792009Y-94610500D01*
X185907991Y-94610500D01*
X185907993Y-94610500D01*
X186020027Y-94580481D01*
X186086665Y-94542007D01*
X208359500Y-94542007D01*
X208359500Y-94657992D01*
X208389519Y-94770028D01*
X208394999Y-94779519D01*
X208447512Y-94870473D01*
X208529527Y-94952488D01*
X208616513Y-95002710D01*
X208629089Y-95009971D01*
X208629973Y-95010481D01*
X208742007Y-95040500D01*
X208742009Y-95040500D01*
X208857991Y-95040500D01*
X208857993Y-95040500D01*
X208970027Y-95010481D01*
X209070473Y-94952488D01*
X209152488Y-94870473D01*
X209210481Y-94770027D01*
X209240500Y-94657993D01*
X209240500Y-94542007D01*
X209210481Y-94429973D01*
X209152488Y-94329527D01*
X209070473Y-94247512D01*
X208989012Y-94200480D01*
X208970028Y-94189519D01*
X208914010Y-94174509D01*
X208857993Y-94159500D01*
X208742007Y-94159500D01*
X208629971Y-94189519D01*
X208529527Y-94247512D01*
X208529524Y-94247514D01*
X208447514Y-94329524D01*
X208447512Y-94329527D01*
X208389519Y-94429971D01*
X208359500Y-94542007D01*
X186086665Y-94542007D01*
X186120473Y-94522488D01*
X186202488Y-94440473D01*
X186260481Y-94340027D01*
X186290500Y-94227993D01*
X186290500Y-94112007D01*
X186260481Y-93999973D01*
X186202488Y-93899527D01*
X186120473Y-93817512D01*
X186070250Y-93788515D01*
X186020028Y-93759519D01*
X185964010Y-93744509D01*
X185907993Y-93729500D01*
X185792007Y-93729500D01*
X185679971Y-93759519D01*
X185579527Y-93817512D01*
X185579524Y-93817514D01*
X185497514Y-93899524D01*
X185497512Y-93899527D01*
X185439519Y-93999971D01*
X185423308Y-94060473D01*
X185409500Y-94112007D01*
X182540500Y-94112007D01*
X182540500Y-94042007D01*
X182510481Y-93929973D01*
X182452488Y-93829527D01*
X182370473Y-93747512D01*
X182292490Y-93702488D01*
X182270028Y-93689519D01*
X182214010Y-93674509D01*
X182157993Y-93659500D01*
X182042007Y-93659500D01*
X181929971Y-93689519D01*
X181829527Y-93747512D01*
X181829524Y-93747514D01*
X181747514Y-93829524D01*
X181747512Y-93829527D01*
X181689519Y-93929971D01*
X181678291Y-93971876D01*
X181659500Y-94042007D01*
X125493149Y-94042007D01*
X125540481Y-93960027D01*
X125570500Y-93847993D01*
X125570500Y-93732007D01*
X125540481Y-93619973D01*
X125482488Y-93519527D01*
X125400473Y-93437512D01*
X125320375Y-93391267D01*
X125320373Y-93391265D01*
X125300030Y-93379520D01*
X125300027Y-93379519D01*
X125187993Y-93349500D01*
X125072007Y-93349500D01*
X124959971Y-93379519D01*
X124859527Y-93437512D01*
X124859524Y-93437514D01*
X124777514Y-93519524D01*
X124777512Y-93519527D01*
X124719519Y-93619971D01*
X124719384Y-93620475D01*
X124689500Y-93732007D01*
X114700500Y-93732007D01*
X114700500Y-93292007D01*
X126479500Y-93292007D01*
X126479500Y-93407993D01*
X126487410Y-93437514D01*
X126509519Y-93520028D01*
X126521339Y-93540500D01*
X126567512Y-93620473D01*
X126649527Y-93702488D01*
X126749973Y-93760481D01*
X126862007Y-93790500D01*
X126862009Y-93790500D01*
X126977991Y-93790500D01*
X126977993Y-93790500D01*
X127090027Y-93760481D01*
X127190473Y-93702488D01*
X127272488Y-93620473D01*
X127330481Y-93520027D01*
X127360500Y-93407993D01*
X127360500Y-93292007D01*
X127330481Y-93179973D01*
X127272488Y-93079527D01*
X127190473Y-92997512D01*
X127140250Y-92968515D01*
X127090028Y-92939519D01*
X127034010Y-92924509D01*
X126977993Y-92909500D01*
X126862007Y-92909500D01*
X126749971Y-92939519D01*
X126649527Y-92997512D01*
X126649524Y-92997514D01*
X126567514Y-93079524D01*
X126567512Y-93079527D01*
X126509519Y-93179971D01*
X126485389Y-93270027D01*
X126479500Y-93292007D01*
X114700500Y-93292007D01*
X114700500Y-92192007D01*
X139559500Y-92192007D01*
X139559500Y-92307993D01*
X139574509Y-92364010D01*
X139589519Y-92420028D01*
X139602209Y-92442007D01*
X139647512Y-92520473D01*
X139729527Y-92602488D01*
X139829973Y-92660481D01*
X139942007Y-92690500D01*
X139942010Y-92690500D01*
X139946795Y-92691782D01*
X140006456Y-92728146D01*
X140036986Y-92790993D01*
X140028692Y-92860369D01*
X140022090Y-92873557D01*
X139989520Y-92929969D01*
X139989520Y-92929970D01*
X139989520Y-92929971D01*
X139989519Y-92929973D01*
X139959500Y-93042007D01*
X139959500Y-93157993D01*
X139974509Y-93214010D01*
X139989519Y-93270028D01*
X140002209Y-93292007D01*
X140047512Y-93370473D01*
X140129527Y-93452488D01*
X140229973Y-93510481D01*
X140342007Y-93540500D01*
X140342009Y-93540500D01*
X140457991Y-93540500D01*
X140457993Y-93540500D01*
X140570027Y-93510481D01*
X140670473Y-93452488D01*
X140752488Y-93370473D01*
X140810481Y-93270027D01*
X140840500Y-93157993D01*
X140840500Y-93042007D01*
X140810481Y-92929973D01*
X140752488Y-92829527D01*
X140670473Y-92747512D01*
X140620250Y-92718515D01*
X140570028Y-92689519D01*
X140526948Y-92677976D01*
X140457993Y-92659500D01*
X140457991Y-92659500D01*
X140453203Y-92658217D01*
X140435897Y-92647668D01*
X140416549Y-92641640D01*
X140406671Y-92629855D01*
X140393542Y-92621852D01*
X140384687Y-92603624D01*
X140371669Y-92588091D01*
X140369731Y-92572835D01*
X140363013Y-92559005D01*
X140365418Y-92538883D01*
X140362865Y-92518778D01*
X140370336Y-92497751D01*
X140371308Y-92489630D01*
X140373364Y-92485082D01*
X140375461Y-92480682D01*
X140397791Y-92442007D01*
X188659500Y-92442007D01*
X188659500Y-92557992D01*
X188689519Y-92670028D01*
X188701339Y-92690500D01*
X188747512Y-92770473D01*
X188829527Y-92852488D01*
X188929973Y-92910481D01*
X189042007Y-92940500D01*
X189042009Y-92940500D01*
X189157991Y-92940500D01*
X189157993Y-92940500D01*
X189270027Y-92910481D01*
X189370473Y-92852488D01*
X189452488Y-92770473D01*
X189510481Y-92670027D01*
X189540500Y-92557993D01*
X189540500Y-92442007D01*
X189510481Y-92329973D01*
X189452488Y-92229527D01*
X189370473Y-92147512D01*
X189320250Y-92118515D01*
X189270028Y-92089519D01*
X189214010Y-92074509D01*
X189157993Y-92059500D01*
X189042007Y-92059500D01*
X188929971Y-92089519D01*
X188829527Y-92147512D01*
X188829524Y-92147514D01*
X188747514Y-92229524D01*
X188747512Y-92229527D01*
X188689519Y-92329971D01*
X188659500Y-92442007D01*
X140397791Y-92442007D01*
X140410481Y-92420027D01*
X140440500Y-92307993D01*
X140440500Y-92192007D01*
X140410481Y-92079973D01*
X140352488Y-91979527D01*
X140270473Y-91897512D01*
X140220250Y-91868515D01*
X140170028Y-91839519D01*
X140114010Y-91824509D01*
X140057993Y-91809500D01*
X139942007Y-91809500D01*
X139829971Y-91839519D01*
X139729527Y-91897512D01*
X139729524Y-91897514D01*
X139647514Y-91979524D01*
X139647512Y-91979527D01*
X139589519Y-92079971D01*
X139559500Y-92192007D01*
X114700500Y-92192007D01*
X114700500Y-90812007D01*
X128349500Y-90812007D01*
X128349500Y-90927992D01*
X128379519Y-91040028D01*
X128397097Y-91070473D01*
X128437512Y-91140473D01*
X128519527Y-91222488D01*
X128619973Y-91280481D01*
X128732007Y-91310500D01*
X128732009Y-91310500D01*
X128847991Y-91310500D01*
X128847993Y-91310500D01*
X128960027Y-91280481D01*
X129060473Y-91222488D01*
X129142488Y-91140473D01*
X129200481Y-91040027D01*
X129230500Y-90927993D01*
X129230500Y-90852007D01*
X149879500Y-90852007D01*
X149879500Y-90967993D01*
X149894509Y-91024010D01*
X149909519Y-91080028D01*
X149938515Y-91130250D01*
X149967512Y-91180473D01*
X150049527Y-91262488D01*
X150149973Y-91320481D01*
X150262007Y-91350500D01*
X150262009Y-91350500D01*
X150377991Y-91350500D01*
X150377993Y-91350500D01*
X150490027Y-91320481D01*
X150590473Y-91262488D01*
X150672488Y-91180473D01*
X150730481Y-91080027D01*
X150760500Y-90967993D01*
X150760500Y-90852007D01*
X150731026Y-90742007D01*
X157459500Y-90742007D01*
X157459500Y-90857992D01*
X157489519Y-90970028D01*
X157518515Y-91020250D01*
X157547512Y-91070473D01*
X157629527Y-91152488D01*
X157729973Y-91210481D01*
X157842007Y-91240500D01*
X157842009Y-91240500D01*
X157957991Y-91240500D01*
X157957993Y-91240500D01*
X158070027Y-91210481D01*
X158170473Y-91152488D01*
X158252488Y-91070473D01*
X158310481Y-90970027D01*
X158340500Y-90857993D01*
X158340500Y-90742007D01*
X158310481Y-90629973D01*
X158252488Y-90529527D01*
X158170473Y-90447512D01*
X158165223Y-90444481D01*
X158159657Y-90441267D01*
X158159656Y-90441267D01*
X158139275Y-90429500D01*
X158132649Y-90425674D01*
X158070028Y-90389519D01*
X158014010Y-90374509D01*
X157957993Y-90359500D01*
X157842007Y-90359500D01*
X157729971Y-90389519D01*
X157629527Y-90447512D01*
X157629524Y-90447514D01*
X157547514Y-90529524D01*
X157547512Y-90529527D01*
X157489519Y-90629971D01*
X157459500Y-90742007D01*
X150731026Y-90742007D01*
X150730481Y-90739973D01*
X150672488Y-90639527D01*
X150590473Y-90557512D01*
X150521192Y-90517512D01*
X150490028Y-90499519D01*
X150434010Y-90484509D01*
X150377993Y-90469500D01*
X150262007Y-90469500D01*
X150149971Y-90499519D01*
X150049527Y-90557512D01*
X150049524Y-90557514D01*
X149967514Y-90639524D01*
X149967512Y-90639527D01*
X149909519Y-90739971D01*
X149882583Y-90840500D01*
X149879500Y-90852007D01*
X129230500Y-90852007D01*
X129230500Y-90812007D01*
X129200481Y-90699973D01*
X129142488Y-90599527D01*
X129060473Y-90517512D01*
X129010250Y-90488515D01*
X128960028Y-90459519D01*
X128904010Y-90444509D01*
X128847993Y-90429500D01*
X128732007Y-90429500D01*
X128619971Y-90459519D01*
X128519527Y-90517512D01*
X128519524Y-90517514D01*
X128437514Y-90599524D01*
X128437512Y-90599527D01*
X128379519Y-90699971D01*
X128349500Y-90812007D01*
X114700500Y-90812007D01*
X114700500Y-90342007D01*
X185959500Y-90342007D01*
X185959500Y-90457992D01*
X185989519Y-90570028D01*
X186006549Y-90599524D01*
X186047512Y-90670473D01*
X186129527Y-90752488D01*
X186229973Y-90810481D01*
X186342007Y-90840500D01*
X186342009Y-90840500D01*
X186457991Y-90840500D01*
X186457993Y-90840500D01*
X186570027Y-90810481D01*
X186670473Y-90752488D01*
X186752488Y-90670473D01*
X186810481Y-90570027D01*
X186840500Y-90457993D01*
X186840500Y-90342007D01*
X191459500Y-90342007D01*
X191459500Y-90457992D01*
X191489519Y-90570028D01*
X191506549Y-90599524D01*
X191547512Y-90670473D01*
X191629527Y-90752488D01*
X191729973Y-90810481D01*
X191842007Y-90840500D01*
X191842009Y-90840500D01*
X191957991Y-90840500D01*
X191957993Y-90840500D01*
X192070027Y-90810481D01*
X192170473Y-90752488D01*
X192252488Y-90670473D01*
X192310481Y-90570027D01*
X192340500Y-90457993D01*
X192340500Y-90342007D01*
X192310481Y-90229973D01*
X192252488Y-90129527D01*
X192170473Y-90047512D01*
X192120250Y-90018515D01*
X192070028Y-89989519D01*
X192014010Y-89974509D01*
X191957993Y-89959500D01*
X191842007Y-89959500D01*
X191729971Y-89989519D01*
X191629527Y-90047512D01*
X191629524Y-90047514D01*
X191547514Y-90129524D01*
X191547512Y-90129527D01*
X191489519Y-90229971D01*
X191459500Y-90342007D01*
X186840500Y-90342007D01*
X186810481Y-90229973D01*
X186752488Y-90129527D01*
X186670473Y-90047512D01*
X186620250Y-90018515D01*
X186570028Y-89989519D01*
X186514010Y-89974509D01*
X186457993Y-89959500D01*
X186342007Y-89959500D01*
X186229971Y-89989519D01*
X186129527Y-90047512D01*
X186129524Y-90047514D01*
X186047514Y-90129524D01*
X186047512Y-90129527D01*
X185989519Y-90229971D01*
X185959500Y-90342007D01*
X114700500Y-90342007D01*
X114700500Y-88432007D01*
X144029500Y-88432007D01*
X144029500Y-88547992D01*
X144059519Y-88660028D01*
X144086472Y-88706710D01*
X144117512Y-88760473D01*
X144199527Y-88842488D01*
X144299973Y-88900481D01*
X144412007Y-88930500D01*
X144412009Y-88930500D01*
X144527991Y-88930500D01*
X144527993Y-88930500D01*
X144640027Y-88900481D01*
X144740473Y-88842488D01*
X144822488Y-88760473D01*
X144880481Y-88660027D01*
X144910500Y-88547993D01*
X144910500Y-88542007D01*
X148059500Y-88542007D01*
X148059500Y-88657993D01*
X148074509Y-88714010D01*
X148089519Y-88770028D01*
X148101035Y-88789973D01*
X148147512Y-88870473D01*
X148229527Y-88952488D01*
X148329973Y-89010481D01*
X148442007Y-89040500D01*
X148442009Y-89040500D01*
X148557991Y-89040500D01*
X148557993Y-89040500D01*
X148670027Y-89010481D01*
X148770473Y-88952488D01*
X148852488Y-88870473D01*
X148852490Y-88870468D01*
X148857125Y-88864430D01*
X148913553Y-88823228D01*
X148983299Y-88819073D01*
X149044219Y-88853286D01*
X149076971Y-88915003D01*
X149079500Y-88939917D01*
X149079500Y-89017993D01*
X149085531Y-89040500D01*
X149109519Y-89130028D01*
X149138515Y-89180250D01*
X149167512Y-89230473D01*
X149249527Y-89312488D01*
X149349973Y-89370481D01*
X149462007Y-89400500D01*
X149462009Y-89400500D01*
X149577991Y-89400500D01*
X149577993Y-89400500D01*
X149690027Y-89370481D01*
X149790473Y-89312488D01*
X149872488Y-89230473D01*
X149930481Y-89130027D01*
X149960500Y-89017993D01*
X149960500Y-88902007D01*
X149930481Y-88789973D01*
X149872488Y-88689527D01*
X149790473Y-88607512D01*
X149726332Y-88570480D01*
X149690028Y-88549519D01*
X149634010Y-88534509D01*
X149577993Y-88519500D01*
X149462007Y-88519500D01*
X149349971Y-88549519D01*
X149249527Y-88607512D01*
X149249524Y-88607514D01*
X149167514Y-88689524D01*
X149162873Y-88695573D01*
X149106443Y-88736773D01*
X149036697Y-88740925D01*
X148975778Y-88706710D01*
X148943028Y-88644991D01*
X148940500Y-88620082D01*
X148940500Y-88542009D01*
X148940500Y-88542007D01*
X148910481Y-88429973D01*
X148852488Y-88329527D01*
X148770473Y-88247512D01*
X148690375Y-88201267D01*
X148690373Y-88201265D01*
X148670030Y-88189520D01*
X148670027Y-88189519D01*
X148557993Y-88159500D01*
X148442007Y-88159500D01*
X148329971Y-88189519D01*
X148229527Y-88247512D01*
X148229524Y-88247514D01*
X148147514Y-88329524D01*
X148147512Y-88329527D01*
X148089519Y-88429971D01*
X148082011Y-88457992D01*
X148059500Y-88542007D01*
X144910500Y-88542007D01*
X144910500Y-88432007D01*
X144880481Y-88319973D01*
X144822488Y-88219527D01*
X144740473Y-88137512D01*
X144678977Y-88102007D01*
X150629500Y-88102007D01*
X150629500Y-88217993D01*
X150637410Y-88247514D01*
X150659519Y-88330028D01*
X150688515Y-88380250D01*
X150717512Y-88430473D01*
X150799527Y-88512488D01*
X150886513Y-88562710D01*
X150899186Y-88570027D01*
X150899973Y-88570481D01*
X151012007Y-88600500D01*
X151012009Y-88600500D01*
X151127991Y-88600500D01*
X151127993Y-88600500D01*
X151240027Y-88570481D01*
X151340473Y-88512488D01*
X151422488Y-88430473D01*
X151480481Y-88330027D01*
X151510500Y-88217993D01*
X151510500Y-88102007D01*
X162199500Y-88102007D01*
X162199500Y-88217993D01*
X162207410Y-88247514D01*
X162229519Y-88330028D01*
X162258515Y-88380250D01*
X162287512Y-88430473D01*
X162369527Y-88512488D01*
X162456513Y-88562710D01*
X162469186Y-88570027D01*
X162469973Y-88570481D01*
X162582007Y-88600500D01*
X162582009Y-88600500D01*
X162697991Y-88600500D01*
X162697993Y-88600500D01*
X162810027Y-88570481D01*
X162910473Y-88512488D01*
X162992488Y-88430473D01*
X163043564Y-88342007D01*
X188659500Y-88342007D01*
X188659500Y-88457992D01*
X188689519Y-88570028D01*
X188689781Y-88570481D01*
X188747512Y-88670473D01*
X188829527Y-88752488D01*
X188929973Y-88810481D01*
X189042007Y-88840500D01*
X189042009Y-88840500D01*
X189157991Y-88840500D01*
X189157993Y-88840500D01*
X189270027Y-88810481D01*
X189370473Y-88752488D01*
X189452488Y-88670473D01*
X189510481Y-88570027D01*
X189540500Y-88457993D01*
X189540500Y-88342007D01*
X189510481Y-88229973D01*
X189452488Y-88129527D01*
X189370473Y-88047512D01*
X189320250Y-88018515D01*
X189270028Y-87989519D01*
X189199042Y-87970499D01*
X189157993Y-87959500D01*
X189042007Y-87959500D01*
X188929971Y-87989519D01*
X188829527Y-88047512D01*
X188829524Y-88047514D01*
X188747514Y-88129524D01*
X188747512Y-88129527D01*
X188689519Y-88229971D01*
X188659500Y-88342007D01*
X163043564Y-88342007D01*
X163050481Y-88330027D01*
X163080500Y-88217993D01*
X163080500Y-88102007D01*
X163050481Y-87989973D01*
X162992488Y-87889527D01*
X162910473Y-87807512D01*
X162846332Y-87770480D01*
X162810028Y-87749519D01*
X162754010Y-87734509D01*
X162697993Y-87719500D01*
X162582007Y-87719500D01*
X162469971Y-87749519D01*
X162369527Y-87807512D01*
X162369524Y-87807514D01*
X162287514Y-87889524D01*
X162287512Y-87889527D01*
X162229519Y-87989971D01*
X162199500Y-88102007D01*
X151510500Y-88102007D01*
X151480481Y-87989973D01*
X151422488Y-87889527D01*
X151340473Y-87807512D01*
X151276332Y-87770480D01*
X151240028Y-87749519D01*
X151184010Y-87734509D01*
X151127993Y-87719500D01*
X151012007Y-87719500D01*
X150899971Y-87749519D01*
X150799527Y-87807512D01*
X150799524Y-87807514D01*
X150717514Y-87889524D01*
X150717512Y-87889527D01*
X150659519Y-87989971D01*
X150629500Y-88102007D01*
X144678977Y-88102007D01*
X144640028Y-88079519D01*
X144584010Y-88064509D01*
X144527993Y-88049500D01*
X144412007Y-88049500D01*
X144299971Y-88079519D01*
X144199527Y-88137512D01*
X144199524Y-88137514D01*
X144117514Y-88219524D01*
X144117512Y-88219527D01*
X144059519Y-88319971D01*
X144029500Y-88432007D01*
X114700500Y-88432007D01*
X114700500Y-87472007D01*
X126489500Y-87472007D01*
X126489500Y-87587992D01*
X126519519Y-87700028D01*
X126531339Y-87720500D01*
X126577512Y-87800473D01*
X126659527Y-87882488D01*
X126759973Y-87940481D01*
X126872007Y-87970500D01*
X126872009Y-87970500D01*
X126987991Y-87970500D01*
X126987993Y-87970500D01*
X127100027Y-87940481D01*
X127200473Y-87882488D01*
X127282488Y-87800473D01*
X127340481Y-87700027D01*
X127370500Y-87587993D01*
X127370500Y-87472007D01*
X127340481Y-87359973D01*
X127338119Y-87355883D01*
X127338119Y-87355881D01*
X127338118Y-87355880D01*
X127307014Y-87302007D01*
X144039500Y-87302007D01*
X144039500Y-87417993D01*
X144040576Y-87422007D01*
X144069519Y-87530028D01*
X144098515Y-87580250D01*
X144127512Y-87630473D01*
X144209527Y-87712488D01*
X144309973Y-87770481D01*
X144422007Y-87800500D01*
X144422009Y-87800500D01*
X144537991Y-87800500D01*
X144537993Y-87800500D01*
X144650027Y-87770481D01*
X144750473Y-87712488D01*
X144832488Y-87630473D01*
X144890481Y-87530027D01*
X144920500Y-87417993D01*
X144920500Y-87302007D01*
X144890481Y-87189973D01*
X144832488Y-87089527D01*
X144750473Y-87007512D01*
X144750471Y-87007511D01*
X144750469Y-87007509D01*
X144723410Y-86991887D01*
X144675194Y-86941320D01*
X144661972Y-86872713D01*
X144687940Y-86807848D01*
X144744854Y-86767320D01*
X144785410Y-86760500D01*
X144817991Y-86760500D01*
X144817993Y-86760500D01*
X144930027Y-86730481D01*
X145030473Y-86672488D01*
X145112488Y-86590473D01*
X145170481Y-86490027D01*
X145200500Y-86377993D01*
X145200500Y-86262007D01*
X145170481Y-86149973D01*
X145112488Y-86049527D01*
X145030473Y-85967512D01*
X145030470Y-85967510D01*
X145024024Y-85962564D01*
X145026152Y-85959790D01*
X144989031Y-85920508D01*
X144975500Y-85864182D01*
X144975500Y-83042007D01*
X147859500Y-83042007D01*
X147859500Y-83157992D01*
X147889519Y-83270028D01*
X147918515Y-83320250D01*
X147947512Y-83370473D01*
X148029527Y-83452488D01*
X148129973Y-83510481D01*
X148242007Y-83540500D01*
X148242009Y-83540500D01*
X148357991Y-83540500D01*
X148357993Y-83540500D01*
X148470027Y-83510481D01*
X148570473Y-83452488D01*
X148652488Y-83370473D01*
X148652488Y-83370472D01*
X148658235Y-83364726D01*
X148659251Y-83365742D01*
X148708552Y-83329744D01*
X148778298Y-83325589D01*
X148839218Y-83359801D01*
X148871971Y-83421518D01*
X148874500Y-83446433D01*
X148874500Y-86469373D01*
X148865855Y-86498813D01*
X148859332Y-86528800D01*
X148855577Y-86533815D01*
X148854815Y-86536412D01*
X148838181Y-86557054D01*
X148769929Y-86625306D01*
X148708606Y-86658791D01*
X148666367Y-86658141D01*
X148666049Y-86660561D01*
X148657994Y-86659500D01*
X148657993Y-86659500D01*
X148542007Y-86659500D01*
X148429971Y-86689519D01*
X148329527Y-86747512D01*
X148329524Y-86747514D01*
X148247514Y-86829524D01*
X148247512Y-86829527D01*
X148189519Y-86929971D01*
X148161915Y-87032993D01*
X148159500Y-87042007D01*
X148159500Y-87157993D01*
X148173308Y-87209527D01*
X148189519Y-87270028D01*
X148207983Y-87302007D01*
X148247512Y-87370473D01*
X148329527Y-87452488D01*
X148429973Y-87510481D01*
X148542007Y-87540500D01*
X148542009Y-87540500D01*
X148657991Y-87540500D01*
X148657993Y-87540500D01*
X148770027Y-87510481D01*
X148870473Y-87452488D01*
X148900954Y-87422007D01*
X156479500Y-87422007D01*
X156479500Y-87537993D01*
X156492897Y-87587991D01*
X156509519Y-87650028D01*
X156532875Y-87690480D01*
X156567512Y-87750473D01*
X156649527Y-87832488D01*
X156736124Y-87882485D01*
X156748320Y-87889527D01*
X156749973Y-87890481D01*
X156862007Y-87920500D01*
X156862009Y-87920500D01*
X156977991Y-87920500D01*
X156977993Y-87920500D01*
X157090027Y-87890481D01*
X157190473Y-87832488D01*
X157272488Y-87750473D01*
X157330481Y-87650027D01*
X157360500Y-87537993D01*
X157360500Y-87422007D01*
X157330481Y-87309973D01*
X157272488Y-87209527D01*
X157190473Y-87127512D01*
X157124682Y-87089527D01*
X157090028Y-87069519D01*
X157034010Y-87054509D01*
X156977993Y-87039500D01*
X156862007Y-87039500D01*
X156749971Y-87069519D01*
X156649527Y-87127512D01*
X156649524Y-87127514D01*
X156567514Y-87209524D01*
X156567512Y-87209527D01*
X156509519Y-87309971D01*
X156480576Y-87417991D01*
X156479500Y-87422007D01*
X148900954Y-87422007D01*
X148952488Y-87370473D01*
X149010481Y-87270027D01*
X149040500Y-87157993D01*
X149040500Y-87042007D01*
X149040499Y-87042006D01*
X149039439Y-87033950D01*
X149041340Y-87033699D01*
X149038690Y-87026594D01*
X149043490Y-87004528D01*
X149043655Y-86981947D01*
X149051115Y-86969477D01*
X149053542Y-86958322D01*
X149074686Y-86930075D01*
X149087754Y-86917007D01*
X149684500Y-86917007D01*
X149684500Y-87032993D01*
X149686244Y-87039500D01*
X149714519Y-87145028D01*
X149740468Y-87189971D01*
X149772512Y-87245473D01*
X149854527Y-87327488D01*
X149954973Y-87385481D01*
X150067007Y-87415500D01*
X150067009Y-87415500D01*
X150182991Y-87415500D01*
X150182993Y-87415500D01*
X150295027Y-87385481D01*
X150395473Y-87327488D01*
X150477488Y-87245473D01*
X150535481Y-87145027D01*
X150565500Y-87032993D01*
X150565500Y-86917007D01*
X150545404Y-86842007D01*
X158559500Y-86842007D01*
X158559500Y-86957993D01*
X158573308Y-87009527D01*
X158589519Y-87070028D01*
X158600777Y-87089527D01*
X158647512Y-87170473D01*
X158729527Y-87252488D01*
X158815296Y-87302007D01*
X158829089Y-87309971D01*
X158829973Y-87310481D01*
X158942007Y-87340500D01*
X158942009Y-87340500D01*
X159057991Y-87340500D01*
X159057993Y-87340500D01*
X159170027Y-87310481D01*
X159270473Y-87252488D01*
X159300954Y-87222007D01*
X167119500Y-87222007D01*
X167119500Y-87337993D01*
X167132224Y-87385480D01*
X167149519Y-87450028D01*
X167162209Y-87472007D01*
X167207512Y-87550473D01*
X167289527Y-87632488D01*
X167389973Y-87690481D01*
X167502007Y-87720500D01*
X167502009Y-87720500D01*
X167617991Y-87720500D01*
X167617993Y-87720500D01*
X167730027Y-87690481D01*
X167830473Y-87632488D01*
X167912488Y-87550473D01*
X167970481Y-87450027D01*
X168000500Y-87337993D01*
X168000500Y-87222007D01*
X167992462Y-87192007D01*
X168559500Y-87192007D01*
X168559500Y-87307993D01*
X168564724Y-87327488D01*
X168589519Y-87420028D01*
X168618515Y-87470250D01*
X168647512Y-87520473D01*
X168729527Y-87602488D01*
X168829973Y-87660481D01*
X168942007Y-87690500D01*
X168942009Y-87690500D01*
X169057991Y-87690500D01*
X169057993Y-87690500D01*
X169170027Y-87660481D01*
X169270473Y-87602488D01*
X169352488Y-87520473D01*
X169410481Y-87420027D01*
X169440500Y-87307993D01*
X169440500Y-87192007D01*
X169410481Y-87079973D01*
X169352488Y-86979527D01*
X169270473Y-86897512D01*
X169215846Y-86865973D01*
X169170028Y-86839519D01*
X169099042Y-86820499D01*
X169057993Y-86809500D01*
X168942007Y-86809500D01*
X168829971Y-86839519D01*
X168729527Y-86897512D01*
X168729524Y-86897514D01*
X168647514Y-86979524D01*
X168647512Y-86979527D01*
X168589519Y-87079971D01*
X168572088Y-87145027D01*
X168559500Y-87192007D01*
X167992462Y-87192007D01*
X167970481Y-87109973D01*
X167912488Y-87009527D01*
X167830473Y-86927512D01*
X167778512Y-86897512D01*
X167730028Y-86869519D01*
X167674010Y-86854509D01*
X167617993Y-86839500D01*
X167502007Y-86839500D01*
X167389971Y-86869519D01*
X167289527Y-86927512D01*
X167289524Y-86927514D01*
X167207514Y-87009524D01*
X167207512Y-87009527D01*
X167149519Y-87109971D01*
X167128084Y-87189971D01*
X167119500Y-87222007D01*
X159300954Y-87222007D01*
X159352488Y-87170473D01*
X159410481Y-87070027D01*
X159440500Y-86957993D01*
X159440500Y-86842007D01*
X159410481Y-86729973D01*
X159352488Y-86629527D01*
X159270473Y-86547512D01*
X159186125Y-86498813D01*
X159170028Y-86489519D01*
X159094840Y-86469373D01*
X159057993Y-86459500D01*
X158942007Y-86459500D01*
X158829971Y-86489519D01*
X158729527Y-86547512D01*
X158729524Y-86547514D01*
X158647514Y-86629524D01*
X158647512Y-86629527D01*
X158589519Y-86729971D01*
X158569423Y-86804973D01*
X158559500Y-86842007D01*
X150545404Y-86842007D01*
X150535481Y-86804973D01*
X150477488Y-86704527D01*
X150395473Y-86622512D01*
X150395470Y-86622510D01*
X150389024Y-86617564D01*
X150391152Y-86614790D01*
X150354031Y-86575508D01*
X150340500Y-86519182D01*
X150340500Y-84642007D01*
X160059500Y-84642007D01*
X160059500Y-84757993D01*
X160069246Y-84794365D01*
X160089519Y-84870028D01*
X160118515Y-84920250D01*
X160147512Y-84970473D01*
X160229527Y-85052488D01*
X160329973Y-85110481D01*
X160442007Y-85140500D01*
X160442009Y-85140500D01*
X160557991Y-85140500D01*
X160557993Y-85140500D01*
X160670027Y-85110481D01*
X160770473Y-85052488D01*
X160852488Y-84970473D01*
X160910481Y-84870027D01*
X160940500Y-84757993D01*
X160940500Y-84642007D01*
X160910481Y-84529973D01*
X160852488Y-84429527D01*
X160770473Y-84347512D01*
X160720250Y-84318515D01*
X160670028Y-84289519D01*
X160614010Y-84274509D01*
X160557993Y-84259500D01*
X160442007Y-84259500D01*
X160329971Y-84289519D01*
X160229527Y-84347512D01*
X160229524Y-84347514D01*
X160147514Y-84429524D01*
X160147512Y-84429527D01*
X160089519Y-84529971D01*
X160063771Y-84626068D01*
X160059500Y-84642007D01*
X150340500Y-84642007D01*
X150340500Y-83442007D01*
X150759500Y-83442007D01*
X150759500Y-83557992D01*
X150789519Y-83670028D01*
X150818515Y-83720250D01*
X150847512Y-83770473D01*
X150929527Y-83852488D01*
X151029973Y-83910481D01*
X151142007Y-83940500D01*
X151142009Y-83940500D01*
X151257991Y-83940500D01*
X151257993Y-83940500D01*
X151370027Y-83910481D01*
X151470473Y-83852488D01*
X151493581Y-83829380D01*
X193666950Y-83829380D01*
X193666950Y-84037415D01*
X193699492Y-84242874D01*
X193699492Y-84242877D01*
X193763773Y-84440713D01*
X193763775Y-84440716D01*
X193858216Y-84626068D01*
X193980490Y-84794363D01*
X194127585Y-84941458D01*
X194295880Y-85063732D01*
X194387629Y-85110480D01*
X194481234Y-85158174D01*
X194665769Y-85218132D01*
X194679075Y-85222456D01*
X194760966Y-85235426D01*
X194884533Y-85254998D01*
X194884538Y-85254998D01*
X195092567Y-85254998D01*
X195192171Y-85239221D01*
X195298025Y-85222456D01*
X195298028Y-85222455D01*
X195298029Y-85222455D01*
X195495865Y-85158174D01*
X195495865Y-85158173D01*
X195495868Y-85158173D01*
X195681220Y-85063732D01*
X195849515Y-84941458D01*
X195996610Y-84794363D01*
X196118884Y-84626068D01*
X196213325Y-84440716D01*
X196216961Y-84429527D01*
X196277607Y-84242877D01*
X196277607Y-84242876D01*
X196277608Y-84242873D01*
X196294373Y-84137019D01*
X196310150Y-84037415D01*
X196310150Y-83829380D01*
X199166949Y-83829380D01*
X199166949Y-84037415D01*
X199199491Y-84242874D01*
X199199491Y-84242877D01*
X199263772Y-84440713D01*
X199263774Y-84440716D01*
X199358215Y-84626068D01*
X199480489Y-84794363D01*
X199627584Y-84941458D01*
X199795879Y-85063732D01*
X199887628Y-85110480D01*
X199981233Y-85158174D01*
X200165768Y-85218132D01*
X200179074Y-85222456D01*
X200260965Y-85235426D01*
X200384532Y-85254998D01*
X200384537Y-85254998D01*
X200592566Y-85254998D01*
X200692170Y-85239221D01*
X200798024Y-85222456D01*
X200798027Y-85222455D01*
X200798028Y-85222455D01*
X200995864Y-85158174D01*
X200995864Y-85158173D01*
X200995867Y-85158173D01*
X201181219Y-85063732D01*
X201349514Y-84941458D01*
X201496609Y-84794363D01*
X201618883Y-84626068D01*
X201713324Y-84440716D01*
X201716960Y-84429527D01*
X201777606Y-84242877D01*
X201777606Y-84242876D01*
X201777607Y-84242873D01*
X201794372Y-84137019D01*
X201810149Y-84037415D01*
X201810149Y-83829380D01*
X201784909Y-83670027D01*
X201777607Y-83623923D01*
X201777606Y-83623919D01*
X201777606Y-83623918D01*
X201713325Y-83426082D01*
X201711000Y-83421518D01*
X201618883Y-83240728D01*
X201496609Y-83072433D01*
X201349514Y-82925338D01*
X201181219Y-82803064D01*
X201178929Y-82801897D01*
X200995864Y-82708621D01*
X200798026Y-82644340D01*
X200592566Y-82611798D01*
X200592561Y-82611798D01*
X200384537Y-82611798D01*
X200384532Y-82611798D01*
X200179072Y-82644340D01*
X200179069Y-82644340D01*
X199981233Y-82708621D01*
X199795878Y-82803064D01*
X199708760Y-82866360D01*
X199627584Y-82925338D01*
X199627582Y-82925340D01*
X199627581Y-82925340D01*
X199480491Y-83072430D01*
X199480491Y-83072431D01*
X199480489Y-83072433D01*
X199427977Y-83144708D01*
X199358215Y-83240727D01*
X199263772Y-83426082D01*
X199199491Y-83623918D01*
X199199491Y-83623921D01*
X199166949Y-83829380D01*
X196310150Y-83829380D01*
X196284910Y-83670027D01*
X196277608Y-83623923D01*
X196277607Y-83623919D01*
X196277607Y-83623918D01*
X196213326Y-83426082D01*
X196211001Y-83421518D01*
X196118884Y-83240728D01*
X195996610Y-83072433D01*
X195849515Y-82925338D01*
X195681220Y-82803064D01*
X195678930Y-82801897D01*
X195495865Y-82708621D01*
X195298027Y-82644340D01*
X195092567Y-82611798D01*
X195092562Y-82611798D01*
X194884538Y-82611798D01*
X194884533Y-82611798D01*
X194679073Y-82644340D01*
X194679070Y-82644340D01*
X194481234Y-82708621D01*
X194295879Y-82803064D01*
X194208761Y-82866360D01*
X194127585Y-82925338D01*
X194127583Y-82925340D01*
X194127582Y-82925340D01*
X193980492Y-83072430D01*
X193980492Y-83072431D01*
X193980490Y-83072433D01*
X193927978Y-83144708D01*
X193858216Y-83240727D01*
X193763773Y-83426082D01*
X193699492Y-83623918D01*
X193699492Y-83623921D01*
X193666950Y-83829380D01*
X151493581Y-83829380D01*
X151552488Y-83770473D01*
X151610481Y-83670027D01*
X151640500Y-83557993D01*
X151640500Y-83442007D01*
X151610481Y-83329973D01*
X151552488Y-83229527D01*
X151470473Y-83147512D01*
X151420250Y-83118515D01*
X151370028Y-83089519D01*
X151306249Y-83072430D01*
X151257993Y-83059500D01*
X151142007Y-83059500D01*
X151029971Y-83089519D01*
X150929527Y-83147512D01*
X150929524Y-83147514D01*
X150847514Y-83229524D01*
X150847512Y-83229527D01*
X150789519Y-83329971D01*
X150759500Y-83442007D01*
X150340500Y-83442007D01*
X150340500Y-82242007D01*
X153959500Y-82242007D01*
X153959500Y-82357993D01*
X153962519Y-82369261D01*
X153989519Y-82470028D01*
X154009071Y-82503892D01*
X154047512Y-82570473D01*
X154129527Y-82652488D01*
X154216513Y-82702710D01*
X154226278Y-82708348D01*
X154229973Y-82710481D01*
X154342007Y-82740500D01*
X154342009Y-82740500D01*
X154457991Y-82740500D01*
X154457993Y-82740500D01*
X154570027Y-82710481D01*
X154670473Y-82652488D01*
X154752488Y-82570473D01*
X154810481Y-82470027D01*
X154840500Y-82357993D01*
X154840500Y-82242007D01*
X154810481Y-82129973D01*
X154752488Y-82029527D01*
X154670473Y-81947512D01*
X154620250Y-81918515D01*
X154570028Y-81889519D01*
X154507641Y-81872803D01*
X154457993Y-81859500D01*
X154342007Y-81859500D01*
X154229971Y-81889519D01*
X154129527Y-81947512D01*
X154129524Y-81947514D01*
X154047514Y-82029524D01*
X154047512Y-82029527D01*
X153989519Y-82129971D01*
X153984711Y-82147917D01*
X153959500Y-82242007D01*
X150340500Y-82242007D01*
X150340500Y-81232007D01*
X156449500Y-81232007D01*
X156449500Y-81347993D01*
X156457420Y-81377550D01*
X156479519Y-81460028D01*
X156508515Y-81510250D01*
X156537512Y-81560473D01*
X156619527Y-81642488D01*
X156719973Y-81700481D01*
X156832007Y-81730500D01*
X156832009Y-81730500D01*
X156947991Y-81730500D01*
X156947993Y-81730500D01*
X157060027Y-81700481D01*
X157160473Y-81642488D01*
X157242488Y-81560473D01*
X157300481Y-81460027D01*
X157330500Y-81347993D01*
X157330500Y-81232007D01*
X157300481Y-81119973D01*
X157242488Y-81019527D01*
X157160473Y-80937512D01*
X157110250Y-80908515D01*
X157060028Y-80879519D01*
X156988971Y-80860480D01*
X156947993Y-80849500D01*
X156832007Y-80849500D01*
X156719971Y-80879519D01*
X156619527Y-80937512D01*
X156619524Y-80937514D01*
X156537514Y-81019524D01*
X156537512Y-81019527D01*
X156479519Y-81119971D01*
X156458084Y-81199971D01*
X156449500Y-81232007D01*
X150340500Y-81232007D01*
X150340500Y-80392007D01*
X167409500Y-80392007D01*
X167409500Y-80507992D01*
X167439519Y-80620028D01*
X167462886Y-80660499D01*
X167497512Y-80720473D01*
X167579527Y-80802488D01*
X167679973Y-80860481D01*
X167792007Y-80890500D01*
X167792009Y-80890500D01*
X167907991Y-80890500D01*
X167907993Y-80890500D01*
X168020027Y-80860481D01*
X168120473Y-80802488D01*
X168202488Y-80720473D01*
X168260481Y-80620027D01*
X168290500Y-80507993D01*
X168290500Y-80392007D01*
X168260481Y-80279973D01*
X168223476Y-80215880D01*
X168223476Y-80215878D01*
X168202491Y-80179533D01*
X168202488Y-80179527D01*
X168184968Y-80162007D01*
X176169500Y-80162007D01*
X176169500Y-80277992D01*
X176199519Y-80390028D01*
X176200662Y-80392007D01*
X176257512Y-80490473D01*
X176339527Y-80572488D01*
X176439973Y-80630481D01*
X176552007Y-80660500D01*
X176552009Y-80660500D01*
X176667991Y-80660500D01*
X176667993Y-80660500D01*
X176780027Y-80630481D01*
X176880473Y-80572488D01*
X176962488Y-80490473D01*
X177020481Y-80390027D01*
X177050500Y-80277993D01*
X177050500Y-80162007D01*
X177020481Y-80049973D01*
X176962488Y-79949527D01*
X176880473Y-79867512D01*
X176828340Y-79837413D01*
X176780028Y-79809519D01*
X176724010Y-79794509D01*
X176667993Y-79779500D01*
X176552007Y-79779500D01*
X176439971Y-79809519D01*
X176339527Y-79867512D01*
X176339524Y-79867514D01*
X176257514Y-79949524D01*
X176257512Y-79949527D01*
X176199519Y-80049971D01*
X176169500Y-80162007D01*
X168184968Y-80162007D01*
X168120473Y-80097512D01*
X168038134Y-80049973D01*
X168020028Y-80039519D01*
X167964010Y-80024509D01*
X167907993Y-80009500D01*
X167792007Y-80009500D01*
X167679971Y-80039519D01*
X167579527Y-80097512D01*
X167579524Y-80097514D01*
X167497514Y-80179524D01*
X167497512Y-80179527D01*
X167439519Y-80279971D01*
X167409500Y-80392007D01*
X150340500Y-80392007D01*
X150340500Y-79629383D01*
X193666950Y-79629383D01*
X193666950Y-79837418D01*
X193699492Y-80042877D01*
X193699492Y-80042880D01*
X193763773Y-80240716D01*
X193839851Y-80390027D01*
X193858216Y-80426071D01*
X193980490Y-80594366D01*
X194127585Y-80741461D01*
X194295880Y-80863735D01*
X194481232Y-80958176D01*
X194481234Y-80958177D01*
X194602296Y-80997512D01*
X194679075Y-81022459D01*
X194760966Y-81035429D01*
X194884533Y-81055001D01*
X194884538Y-81055001D01*
X195092567Y-81055001D01*
X195192171Y-81039224D01*
X195298025Y-81022459D01*
X195298028Y-81022458D01*
X195298029Y-81022458D01*
X195495865Y-80958177D01*
X195495865Y-80958176D01*
X195495868Y-80958176D01*
X195681220Y-80863735D01*
X195849515Y-80741461D01*
X195996610Y-80594366D01*
X196118884Y-80426071D01*
X196213325Y-80240719D01*
X196233206Y-80179533D01*
X196277607Y-80042880D01*
X196277607Y-80042879D01*
X196277608Y-80042876D01*
X196302837Y-79883586D01*
X196310150Y-79837418D01*
X196310150Y-79629383D01*
X199166949Y-79629383D01*
X199166949Y-79837418D01*
X199199491Y-80042877D01*
X199199491Y-80042880D01*
X199263772Y-80240716D01*
X199339850Y-80390027D01*
X199358215Y-80426071D01*
X199480489Y-80594366D01*
X199627584Y-80741461D01*
X199795879Y-80863735D01*
X199981231Y-80958176D01*
X199981233Y-80958177D01*
X200102295Y-80997512D01*
X200179074Y-81022459D01*
X200260965Y-81035429D01*
X200384532Y-81055001D01*
X200384537Y-81055001D01*
X200592566Y-81055001D01*
X200692170Y-81039224D01*
X200798024Y-81022459D01*
X200798027Y-81022458D01*
X200798028Y-81022458D01*
X200995864Y-80958177D01*
X200995864Y-80958176D01*
X200995867Y-80958176D01*
X201181219Y-80863735D01*
X201349514Y-80741461D01*
X201496609Y-80594366D01*
X201618883Y-80426071D01*
X201713324Y-80240719D01*
X201733205Y-80179533D01*
X201777606Y-80042880D01*
X201777606Y-80042879D01*
X201777607Y-80042876D01*
X201802836Y-79883586D01*
X201810149Y-79837418D01*
X201810149Y-79629383D01*
X201791217Y-79509858D01*
X201777607Y-79423926D01*
X201777606Y-79423922D01*
X201777606Y-79423921D01*
X201713325Y-79226085D01*
X201618882Y-79040730D01*
X201496609Y-78872436D01*
X201349514Y-78725341D01*
X201181219Y-78603067D01*
X201140477Y-78582308D01*
X200995864Y-78508624D01*
X200798026Y-78444343D01*
X200592566Y-78411801D01*
X200592561Y-78411801D01*
X200384537Y-78411801D01*
X200384532Y-78411801D01*
X200179072Y-78444343D01*
X200179069Y-78444343D01*
X199981233Y-78508624D01*
X199795878Y-78603067D01*
X199699859Y-78672829D01*
X199627584Y-78725341D01*
X199627582Y-78725343D01*
X199627581Y-78725343D01*
X199480491Y-78872433D01*
X199480491Y-78872434D01*
X199480489Y-78872436D01*
X199427977Y-78944711D01*
X199358215Y-79040730D01*
X199263772Y-79226085D01*
X199199491Y-79423921D01*
X199199491Y-79423924D01*
X199166949Y-79629383D01*
X196310150Y-79629383D01*
X196291218Y-79509858D01*
X196277608Y-79423926D01*
X196277607Y-79423922D01*
X196277607Y-79423921D01*
X196213326Y-79226085D01*
X196118883Y-79040730D01*
X195996610Y-78872436D01*
X195849515Y-78725341D01*
X195681220Y-78603067D01*
X195640478Y-78582308D01*
X195495865Y-78508624D01*
X195298027Y-78444343D01*
X195092567Y-78411801D01*
X195092562Y-78411801D01*
X194884538Y-78411801D01*
X194884533Y-78411801D01*
X194679073Y-78444343D01*
X194679070Y-78444343D01*
X194481234Y-78508624D01*
X194295879Y-78603067D01*
X194199860Y-78672829D01*
X194127585Y-78725341D01*
X194127583Y-78725343D01*
X194127582Y-78725343D01*
X193980492Y-78872433D01*
X193980492Y-78872434D01*
X193980490Y-78872436D01*
X193927978Y-78944711D01*
X193858216Y-79040730D01*
X193763773Y-79226085D01*
X193699492Y-79423921D01*
X193699492Y-79423924D01*
X193666950Y-79629383D01*
X150340500Y-79629383D01*
X150340500Y-78905624D01*
X150360185Y-78838585D01*
X150376815Y-78817947D01*
X150796724Y-78398037D01*
X150852309Y-78365945D01*
X150910027Y-78350481D01*
X151010473Y-78292488D01*
X151092488Y-78210473D01*
X151150481Y-78110027D01*
X151180500Y-77997993D01*
X151180500Y-77882007D01*
X151150481Y-77769973D01*
X151092488Y-77669527D01*
X151010473Y-77587512D01*
X150944682Y-77549527D01*
X150910028Y-77529519D01*
X150854010Y-77514509D01*
X150797993Y-77499500D01*
X150682007Y-77499500D01*
X150569971Y-77529519D01*
X150469527Y-77587512D01*
X150469524Y-77587514D01*
X150387514Y-77669524D01*
X150387512Y-77669527D01*
X150329519Y-77769971D01*
X150329504Y-77770028D01*
X150299500Y-77882007D01*
X150299500Y-77997993D01*
X150324280Y-78090472D01*
X150329519Y-78110026D01*
X150329522Y-78110033D01*
X150335271Y-78119991D01*
X150351744Y-78187891D01*
X150328891Y-78253918D01*
X150315565Y-78269671D01*
X150002929Y-78582308D01*
X149942309Y-78642927D01*
X149909500Y-78722133D01*
X149909500Y-86519182D01*
X149889815Y-86586221D01*
X149859330Y-86615419D01*
X149860976Y-86617564D01*
X149854524Y-86622514D01*
X149772514Y-86704524D01*
X149772512Y-86704527D01*
X149714519Y-86804971D01*
X149696368Y-86872713D01*
X149684500Y-86917007D01*
X149087754Y-86917007D01*
X149272693Y-86732070D01*
X149302752Y-86659500D01*
X149305500Y-86652866D01*
X149305500Y-78275818D01*
X149325185Y-78208779D01*
X149356038Y-78180065D01*
X149354022Y-78177438D01*
X149360466Y-78172491D01*
X149360473Y-78172488D01*
X149442488Y-78090473D01*
X149500481Y-77990027D01*
X149530500Y-77877993D01*
X149530500Y-77762007D01*
X149500481Y-77649973D01*
X149442488Y-77549527D01*
X149360473Y-77467512D01*
X149295451Y-77429971D01*
X149260028Y-77409519D01*
X149204010Y-77394509D01*
X149147993Y-77379500D01*
X149032007Y-77379500D01*
X148919971Y-77409519D01*
X148819527Y-77467512D01*
X148819524Y-77467514D01*
X148737514Y-77549524D01*
X148737512Y-77549527D01*
X148679519Y-77649971D01*
X148649500Y-77762007D01*
X148649500Y-77877992D01*
X148679519Y-77990028D01*
X148691328Y-78010481D01*
X148737512Y-78090473D01*
X148819527Y-78172488D01*
X148819529Y-78172489D01*
X148825978Y-78177438D01*
X148823542Y-78180611D01*
X148859305Y-78216342D01*
X148874500Y-78275818D01*
X148874500Y-82753566D01*
X148854815Y-82820605D01*
X148802011Y-82866360D01*
X148732853Y-82876304D01*
X148669297Y-82847279D01*
X148653908Y-82830947D01*
X148570475Y-82747514D01*
X148570473Y-82747512D01*
X148503116Y-82708623D01*
X148470028Y-82689519D01*
X148414010Y-82674509D01*
X148357993Y-82659500D01*
X148242007Y-82659500D01*
X148129971Y-82689519D01*
X148029527Y-82747512D01*
X148029524Y-82747514D01*
X147947514Y-82829524D01*
X147947512Y-82829527D01*
X147889519Y-82929971D01*
X147859500Y-83042007D01*
X144975500Y-83042007D01*
X144975500Y-79950625D01*
X144995185Y-79883586D01*
X145011819Y-79862944D01*
X146020500Y-78854263D01*
X147052693Y-77822070D01*
X147085500Y-77742865D01*
X147085500Y-77657134D01*
X147085500Y-77605818D01*
X147105185Y-77538779D01*
X147136038Y-77510065D01*
X147134022Y-77507438D01*
X147140466Y-77502491D01*
X147140473Y-77502488D01*
X147222488Y-77420473D01*
X147280481Y-77320027D01*
X147301386Y-77242007D01*
X154159500Y-77242007D01*
X154159500Y-77357992D01*
X154189519Y-77470028D01*
X154211118Y-77507438D01*
X154247512Y-77570473D01*
X154329527Y-77652488D01*
X154429973Y-77710481D01*
X154542007Y-77740500D01*
X154542009Y-77740500D01*
X154657991Y-77740500D01*
X154657993Y-77740500D01*
X154770027Y-77710481D01*
X154870473Y-77652488D01*
X154952488Y-77570473D01*
X155010481Y-77470027D01*
X155040500Y-77357993D01*
X155040500Y-77242007D01*
X155010481Y-77129973D01*
X154952488Y-77029527D01*
X154870473Y-76947512D01*
X154820250Y-76918515D01*
X154770028Y-76889519D01*
X154714010Y-76874509D01*
X154657993Y-76859500D01*
X154542007Y-76859500D01*
X154429971Y-76889519D01*
X154329527Y-76947512D01*
X154329524Y-76947514D01*
X154247514Y-77029524D01*
X154247512Y-77029527D01*
X154189519Y-77129971D01*
X154159500Y-77242007D01*
X147301386Y-77242007D01*
X147310500Y-77207993D01*
X147310500Y-77092007D01*
X147280481Y-76979973D01*
X147222488Y-76879527D01*
X147140473Y-76797512D01*
X147062490Y-76752488D01*
X147040028Y-76739519D01*
X146984010Y-76724509D01*
X146927993Y-76709500D01*
X146812007Y-76709500D01*
X146699971Y-76739519D01*
X146599527Y-76797512D01*
X146599524Y-76797514D01*
X146517514Y-76879524D01*
X146517512Y-76879527D01*
X146459519Y-76979971D01*
X146437947Y-77060481D01*
X146429500Y-77092007D01*
X146429500Y-77207993D01*
X146444509Y-77264010D01*
X146459519Y-77320028D01*
X146481438Y-77357991D01*
X146517512Y-77420473D01*
X146517514Y-77420475D01*
X146593457Y-77496418D01*
X146626942Y-77557741D01*
X146621958Y-77627433D01*
X146593457Y-77671780D01*
X144577309Y-79687927D01*
X144544500Y-79767133D01*
X144544500Y-85864182D01*
X144524815Y-85931221D01*
X144494330Y-85960419D01*
X144495976Y-85962564D01*
X144489524Y-85967514D01*
X144407514Y-86049524D01*
X144407512Y-86049527D01*
X144349519Y-86149971D01*
X144319500Y-86262007D01*
X144319500Y-86377992D01*
X144349519Y-86490028D01*
X144371905Y-86528800D01*
X144407512Y-86590473D01*
X144489527Y-86672488D01*
X144489528Y-86672489D01*
X144489530Y-86672490D01*
X144516590Y-86688113D01*
X144564806Y-86738680D01*
X144578028Y-86807287D01*
X144552060Y-86872152D01*
X144495146Y-86912680D01*
X144454590Y-86919500D01*
X144422007Y-86919500D01*
X144309971Y-86949519D01*
X144209527Y-87007512D01*
X144209524Y-87007514D01*
X144127514Y-87089524D01*
X144127512Y-87089527D01*
X144069519Y-87189971D01*
X144039500Y-87302007D01*
X127307014Y-87302007D01*
X127282490Y-87259530D01*
X127282485Y-87259524D01*
X127200475Y-87177514D01*
X127200473Y-87177512D01*
X127113875Y-87127514D01*
X127100028Y-87119519D01*
X127044010Y-87104509D01*
X126987993Y-87089500D01*
X126872007Y-87089500D01*
X126759971Y-87119519D01*
X126659527Y-87177512D01*
X126659524Y-87177514D01*
X126577514Y-87259524D01*
X126577512Y-87259527D01*
X126519519Y-87359971D01*
X126489500Y-87472007D01*
X114700500Y-87472007D01*
X114700500Y-86322007D01*
X127239500Y-86322007D01*
X127239500Y-86437992D01*
X127269519Y-86550028D01*
X127290416Y-86586221D01*
X127327512Y-86650473D01*
X127409527Y-86732488D01*
X127509973Y-86790481D01*
X127622007Y-86820500D01*
X127622009Y-86820500D01*
X127737991Y-86820500D01*
X127737993Y-86820500D01*
X127850027Y-86790481D01*
X127950473Y-86732488D01*
X128032488Y-86650473D01*
X128090481Y-86550027D01*
X128120500Y-86437993D01*
X128120500Y-86322007D01*
X128090481Y-86209973D01*
X128032488Y-86109527D01*
X127950473Y-86027512D01*
X127900250Y-85998515D01*
X127850028Y-85969519D01*
X127794010Y-85954509D01*
X127737993Y-85939500D01*
X127622007Y-85939500D01*
X127509971Y-85969519D01*
X127409527Y-86027512D01*
X127409524Y-86027514D01*
X127327514Y-86109524D01*
X127327512Y-86109527D01*
X127269519Y-86209971D01*
X127239500Y-86322007D01*
X114700500Y-86322007D01*
X114700500Y-85042007D01*
X132709500Y-85042007D01*
X132709500Y-85157993D01*
X132724509Y-85214010D01*
X132739519Y-85270028D01*
X132768515Y-85320250D01*
X132797512Y-85370473D01*
X132879527Y-85452488D01*
X132979973Y-85510481D01*
X133092007Y-85540500D01*
X133092009Y-85540500D01*
X133207991Y-85540500D01*
X133207993Y-85540500D01*
X133320027Y-85510481D01*
X133420473Y-85452488D01*
X133502488Y-85370473D01*
X133560481Y-85270027D01*
X133590500Y-85157993D01*
X133590500Y-85042007D01*
X133560481Y-84929973D01*
X133502488Y-84829527D01*
X133420473Y-84747512D01*
X133370250Y-84718515D01*
X133320028Y-84689519D01*
X133264010Y-84674509D01*
X133207993Y-84659500D01*
X133092007Y-84659500D01*
X132979971Y-84689519D01*
X132879527Y-84747512D01*
X132879524Y-84747514D01*
X132797514Y-84829524D01*
X132797512Y-84829527D01*
X132739519Y-84929971D01*
X132709500Y-85042007D01*
X114700500Y-85042007D01*
X114700500Y-82261995D01*
X116769500Y-82261995D01*
X116769500Y-82498004D01*
X116769501Y-82498020D01*
X116800306Y-82732010D01*
X116861394Y-82959993D01*
X116951714Y-83178045D01*
X116951719Y-83178056D01*
X117004820Y-83270028D01*
X117069727Y-83382450D01*
X117069729Y-83382453D01*
X117069730Y-83382454D01*
X117213406Y-83569697D01*
X117213412Y-83569704D01*
X117380295Y-83736587D01*
X117380302Y-83736593D01*
X117424458Y-83770475D01*
X117567550Y-83880273D01*
X117698918Y-83956118D01*
X117771943Y-83998280D01*
X117771948Y-83998282D01*
X117771951Y-83998284D01*
X117990007Y-84088606D01*
X118217986Y-84149693D01*
X118451989Y-84180500D01*
X118451996Y-84180500D01*
X118688004Y-84180500D01*
X118688011Y-84180500D01*
X118922014Y-84149693D01*
X119149993Y-84088606D01*
X119368049Y-83998284D01*
X119572450Y-83880273D01*
X119759699Y-83736592D01*
X119926592Y-83569699D01*
X120070273Y-83382450D01*
X120188284Y-83178049D01*
X120278606Y-82959993D01*
X120339693Y-82732014D01*
X120370500Y-82498011D01*
X120370500Y-82261989D01*
X120339693Y-82027986D01*
X120305113Y-81898933D01*
X141628000Y-81898933D01*
X141628000Y-82060862D01*
X141659587Y-82219658D01*
X141659590Y-82219670D01*
X141721549Y-82369254D01*
X141721556Y-82369267D01*
X141811510Y-82503891D01*
X141811513Y-82503895D01*
X141926002Y-82618384D01*
X141926006Y-82618387D01*
X142060630Y-82708341D01*
X142060643Y-82708348D01*
X142177816Y-82756882D01*
X142210232Y-82770309D01*
X142369035Y-82801897D01*
X142369038Y-82801898D01*
X142369040Y-82801898D01*
X142530962Y-82801898D01*
X142530963Y-82801897D01*
X142689768Y-82770309D01*
X142839363Y-82708345D01*
X142973994Y-82618387D01*
X143088489Y-82503892D01*
X143178447Y-82369261D01*
X143240411Y-82219666D01*
X143272000Y-82060858D01*
X143272000Y-81898938D01*
X143272000Y-81898935D01*
X143271999Y-81898933D01*
X143264155Y-81859500D01*
X143240411Y-81740130D01*
X143236422Y-81730499D01*
X143178450Y-81590541D01*
X143178443Y-81590528D01*
X143088489Y-81455904D01*
X143088486Y-81455900D01*
X142973997Y-81341411D01*
X142973993Y-81341408D01*
X142839369Y-81251454D01*
X142839356Y-81251447D01*
X142689772Y-81189488D01*
X142689760Y-81189485D01*
X142530963Y-81157898D01*
X142530960Y-81157898D01*
X142369040Y-81157898D01*
X142369037Y-81157898D01*
X142210239Y-81189485D01*
X142210227Y-81189488D01*
X142060643Y-81251447D01*
X142060630Y-81251454D01*
X141926006Y-81341408D01*
X141926002Y-81341411D01*
X141811513Y-81455900D01*
X141811510Y-81455904D01*
X141721556Y-81590528D01*
X141721549Y-81590541D01*
X141659590Y-81740125D01*
X141659587Y-81740137D01*
X141628000Y-81898933D01*
X120305113Y-81898933D01*
X120278606Y-81800007D01*
X120188284Y-81581951D01*
X120188282Y-81581948D01*
X120188280Y-81581943D01*
X120087849Y-81407993D01*
X120070273Y-81377550D01*
X120056319Y-81359365D01*
X120056319Y-81359364D01*
X120004634Y-81292007D01*
X127629500Y-81292007D01*
X127629500Y-81407993D01*
X127642338Y-81455904D01*
X127659519Y-81520028D01*
X127682870Y-81560472D01*
X127717512Y-81620473D01*
X127799527Y-81702488D01*
X127899973Y-81760481D01*
X128012007Y-81790500D01*
X128012009Y-81790500D01*
X128127991Y-81790500D01*
X128127993Y-81790500D01*
X128240027Y-81760481D01*
X128340473Y-81702488D01*
X128422488Y-81620473D01*
X128480481Y-81520027D01*
X128510500Y-81407993D01*
X128510500Y-81312007D01*
X133029500Y-81312007D01*
X133029500Y-81427992D01*
X133059519Y-81540028D01*
X133083719Y-81581943D01*
X133117512Y-81640473D01*
X133199527Y-81722488D01*
X133267925Y-81761978D01*
X133299969Y-81780479D01*
X133299973Y-81780481D01*
X133412007Y-81810500D01*
X133412009Y-81810500D01*
X133527991Y-81810500D01*
X133527993Y-81810500D01*
X133640027Y-81780481D01*
X133740473Y-81722488D01*
X133822488Y-81640473D01*
X133880481Y-81540027D01*
X133910500Y-81427993D01*
X133910500Y-81312007D01*
X133880481Y-81199973D01*
X133822488Y-81099527D01*
X133740473Y-81017512D01*
X133690250Y-80988515D01*
X133640028Y-80959519D01*
X133557902Y-80937514D01*
X133527993Y-80929500D01*
X133412007Y-80929500D01*
X133299971Y-80959519D01*
X133199527Y-81017512D01*
X133199524Y-81017514D01*
X133117514Y-81099524D01*
X133117512Y-81099527D01*
X133059519Y-81199971D01*
X133029500Y-81312007D01*
X128510500Y-81312007D01*
X128510500Y-81292007D01*
X128480481Y-81179973D01*
X128422488Y-81079527D01*
X128340473Y-80997512D01*
X128274668Y-80959519D01*
X128240028Y-80939519D01*
X128184010Y-80924509D01*
X128127993Y-80909500D01*
X128012007Y-80909500D01*
X127899971Y-80939519D01*
X127799527Y-80997512D01*
X127799524Y-80997514D01*
X127717514Y-81079524D01*
X127717512Y-81079527D01*
X127659519Y-81179971D01*
X127645576Y-81232009D01*
X127629500Y-81292007D01*
X120004634Y-81292007D01*
X119926593Y-81190302D01*
X119926587Y-81190295D01*
X119759704Y-81023412D01*
X119759697Y-81023406D01*
X119572454Y-80879730D01*
X119572453Y-80879729D01*
X119572450Y-80879727D01*
X119490957Y-80832677D01*
X119368056Y-80761719D01*
X119368045Y-80761714D01*
X119149993Y-80671394D01*
X118922010Y-80610306D01*
X118688020Y-80579501D01*
X118688017Y-80579500D01*
X118688011Y-80579500D01*
X118451989Y-80579500D01*
X118451983Y-80579500D01*
X118451979Y-80579501D01*
X118217989Y-80610306D01*
X117990006Y-80671394D01*
X117771954Y-80761714D01*
X117771943Y-80761719D01*
X117567545Y-80879730D01*
X117380302Y-81023406D01*
X117380295Y-81023412D01*
X117213412Y-81190295D01*
X117213406Y-81190302D01*
X117069730Y-81377545D01*
X116951719Y-81581943D01*
X116951714Y-81581954D01*
X116861394Y-81800006D01*
X116800306Y-82027989D01*
X116769501Y-82261979D01*
X116769500Y-82261995D01*
X114700500Y-82261995D01*
X114700500Y-77542007D01*
X121759500Y-77542007D01*
X121759500Y-77657993D01*
X121763194Y-77671780D01*
X121789519Y-77770028D01*
X121818515Y-77820250D01*
X121847512Y-77870473D01*
X121929527Y-77952488D01*
X122029973Y-78010481D01*
X122142007Y-78040500D01*
X122142009Y-78040500D01*
X122257991Y-78040500D01*
X122257993Y-78040500D01*
X122370027Y-78010481D01*
X122470473Y-77952488D01*
X122552488Y-77870473D01*
X122610481Y-77770027D01*
X122640500Y-77657993D01*
X122640500Y-77542007D01*
X122610481Y-77429973D01*
X122552488Y-77329527D01*
X122470473Y-77247512D01*
X122402018Y-77207989D01*
X122370028Y-77189519D01*
X122314010Y-77174509D01*
X122257993Y-77159500D01*
X122142007Y-77159500D01*
X122029971Y-77189519D01*
X121929527Y-77247512D01*
X121929524Y-77247514D01*
X121847514Y-77329524D01*
X121847512Y-77329527D01*
X121789519Y-77429971D01*
X121768059Y-77510065D01*
X121759500Y-77542007D01*
X114700500Y-77542007D01*
X114700500Y-76342007D01*
X119009500Y-76342007D01*
X119009500Y-76457993D01*
X119024509Y-76514010D01*
X119039519Y-76570028D01*
X119052209Y-76592007D01*
X119097512Y-76670473D01*
X119179527Y-76752488D01*
X119279973Y-76810481D01*
X119392007Y-76840500D01*
X119392009Y-76840500D01*
X119507991Y-76840500D01*
X119507993Y-76840500D01*
X119620027Y-76810481D01*
X119720473Y-76752488D01*
X119802488Y-76670473D01*
X119860481Y-76570027D01*
X119890500Y-76457993D01*
X119890500Y-76342007D01*
X119860481Y-76229973D01*
X119802488Y-76129527D01*
X119720473Y-76047512D01*
X119670250Y-76018515D01*
X119620028Y-75989519D01*
X119564010Y-75974509D01*
X119507993Y-75959500D01*
X119392007Y-75959500D01*
X119279971Y-75989519D01*
X119179527Y-76047512D01*
X119179524Y-76047514D01*
X119097514Y-76129524D01*
X119097512Y-76129527D01*
X119039519Y-76229971D01*
X119009500Y-76342007D01*
X114700500Y-76342007D01*
X114700500Y-75742007D01*
X123059500Y-75742007D01*
X123059500Y-75857992D01*
X123089519Y-75970028D01*
X123118515Y-76020250D01*
X123147512Y-76070473D01*
X123229527Y-76152488D01*
X123229528Y-76152489D01*
X123229530Y-76152490D01*
X123309566Y-76198699D01*
X123357782Y-76249266D01*
X123371004Y-76317873D01*
X123349899Y-76371521D01*
X123351576Y-76372489D01*
X123289519Y-76479971D01*
X123259500Y-76592007D01*
X123259500Y-76707992D01*
X123289519Y-76820028D01*
X123301339Y-76840500D01*
X123347512Y-76920473D01*
X123429527Y-77002488D01*
X123529973Y-77060481D01*
X123642007Y-77090500D01*
X123642009Y-77090500D01*
X123757991Y-77090500D01*
X123757993Y-77090500D01*
X123870027Y-77060481D01*
X123970473Y-77002488D01*
X124052488Y-76920473D01*
X124110481Y-76820027D01*
X124140500Y-76707993D01*
X124140500Y-76592007D01*
X124110481Y-76479973D01*
X124052488Y-76379527D01*
X123970473Y-76297512D01*
X123890431Y-76251299D01*
X123881605Y-76242042D01*
X123870043Y-76236583D01*
X123857957Y-76217240D01*
X123842217Y-76200732D01*
X123839797Y-76188175D01*
X123833020Y-76177329D01*
X123833310Y-76154519D01*
X123830899Y-76142007D01*
X125959500Y-76142007D01*
X125959500Y-76257993D01*
X125971234Y-76301786D01*
X125989519Y-76370028D01*
X126018515Y-76420250D01*
X126047512Y-76470473D01*
X126129527Y-76552488D01*
X126229973Y-76610481D01*
X126342007Y-76640500D01*
X126342009Y-76640500D01*
X126457991Y-76640500D01*
X126457993Y-76640500D01*
X126570027Y-76610481D01*
X126670473Y-76552488D01*
X126752488Y-76470473D01*
X126810481Y-76370027D01*
X126817989Y-76342007D01*
X194429500Y-76342007D01*
X194429500Y-76457993D01*
X194444509Y-76514010D01*
X194459519Y-76570028D01*
X194472209Y-76592007D01*
X194517512Y-76670473D01*
X194599527Y-76752488D01*
X194699973Y-76810481D01*
X194812007Y-76840500D01*
X194812009Y-76840500D01*
X194927991Y-76840500D01*
X194927993Y-76840500D01*
X195040027Y-76810481D01*
X195140473Y-76752488D01*
X195222488Y-76670473D01*
X195280481Y-76570027D01*
X195310500Y-76457993D01*
X195310500Y-76342007D01*
X195280481Y-76229973D01*
X195222488Y-76129527D01*
X195140473Y-76047512D01*
X195090250Y-76018515D01*
X195040028Y-75989519D01*
X194984010Y-75974509D01*
X194927993Y-75959500D01*
X194812007Y-75959500D01*
X194699971Y-75989519D01*
X194599527Y-76047512D01*
X194599524Y-76047514D01*
X194517514Y-76129524D01*
X194517512Y-76129527D01*
X194459519Y-76229971D01*
X194429500Y-76342007D01*
X126817989Y-76342007D01*
X126840500Y-76257993D01*
X126840500Y-76142007D01*
X126810481Y-76029973D01*
X126752488Y-75929527D01*
X126670473Y-75847512D01*
X126620250Y-75818515D01*
X126570028Y-75789519D01*
X126514010Y-75774509D01*
X126457993Y-75759500D01*
X126342007Y-75759500D01*
X126229971Y-75789519D01*
X126129527Y-75847512D01*
X126129524Y-75847514D01*
X126047514Y-75929524D01*
X126047512Y-75929527D01*
X125989519Y-76029971D01*
X125977307Y-76075550D01*
X125959500Y-76142007D01*
X123830899Y-76142007D01*
X123828995Y-76132125D01*
X123833768Y-76118610D01*
X123833911Y-76107465D01*
X123845935Y-76084169D01*
X123848980Y-76075550D01*
X123852034Y-76070926D01*
X123852488Y-76070473D01*
X123910481Y-75970027D01*
X123940500Y-75857993D01*
X123940500Y-75742007D01*
X123910481Y-75629973D01*
X123852488Y-75529527D01*
X123770473Y-75447512D01*
X123720250Y-75418515D01*
X123670028Y-75389519D01*
X123614010Y-75374509D01*
X123557993Y-75359500D01*
X123442007Y-75359500D01*
X123329971Y-75389519D01*
X123229527Y-75447512D01*
X123229524Y-75447514D01*
X123147514Y-75529524D01*
X123147512Y-75529527D01*
X123089519Y-75629971D01*
X123059500Y-75742007D01*
X114700500Y-75742007D01*
X114700500Y-73042007D01*
X165909500Y-73042007D01*
X165909500Y-73157992D01*
X165939519Y-73270028D01*
X165968515Y-73320250D01*
X165997512Y-73370473D01*
X166079527Y-73452488D01*
X166179973Y-73510481D01*
X166292007Y-73540500D01*
X166292009Y-73540500D01*
X166407991Y-73540500D01*
X166407993Y-73540500D01*
X166520027Y-73510481D01*
X166620473Y-73452488D01*
X166702488Y-73370473D01*
X166760481Y-73270027D01*
X166790500Y-73157993D01*
X166790500Y-73042007D01*
X173259500Y-73042007D01*
X173259500Y-73157992D01*
X173289519Y-73270028D01*
X173318515Y-73320250D01*
X173347512Y-73370473D01*
X173429527Y-73452488D01*
X173529973Y-73510481D01*
X173642007Y-73540500D01*
X173642009Y-73540500D01*
X173757991Y-73540500D01*
X173757993Y-73540500D01*
X173870027Y-73510481D01*
X173970473Y-73452488D01*
X174052488Y-73370473D01*
X174110481Y-73270027D01*
X174140500Y-73157993D01*
X174140500Y-73042007D01*
X174110481Y-72929973D01*
X174052488Y-72829527D01*
X173970473Y-72747512D01*
X173920250Y-72718515D01*
X173870028Y-72689519D01*
X173814010Y-72674509D01*
X173757993Y-72659500D01*
X173642007Y-72659500D01*
X173529971Y-72689519D01*
X173429527Y-72747512D01*
X173429524Y-72747514D01*
X173347514Y-72829524D01*
X173347512Y-72829527D01*
X173289519Y-72929971D01*
X173259500Y-73042007D01*
X166790500Y-73042007D01*
X166760481Y-72929973D01*
X166702488Y-72829527D01*
X166620473Y-72747512D01*
X166570250Y-72718515D01*
X166520028Y-72689519D01*
X166464010Y-72674509D01*
X166407993Y-72659500D01*
X166292007Y-72659500D01*
X166179971Y-72689519D01*
X166079527Y-72747512D01*
X166079524Y-72747514D01*
X165997514Y-72829524D01*
X165997512Y-72829527D01*
X165939519Y-72929971D01*
X165909500Y-73042007D01*
X114700500Y-73042007D01*
X114700500Y-71292007D01*
X128409500Y-71292007D01*
X128409500Y-71407992D01*
X128439519Y-71520028D01*
X128468515Y-71570250D01*
X128497512Y-71620473D01*
X128579527Y-71702488D01*
X128679973Y-71760481D01*
X128792007Y-71790500D01*
X128792009Y-71790500D01*
X128907991Y-71790500D01*
X128907993Y-71790500D01*
X129020027Y-71760481D01*
X129120473Y-71702488D01*
X129202488Y-71620473D01*
X129260481Y-71520027D01*
X129290500Y-71407993D01*
X129290500Y-71292007D01*
X129260481Y-71179973D01*
X129202488Y-71079527D01*
X129120473Y-70997512D01*
X129070250Y-70968515D01*
X129020028Y-70939519D01*
X128964010Y-70924509D01*
X128907993Y-70909500D01*
X128792007Y-70909500D01*
X128679971Y-70939519D01*
X128579527Y-70997512D01*
X128579524Y-70997514D01*
X128497514Y-71079524D01*
X128497512Y-71079527D01*
X128439519Y-71179971D01*
X128409500Y-71292007D01*
X114700500Y-71292007D01*
X114700500Y-70642007D01*
X120459500Y-70642007D01*
X120459500Y-70757992D01*
X120489519Y-70870028D01*
X120512309Y-70909500D01*
X120547512Y-70970473D01*
X120629527Y-71052488D01*
X120729973Y-71110481D01*
X120842007Y-71140500D01*
X120842009Y-71140500D01*
X120957991Y-71140500D01*
X120957993Y-71140500D01*
X121070027Y-71110481D01*
X121170473Y-71052488D01*
X121252488Y-70970473D01*
X121310481Y-70870027D01*
X121340500Y-70757993D01*
X121340500Y-70642007D01*
X121310481Y-70529973D01*
X121252488Y-70429527D01*
X121170473Y-70347512D01*
X121120250Y-70318515D01*
X121070028Y-70289519D01*
X121014010Y-70274509D01*
X120957993Y-70259500D01*
X120842007Y-70259500D01*
X120729971Y-70289519D01*
X120629527Y-70347512D01*
X120629524Y-70347514D01*
X120547514Y-70429524D01*
X120547512Y-70429527D01*
X120489519Y-70529971D01*
X120459500Y-70642007D01*
X114700500Y-70642007D01*
X114700500Y-69392007D01*
X129109500Y-69392007D01*
X129109500Y-69507992D01*
X129139519Y-69620028D01*
X129168515Y-69670250D01*
X129197512Y-69720473D01*
X129279527Y-69802488D01*
X129379973Y-69860481D01*
X129492007Y-69890500D01*
X129492009Y-69890500D01*
X129607991Y-69890500D01*
X129607993Y-69890500D01*
X129720027Y-69860481D01*
X129820473Y-69802488D01*
X129902488Y-69720473D01*
X129960481Y-69620027D01*
X129990500Y-69507993D01*
X129990500Y-69392007D01*
X129960481Y-69279973D01*
X129902488Y-69179527D01*
X129820473Y-69097512D01*
X129770250Y-69068515D01*
X129720028Y-69039519D01*
X129664010Y-69024509D01*
X129607993Y-69009500D01*
X129492007Y-69009500D01*
X129379971Y-69039519D01*
X129279527Y-69097512D01*
X129279524Y-69097514D01*
X129197514Y-69179524D01*
X129197512Y-69179527D01*
X129139519Y-69279971D01*
X129109500Y-69392007D01*
X114700500Y-69392007D01*
X114700500Y-66566304D01*
X138549500Y-66566304D01*
X138549500Y-66743695D01*
X138584103Y-66917658D01*
X138584106Y-66917667D01*
X138651983Y-67081540D01*
X138651990Y-67081553D01*
X138750535Y-67229034D01*
X138750538Y-67229038D01*
X138875961Y-67354461D01*
X138875965Y-67354464D01*
X139023446Y-67453009D01*
X139023459Y-67453016D01*
X139146363Y-67503923D01*
X139187334Y-67520894D01*
X139187336Y-67520894D01*
X139187341Y-67520896D01*
X139361304Y-67555499D01*
X139361307Y-67555500D01*
X139361309Y-67555500D01*
X139538693Y-67555500D01*
X139538694Y-67555499D01*
X139596682Y-67543964D01*
X139712658Y-67520896D01*
X139712661Y-67520894D01*
X139712666Y-67520894D01*
X139876547Y-67453013D01*
X140024035Y-67354464D01*
X140149464Y-67229035D01*
X140248013Y-67081547D01*
X140315894Y-66917666D01*
X140350500Y-66743691D01*
X140350500Y-66566309D01*
X140350500Y-66566306D01*
X140350499Y-66566304D01*
X142049500Y-66566304D01*
X142049500Y-66743695D01*
X142084103Y-66917658D01*
X142084106Y-66917667D01*
X142151983Y-67081540D01*
X142151990Y-67081553D01*
X142250535Y-67229034D01*
X142250538Y-67229038D01*
X142375961Y-67354461D01*
X142375965Y-67354464D01*
X142523446Y-67453009D01*
X142523459Y-67453016D01*
X142646363Y-67503923D01*
X142687334Y-67520894D01*
X142687336Y-67520894D01*
X142687341Y-67520896D01*
X142861304Y-67555499D01*
X142861307Y-67555500D01*
X142861309Y-67555500D01*
X143038693Y-67555500D01*
X143038694Y-67555499D01*
X143096682Y-67543964D01*
X143212658Y-67520896D01*
X143212661Y-67520894D01*
X143212666Y-67520894D01*
X143376547Y-67453013D01*
X143524035Y-67354464D01*
X143649464Y-67229035D01*
X143748013Y-67081547D01*
X143815894Y-66917666D01*
X143850500Y-66743691D01*
X143850500Y-66566309D01*
X143850500Y-66566306D01*
X143850499Y-66566304D01*
X145549500Y-66566304D01*
X145549500Y-66743695D01*
X145584103Y-66917658D01*
X145584106Y-66917667D01*
X145651983Y-67081540D01*
X145651990Y-67081553D01*
X145750535Y-67229034D01*
X145750538Y-67229038D01*
X145875961Y-67354461D01*
X145875965Y-67354464D01*
X146023446Y-67453009D01*
X146023459Y-67453016D01*
X146146363Y-67503923D01*
X146187334Y-67520894D01*
X146187336Y-67520894D01*
X146187341Y-67520896D01*
X146361304Y-67555499D01*
X146361307Y-67555500D01*
X146361309Y-67555500D01*
X146538693Y-67555500D01*
X146538694Y-67555499D01*
X146596682Y-67543964D01*
X146712658Y-67520896D01*
X146712661Y-67520894D01*
X146712666Y-67520894D01*
X146876547Y-67453013D01*
X147024035Y-67354464D01*
X147149464Y-67229035D01*
X147248013Y-67081547D01*
X147315894Y-66917666D01*
X147350500Y-66743691D01*
X147350500Y-66566309D01*
X147350500Y-66566306D01*
X147350499Y-66566304D01*
X147315896Y-66392341D01*
X147315893Y-66392332D01*
X147248016Y-66228459D01*
X147248009Y-66228446D01*
X147149464Y-66080965D01*
X147149461Y-66080961D01*
X147024038Y-65955538D01*
X147024034Y-65955535D01*
X146912725Y-65881160D01*
X149049500Y-65881160D01*
X149049500Y-67428836D01*
X149049501Y-67428839D01*
X149049501Y-67428840D01*
X149057651Y-67469821D01*
X149088705Y-67516295D01*
X149135179Y-67547349D01*
X149176159Y-67555500D01*
X150723840Y-67555499D01*
X150764821Y-67547349D01*
X150811295Y-67516295D01*
X150842349Y-67469821D01*
X150850500Y-67428841D01*
X150850499Y-66566304D01*
X160899500Y-66566304D01*
X160899500Y-66743695D01*
X160934103Y-66917658D01*
X160934106Y-66917667D01*
X161001983Y-67081540D01*
X161001990Y-67081553D01*
X161100535Y-67229034D01*
X161100538Y-67229038D01*
X161225961Y-67354461D01*
X161225965Y-67354464D01*
X161373446Y-67453009D01*
X161373459Y-67453016D01*
X161496363Y-67503923D01*
X161537334Y-67520894D01*
X161537336Y-67520894D01*
X161537341Y-67520896D01*
X161711304Y-67555499D01*
X161711307Y-67555500D01*
X161711309Y-67555500D01*
X161888693Y-67555500D01*
X161888694Y-67555499D01*
X161946682Y-67543964D01*
X162062658Y-67520896D01*
X162062661Y-67520894D01*
X162062666Y-67520894D01*
X162226547Y-67453013D01*
X162374035Y-67354464D01*
X162499464Y-67229035D01*
X162598013Y-67081547D01*
X162665894Y-66917666D01*
X162700500Y-66743691D01*
X162700500Y-66566309D01*
X162700500Y-66566306D01*
X162700499Y-66566304D01*
X164399500Y-66566304D01*
X164399500Y-66743695D01*
X164434103Y-66917658D01*
X164434106Y-66917667D01*
X164501983Y-67081540D01*
X164501990Y-67081553D01*
X164600535Y-67229034D01*
X164600538Y-67229038D01*
X164725961Y-67354461D01*
X164725965Y-67354464D01*
X164873446Y-67453009D01*
X164873459Y-67453016D01*
X164996363Y-67503923D01*
X165037334Y-67520894D01*
X165037336Y-67520894D01*
X165037341Y-67520896D01*
X165211304Y-67555499D01*
X165211307Y-67555500D01*
X165211309Y-67555500D01*
X165388693Y-67555500D01*
X165388694Y-67555499D01*
X165446682Y-67543964D01*
X165562658Y-67520896D01*
X165562661Y-67520894D01*
X165562666Y-67520894D01*
X165726547Y-67453013D01*
X165874035Y-67354464D01*
X165999464Y-67229035D01*
X166098013Y-67081547D01*
X166165894Y-66917666D01*
X166200500Y-66743691D01*
X166200500Y-66566309D01*
X166200500Y-66566306D01*
X166200499Y-66566304D01*
X167899500Y-66566304D01*
X167899500Y-66743695D01*
X167934103Y-66917658D01*
X167934106Y-66917667D01*
X168001983Y-67081540D01*
X168001990Y-67081553D01*
X168100535Y-67229034D01*
X168100538Y-67229038D01*
X168225961Y-67354461D01*
X168225965Y-67354464D01*
X168373446Y-67453009D01*
X168373459Y-67453016D01*
X168496363Y-67503923D01*
X168537334Y-67520894D01*
X168537336Y-67520894D01*
X168537341Y-67520896D01*
X168711304Y-67555499D01*
X168711307Y-67555500D01*
X168711309Y-67555500D01*
X168888693Y-67555500D01*
X168888694Y-67555499D01*
X168946682Y-67543964D01*
X169062658Y-67520896D01*
X169062661Y-67520894D01*
X169062666Y-67520894D01*
X169226547Y-67453013D01*
X169374035Y-67354464D01*
X169499464Y-67229035D01*
X169598013Y-67081547D01*
X169665894Y-66917666D01*
X169700500Y-66743691D01*
X169700500Y-66566309D01*
X169700500Y-66566306D01*
X169700499Y-66566304D01*
X171399500Y-66566304D01*
X171399500Y-66743695D01*
X171434103Y-66917658D01*
X171434106Y-66917667D01*
X171501983Y-67081540D01*
X171501990Y-67081553D01*
X171600535Y-67229034D01*
X171600538Y-67229038D01*
X171725961Y-67354461D01*
X171725965Y-67354464D01*
X171873446Y-67453009D01*
X171873459Y-67453016D01*
X171996363Y-67503923D01*
X172037334Y-67520894D01*
X172037336Y-67520894D01*
X172037341Y-67520896D01*
X172211304Y-67555499D01*
X172211307Y-67555500D01*
X172211309Y-67555500D01*
X172388693Y-67555500D01*
X172388694Y-67555499D01*
X172446682Y-67543964D01*
X172562658Y-67520896D01*
X172562661Y-67520894D01*
X172562666Y-67520894D01*
X172726547Y-67453013D01*
X172874035Y-67354464D01*
X172999464Y-67229035D01*
X173098013Y-67081547D01*
X173165894Y-66917666D01*
X173200500Y-66743691D01*
X173200500Y-66566309D01*
X173200500Y-66566306D01*
X173200499Y-66566304D01*
X173165896Y-66392341D01*
X173165893Y-66392332D01*
X173098016Y-66228459D01*
X173098009Y-66228446D01*
X172999464Y-66080965D01*
X172999461Y-66080961D01*
X172874038Y-65955538D01*
X172874034Y-65955535D01*
X172762725Y-65881160D01*
X174899500Y-65881160D01*
X174899500Y-67428836D01*
X174899501Y-67428839D01*
X174899501Y-67428840D01*
X174907651Y-67469821D01*
X174938705Y-67516295D01*
X174985179Y-67547349D01*
X175026159Y-67555500D01*
X176573840Y-67555499D01*
X176614821Y-67547349D01*
X176661295Y-67516295D01*
X176692349Y-67469821D01*
X176700500Y-67428841D01*
X176700499Y-66566304D01*
X186999500Y-66566304D01*
X186999500Y-66743695D01*
X187034103Y-66917658D01*
X187034106Y-66917667D01*
X187101983Y-67081540D01*
X187101990Y-67081553D01*
X187200535Y-67229034D01*
X187200538Y-67229038D01*
X187325961Y-67354461D01*
X187325965Y-67354464D01*
X187473446Y-67453009D01*
X187473459Y-67453016D01*
X187596363Y-67503923D01*
X187637334Y-67520894D01*
X187637336Y-67520894D01*
X187637341Y-67520896D01*
X187811304Y-67555499D01*
X187811307Y-67555500D01*
X187811309Y-67555500D01*
X187988693Y-67555500D01*
X187988694Y-67555499D01*
X188046682Y-67543964D01*
X188162658Y-67520896D01*
X188162661Y-67520894D01*
X188162666Y-67520894D01*
X188326547Y-67453013D01*
X188474035Y-67354464D01*
X188599464Y-67229035D01*
X188698013Y-67081547D01*
X188765894Y-66917666D01*
X188800500Y-66743691D01*
X188800500Y-66566309D01*
X188800500Y-66566306D01*
X188800499Y-66566304D01*
X190499500Y-66566304D01*
X190499500Y-66743695D01*
X190534103Y-66917658D01*
X190534106Y-66917667D01*
X190601983Y-67081540D01*
X190601990Y-67081553D01*
X190700535Y-67229034D01*
X190700538Y-67229038D01*
X190825961Y-67354461D01*
X190825965Y-67354464D01*
X190973446Y-67453009D01*
X190973459Y-67453016D01*
X191096363Y-67503923D01*
X191137334Y-67520894D01*
X191137336Y-67520894D01*
X191137341Y-67520896D01*
X191311304Y-67555499D01*
X191311307Y-67555500D01*
X191311309Y-67555500D01*
X191488693Y-67555500D01*
X191488694Y-67555499D01*
X191546682Y-67543964D01*
X191662658Y-67520896D01*
X191662661Y-67520894D01*
X191662666Y-67520894D01*
X191826547Y-67453013D01*
X191974035Y-67354464D01*
X192099464Y-67229035D01*
X192198013Y-67081547D01*
X192265894Y-66917666D01*
X192300500Y-66743691D01*
X192300500Y-66566309D01*
X192300500Y-66566306D01*
X192300499Y-66566304D01*
X193999500Y-66566304D01*
X193999500Y-66743695D01*
X194034103Y-66917658D01*
X194034106Y-66917667D01*
X194101983Y-67081540D01*
X194101990Y-67081553D01*
X194200535Y-67229034D01*
X194200538Y-67229038D01*
X194325961Y-67354461D01*
X194325965Y-67354464D01*
X194473446Y-67453009D01*
X194473459Y-67453016D01*
X194596363Y-67503923D01*
X194637334Y-67520894D01*
X194637336Y-67520894D01*
X194637341Y-67520896D01*
X194811304Y-67555499D01*
X194811307Y-67555500D01*
X194811309Y-67555500D01*
X194988693Y-67555500D01*
X194988694Y-67555499D01*
X195046682Y-67543964D01*
X195162658Y-67520896D01*
X195162661Y-67520894D01*
X195162666Y-67520894D01*
X195326547Y-67453013D01*
X195474035Y-67354464D01*
X195599464Y-67229035D01*
X195698013Y-67081547D01*
X195765894Y-66917666D01*
X195800500Y-66743691D01*
X195800500Y-66566309D01*
X195800500Y-66566306D01*
X195800499Y-66566304D01*
X197499500Y-66566304D01*
X197499500Y-66743695D01*
X197534103Y-66917658D01*
X197534106Y-66917667D01*
X197601983Y-67081540D01*
X197601990Y-67081553D01*
X197700535Y-67229034D01*
X197700538Y-67229038D01*
X197825961Y-67354461D01*
X197825965Y-67354464D01*
X197973446Y-67453009D01*
X197973459Y-67453016D01*
X198096363Y-67503923D01*
X198137334Y-67520894D01*
X198137336Y-67520894D01*
X198137341Y-67520896D01*
X198311304Y-67555499D01*
X198311307Y-67555500D01*
X198311309Y-67555500D01*
X198488693Y-67555500D01*
X198488694Y-67555499D01*
X198546682Y-67543964D01*
X198662658Y-67520896D01*
X198662661Y-67520894D01*
X198662666Y-67520894D01*
X198826547Y-67453013D01*
X198974035Y-67354464D01*
X199099464Y-67229035D01*
X199198013Y-67081547D01*
X199265894Y-66917666D01*
X199300500Y-66743691D01*
X199300500Y-66566309D01*
X199300500Y-66566306D01*
X199300499Y-66566304D01*
X199265896Y-66392341D01*
X199265893Y-66392332D01*
X199198016Y-66228459D01*
X199198009Y-66228446D01*
X199099464Y-66080965D01*
X199099461Y-66080961D01*
X198974038Y-65955538D01*
X198974034Y-65955535D01*
X198862725Y-65881160D01*
X200999500Y-65881160D01*
X200999500Y-67428836D01*
X200999501Y-67428839D01*
X200999501Y-67428840D01*
X201007651Y-67469821D01*
X201038705Y-67516295D01*
X201085179Y-67547349D01*
X201126159Y-67555500D01*
X202673840Y-67555499D01*
X202714821Y-67547349D01*
X202761295Y-67516295D01*
X202792349Y-67469821D01*
X202800500Y-67428841D01*
X202800499Y-65881160D01*
X202792349Y-65840179D01*
X202761295Y-65793705D01*
X202714821Y-65762651D01*
X202673841Y-65754500D01*
X202673839Y-65754500D01*
X201126163Y-65754500D01*
X201085179Y-65762651D01*
X201045588Y-65789106D01*
X201038705Y-65793705D01*
X201032838Y-65802485D01*
X201007651Y-65840178D01*
X200999500Y-65881160D01*
X198862725Y-65881160D01*
X198826553Y-65856990D01*
X198826540Y-65856983D01*
X198662667Y-65789106D01*
X198662658Y-65789103D01*
X198488694Y-65754500D01*
X198488691Y-65754500D01*
X198311309Y-65754500D01*
X198311306Y-65754500D01*
X198137341Y-65789103D01*
X198137332Y-65789106D01*
X197973459Y-65856983D01*
X197973446Y-65856990D01*
X197825965Y-65955535D01*
X197825961Y-65955538D01*
X197700538Y-66080961D01*
X197700535Y-66080965D01*
X197601990Y-66228446D01*
X197601983Y-66228459D01*
X197534106Y-66392332D01*
X197534103Y-66392341D01*
X197499500Y-66566304D01*
X195800499Y-66566304D01*
X195765896Y-66392341D01*
X195765893Y-66392332D01*
X195698016Y-66228459D01*
X195698009Y-66228446D01*
X195599464Y-66080965D01*
X195599461Y-66080961D01*
X195474038Y-65955538D01*
X195474034Y-65955535D01*
X195326553Y-65856990D01*
X195326540Y-65856983D01*
X195162667Y-65789106D01*
X195162658Y-65789103D01*
X194988694Y-65754500D01*
X194988691Y-65754500D01*
X194811309Y-65754500D01*
X194811306Y-65754500D01*
X194637341Y-65789103D01*
X194637332Y-65789106D01*
X194473459Y-65856983D01*
X194473446Y-65856990D01*
X194325965Y-65955535D01*
X194325961Y-65955538D01*
X194200538Y-66080961D01*
X194200535Y-66080965D01*
X194101990Y-66228446D01*
X194101983Y-66228459D01*
X194034106Y-66392332D01*
X194034103Y-66392341D01*
X193999500Y-66566304D01*
X192300499Y-66566304D01*
X192265896Y-66392341D01*
X192265893Y-66392332D01*
X192198016Y-66228459D01*
X192198009Y-66228446D01*
X192099464Y-66080965D01*
X192099461Y-66080961D01*
X191974038Y-65955538D01*
X191974034Y-65955535D01*
X191826553Y-65856990D01*
X191826540Y-65856983D01*
X191662667Y-65789106D01*
X191662658Y-65789103D01*
X191488694Y-65754500D01*
X191488691Y-65754500D01*
X191311309Y-65754500D01*
X191311306Y-65754500D01*
X191137341Y-65789103D01*
X191137332Y-65789106D01*
X190973459Y-65856983D01*
X190973446Y-65856990D01*
X190825965Y-65955535D01*
X190825961Y-65955538D01*
X190700538Y-66080961D01*
X190700535Y-66080965D01*
X190601990Y-66228446D01*
X190601983Y-66228459D01*
X190534106Y-66392332D01*
X190534103Y-66392341D01*
X190499500Y-66566304D01*
X188800499Y-66566304D01*
X188765896Y-66392341D01*
X188765893Y-66392332D01*
X188698016Y-66228459D01*
X188698009Y-66228446D01*
X188599464Y-66080965D01*
X188599461Y-66080961D01*
X188474038Y-65955538D01*
X188474034Y-65955535D01*
X188326553Y-65856990D01*
X188326540Y-65856983D01*
X188162667Y-65789106D01*
X188162658Y-65789103D01*
X187988694Y-65754500D01*
X187988691Y-65754500D01*
X187811309Y-65754500D01*
X187811306Y-65754500D01*
X187637341Y-65789103D01*
X187637332Y-65789106D01*
X187473459Y-65856983D01*
X187473446Y-65856990D01*
X187325965Y-65955535D01*
X187325961Y-65955538D01*
X187200538Y-66080961D01*
X187200535Y-66080965D01*
X187101990Y-66228446D01*
X187101983Y-66228459D01*
X187034106Y-66392332D01*
X187034103Y-66392341D01*
X186999500Y-66566304D01*
X176700499Y-66566304D01*
X176700499Y-65881160D01*
X176692349Y-65840179D01*
X176661295Y-65793705D01*
X176614821Y-65762651D01*
X176573841Y-65754500D01*
X176573839Y-65754500D01*
X175026163Y-65754500D01*
X174985179Y-65762651D01*
X174945588Y-65789106D01*
X174938705Y-65793705D01*
X174932838Y-65802485D01*
X174907651Y-65840178D01*
X174899500Y-65881160D01*
X172762725Y-65881160D01*
X172726553Y-65856990D01*
X172726540Y-65856983D01*
X172562667Y-65789106D01*
X172562658Y-65789103D01*
X172388694Y-65754500D01*
X172388691Y-65754500D01*
X172211309Y-65754500D01*
X172211306Y-65754500D01*
X172037341Y-65789103D01*
X172037332Y-65789106D01*
X171873459Y-65856983D01*
X171873446Y-65856990D01*
X171725965Y-65955535D01*
X171725961Y-65955538D01*
X171600538Y-66080961D01*
X171600535Y-66080965D01*
X171501990Y-66228446D01*
X171501983Y-66228459D01*
X171434106Y-66392332D01*
X171434103Y-66392341D01*
X171399500Y-66566304D01*
X169700499Y-66566304D01*
X169665896Y-66392341D01*
X169665893Y-66392332D01*
X169598016Y-66228459D01*
X169598009Y-66228446D01*
X169499464Y-66080965D01*
X169499461Y-66080961D01*
X169374038Y-65955538D01*
X169374034Y-65955535D01*
X169226553Y-65856990D01*
X169226540Y-65856983D01*
X169062667Y-65789106D01*
X169062658Y-65789103D01*
X168888694Y-65754500D01*
X168888691Y-65754500D01*
X168711309Y-65754500D01*
X168711306Y-65754500D01*
X168537341Y-65789103D01*
X168537332Y-65789106D01*
X168373459Y-65856983D01*
X168373446Y-65856990D01*
X168225965Y-65955535D01*
X168225961Y-65955538D01*
X168100538Y-66080961D01*
X168100535Y-66080965D01*
X168001990Y-66228446D01*
X168001983Y-66228459D01*
X167934106Y-66392332D01*
X167934103Y-66392341D01*
X167899500Y-66566304D01*
X166200499Y-66566304D01*
X166165896Y-66392341D01*
X166165893Y-66392332D01*
X166098016Y-66228459D01*
X166098009Y-66228446D01*
X165999464Y-66080965D01*
X165999461Y-66080961D01*
X165874038Y-65955538D01*
X165874034Y-65955535D01*
X165726553Y-65856990D01*
X165726540Y-65856983D01*
X165562667Y-65789106D01*
X165562658Y-65789103D01*
X165388694Y-65754500D01*
X165388691Y-65754500D01*
X165211309Y-65754500D01*
X165211306Y-65754500D01*
X165037341Y-65789103D01*
X165037332Y-65789106D01*
X164873459Y-65856983D01*
X164873446Y-65856990D01*
X164725965Y-65955535D01*
X164725961Y-65955538D01*
X164600538Y-66080961D01*
X164600535Y-66080965D01*
X164501990Y-66228446D01*
X164501983Y-66228459D01*
X164434106Y-66392332D01*
X164434103Y-66392341D01*
X164399500Y-66566304D01*
X162700499Y-66566304D01*
X162665896Y-66392341D01*
X162665893Y-66392332D01*
X162598016Y-66228459D01*
X162598009Y-66228446D01*
X162499464Y-66080965D01*
X162499461Y-66080961D01*
X162374038Y-65955538D01*
X162374034Y-65955535D01*
X162226553Y-65856990D01*
X162226540Y-65856983D01*
X162062667Y-65789106D01*
X162062658Y-65789103D01*
X161888694Y-65754500D01*
X161888691Y-65754500D01*
X161711309Y-65754500D01*
X161711306Y-65754500D01*
X161537341Y-65789103D01*
X161537332Y-65789106D01*
X161373459Y-65856983D01*
X161373446Y-65856990D01*
X161225965Y-65955535D01*
X161225961Y-65955538D01*
X161100538Y-66080961D01*
X161100535Y-66080965D01*
X161001990Y-66228446D01*
X161001983Y-66228459D01*
X160934106Y-66392332D01*
X160934103Y-66392341D01*
X160899500Y-66566304D01*
X150850499Y-66566304D01*
X150850499Y-65881160D01*
X150842349Y-65840179D01*
X150811295Y-65793705D01*
X150764821Y-65762651D01*
X150723841Y-65754500D01*
X150723839Y-65754500D01*
X149176163Y-65754500D01*
X149135179Y-65762651D01*
X149095588Y-65789106D01*
X149088705Y-65793705D01*
X149082838Y-65802485D01*
X149057651Y-65840178D01*
X149049500Y-65881160D01*
X146912725Y-65881160D01*
X146876553Y-65856990D01*
X146876540Y-65856983D01*
X146712667Y-65789106D01*
X146712658Y-65789103D01*
X146538694Y-65754500D01*
X146538691Y-65754500D01*
X146361309Y-65754500D01*
X146361306Y-65754500D01*
X146187341Y-65789103D01*
X146187332Y-65789106D01*
X146023459Y-65856983D01*
X146023446Y-65856990D01*
X145875965Y-65955535D01*
X145875961Y-65955538D01*
X145750538Y-66080961D01*
X145750535Y-66080965D01*
X145651990Y-66228446D01*
X145651983Y-66228459D01*
X145584106Y-66392332D01*
X145584103Y-66392341D01*
X145549500Y-66566304D01*
X143850499Y-66566304D01*
X143815896Y-66392341D01*
X143815893Y-66392332D01*
X143748016Y-66228459D01*
X143748009Y-66228446D01*
X143649464Y-66080965D01*
X143649461Y-66080961D01*
X143524038Y-65955538D01*
X143524034Y-65955535D01*
X143376553Y-65856990D01*
X143376540Y-65856983D01*
X143212667Y-65789106D01*
X143212658Y-65789103D01*
X143038694Y-65754500D01*
X143038691Y-65754500D01*
X142861309Y-65754500D01*
X142861306Y-65754500D01*
X142687341Y-65789103D01*
X142687332Y-65789106D01*
X142523459Y-65856983D01*
X142523446Y-65856990D01*
X142375965Y-65955535D01*
X142375961Y-65955538D01*
X142250538Y-66080961D01*
X142250535Y-66080965D01*
X142151990Y-66228446D01*
X142151983Y-66228459D01*
X142084106Y-66392332D01*
X142084103Y-66392341D01*
X142049500Y-66566304D01*
X140350499Y-66566304D01*
X140315896Y-66392341D01*
X140315893Y-66392332D01*
X140248016Y-66228459D01*
X140248009Y-66228446D01*
X140149464Y-66080965D01*
X140149461Y-66080961D01*
X140024038Y-65955538D01*
X140024034Y-65955535D01*
X139876553Y-65856990D01*
X139876540Y-65856983D01*
X139712667Y-65789106D01*
X139712658Y-65789103D01*
X139538694Y-65754500D01*
X139538691Y-65754500D01*
X139361309Y-65754500D01*
X139361306Y-65754500D01*
X139187341Y-65789103D01*
X139187332Y-65789106D01*
X139023459Y-65856983D01*
X139023446Y-65856990D01*
X138875965Y-65955535D01*
X138875961Y-65955538D01*
X138750538Y-66080961D01*
X138750535Y-66080965D01*
X138651990Y-66228446D01*
X138651983Y-66228459D01*
X138584106Y-66392332D01*
X138584103Y-66392341D01*
X138549500Y-66566304D01*
X114700500Y-66566304D01*
X114700500Y-65392007D01*
X128259500Y-65392007D01*
X128259500Y-65507992D01*
X128289519Y-65620028D01*
X128318515Y-65670250D01*
X128347512Y-65720473D01*
X128429527Y-65802488D01*
X128529973Y-65860481D01*
X128642007Y-65890500D01*
X128642009Y-65890500D01*
X128757991Y-65890500D01*
X128757993Y-65890500D01*
X128870027Y-65860481D01*
X128970473Y-65802488D01*
X129052488Y-65720473D01*
X129110481Y-65620027D01*
X129140500Y-65507993D01*
X129140500Y-65392007D01*
X129110481Y-65279973D01*
X129052488Y-65179527D01*
X128970473Y-65097512D01*
X128920250Y-65068515D01*
X128870028Y-65039519D01*
X128814010Y-65024509D01*
X128757993Y-65009500D01*
X128642007Y-65009500D01*
X128529971Y-65039519D01*
X128429527Y-65097512D01*
X128429524Y-65097514D01*
X128347514Y-65179524D01*
X128347512Y-65179527D01*
X128289519Y-65279971D01*
X128259500Y-65392007D01*
X114700500Y-65392007D01*
X114700500Y-63142007D01*
X121759500Y-63142007D01*
X121759500Y-63257992D01*
X121789519Y-63370028D01*
X121818515Y-63420250D01*
X121847512Y-63470473D01*
X121929527Y-63552488D01*
X122029973Y-63610481D01*
X122142007Y-63640500D01*
X122142009Y-63640500D01*
X122257991Y-63640500D01*
X122257993Y-63640500D01*
X122370027Y-63610481D01*
X122470473Y-63552488D01*
X122552488Y-63470473D01*
X122610481Y-63370027D01*
X122640500Y-63257993D01*
X122640500Y-63142007D01*
X122610481Y-63029973D01*
X122552488Y-62929527D01*
X122470473Y-62847512D01*
X122420250Y-62818515D01*
X122370028Y-62789519D01*
X122314010Y-62774509D01*
X122257993Y-62759500D01*
X122142007Y-62759500D01*
X122029971Y-62789519D01*
X121929527Y-62847512D01*
X121929524Y-62847514D01*
X121847514Y-62929524D01*
X121847512Y-62929527D01*
X121789519Y-63029971D01*
X121759500Y-63142007D01*
X114700500Y-63142007D01*
X114700500Y-60142007D01*
X126759500Y-60142007D01*
X126759500Y-60257992D01*
X126789519Y-60370028D01*
X126818515Y-60420250D01*
X126847512Y-60470473D01*
X126929527Y-60552488D01*
X127029973Y-60610481D01*
X127142007Y-60640500D01*
X127142009Y-60640500D01*
X127257991Y-60640500D01*
X127257993Y-60640500D01*
X127370027Y-60610481D01*
X127470473Y-60552488D01*
X127552488Y-60470473D01*
X127610481Y-60370027D01*
X127640500Y-60257993D01*
X127640500Y-60142007D01*
X127610481Y-60029973D01*
X127552488Y-59929527D01*
X127470473Y-59847512D01*
X127420250Y-59818515D01*
X127370028Y-59789519D01*
X127299046Y-59770500D01*
X127257993Y-59759500D01*
X127142007Y-59759500D01*
X127029971Y-59789519D01*
X126929527Y-59847512D01*
X126929524Y-59847514D01*
X126847514Y-59929524D01*
X126847512Y-59929527D01*
X126789519Y-60029971D01*
X126759500Y-60142007D01*
X114700500Y-60142007D01*
X114700500Y-58313713D01*
X118029500Y-58313713D01*
X118029500Y-58526286D01*
X118059585Y-58716239D01*
X118062754Y-58736243D01*
X118121945Y-58918414D01*
X118128444Y-58938414D01*
X118224951Y-59127820D01*
X118349890Y-59299786D01*
X118500213Y-59450109D01*
X118672179Y-59575048D01*
X118672181Y-59575049D01*
X118672184Y-59575051D01*
X118861588Y-59671557D01*
X119063757Y-59737246D01*
X119273713Y-59770500D01*
X119273714Y-59770500D01*
X119486286Y-59770500D01*
X119486287Y-59770500D01*
X119696243Y-59737246D01*
X119898412Y-59671557D01*
X120087816Y-59575051D01*
X120231754Y-59470475D01*
X120259786Y-59450109D01*
X120259788Y-59450106D01*
X120259792Y-59450104D01*
X120410104Y-59299792D01*
X120410106Y-59299788D01*
X120410109Y-59299786D01*
X120524739Y-59142009D01*
X120524740Y-59142007D01*
X122159500Y-59142007D01*
X122159500Y-59257992D01*
X122189519Y-59370028D01*
X122218515Y-59420250D01*
X122247512Y-59470473D01*
X122329527Y-59552488D01*
X122429973Y-59610481D01*
X122542007Y-59640500D01*
X122542009Y-59640500D01*
X122657991Y-59640500D01*
X122657993Y-59640500D01*
X122770027Y-59610481D01*
X122870473Y-59552488D01*
X122952488Y-59470473D01*
X123010481Y-59370027D01*
X123040500Y-59257993D01*
X123040500Y-59142007D01*
X123010481Y-59029973D01*
X122952488Y-58929527D01*
X122870473Y-58847512D01*
X122820250Y-58818515D01*
X122770028Y-58789519D01*
X122734395Y-58779971D01*
X122657993Y-58759500D01*
X122542007Y-58759500D01*
X122429971Y-58789519D01*
X122329527Y-58847512D01*
X122329524Y-58847514D01*
X122247514Y-58929524D01*
X122247512Y-58929527D01*
X122189519Y-59029971D01*
X122159500Y-59142007D01*
X120524740Y-59142007D01*
X120535051Y-59127816D01*
X120631557Y-58938412D01*
X120697246Y-58736243D01*
X120711323Y-58647365D01*
X135709500Y-58647365D01*
X135709500Y-58842634D01*
X135740045Y-59035485D01*
X135800381Y-59221184D01*
X135800382Y-59221187D01*
X135889031Y-59395167D01*
X136003793Y-59553125D01*
X136003797Y-59553130D01*
X136141869Y-59691202D01*
X136141874Y-59691206D01*
X136223486Y-59750500D01*
X136299836Y-59805971D01*
X136413565Y-59863919D01*
X136473812Y-59894617D01*
X136473815Y-59894618D01*
X136566664Y-59924786D01*
X136659516Y-59954955D01*
X136748835Y-59969101D01*
X136852366Y-59985500D01*
X136852371Y-59985500D01*
X137047634Y-59985500D01*
X137141125Y-59970691D01*
X137240484Y-59954955D01*
X137426187Y-59894617D01*
X137600164Y-59805971D01*
X137758132Y-59691201D01*
X137896201Y-59553132D01*
X138010971Y-59395164D01*
X138099617Y-59221187D01*
X138159955Y-59035484D01*
X138187530Y-58861382D01*
X138190500Y-58842634D01*
X138190500Y-58647366D01*
X138189961Y-58643963D01*
X138189961Y-58643961D01*
X138187533Y-58628634D01*
X139424500Y-58628634D01*
X139424500Y-58861365D01*
X139424501Y-58861382D01*
X139454878Y-59092122D01*
X139515120Y-59316947D01*
X139604180Y-59531960D01*
X139604188Y-59531976D01*
X139720553Y-59733524D01*
X139720564Y-59733540D01*
X139862242Y-59918179D01*
X139862248Y-59918186D01*
X140026813Y-60082751D01*
X140026819Y-60082756D01*
X140211468Y-60224442D01*
X140211475Y-60224446D01*
X140413023Y-60340811D01*
X140413039Y-60340819D01*
X140628052Y-60429879D01*
X140628054Y-60429879D01*
X140628060Y-60429882D01*
X140852874Y-60490121D01*
X141083628Y-60520500D01*
X141083635Y-60520500D01*
X141316365Y-60520500D01*
X141316372Y-60520500D01*
X141547126Y-60490121D01*
X141771940Y-60429882D01*
X141916442Y-60370028D01*
X141986960Y-60340819D01*
X141986963Y-60340817D01*
X141986969Y-60340815D01*
X142188532Y-60224442D01*
X142373181Y-60082756D01*
X142537756Y-59918181D01*
X142679442Y-59733532D01*
X142795815Y-59531969D01*
X142821287Y-59470475D01*
X142884879Y-59316947D01*
X142884878Y-59316947D01*
X142884882Y-59316940D01*
X142945121Y-59092126D01*
X142975500Y-58861372D01*
X142975500Y-58628634D01*
X146424500Y-58628634D01*
X146424500Y-58861365D01*
X146424501Y-58861382D01*
X146454878Y-59092122D01*
X146515120Y-59316947D01*
X146604180Y-59531960D01*
X146604188Y-59531976D01*
X146720553Y-59733524D01*
X146720564Y-59733540D01*
X146862242Y-59918179D01*
X146862248Y-59918186D01*
X147026813Y-60082751D01*
X147026819Y-60082756D01*
X147211468Y-60224442D01*
X147211475Y-60224446D01*
X147413023Y-60340811D01*
X147413039Y-60340819D01*
X147628052Y-60429879D01*
X147628054Y-60429879D01*
X147628060Y-60429882D01*
X147852874Y-60490121D01*
X148083628Y-60520500D01*
X148083635Y-60520500D01*
X148316365Y-60520500D01*
X148316372Y-60520500D01*
X148547126Y-60490121D01*
X148771940Y-60429882D01*
X148916442Y-60370028D01*
X148986960Y-60340819D01*
X148986963Y-60340817D01*
X148986969Y-60340815D01*
X149188532Y-60224442D01*
X149373181Y-60082756D01*
X149537756Y-59918181D01*
X149679442Y-59733532D01*
X149795815Y-59531969D01*
X149821287Y-59470475D01*
X149884879Y-59316947D01*
X149884878Y-59316947D01*
X149884882Y-59316940D01*
X149945121Y-59092126D01*
X149975500Y-58861372D01*
X149975500Y-58647365D01*
X151209500Y-58647365D01*
X151209500Y-58842634D01*
X151240045Y-59035485D01*
X151300381Y-59221184D01*
X151300382Y-59221187D01*
X151389031Y-59395167D01*
X151503793Y-59553125D01*
X151503797Y-59553130D01*
X151641869Y-59691202D01*
X151641874Y-59691206D01*
X151723486Y-59750500D01*
X151799836Y-59805971D01*
X151913565Y-59863919D01*
X151973812Y-59894617D01*
X151973815Y-59894618D01*
X152066664Y-59924786D01*
X152159516Y-59954955D01*
X152248835Y-59969101D01*
X152352366Y-59985500D01*
X152352371Y-59985500D01*
X152547634Y-59985500D01*
X152641125Y-59970691D01*
X152740484Y-59954955D01*
X152926187Y-59894617D01*
X153100164Y-59805971D01*
X153258132Y-59691201D01*
X153396201Y-59553132D01*
X153510971Y-59395164D01*
X153599617Y-59221187D01*
X153659955Y-59035484D01*
X153687530Y-58861382D01*
X153690500Y-58842634D01*
X153690500Y-58647365D01*
X158059500Y-58647365D01*
X158059500Y-58842634D01*
X158090045Y-59035485D01*
X158150381Y-59221184D01*
X158150382Y-59221187D01*
X158239031Y-59395167D01*
X158353793Y-59553125D01*
X158353797Y-59553130D01*
X158491869Y-59691202D01*
X158491874Y-59691206D01*
X158573486Y-59750500D01*
X158649836Y-59805971D01*
X158763565Y-59863919D01*
X158823812Y-59894617D01*
X158823815Y-59894618D01*
X158916664Y-59924786D01*
X159009516Y-59954955D01*
X159098835Y-59969101D01*
X159202366Y-59985500D01*
X159202371Y-59985500D01*
X159397634Y-59985500D01*
X159491125Y-59970691D01*
X159590484Y-59954955D01*
X159776187Y-59894617D01*
X159950164Y-59805971D01*
X160108132Y-59691201D01*
X160246201Y-59553132D01*
X160360971Y-59395164D01*
X160449617Y-59221187D01*
X160509955Y-59035484D01*
X160537530Y-58861382D01*
X160540500Y-58842634D01*
X160540500Y-58647366D01*
X160539961Y-58643963D01*
X160539961Y-58643961D01*
X160537533Y-58628634D01*
X161774500Y-58628634D01*
X161774500Y-58861365D01*
X161774501Y-58861382D01*
X161804878Y-59092122D01*
X161865120Y-59316947D01*
X161954180Y-59531960D01*
X161954188Y-59531976D01*
X162070553Y-59733524D01*
X162070564Y-59733540D01*
X162212242Y-59918179D01*
X162212248Y-59918186D01*
X162376813Y-60082751D01*
X162376819Y-60082756D01*
X162561468Y-60224442D01*
X162561475Y-60224446D01*
X162763023Y-60340811D01*
X162763039Y-60340819D01*
X162978052Y-60429879D01*
X162978054Y-60429879D01*
X162978060Y-60429882D01*
X163202874Y-60490121D01*
X163433628Y-60520500D01*
X163433635Y-60520500D01*
X163666365Y-60520500D01*
X163666372Y-60520500D01*
X163897126Y-60490121D01*
X164121940Y-60429882D01*
X164266442Y-60370028D01*
X164336960Y-60340819D01*
X164336963Y-60340817D01*
X164336969Y-60340815D01*
X164538532Y-60224442D01*
X164723181Y-60082756D01*
X164887756Y-59918181D01*
X165029442Y-59733532D01*
X165145815Y-59531969D01*
X165171287Y-59470475D01*
X165234879Y-59316947D01*
X165234878Y-59316947D01*
X165234882Y-59316940D01*
X165295121Y-59092126D01*
X165325500Y-58861372D01*
X165325500Y-58628634D01*
X172274500Y-58628634D01*
X172274500Y-58861365D01*
X172274501Y-58861382D01*
X172304878Y-59092122D01*
X172365120Y-59316947D01*
X172454180Y-59531960D01*
X172454188Y-59531976D01*
X172570553Y-59733524D01*
X172570564Y-59733540D01*
X172712242Y-59918179D01*
X172712248Y-59918186D01*
X172876813Y-60082751D01*
X172876819Y-60082756D01*
X173061468Y-60224442D01*
X173061475Y-60224446D01*
X173263023Y-60340811D01*
X173263039Y-60340819D01*
X173478052Y-60429879D01*
X173478054Y-60429879D01*
X173478060Y-60429882D01*
X173702874Y-60490121D01*
X173933628Y-60520500D01*
X173933635Y-60520500D01*
X174166365Y-60520500D01*
X174166372Y-60520500D01*
X174397126Y-60490121D01*
X174621940Y-60429882D01*
X174766442Y-60370028D01*
X174836960Y-60340819D01*
X174836963Y-60340817D01*
X174836969Y-60340815D01*
X175038532Y-60224442D01*
X175223181Y-60082756D01*
X175387756Y-59918181D01*
X175529442Y-59733532D01*
X175645815Y-59531969D01*
X175671287Y-59470475D01*
X175734879Y-59316947D01*
X175734878Y-59316947D01*
X175734882Y-59316940D01*
X175795121Y-59092126D01*
X175825500Y-58861372D01*
X175825500Y-58647365D01*
X177059500Y-58647365D01*
X177059500Y-58842634D01*
X177090045Y-59035485D01*
X177150381Y-59221184D01*
X177150382Y-59221187D01*
X177239031Y-59395167D01*
X177353793Y-59553125D01*
X177353797Y-59553130D01*
X177491869Y-59691202D01*
X177491874Y-59691206D01*
X177573486Y-59750500D01*
X177649836Y-59805971D01*
X177763565Y-59863919D01*
X177823812Y-59894617D01*
X177823815Y-59894618D01*
X177916664Y-59924786D01*
X178009516Y-59954955D01*
X178098835Y-59969101D01*
X178202366Y-59985500D01*
X178202371Y-59985500D01*
X178397634Y-59985500D01*
X178491125Y-59970691D01*
X178590484Y-59954955D01*
X178776187Y-59894617D01*
X178950164Y-59805971D01*
X179108132Y-59691201D01*
X179246201Y-59553132D01*
X179360971Y-59395164D01*
X179449617Y-59221187D01*
X179509955Y-59035484D01*
X179537530Y-58861382D01*
X179540500Y-58842634D01*
X179540500Y-58647365D01*
X184159500Y-58647365D01*
X184159500Y-58842634D01*
X184190045Y-59035485D01*
X184250381Y-59221184D01*
X184250382Y-59221187D01*
X184339031Y-59395167D01*
X184453793Y-59553125D01*
X184453797Y-59553130D01*
X184591869Y-59691202D01*
X184591874Y-59691206D01*
X184673486Y-59750500D01*
X184749836Y-59805971D01*
X184863565Y-59863919D01*
X184923812Y-59894617D01*
X184923815Y-59894618D01*
X185016664Y-59924786D01*
X185109516Y-59954955D01*
X185198835Y-59969101D01*
X185302366Y-59985500D01*
X185302371Y-59985500D01*
X185497634Y-59985500D01*
X185591125Y-59970691D01*
X185690484Y-59954955D01*
X185876187Y-59894617D01*
X186050164Y-59805971D01*
X186208132Y-59691201D01*
X186346201Y-59553132D01*
X186460971Y-59395164D01*
X186549617Y-59221187D01*
X186609955Y-59035484D01*
X186637530Y-58861382D01*
X186640500Y-58842634D01*
X186640500Y-58647366D01*
X186639961Y-58643963D01*
X186639961Y-58643961D01*
X186637533Y-58628634D01*
X187874500Y-58628634D01*
X187874500Y-58861365D01*
X187874501Y-58861382D01*
X187904878Y-59092122D01*
X187965120Y-59316947D01*
X188054180Y-59531960D01*
X188054188Y-59531976D01*
X188170553Y-59733524D01*
X188170564Y-59733540D01*
X188312242Y-59918179D01*
X188312248Y-59918186D01*
X188476813Y-60082751D01*
X188476819Y-60082756D01*
X188661468Y-60224442D01*
X188661475Y-60224446D01*
X188863023Y-60340811D01*
X188863039Y-60340819D01*
X189078052Y-60429879D01*
X189078054Y-60429879D01*
X189078060Y-60429882D01*
X189302874Y-60490121D01*
X189533628Y-60520500D01*
X189533635Y-60520500D01*
X189766365Y-60520500D01*
X189766372Y-60520500D01*
X189997126Y-60490121D01*
X190221940Y-60429882D01*
X190366442Y-60370028D01*
X190436960Y-60340819D01*
X190436963Y-60340817D01*
X190436969Y-60340815D01*
X190638532Y-60224442D01*
X190823181Y-60082756D01*
X190987756Y-59918181D01*
X191129442Y-59733532D01*
X191245815Y-59531969D01*
X191271287Y-59470475D01*
X191334879Y-59316947D01*
X191334878Y-59316947D01*
X191334882Y-59316940D01*
X191395121Y-59092126D01*
X191425500Y-58861372D01*
X191425500Y-58628634D01*
X198374500Y-58628634D01*
X198374500Y-58861365D01*
X198374501Y-58861382D01*
X198404878Y-59092122D01*
X198465120Y-59316947D01*
X198554180Y-59531960D01*
X198554188Y-59531976D01*
X198670553Y-59733524D01*
X198670564Y-59733540D01*
X198812242Y-59918179D01*
X198812248Y-59918186D01*
X198976813Y-60082751D01*
X198976819Y-60082756D01*
X199161468Y-60224442D01*
X199161475Y-60224446D01*
X199363023Y-60340811D01*
X199363039Y-60340819D01*
X199578052Y-60429879D01*
X199578054Y-60429879D01*
X199578060Y-60429882D01*
X199802874Y-60490121D01*
X200033628Y-60520500D01*
X200033635Y-60520500D01*
X200266365Y-60520500D01*
X200266372Y-60520500D01*
X200497126Y-60490121D01*
X200721940Y-60429882D01*
X200866442Y-60370028D01*
X200936960Y-60340819D01*
X200936963Y-60340817D01*
X200936969Y-60340815D01*
X201138532Y-60224442D01*
X201323181Y-60082756D01*
X201487756Y-59918181D01*
X201629442Y-59733532D01*
X201745815Y-59531969D01*
X201771287Y-59470475D01*
X201834879Y-59316947D01*
X201834878Y-59316947D01*
X201834882Y-59316940D01*
X201895121Y-59092126D01*
X201925500Y-58861372D01*
X201925500Y-58647365D01*
X203159500Y-58647365D01*
X203159500Y-58842634D01*
X203190045Y-59035485D01*
X203250381Y-59221184D01*
X203250382Y-59221187D01*
X203339031Y-59395167D01*
X203453793Y-59553125D01*
X203453797Y-59553130D01*
X203591869Y-59691202D01*
X203591874Y-59691206D01*
X203673486Y-59750500D01*
X203749836Y-59805971D01*
X203863565Y-59863919D01*
X203923812Y-59894617D01*
X203923815Y-59894618D01*
X204016664Y-59924786D01*
X204109516Y-59954955D01*
X204198835Y-59969101D01*
X204302366Y-59985500D01*
X204302371Y-59985500D01*
X204497634Y-59985500D01*
X204591125Y-59970691D01*
X204690484Y-59954955D01*
X204876187Y-59894617D01*
X205050164Y-59805971D01*
X205208132Y-59691201D01*
X205346201Y-59553132D01*
X205460971Y-59395164D01*
X205549617Y-59221187D01*
X205609955Y-59035484D01*
X205637530Y-58861382D01*
X205640500Y-58842634D01*
X205640500Y-58647365D01*
X205621322Y-58526286D01*
X205609955Y-58454516D01*
X205557707Y-58293713D01*
X209649500Y-58293713D01*
X209649500Y-58506286D01*
X209671845Y-58647371D01*
X209682754Y-58716243D01*
X209729909Y-58861372D01*
X209748444Y-58918414D01*
X209844951Y-59107820D01*
X209969890Y-59279786D01*
X210120213Y-59430109D01*
X210292179Y-59555048D01*
X210292181Y-59555049D01*
X210292184Y-59555051D01*
X210481588Y-59651557D01*
X210683757Y-59717246D01*
X210893713Y-59750500D01*
X210893714Y-59750500D01*
X211106286Y-59750500D01*
X211106287Y-59750500D01*
X211316243Y-59717246D01*
X211518412Y-59651557D01*
X211707816Y-59555051D01*
X211824226Y-59470475D01*
X211879786Y-59430109D01*
X211879788Y-59430106D01*
X211879792Y-59430104D01*
X212030104Y-59279792D01*
X212030106Y-59279788D01*
X212030109Y-59279786D01*
X212155048Y-59107820D01*
X212155047Y-59107820D01*
X212155051Y-59107816D01*
X212251557Y-58918412D01*
X212317246Y-58716243D01*
X212350500Y-58506287D01*
X212350500Y-58293713D01*
X212317246Y-58083757D01*
X212251557Y-57881588D01*
X212155051Y-57692184D01*
X212155049Y-57692181D01*
X212155048Y-57692179D01*
X212030109Y-57520213D01*
X211879786Y-57369890D01*
X211707820Y-57244951D01*
X211518414Y-57148444D01*
X211518413Y-57148443D01*
X211518412Y-57148443D01*
X211316243Y-57082754D01*
X211316241Y-57082753D01*
X211316240Y-57082753D01*
X211154957Y-57057208D01*
X211106287Y-57049500D01*
X210893713Y-57049500D01*
X210845042Y-57057208D01*
X210683760Y-57082753D01*
X210481585Y-57148444D01*
X210292179Y-57244951D01*
X210120213Y-57369890D01*
X209969890Y-57520213D01*
X209844951Y-57692179D01*
X209748444Y-57881585D01*
X209682753Y-58083760D01*
X209649500Y-58293713D01*
X205557707Y-58293713D01*
X205549618Y-58268815D01*
X205549617Y-58268812D01*
X205500824Y-58173052D01*
X205460971Y-58094836D01*
X205361571Y-57958023D01*
X205346206Y-57936874D01*
X205346202Y-57936869D01*
X205208130Y-57798797D01*
X205208125Y-57798793D01*
X205050167Y-57684031D01*
X205050166Y-57684030D01*
X205050164Y-57684029D01*
X204994426Y-57655629D01*
X204876187Y-57595382D01*
X204876184Y-57595381D01*
X204690485Y-57535045D01*
X204497634Y-57504500D01*
X204497629Y-57504500D01*
X204302371Y-57504500D01*
X204302366Y-57504500D01*
X204109514Y-57535045D01*
X203923815Y-57595381D01*
X203923812Y-57595382D01*
X203749832Y-57684031D01*
X203591874Y-57798793D01*
X203591869Y-57798797D01*
X203453797Y-57936869D01*
X203453793Y-57936874D01*
X203339031Y-58094832D01*
X203250382Y-58268812D01*
X203250381Y-58268815D01*
X203190045Y-58454514D01*
X203159500Y-58647365D01*
X201925500Y-58647365D01*
X201925500Y-58628628D01*
X201895121Y-58397874D01*
X201834882Y-58173060D01*
X201834879Y-58173052D01*
X201745819Y-57958039D01*
X201745811Y-57958023D01*
X201629446Y-57756475D01*
X201629442Y-57756468D01*
X201487756Y-57571819D01*
X201487751Y-57571813D01*
X201323186Y-57407248D01*
X201323179Y-57407242D01*
X201138540Y-57265564D01*
X201138538Y-57265562D01*
X201138532Y-57265558D01*
X201138527Y-57265555D01*
X201138524Y-57265553D01*
X200936976Y-57149188D01*
X200936960Y-57149180D01*
X200721947Y-57060120D01*
X200497122Y-56999878D01*
X200266382Y-56969501D01*
X200266377Y-56969500D01*
X200266372Y-56969500D01*
X200033628Y-56969500D01*
X200033622Y-56969500D01*
X200033617Y-56969501D01*
X199802877Y-56999878D01*
X199578052Y-57060120D01*
X199363039Y-57149180D01*
X199363023Y-57149188D01*
X199161475Y-57265553D01*
X199161459Y-57265564D01*
X198976820Y-57407242D01*
X198976813Y-57407248D01*
X198812248Y-57571813D01*
X198812242Y-57571820D01*
X198670564Y-57756459D01*
X198670553Y-57756475D01*
X198554188Y-57958023D01*
X198554180Y-57958039D01*
X198465120Y-58173052D01*
X198404878Y-58397877D01*
X198374501Y-58628617D01*
X198374500Y-58628634D01*
X191425500Y-58628634D01*
X191425500Y-58628628D01*
X191395121Y-58397874D01*
X191334882Y-58173060D01*
X191334879Y-58173052D01*
X191245819Y-57958039D01*
X191245811Y-57958023D01*
X191129446Y-57756475D01*
X191129442Y-57756468D01*
X190987756Y-57571819D01*
X190987751Y-57571813D01*
X190823186Y-57407248D01*
X190823179Y-57407242D01*
X190638540Y-57265564D01*
X190638538Y-57265562D01*
X190638532Y-57265558D01*
X190638527Y-57265555D01*
X190638524Y-57265553D01*
X190436976Y-57149188D01*
X190436960Y-57149180D01*
X190221947Y-57060120D01*
X189997122Y-56999878D01*
X189766382Y-56969501D01*
X189766377Y-56969500D01*
X189766372Y-56969500D01*
X189533628Y-56969500D01*
X189533622Y-56969500D01*
X189533617Y-56969501D01*
X189302877Y-56999878D01*
X189078052Y-57060120D01*
X188863039Y-57149180D01*
X188863023Y-57149188D01*
X188661475Y-57265553D01*
X188661459Y-57265564D01*
X188476820Y-57407242D01*
X188476813Y-57407248D01*
X188312248Y-57571813D01*
X188312242Y-57571820D01*
X188170564Y-57756459D01*
X188170553Y-57756475D01*
X188054188Y-57958023D01*
X188054180Y-57958039D01*
X187965120Y-58173052D01*
X187904878Y-58397877D01*
X187874501Y-58628617D01*
X187874500Y-58628634D01*
X186637533Y-58628634D01*
X186609955Y-58454514D01*
X186549618Y-58268815D01*
X186549617Y-58268812D01*
X186500824Y-58173052D01*
X186460971Y-58094836D01*
X186361571Y-57958023D01*
X186346206Y-57936874D01*
X186346202Y-57936869D01*
X186208130Y-57798797D01*
X186208125Y-57798793D01*
X186050167Y-57684031D01*
X186050166Y-57684030D01*
X186050164Y-57684029D01*
X185994426Y-57655629D01*
X185876187Y-57595382D01*
X185876184Y-57595381D01*
X185690485Y-57535045D01*
X185497634Y-57504500D01*
X185497629Y-57504500D01*
X185302371Y-57504500D01*
X185302366Y-57504500D01*
X185109514Y-57535045D01*
X184923815Y-57595381D01*
X184923812Y-57595382D01*
X184749832Y-57684031D01*
X184591874Y-57798793D01*
X184591869Y-57798797D01*
X184453797Y-57936869D01*
X184453793Y-57936874D01*
X184339031Y-58094832D01*
X184250382Y-58268812D01*
X184250381Y-58268815D01*
X184190045Y-58454514D01*
X184159500Y-58647365D01*
X179540500Y-58647365D01*
X179521322Y-58526286D01*
X179509955Y-58454516D01*
X179464206Y-58313713D01*
X179449618Y-58268815D01*
X179449617Y-58268812D01*
X179400824Y-58173052D01*
X179360971Y-58094836D01*
X179261571Y-57958023D01*
X179246206Y-57936874D01*
X179246202Y-57936869D01*
X179108130Y-57798797D01*
X179108125Y-57798793D01*
X178950167Y-57684031D01*
X178950166Y-57684030D01*
X178950164Y-57684029D01*
X178894426Y-57655629D01*
X178776187Y-57595382D01*
X178776184Y-57595381D01*
X178590485Y-57535045D01*
X178397634Y-57504500D01*
X178397629Y-57504500D01*
X178202371Y-57504500D01*
X178202366Y-57504500D01*
X178009514Y-57535045D01*
X177823815Y-57595381D01*
X177823812Y-57595382D01*
X177649832Y-57684031D01*
X177491874Y-57798793D01*
X177491869Y-57798797D01*
X177353797Y-57936869D01*
X177353793Y-57936874D01*
X177239031Y-58094832D01*
X177150382Y-58268812D01*
X177150381Y-58268815D01*
X177090045Y-58454514D01*
X177059500Y-58647365D01*
X175825500Y-58647365D01*
X175825500Y-58628628D01*
X175795121Y-58397874D01*
X175734882Y-58173060D01*
X175734879Y-58173052D01*
X175645819Y-57958039D01*
X175645811Y-57958023D01*
X175529446Y-57756475D01*
X175529442Y-57756468D01*
X175387756Y-57571819D01*
X175387751Y-57571813D01*
X175223186Y-57407248D01*
X175223179Y-57407242D01*
X175038540Y-57265564D01*
X175038538Y-57265562D01*
X175038532Y-57265558D01*
X175038527Y-57265555D01*
X175038524Y-57265553D01*
X174836976Y-57149188D01*
X174836960Y-57149180D01*
X174621947Y-57060120D01*
X174397122Y-56999878D01*
X174166382Y-56969501D01*
X174166377Y-56969500D01*
X174166372Y-56969500D01*
X173933628Y-56969500D01*
X173933622Y-56969500D01*
X173933617Y-56969501D01*
X173702877Y-56999878D01*
X173478052Y-57060120D01*
X173263039Y-57149180D01*
X173263023Y-57149188D01*
X173061475Y-57265553D01*
X173061459Y-57265564D01*
X172876820Y-57407242D01*
X172876813Y-57407248D01*
X172712248Y-57571813D01*
X172712242Y-57571820D01*
X172570564Y-57756459D01*
X172570553Y-57756475D01*
X172454188Y-57958023D01*
X172454180Y-57958039D01*
X172365120Y-58173052D01*
X172304878Y-58397877D01*
X172274501Y-58628617D01*
X172274500Y-58628634D01*
X165325500Y-58628634D01*
X165325500Y-58628628D01*
X165295121Y-58397874D01*
X165234882Y-58173060D01*
X165234879Y-58173052D01*
X165145819Y-57958039D01*
X165145811Y-57958023D01*
X165029446Y-57756475D01*
X165029442Y-57756468D01*
X164887756Y-57571819D01*
X164887751Y-57571813D01*
X164723186Y-57407248D01*
X164723179Y-57407242D01*
X164538540Y-57265564D01*
X164538538Y-57265562D01*
X164538532Y-57265558D01*
X164538527Y-57265555D01*
X164538524Y-57265553D01*
X164336976Y-57149188D01*
X164336960Y-57149180D01*
X164121947Y-57060120D01*
X163897122Y-56999878D01*
X163666382Y-56969501D01*
X163666377Y-56969500D01*
X163666372Y-56969500D01*
X163433628Y-56969500D01*
X163433622Y-56969500D01*
X163433617Y-56969501D01*
X163202877Y-56999878D01*
X162978052Y-57060120D01*
X162763039Y-57149180D01*
X162763023Y-57149188D01*
X162561475Y-57265553D01*
X162561459Y-57265564D01*
X162376820Y-57407242D01*
X162376813Y-57407248D01*
X162212248Y-57571813D01*
X162212242Y-57571820D01*
X162070564Y-57756459D01*
X162070553Y-57756475D01*
X161954188Y-57958023D01*
X161954180Y-57958039D01*
X161865120Y-58173052D01*
X161804878Y-58397877D01*
X161774501Y-58628617D01*
X161774500Y-58628634D01*
X160537533Y-58628634D01*
X160509955Y-58454514D01*
X160449618Y-58268815D01*
X160449617Y-58268812D01*
X160400824Y-58173052D01*
X160360971Y-58094836D01*
X160261571Y-57958023D01*
X160246206Y-57936874D01*
X160246202Y-57936869D01*
X160108130Y-57798797D01*
X160108125Y-57798793D01*
X159950167Y-57684031D01*
X159950166Y-57684030D01*
X159950164Y-57684029D01*
X159894426Y-57655629D01*
X159776187Y-57595382D01*
X159776184Y-57595381D01*
X159590485Y-57535045D01*
X159397634Y-57504500D01*
X159397629Y-57504500D01*
X159202371Y-57504500D01*
X159202366Y-57504500D01*
X159009514Y-57535045D01*
X158823815Y-57595381D01*
X158823812Y-57595382D01*
X158649832Y-57684031D01*
X158491874Y-57798793D01*
X158491869Y-57798797D01*
X158353797Y-57936869D01*
X158353793Y-57936874D01*
X158239031Y-58094832D01*
X158150382Y-58268812D01*
X158150381Y-58268815D01*
X158090045Y-58454514D01*
X158059500Y-58647365D01*
X153690500Y-58647365D01*
X153671322Y-58526286D01*
X153659955Y-58454516D01*
X153614206Y-58313713D01*
X153599618Y-58268815D01*
X153599617Y-58268812D01*
X153550824Y-58173052D01*
X153510971Y-58094836D01*
X153411571Y-57958023D01*
X153396206Y-57936874D01*
X153396202Y-57936869D01*
X153258130Y-57798797D01*
X153258125Y-57798793D01*
X153100167Y-57684031D01*
X153100166Y-57684030D01*
X153100164Y-57684029D01*
X153044426Y-57655629D01*
X152926187Y-57595382D01*
X152926184Y-57595381D01*
X152740485Y-57535045D01*
X152547634Y-57504500D01*
X152547629Y-57504500D01*
X152352371Y-57504500D01*
X152352366Y-57504500D01*
X152159514Y-57535045D01*
X151973815Y-57595381D01*
X151973812Y-57595382D01*
X151799832Y-57684031D01*
X151641874Y-57798793D01*
X151641869Y-57798797D01*
X151503797Y-57936869D01*
X151503793Y-57936874D01*
X151389031Y-58094832D01*
X151300382Y-58268812D01*
X151300381Y-58268815D01*
X151240045Y-58454514D01*
X151209500Y-58647365D01*
X149975500Y-58647365D01*
X149975500Y-58628628D01*
X149945121Y-58397874D01*
X149884882Y-58173060D01*
X149884879Y-58173052D01*
X149795819Y-57958039D01*
X149795811Y-57958023D01*
X149679446Y-57756475D01*
X149679442Y-57756468D01*
X149537756Y-57571819D01*
X149537751Y-57571813D01*
X149373186Y-57407248D01*
X149373179Y-57407242D01*
X149188540Y-57265564D01*
X149188538Y-57265562D01*
X149188532Y-57265558D01*
X149188527Y-57265555D01*
X149188524Y-57265553D01*
X148986976Y-57149188D01*
X148986960Y-57149180D01*
X148771947Y-57060120D01*
X148547122Y-56999878D01*
X148316382Y-56969501D01*
X148316377Y-56969500D01*
X148316372Y-56969500D01*
X148083628Y-56969500D01*
X148083622Y-56969500D01*
X148083617Y-56969501D01*
X147852877Y-56999878D01*
X147628052Y-57060120D01*
X147413039Y-57149180D01*
X147413023Y-57149188D01*
X147211475Y-57265553D01*
X147211459Y-57265564D01*
X147026820Y-57407242D01*
X147026813Y-57407248D01*
X146862248Y-57571813D01*
X146862242Y-57571820D01*
X146720564Y-57756459D01*
X146720553Y-57756475D01*
X146604188Y-57958023D01*
X146604180Y-57958039D01*
X146515120Y-58173052D01*
X146454878Y-58397877D01*
X146424501Y-58628617D01*
X146424500Y-58628634D01*
X142975500Y-58628634D01*
X142975500Y-58628628D01*
X142945121Y-58397874D01*
X142884882Y-58173060D01*
X142884879Y-58173052D01*
X142795819Y-57958039D01*
X142795811Y-57958023D01*
X142679446Y-57756475D01*
X142679442Y-57756468D01*
X142537756Y-57571819D01*
X142537751Y-57571813D01*
X142373186Y-57407248D01*
X142373179Y-57407242D01*
X142188540Y-57265564D01*
X142188538Y-57265562D01*
X142188532Y-57265558D01*
X142188527Y-57265555D01*
X142188524Y-57265553D01*
X141986976Y-57149188D01*
X141986960Y-57149180D01*
X141771947Y-57060120D01*
X141547122Y-56999878D01*
X141316382Y-56969501D01*
X141316377Y-56969500D01*
X141316372Y-56969500D01*
X141083628Y-56969500D01*
X141083622Y-56969500D01*
X141083617Y-56969501D01*
X140852877Y-56999878D01*
X140628052Y-57060120D01*
X140413039Y-57149180D01*
X140413023Y-57149188D01*
X140211475Y-57265553D01*
X140211459Y-57265564D01*
X140026820Y-57407242D01*
X140026813Y-57407248D01*
X139862248Y-57571813D01*
X139862242Y-57571820D01*
X139720564Y-57756459D01*
X139720553Y-57756475D01*
X139604188Y-57958023D01*
X139604180Y-57958039D01*
X139515120Y-58173052D01*
X139454878Y-58397877D01*
X139424501Y-58628617D01*
X139424500Y-58628634D01*
X138187533Y-58628634D01*
X138159955Y-58454514D01*
X138099618Y-58268815D01*
X138099617Y-58268812D01*
X138050824Y-58173052D01*
X138010971Y-58094836D01*
X137911571Y-57958023D01*
X137896206Y-57936874D01*
X137896202Y-57936869D01*
X137758130Y-57798797D01*
X137758125Y-57798793D01*
X137600167Y-57684031D01*
X137600166Y-57684030D01*
X137600164Y-57684029D01*
X137544426Y-57655629D01*
X137426187Y-57595382D01*
X137426184Y-57595381D01*
X137240485Y-57535045D01*
X137047634Y-57504500D01*
X137047629Y-57504500D01*
X136852371Y-57504500D01*
X136852366Y-57504500D01*
X136659514Y-57535045D01*
X136473815Y-57595381D01*
X136473812Y-57595382D01*
X136299832Y-57684031D01*
X136141874Y-57798793D01*
X136141869Y-57798797D01*
X136003797Y-57936869D01*
X136003793Y-57936874D01*
X135889031Y-58094832D01*
X135800382Y-58268812D01*
X135800381Y-58268815D01*
X135740045Y-58454514D01*
X135709500Y-58647365D01*
X120711323Y-58647365D01*
X120730500Y-58526287D01*
X120730500Y-58313713D01*
X120697246Y-58103757D01*
X120631557Y-57901588D01*
X120535051Y-57712184D01*
X120535049Y-57712181D01*
X120535048Y-57712179D01*
X120410109Y-57540213D01*
X120259786Y-57389890D01*
X120087820Y-57264951D01*
X119898414Y-57168444D01*
X119898413Y-57168443D01*
X119898412Y-57168443D01*
X119696243Y-57102754D01*
X119696241Y-57102753D01*
X119696240Y-57102753D01*
X119534957Y-57077208D01*
X119486287Y-57069500D01*
X119273713Y-57069500D01*
X119225042Y-57077208D01*
X119063760Y-57102753D01*
X118861585Y-57168444D01*
X118672179Y-57264951D01*
X118500213Y-57389890D01*
X118349890Y-57540213D01*
X118224951Y-57712179D01*
X118128444Y-57901585D01*
X118062753Y-58103760D01*
X118029500Y-58313713D01*
X114700500Y-58313713D01*
X114700500Y-53724500D01*
X114720185Y-53657461D01*
X114772989Y-53611706D01*
X114824500Y-53600500D01*
X214175500Y-53600500D01*
X214242539Y-53620185D01*
G37*
%TD.AperFunction*%
%TD*%
M02*
