%TF.GenerationSoftware,KiCad,Pcbnew,9.0.6-9.0.6~ubuntu25.04.1*%
%TF.CreationDate,2025-11-12T09:18:31-08:00*%
%TF.ProjectId,stm32g431,73746d33-3267-4343-9331-2e6b69636164,rev?*%
%TF.SameCoordinates,Original*%
%TF.FileFunction,Legend,Bot*%
%TF.FilePolarity,Positive*%
%FSLAX46Y46*%
G04 Gerber Fmt 4.6, Leading zero omitted, Abs format (unit mm)*
G04 Created by KiCad (PCBNEW 9.0.6-9.0.6~ubuntu25.04.1) date 2025-11-12 09:18:31*
%MOMM*%
%LPD*%
G01*
G04 APERTURE LIST*
%ADD10C,0.125000*%
%ADD11C,0.100000*%
%ADD12C,0.050000*%
G04 APERTURE END LIST*
D10*
X154974809Y-95266666D02*
X154736714Y-95100000D01*
X154974809Y-94980952D02*
X154474809Y-94980952D01*
X154474809Y-94980952D02*
X154474809Y-95171428D01*
X154474809Y-95171428D02*
X154498619Y-95219047D01*
X154498619Y-95219047D02*
X154522428Y-95242857D01*
X154522428Y-95242857D02*
X154570047Y-95266666D01*
X154570047Y-95266666D02*
X154641476Y-95266666D01*
X154641476Y-95266666D02*
X154689095Y-95242857D01*
X154689095Y-95242857D02*
X154712904Y-95219047D01*
X154712904Y-95219047D02*
X154736714Y-95171428D01*
X154736714Y-95171428D02*
X154736714Y-94980952D01*
X154522428Y-95457143D02*
X154498619Y-95480952D01*
X154498619Y-95480952D02*
X154474809Y-95528571D01*
X154474809Y-95528571D02*
X154474809Y-95647619D01*
X154474809Y-95647619D02*
X154498619Y-95695238D01*
X154498619Y-95695238D02*
X154522428Y-95719047D01*
X154522428Y-95719047D02*
X154570047Y-95742857D01*
X154570047Y-95742857D02*
X154617666Y-95742857D01*
X154617666Y-95742857D02*
X154689095Y-95719047D01*
X154689095Y-95719047D02*
X154974809Y-95433333D01*
X154974809Y-95433333D02*
X154974809Y-95742857D01*
X154783333Y-90974809D02*
X154949999Y-90736714D01*
X155069047Y-90974809D02*
X155069047Y-90474809D01*
X155069047Y-90474809D02*
X154878571Y-90474809D01*
X154878571Y-90474809D02*
X154830952Y-90498619D01*
X154830952Y-90498619D02*
X154807142Y-90522428D01*
X154807142Y-90522428D02*
X154783333Y-90570047D01*
X154783333Y-90570047D02*
X154783333Y-90641476D01*
X154783333Y-90641476D02*
X154807142Y-90689095D01*
X154807142Y-90689095D02*
X154830952Y-90712904D01*
X154830952Y-90712904D02*
X154878571Y-90736714D01*
X154878571Y-90736714D02*
X155069047Y-90736714D01*
X154307142Y-90974809D02*
X154592856Y-90974809D01*
X154449999Y-90974809D02*
X154449999Y-90474809D01*
X154449999Y-90474809D02*
X154497618Y-90546238D01*
X154497618Y-90546238D02*
X154545237Y-90593857D01*
X154545237Y-90593857D02*
X154592856Y-90617666D01*
X164133333Y-91974809D02*
X164299999Y-91736714D01*
X164419047Y-91974809D02*
X164419047Y-91474809D01*
X164419047Y-91474809D02*
X164228571Y-91474809D01*
X164228571Y-91474809D02*
X164180952Y-91498619D01*
X164180952Y-91498619D02*
X164157142Y-91522428D01*
X164157142Y-91522428D02*
X164133333Y-91570047D01*
X164133333Y-91570047D02*
X164133333Y-91641476D01*
X164133333Y-91641476D02*
X164157142Y-91689095D01*
X164157142Y-91689095D02*
X164180952Y-91712904D01*
X164180952Y-91712904D02*
X164228571Y-91736714D01*
X164228571Y-91736714D02*
X164419047Y-91736714D01*
X163704761Y-91474809D02*
X163799999Y-91474809D01*
X163799999Y-91474809D02*
X163847618Y-91498619D01*
X163847618Y-91498619D02*
X163871428Y-91522428D01*
X163871428Y-91522428D02*
X163919047Y-91593857D01*
X163919047Y-91593857D02*
X163942856Y-91689095D01*
X163942856Y-91689095D02*
X163942856Y-91879571D01*
X163942856Y-91879571D02*
X163919047Y-91927190D01*
X163919047Y-91927190D02*
X163895237Y-91951000D01*
X163895237Y-91951000D02*
X163847618Y-91974809D01*
X163847618Y-91974809D02*
X163752380Y-91974809D01*
X163752380Y-91974809D02*
X163704761Y-91951000D01*
X163704761Y-91951000D02*
X163680952Y-91927190D01*
X163680952Y-91927190D02*
X163657142Y-91879571D01*
X163657142Y-91879571D02*
X163657142Y-91760523D01*
X163657142Y-91760523D02*
X163680952Y-91712904D01*
X163680952Y-91712904D02*
X163704761Y-91689095D01*
X163704761Y-91689095D02*
X163752380Y-91665285D01*
X163752380Y-91665285D02*
X163847618Y-91665285D01*
X163847618Y-91665285D02*
X163895237Y-91689095D01*
X163895237Y-91689095D02*
X163919047Y-91712904D01*
X163919047Y-91712904D02*
X163942856Y-91760523D01*
X154983333Y-88724809D02*
X155149999Y-88486714D01*
X155269047Y-88724809D02*
X155269047Y-88224809D01*
X155269047Y-88224809D02*
X155078571Y-88224809D01*
X155078571Y-88224809D02*
X155030952Y-88248619D01*
X155030952Y-88248619D02*
X155007142Y-88272428D01*
X155007142Y-88272428D02*
X154983333Y-88320047D01*
X154983333Y-88320047D02*
X154983333Y-88391476D01*
X154983333Y-88391476D02*
X155007142Y-88439095D01*
X155007142Y-88439095D02*
X155030952Y-88462904D01*
X155030952Y-88462904D02*
X155078571Y-88486714D01*
X155078571Y-88486714D02*
X155269047Y-88486714D01*
X154816666Y-88224809D02*
X154507142Y-88224809D01*
X154507142Y-88224809D02*
X154673809Y-88415285D01*
X154673809Y-88415285D02*
X154602380Y-88415285D01*
X154602380Y-88415285D02*
X154554761Y-88439095D01*
X154554761Y-88439095D02*
X154530952Y-88462904D01*
X154530952Y-88462904D02*
X154507142Y-88510523D01*
X154507142Y-88510523D02*
X154507142Y-88629571D01*
X154507142Y-88629571D02*
X154530952Y-88677190D01*
X154530952Y-88677190D02*
X154554761Y-88701000D01*
X154554761Y-88701000D02*
X154602380Y-88724809D01*
X154602380Y-88724809D02*
X154745237Y-88724809D01*
X154745237Y-88724809D02*
X154792856Y-88701000D01*
X154792856Y-88701000D02*
X154816666Y-88677190D01*
X164474809Y-89266666D02*
X164236714Y-89100000D01*
X164474809Y-88980952D02*
X163974809Y-88980952D01*
X163974809Y-88980952D02*
X163974809Y-89171428D01*
X163974809Y-89171428D02*
X163998619Y-89219047D01*
X163998619Y-89219047D02*
X164022428Y-89242857D01*
X164022428Y-89242857D02*
X164070047Y-89266666D01*
X164070047Y-89266666D02*
X164141476Y-89266666D01*
X164141476Y-89266666D02*
X164189095Y-89242857D01*
X164189095Y-89242857D02*
X164212904Y-89219047D01*
X164212904Y-89219047D02*
X164236714Y-89171428D01*
X164236714Y-89171428D02*
X164236714Y-88980952D01*
X163974809Y-89433333D02*
X163974809Y-89766666D01*
X163974809Y-89766666D02*
X164474809Y-89552381D01*
D11*
X151161985Y-89888094D02*
X150923890Y-89888094D01*
X151423890Y-90054760D02*
X151161985Y-89888094D01*
X151161985Y-89888094D02*
X151423890Y-89721427D01*
X151376271Y-89578570D02*
X151400080Y-89554761D01*
X151400080Y-89554761D02*
X151423890Y-89507142D01*
X151423890Y-89507142D02*
X151423890Y-89388094D01*
X151423890Y-89388094D02*
X151400080Y-89340475D01*
X151400080Y-89340475D02*
X151376271Y-89316666D01*
X151376271Y-89316666D02*
X151328652Y-89292856D01*
X151328652Y-89292856D02*
X151281033Y-89292856D01*
X151281033Y-89292856D02*
X151209604Y-89316666D01*
X151209604Y-89316666D02*
X150923890Y-89602380D01*
X150923890Y-89602380D02*
X150923890Y-89292856D01*
D10*
X163577190Y-94228571D02*
X163601000Y-94204762D01*
X163601000Y-94204762D02*
X163624809Y-94133333D01*
X163624809Y-94133333D02*
X163624809Y-94085714D01*
X163624809Y-94085714D02*
X163601000Y-94014286D01*
X163601000Y-94014286D02*
X163553380Y-93966667D01*
X163553380Y-93966667D02*
X163505761Y-93942857D01*
X163505761Y-93942857D02*
X163410523Y-93919048D01*
X163410523Y-93919048D02*
X163339095Y-93919048D01*
X163339095Y-93919048D02*
X163243857Y-93942857D01*
X163243857Y-93942857D02*
X163196238Y-93966667D01*
X163196238Y-93966667D02*
X163148619Y-94014286D01*
X163148619Y-94014286D02*
X163124809Y-94085714D01*
X163124809Y-94085714D02*
X163124809Y-94133333D01*
X163124809Y-94133333D02*
X163148619Y-94204762D01*
X163148619Y-94204762D02*
X163172428Y-94228571D01*
X163624809Y-94704762D02*
X163624809Y-94419048D01*
X163624809Y-94561905D02*
X163124809Y-94561905D01*
X163124809Y-94561905D02*
X163196238Y-94514286D01*
X163196238Y-94514286D02*
X163243857Y-94466667D01*
X163243857Y-94466667D02*
X163267666Y-94419048D01*
X163124809Y-95014285D02*
X163124809Y-95061904D01*
X163124809Y-95061904D02*
X163148619Y-95109523D01*
X163148619Y-95109523D02*
X163172428Y-95133333D01*
X163172428Y-95133333D02*
X163220047Y-95157142D01*
X163220047Y-95157142D02*
X163315285Y-95180952D01*
X163315285Y-95180952D02*
X163434333Y-95180952D01*
X163434333Y-95180952D02*
X163529571Y-95157142D01*
X163529571Y-95157142D02*
X163577190Y-95133333D01*
X163577190Y-95133333D02*
X163601000Y-95109523D01*
X163601000Y-95109523D02*
X163624809Y-95061904D01*
X163624809Y-95061904D02*
X163624809Y-95014285D01*
X163624809Y-95014285D02*
X163601000Y-94966666D01*
X163601000Y-94966666D02*
X163577190Y-94942857D01*
X163577190Y-94942857D02*
X163529571Y-94919047D01*
X163529571Y-94919047D02*
X163434333Y-94895238D01*
X163434333Y-94895238D02*
X163315285Y-94895238D01*
X163315285Y-94895238D02*
X163220047Y-94919047D01*
X163220047Y-94919047D02*
X163172428Y-94942857D01*
X163172428Y-94942857D02*
X163148619Y-94966666D01*
X163148619Y-94966666D02*
X163124809Y-95014285D01*
X153374809Y-96466666D02*
X153136714Y-96300000D01*
X153374809Y-96180952D02*
X152874809Y-96180952D01*
X152874809Y-96180952D02*
X152874809Y-96371428D01*
X152874809Y-96371428D02*
X152898619Y-96419047D01*
X152898619Y-96419047D02*
X152922428Y-96442857D01*
X152922428Y-96442857D02*
X152970047Y-96466666D01*
X152970047Y-96466666D02*
X153041476Y-96466666D01*
X153041476Y-96466666D02*
X153089095Y-96442857D01*
X153089095Y-96442857D02*
X153112904Y-96419047D01*
X153112904Y-96419047D02*
X153136714Y-96371428D01*
X153136714Y-96371428D02*
X153136714Y-96180952D01*
X153041476Y-96895238D02*
X153374809Y-96895238D01*
X152851000Y-96776190D02*
X153208142Y-96657143D01*
X153208142Y-96657143D02*
X153208142Y-96966666D01*
X153877190Y-91516666D02*
X153901000Y-91492857D01*
X153901000Y-91492857D02*
X153924809Y-91421428D01*
X153924809Y-91421428D02*
X153924809Y-91373809D01*
X153924809Y-91373809D02*
X153901000Y-91302381D01*
X153901000Y-91302381D02*
X153853380Y-91254762D01*
X153853380Y-91254762D02*
X153805761Y-91230952D01*
X153805761Y-91230952D02*
X153710523Y-91207143D01*
X153710523Y-91207143D02*
X153639095Y-91207143D01*
X153639095Y-91207143D02*
X153543857Y-91230952D01*
X153543857Y-91230952D02*
X153496238Y-91254762D01*
X153496238Y-91254762D02*
X153448619Y-91302381D01*
X153448619Y-91302381D02*
X153424809Y-91373809D01*
X153424809Y-91373809D02*
X153424809Y-91421428D01*
X153424809Y-91421428D02*
X153448619Y-91492857D01*
X153448619Y-91492857D02*
X153472428Y-91516666D01*
X153424809Y-91683333D02*
X153424809Y-91992857D01*
X153424809Y-91992857D02*
X153615285Y-91826190D01*
X153615285Y-91826190D02*
X153615285Y-91897619D01*
X153615285Y-91897619D02*
X153639095Y-91945238D01*
X153639095Y-91945238D02*
X153662904Y-91969047D01*
X153662904Y-91969047D02*
X153710523Y-91992857D01*
X153710523Y-91992857D02*
X153829571Y-91992857D01*
X153829571Y-91992857D02*
X153877190Y-91969047D01*
X153877190Y-91969047D02*
X153901000Y-91945238D01*
X153901000Y-91945238D02*
X153924809Y-91897619D01*
X153924809Y-91897619D02*
X153924809Y-91754762D01*
X153924809Y-91754762D02*
X153901000Y-91707143D01*
X153901000Y-91707143D02*
X153877190Y-91683333D01*
X153977190Y-87616666D02*
X154001000Y-87592857D01*
X154001000Y-87592857D02*
X154024809Y-87521428D01*
X154024809Y-87521428D02*
X154024809Y-87473809D01*
X154024809Y-87473809D02*
X154001000Y-87402381D01*
X154001000Y-87402381D02*
X153953380Y-87354762D01*
X153953380Y-87354762D02*
X153905761Y-87330952D01*
X153905761Y-87330952D02*
X153810523Y-87307143D01*
X153810523Y-87307143D02*
X153739095Y-87307143D01*
X153739095Y-87307143D02*
X153643857Y-87330952D01*
X153643857Y-87330952D02*
X153596238Y-87354762D01*
X153596238Y-87354762D02*
X153548619Y-87402381D01*
X153548619Y-87402381D02*
X153524809Y-87473809D01*
X153524809Y-87473809D02*
X153524809Y-87521428D01*
X153524809Y-87521428D02*
X153548619Y-87592857D01*
X153548619Y-87592857D02*
X153572428Y-87616666D01*
X153572428Y-87807143D02*
X153548619Y-87830952D01*
X153548619Y-87830952D02*
X153524809Y-87878571D01*
X153524809Y-87878571D02*
X153524809Y-87997619D01*
X153524809Y-87997619D02*
X153548619Y-88045238D01*
X153548619Y-88045238D02*
X153572428Y-88069047D01*
X153572428Y-88069047D02*
X153620047Y-88092857D01*
X153620047Y-88092857D02*
X153667666Y-88092857D01*
X153667666Y-88092857D02*
X153739095Y-88069047D01*
X153739095Y-88069047D02*
X154024809Y-87783333D01*
X154024809Y-87783333D02*
X154024809Y-88092857D01*
D12*
%TO.C,Y2*%
X151800000Y-89800000D02*
X151800000Y-89500000D01*
X152450000Y-88850000D02*
X152350000Y-88850000D01*
X152450000Y-90450000D02*
X152350000Y-90450000D01*
X153000000Y-89800000D02*
X153000000Y-89500000D01*
%TD*%
M02*
