%TF.GenerationSoftware,KiCad,Pcbnew,9.0.6-9.0.6~ubuntu25.04.1*%
%TF.CreationDate,2025-11-12T09:18:28-08:00*%
%TF.ProjectId,stm32g431,73746d33-3267-4343-9331-2e6b69636164,rev?*%
%TF.SameCoordinates,Original*%
%TF.FileFunction,Copper,L3,Inr*%
%TF.FilePolarity,Positive*%
%FSLAX46Y46*%
G04 Gerber Fmt 4.6, Leading zero omitted, Abs format (unit mm)*
G04 Created by KiCad (PCBNEW 9.0.6-9.0.6~ubuntu25.04.1) date 2025-11-12 09:18:28*
%MOMM*%
%LPD*%
G01*
G04 APERTURE LIST*
%TA.AperFunction,ViaPad*%
%ADD10C,0.600000*%
%TD*%
G04 APERTURE END LIST*
D10*
%TO.N,/VDD*%
X142000000Y-97150000D03*
X144900000Y-92550000D03*
%TO.N,GND*%
X152750000Y-88100000D03*
X143300000Y-89550000D03*
X157200000Y-86850000D03*
X138450000Y-77700000D03*
X143300000Y-90250000D03*
X163000000Y-79400000D03*
X164600000Y-95550000D03*
X140400000Y-94200000D03*
X150800000Y-83050000D03*
X142750000Y-82850000D03*
X154500000Y-87650000D03*
X155600000Y-82600000D03*
X157500000Y-82400000D03*
X145850000Y-80850000D03*
X163000000Y-82000000D03*
X146100000Y-90500000D03*
X148950000Y-82750000D03*
X140600000Y-97200000D03*
X143150000Y-94050000D03*
X150900000Y-86800000D03*
X156000000Y-77100000D03*
X148750000Y-77100000D03*
X146100000Y-89600000D03*
X146100000Y-88750000D03*
X146100000Y-91450000D03*
X139000000Y-85850000D03*
X151900000Y-88100000D03*
X152850000Y-90850000D03*
X143300000Y-90950000D03*
%TO.N,/PB6*%
X160275735Y-88775735D03*
%TO.N,/PA12*%
X163400000Y-90000000D03*
%TO.N,/PF1*%
X155800000Y-90000000D03*
%TO.N,/PB3*%
X160900000Y-90700000D03*
%TO.N,/PA11*%
X163400000Y-90900000D03*
%TO.N,/PB8*%
X158873814Y-88285928D03*
%TO.N,/PB5*%
X160150000Y-89750000D03*
%TO.N,/PA9*%
X163500000Y-92700000D03*
%TO.N,/PB4*%
X161075735Y-89675735D03*
%TO.N,/PA8*%
X164500000Y-97400000D03*
%TO.N,/PA10*%
X163500000Y-91700000D03*
%TO.N,/PB7*%
X159176470Y-89026470D03*
%TO.N,/PA15*%
X162450000Y-90050000D03*
%TO.N,/swclk*%
X163000000Y-83300000D03*
X164900000Y-85900000D03*
%TO.N,/swdio*%
X162900000Y-84600000D03*
X166400000Y-89200000D03*
%TO.N,/PF0*%
X155800000Y-89200000D03*
%TO.N,+3V3*%
X166350000Y-84550000D03*
X146850000Y-95400000D03*
X165300000Y-94800000D03*
X155900000Y-87500000D03*
%TO.N,/DM*%
X154550000Y-83299000D03*
%TO.N,/DP*%
X153650000Y-84050000D03*
%TO.N,Net-(C6-Pad1)*%
X148500000Y-85950000D03*
X145800000Y-82500000D03*
%TO.N,/VBUS*%
X149850000Y-83000000D03*
X154800000Y-82550000D03*
%TD*%
%TA.AperFunction,Conductor*%
%TO.N,+3V3*%
G36*
X167192539Y-73870185D02*
G01*
X167238294Y-73922989D01*
X167249500Y-73974500D01*
X167249500Y-88621730D01*
X167229815Y-88688769D01*
X167177011Y-88734524D01*
X167107853Y-88744468D01*
X167044297Y-88715443D01*
X167025707Y-88694373D01*
X167025653Y-88694419D01*
X167024391Y-88692881D01*
X167022403Y-88690628D01*
X167021793Y-88689716D01*
X167021786Y-88689707D01*
X166910292Y-88578213D01*
X166910288Y-88578210D01*
X166779185Y-88490609D01*
X166779172Y-88490602D01*
X166633501Y-88430264D01*
X166633489Y-88430261D01*
X166478845Y-88399500D01*
X166478842Y-88399500D01*
X166321158Y-88399500D01*
X166321155Y-88399500D01*
X166166510Y-88430261D01*
X166166498Y-88430264D01*
X166020827Y-88490602D01*
X166020814Y-88490609D01*
X165889711Y-88578210D01*
X165889707Y-88578213D01*
X165778213Y-88689707D01*
X165778210Y-88689711D01*
X165690609Y-88820814D01*
X165690602Y-88820827D01*
X165630264Y-88966498D01*
X165630261Y-88966510D01*
X165599500Y-89121153D01*
X165599500Y-89278846D01*
X165630261Y-89433489D01*
X165630264Y-89433501D01*
X165690602Y-89579172D01*
X165690609Y-89579185D01*
X165778210Y-89710288D01*
X165778213Y-89710292D01*
X165889707Y-89821786D01*
X165889711Y-89821789D01*
X166020814Y-89909390D01*
X166020827Y-89909397D01*
X166112699Y-89947451D01*
X166166503Y-89969737D01*
X166321153Y-90000499D01*
X166321156Y-90000500D01*
X166321158Y-90000500D01*
X166478844Y-90000500D01*
X166478845Y-90000499D01*
X166633497Y-89969737D01*
X166779179Y-89909394D01*
X166910289Y-89821789D01*
X167021789Y-89710289D01*
X167022397Y-89709378D01*
X167022839Y-89709008D01*
X167025653Y-89705581D01*
X167026303Y-89706114D01*
X167076010Y-89664573D01*
X167145334Y-89655866D01*
X167208362Y-89686020D01*
X167245082Y-89745463D01*
X167249500Y-89778269D01*
X167249500Y-96825500D01*
X167229815Y-96892539D01*
X167177011Y-96938294D01*
X167125500Y-96949500D01*
X166058090Y-96949500D01*
X165877072Y-96981418D01*
X165704346Y-97044286D01*
X165704339Y-97044289D01*
X165545157Y-97136193D01*
X165545154Y-97136195D01*
X165461005Y-97206804D01*
X165396997Y-97234816D01*
X165328005Y-97223777D01*
X165275934Y-97177189D01*
X165266739Y-97159266D01*
X165262972Y-97150172D01*
X165242262Y-97100172D01*
X165209397Y-97020826D01*
X165209390Y-97020814D01*
X165121789Y-96889711D01*
X165121786Y-96889707D01*
X165010292Y-96778213D01*
X165010288Y-96778210D01*
X164879185Y-96690609D01*
X164879172Y-96690602D01*
X164733501Y-96630264D01*
X164733489Y-96630261D01*
X164578845Y-96599500D01*
X164578842Y-96599500D01*
X164421158Y-96599500D01*
X164421155Y-96599500D01*
X164266510Y-96630261D01*
X164266498Y-96630264D01*
X164120827Y-96690602D01*
X164120814Y-96690609D01*
X163989711Y-96778210D01*
X163989707Y-96778213D01*
X163878213Y-96889707D01*
X163878210Y-96889711D01*
X163790609Y-97020814D01*
X163790602Y-97020827D01*
X163730264Y-97166498D01*
X163730261Y-97166510D01*
X163699500Y-97321153D01*
X163699500Y-97478846D01*
X163730261Y-97633489D01*
X163730264Y-97633501D01*
X163790602Y-97779172D01*
X163790609Y-97779185D01*
X163878210Y-97910288D01*
X163878213Y-97910292D01*
X163989707Y-98021786D01*
X163989711Y-98021789D01*
X164120814Y-98109390D01*
X164120827Y-98109397D01*
X164196280Y-98140650D01*
X164266503Y-98169737D01*
X164421153Y-98200499D01*
X164421156Y-98200500D01*
X164421158Y-98200500D01*
X164578844Y-98200500D01*
X164578845Y-98200499D01*
X164733497Y-98169737D01*
X164879179Y-98109394D01*
X164879184Y-98109390D01*
X164879187Y-98109389D01*
X164906608Y-98091067D01*
X164973285Y-98070188D01*
X165040666Y-98088672D01*
X165087356Y-98140650D01*
X165099500Y-98194168D01*
X165099500Y-100025500D01*
X165079815Y-100092539D01*
X165027011Y-100138294D01*
X164975500Y-100149500D01*
X149774500Y-100149500D01*
X149707461Y-100129815D01*
X149661706Y-100077011D01*
X149650500Y-100025500D01*
X149650500Y-97057292D01*
X149650500Y-97057290D01*
X149616429Y-96875027D01*
X149549448Y-96702128D01*
X149542311Y-96690602D01*
X149451838Y-96544482D01*
X149451836Y-96544480D01*
X149326922Y-96407455D01*
X149178952Y-96295714D01*
X149012981Y-96213069D01*
X149012968Y-96213064D01*
X148834627Y-96162321D01*
X148834628Y-96162321D01*
X148650001Y-96145214D01*
X148649999Y-96145214D01*
X148465371Y-96162321D01*
X148287031Y-96213064D01*
X148287018Y-96213069D01*
X148121047Y-96295714D01*
X147973077Y-96407455D01*
X147848163Y-96544480D01*
X147848161Y-96544482D01*
X147750553Y-96702124D01*
X147750552Y-96702128D01*
X147683571Y-96875027D01*
X147649500Y-97057290D01*
X147649500Y-97057292D01*
X147649500Y-100025500D01*
X147629815Y-100092539D01*
X147577011Y-100138294D01*
X147525500Y-100149500D01*
X140024500Y-100149500D01*
X139957461Y-100129815D01*
X139911706Y-100077011D01*
X139900500Y-100025500D01*
X139900500Y-97927350D01*
X139920185Y-97860311D01*
X139972989Y-97814556D01*
X140042147Y-97804612D01*
X140093391Y-97824248D01*
X140220814Y-97909390D01*
X140220827Y-97909397D01*
X140320060Y-97950500D01*
X140366503Y-97969737D01*
X140518644Y-98000000D01*
X140521153Y-98000499D01*
X140521156Y-98000500D01*
X140521158Y-98000500D01*
X140678844Y-98000500D01*
X140678845Y-98000499D01*
X140833497Y-97969737D01*
X140979179Y-97909394D01*
X141110289Y-97821789D01*
X141221789Y-97710289D01*
X141221791Y-97710285D01*
X141225653Y-97705581D01*
X141227054Y-97706731D01*
X141274110Y-97667385D01*
X141343433Y-97658661D01*
X141406468Y-97688800D01*
X141411309Y-97693388D01*
X141489707Y-97771786D01*
X141489711Y-97771789D01*
X141620814Y-97859390D01*
X141620827Y-97859397D01*
X141766498Y-97919735D01*
X141766503Y-97919737D01*
X141919509Y-97950172D01*
X141921153Y-97950499D01*
X141921156Y-97950500D01*
X141921158Y-97950500D01*
X142078844Y-97950500D01*
X142078845Y-97950499D01*
X142233497Y-97919737D01*
X142379179Y-97859394D01*
X142510289Y-97771789D01*
X142621789Y-97660289D01*
X142709394Y-97529179D01*
X142769737Y-97383497D01*
X142800500Y-97228842D01*
X142800500Y-97071158D01*
X142800500Y-97071155D01*
X142800499Y-97071153D01*
X142790467Y-97020720D01*
X142769737Y-96916503D01*
X142759811Y-96892539D01*
X142709397Y-96770827D01*
X142709390Y-96770814D01*
X142621789Y-96639711D01*
X142621786Y-96639707D01*
X142510292Y-96528213D01*
X142510288Y-96528210D01*
X142379185Y-96440609D01*
X142379172Y-96440602D01*
X142233501Y-96380264D01*
X142233489Y-96380261D01*
X142078845Y-96349500D01*
X142078842Y-96349500D01*
X141921158Y-96349500D01*
X141921155Y-96349500D01*
X141766510Y-96380261D01*
X141766498Y-96380264D01*
X141620827Y-96440602D01*
X141620814Y-96440609D01*
X141489711Y-96528210D01*
X141489707Y-96528213D01*
X141378213Y-96639707D01*
X141374347Y-96644419D01*
X141372952Y-96643274D01*
X141325848Y-96682632D01*
X141256522Y-96691331D01*
X141193498Y-96661169D01*
X141188690Y-96656611D01*
X141110292Y-96578213D01*
X141110288Y-96578210D01*
X140979185Y-96490609D01*
X140979172Y-96490602D01*
X140833501Y-96430264D01*
X140833489Y-96430261D01*
X140678845Y-96399500D01*
X140678842Y-96399500D01*
X140521158Y-96399500D01*
X140521155Y-96399500D01*
X140366510Y-96430261D01*
X140366498Y-96430264D01*
X140220827Y-96490602D01*
X140220814Y-96490609D01*
X140089711Y-96578210D01*
X140089707Y-96578213D01*
X139978213Y-96689707D01*
X139978210Y-96689711D01*
X139890609Y-96820814D01*
X139890602Y-96820827D01*
X139830264Y-96966498D01*
X139830261Y-96966510D01*
X139799500Y-97121153D01*
X139799500Y-97159476D01*
X139779815Y-97226515D01*
X139727011Y-97272270D01*
X139657853Y-97282214D01*
X139595794Y-97254465D01*
X139454847Y-97136195D01*
X139454845Y-97136193D01*
X139454844Y-97136193D01*
X139318180Y-97057290D01*
X139295660Y-97044288D01*
X139295657Y-97044287D01*
X139295656Y-97044286D01*
X139231200Y-97020826D01*
X139122926Y-96981417D01*
X138941908Y-96949500D01*
X138941906Y-96949500D01*
X138899827Y-96949500D01*
X137874500Y-96949500D01*
X137807461Y-96929815D01*
X137761706Y-96877011D01*
X137750500Y-96825500D01*
X137750500Y-95471153D01*
X163799500Y-95471153D01*
X163799500Y-95628846D01*
X163830261Y-95783489D01*
X163830264Y-95783501D01*
X163890602Y-95929172D01*
X163890609Y-95929185D01*
X163978210Y-96060288D01*
X163978213Y-96060292D01*
X164089707Y-96171786D01*
X164089711Y-96171789D01*
X164220814Y-96259390D01*
X164220827Y-96259397D01*
X164366498Y-96319735D01*
X164366503Y-96319737D01*
X164516131Y-96349500D01*
X164521153Y-96350499D01*
X164521156Y-96350500D01*
X164521158Y-96350500D01*
X164678844Y-96350500D01*
X164678845Y-96350499D01*
X164833497Y-96319737D01*
X164979179Y-96259394D01*
X165110289Y-96171789D01*
X165221789Y-96060289D01*
X165309394Y-95929179D01*
X165369737Y-95783497D01*
X165400500Y-95628842D01*
X165400500Y-95471158D01*
X165400500Y-95471155D01*
X165400499Y-95471153D01*
X165369738Y-95316510D01*
X165369737Y-95316503D01*
X165369735Y-95316498D01*
X165309397Y-95170827D01*
X165309390Y-95170814D01*
X165221789Y-95039711D01*
X165221786Y-95039707D01*
X165110292Y-94928213D01*
X165110288Y-94928210D01*
X164979185Y-94840609D01*
X164979172Y-94840602D01*
X164833501Y-94780264D01*
X164833489Y-94780261D01*
X164678845Y-94749500D01*
X164678842Y-94749500D01*
X164521158Y-94749500D01*
X164521155Y-94749500D01*
X164366510Y-94780261D01*
X164366498Y-94780264D01*
X164220827Y-94840602D01*
X164220814Y-94840609D01*
X164089711Y-94928210D01*
X164089707Y-94928213D01*
X163978213Y-95039707D01*
X163978210Y-95039711D01*
X163890609Y-95170814D01*
X163890602Y-95170827D01*
X163830264Y-95316498D01*
X163830261Y-95316510D01*
X163799500Y-95471153D01*
X137750500Y-95471153D01*
X137750500Y-94121153D01*
X139599500Y-94121153D01*
X139599500Y-94278846D01*
X139630261Y-94433489D01*
X139630264Y-94433501D01*
X139690602Y-94579172D01*
X139690609Y-94579185D01*
X139778210Y-94710288D01*
X139778213Y-94710292D01*
X139889707Y-94821786D01*
X139889711Y-94821789D01*
X140020814Y-94909390D01*
X140020827Y-94909397D01*
X140066254Y-94928213D01*
X140166503Y-94969737D01*
X140321153Y-95000499D01*
X140321156Y-95000500D01*
X140321158Y-95000500D01*
X140478844Y-95000500D01*
X140478845Y-95000499D01*
X140633497Y-94969737D01*
X140779179Y-94909394D01*
X140910289Y-94821789D01*
X141021789Y-94710289D01*
X141109394Y-94579179D01*
X141169737Y-94433497D01*
X141200500Y-94278842D01*
X141200500Y-94121158D01*
X141200500Y-94121155D01*
X141200499Y-94121153D01*
X141174264Y-93989257D01*
X141170662Y-93971153D01*
X142349500Y-93971153D01*
X142349500Y-94128846D01*
X142380261Y-94283489D01*
X142380264Y-94283501D01*
X142440602Y-94429172D01*
X142440609Y-94429185D01*
X142528210Y-94560288D01*
X142528213Y-94560292D01*
X142639707Y-94671786D01*
X142639711Y-94671789D01*
X142770814Y-94759390D01*
X142770827Y-94759397D01*
X142916498Y-94819735D01*
X142916503Y-94819737D01*
X143071153Y-94850499D01*
X143071156Y-94850500D01*
X143071158Y-94850500D01*
X143228844Y-94850500D01*
X143228845Y-94850499D01*
X143383497Y-94819737D01*
X143529179Y-94759394D01*
X143660289Y-94671789D01*
X143771789Y-94560289D01*
X143859394Y-94429179D01*
X143919737Y-94283497D01*
X143950500Y-94128842D01*
X143950500Y-93971158D01*
X143950500Y-93971155D01*
X143950499Y-93971153D01*
X143920596Y-93820821D01*
X143919737Y-93816503D01*
X143919735Y-93816498D01*
X143859397Y-93670827D01*
X143859390Y-93670814D01*
X143771789Y-93539711D01*
X143771786Y-93539707D01*
X143660292Y-93428213D01*
X143660288Y-93428210D01*
X143529185Y-93340609D01*
X143529172Y-93340602D01*
X143383501Y-93280264D01*
X143383489Y-93280261D01*
X143228845Y-93249500D01*
X143228842Y-93249500D01*
X143071158Y-93249500D01*
X143071155Y-93249500D01*
X142916510Y-93280261D01*
X142916498Y-93280264D01*
X142770827Y-93340602D01*
X142770814Y-93340609D01*
X142639711Y-93428210D01*
X142639707Y-93428213D01*
X142528213Y-93539707D01*
X142528210Y-93539711D01*
X142440609Y-93670814D01*
X142440602Y-93670827D01*
X142380264Y-93816498D01*
X142380261Y-93816510D01*
X142349500Y-93971153D01*
X141170662Y-93971153D01*
X141169738Y-93966507D01*
X141169735Y-93966498D01*
X141109397Y-93820827D01*
X141109390Y-93820814D01*
X141021789Y-93689711D01*
X141021786Y-93689707D01*
X140910292Y-93578213D01*
X140910288Y-93578210D01*
X140779185Y-93490609D01*
X140779172Y-93490602D01*
X140633501Y-93430264D01*
X140633489Y-93430261D01*
X140478845Y-93399500D01*
X140478842Y-93399500D01*
X140321158Y-93399500D01*
X140321155Y-93399500D01*
X140166510Y-93430261D01*
X140166498Y-93430264D01*
X140020827Y-93490602D01*
X140020814Y-93490609D01*
X139889711Y-93578210D01*
X139889707Y-93578213D01*
X139778213Y-93689707D01*
X139778210Y-93689711D01*
X139690609Y-93820814D01*
X139690602Y-93820827D01*
X139630264Y-93966498D01*
X139630261Y-93966510D01*
X139599500Y-94121153D01*
X137750500Y-94121153D01*
X137750500Y-92471153D01*
X144099500Y-92471153D01*
X144099500Y-92628846D01*
X144130261Y-92783489D01*
X144130264Y-92783501D01*
X144190602Y-92929172D01*
X144190609Y-92929185D01*
X144278210Y-93060288D01*
X144278213Y-93060292D01*
X144389707Y-93171786D01*
X144389711Y-93171789D01*
X144520814Y-93259390D01*
X144520827Y-93259397D01*
X144666498Y-93319735D01*
X144666503Y-93319737D01*
X144821153Y-93350499D01*
X144821156Y-93350500D01*
X144821158Y-93350500D01*
X144978844Y-93350500D01*
X144978845Y-93350499D01*
X145133497Y-93319737D01*
X145279179Y-93259394D01*
X145410289Y-93171789D01*
X145521789Y-93060289D01*
X145609394Y-92929179D01*
X145669737Y-92783497D01*
X145700500Y-92628842D01*
X145700500Y-92471158D01*
X145700500Y-92471155D01*
X145676352Y-92349758D01*
X145682579Y-92280166D01*
X145725442Y-92224989D01*
X145791331Y-92201744D01*
X145845421Y-92211005D01*
X145866498Y-92219735D01*
X145866503Y-92219737D01*
X146021153Y-92250499D01*
X146021156Y-92250500D01*
X146021158Y-92250500D01*
X146178844Y-92250500D01*
X146178845Y-92250499D01*
X146333497Y-92219737D01*
X146451592Y-92170821D01*
X146479172Y-92159397D01*
X146479172Y-92159396D01*
X146479179Y-92159394D01*
X146610289Y-92071789D01*
X146721789Y-91960289D01*
X146809394Y-91829179D01*
X146869737Y-91683497D01*
X146900500Y-91528842D01*
X146900500Y-91371158D01*
X146900500Y-91371155D01*
X146900499Y-91371153D01*
X146882204Y-91279179D01*
X146869737Y-91216503D01*
X146835355Y-91133497D01*
X146809397Y-91070827D01*
X146809389Y-91070812D01*
X146791401Y-91043892D01*
X146770522Y-90977215D01*
X146781579Y-90923772D01*
X146785768Y-90914536D01*
X146809394Y-90879179D01*
X146854139Y-90771153D01*
X152049500Y-90771153D01*
X152049500Y-90928846D01*
X152080261Y-91083489D01*
X152080264Y-91083501D01*
X152140602Y-91229172D01*
X152140609Y-91229185D01*
X152228210Y-91360288D01*
X152228213Y-91360292D01*
X152339707Y-91471786D01*
X152339711Y-91471789D01*
X152470814Y-91559390D01*
X152470827Y-91559397D01*
X152616498Y-91619735D01*
X152616503Y-91619737D01*
X152769861Y-91650242D01*
X152771153Y-91650499D01*
X152771156Y-91650500D01*
X152771158Y-91650500D01*
X152928844Y-91650500D01*
X152928845Y-91650499D01*
X153083497Y-91619737D01*
X153229179Y-91559394D01*
X153360289Y-91471789D01*
X153471789Y-91360289D01*
X153559394Y-91229179D01*
X153619737Y-91083497D01*
X153650500Y-90928842D01*
X153650500Y-90771158D01*
X153650500Y-90771155D01*
X153650499Y-90771153D01*
X153648159Y-90759390D01*
X153619737Y-90616503D01*
X153604138Y-90578844D01*
X153559397Y-90470827D01*
X153559390Y-90470814D01*
X153471789Y-90339711D01*
X153471786Y-90339707D01*
X153360292Y-90228213D01*
X153360288Y-90228210D01*
X153229185Y-90140609D01*
X153229172Y-90140602D01*
X153083501Y-90080264D01*
X153083489Y-90080261D01*
X152928845Y-90049500D01*
X152928842Y-90049500D01*
X152771158Y-90049500D01*
X152771155Y-90049500D01*
X152616510Y-90080261D01*
X152616498Y-90080264D01*
X152470827Y-90140602D01*
X152470814Y-90140609D01*
X152339711Y-90228210D01*
X152339707Y-90228213D01*
X152228213Y-90339707D01*
X152228210Y-90339711D01*
X152140609Y-90470814D01*
X152140602Y-90470827D01*
X152080264Y-90616498D01*
X152080261Y-90616510D01*
X152049500Y-90771153D01*
X146854139Y-90771153D01*
X146869737Y-90733497D01*
X146900500Y-90578842D01*
X146900500Y-90421158D01*
X146900500Y-90421155D01*
X146900499Y-90421153D01*
X146893275Y-90384834D01*
X146869737Y-90266503D01*
X146830242Y-90171153D01*
X146809397Y-90120827D01*
X146809394Y-90120822D01*
X146809394Y-90120821D01*
X146808103Y-90118889D01*
X146807737Y-90117723D01*
X146806525Y-90115454D01*
X146806955Y-90115223D01*
X146787226Y-90052214D01*
X146805710Y-89984834D01*
X146808100Y-89981115D01*
X146809394Y-89979179D01*
X146869737Y-89833497D01*
X146900500Y-89678842D01*
X146900500Y-89521158D01*
X146900500Y-89521155D01*
X146900499Y-89521153D01*
X146883061Y-89433489D01*
X146869737Y-89366503D01*
X146856275Y-89334002D01*
X146810070Y-89222452D01*
X146806790Y-89191949D01*
X146801341Y-89161746D01*
X146802890Y-89155675D01*
X146802601Y-89152983D01*
X146810070Y-89127548D01*
X146812719Y-89121153D01*
X154999500Y-89121153D01*
X154999500Y-89278846D01*
X155030261Y-89433489D01*
X155030264Y-89433501D01*
X155079574Y-89552548D01*
X155087043Y-89622018D01*
X155079574Y-89647452D01*
X155030264Y-89766498D01*
X155030261Y-89766510D01*
X154999500Y-89921153D01*
X154999500Y-90078846D01*
X155030261Y-90233489D01*
X155030264Y-90233501D01*
X155090602Y-90379172D01*
X155090609Y-90379185D01*
X155178210Y-90510288D01*
X155178213Y-90510292D01*
X155289707Y-90621786D01*
X155289711Y-90621789D01*
X155420814Y-90709390D01*
X155420827Y-90709397D01*
X155566498Y-90769735D01*
X155566503Y-90769737D01*
X155721153Y-90800499D01*
X155721156Y-90800500D01*
X155721158Y-90800500D01*
X155878844Y-90800500D01*
X155878845Y-90800499D01*
X156033497Y-90769737D01*
X156179179Y-90709394D01*
X156310289Y-90621789D01*
X156421789Y-90510289D01*
X156509394Y-90379179D01*
X156569737Y-90233497D01*
X156600500Y-90078842D01*
X156600500Y-89921158D01*
X156600500Y-89921155D01*
X156600499Y-89921153D01*
X156582137Y-89828842D01*
X156569737Y-89766503D01*
X156546454Y-89710292D01*
X156520425Y-89647452D01*
X156512956Y-89577983D01*
X156520425Y-89552548D01*
X156538404Y-89509141D01*
X156569737Y-89433497D01*
X156600500Y-89278842D01*
X156600500Y-89121158D01*
X156600500Y-89121155D01*
X156600499Y-89121153D01*
X156587131Y-89053948D01*
X156569737Y-88966503D01*
X156561919Y-88947628D01*
X156509397Y-88820827D01*
X156509390Y-88820814D01*
X156421789Y-88689711D01*
X156421786Y-88689707D01*
X156310292Y-88578213D01*
X156310288Y-88578210D01*
X156179185Y-88490609D01*
X156179172Y-88490602D01*
X156033501Y-88430264D01*
X156033489Y-88430261D01*
X155878845Y-88399500D01*
X155878842Y-88399500D01*
X155721158Y-88399500D01*
X155721155Y-88399500D01*
X155566510Y-88430261D01*
X155566498Y-88430264D01*
X155420827Y-88490602D01*
X155420814Y-88490609D01*
X155289711Y-88578210D01*
X155289707Y-88578213D01*
X155178213Y-88689707D01*
X155178210Y-88689711D01*
X155090609Y-88820814D01*
X155090602Y-88820827D01*
X155030264Y-88966498D01*
X155030261Y-88966510D01*
X154999500Y-89121153D01*
X146812719Y-89121153D01*
X146834895Y-89067614D01*
X146834895Y-89067613D01*
X146840556Y-89053946D01*
X146869737Y-88983497D01*
X146900500Y-88828842D01*
X146900500Y-88671158D01*
X146900500Y-88671155D01*
X146900499Y-88671153D01*
X146882012Y-88578213D01*
X146869737Y-88516503D01*
X146869735Y-88516498D01*
X146809397Y-88370827D01*
X146809390Y-88370814D01*
X146721789Y-88239711D01*
X146721786Y-88239707D01*
X146610292Y-88128213D01*
X146610288Y-88128210D01*
X146479185Y-88040609D01*
X146479172Y-88040602D01*
X146333501Y-87980264D01*
X146333489Y-87980261D01*
X146178845Y-87949500D01*
X146178842Y-87949500D01*
X146021158Y-87949500D01*
X146021155Y-87949500D01*
X145866510Y-87980261D01*
X145866498Y-87980264D01*
X145720827Y-88040602D01*
X145720814Y-88040609D01*
X145589711Y-88128210D01*
X145589707Y-88128213D01*
X145478213Y-88239707D01*
X145478210Y-88239711D01*
X145390609Y-88370814D01*
X145390602Y-88370827D01*
X145330264Y-88516498D01*
X145330261Y-88516510D01*
X145299500Y-88671153D01*
X145299500Y-88828846D01*
X145330261Y-88983489D01*
X145330264Y-88983501D01*
X145389930Y-89127548D01*
X145397399Y-89197017D01*
X145389930Y-89222452D01*
X145330264Y-89366498D01*
X145330261Y-89366510D01*
X145299500Y-89521153D01*
X145299500Y-89678846D01*
X145330261Y-89833489D01*
X145330264Y-89833501D01*
X145390604Y-89979177D01*
X145390605Y-89979179D01*
X145391899Y-89981115D01*
X145392264Y-89982282D01*
X145393476Y-89984549D01*
X145393045Y-89984778D01*
X145412773Y-90047794D01*
X145394285Y-90115173D01*
X145391899Y-90118885D01*
X145390605Y-90120820D01*
X145390604Y-90120822D01*
X145330264Y-90266498D01*
X145330261Y-90266510D01*
X145299500Y-90421153D01*
X145299500Y-90578846D01*
X145330261Y-90733489D01*
X145330264Y-90733501D01*
X145390602Y-90879171D01*
X145390604Y-90879175D01*
X145390606Y-90879179D01*
X145390609Y-90879184D01*
X145390610Y-90879185D01*
X145408601Y-90906112D01*
X145429477Y-90972790D01*
X145410991Y-91040169D01*
X145408601Y-91043888D01*
X145390610Y-91070814D01*
X145390602Y-91070828D01*
X145330264Y-91216498D01*
X145330261Y-91216510D01*
X145299500Y-91371153D01*
X145299500Y-91528846D01*
X145323647Y-91650242D01*
X145317420Y-91719834D01*
X145274557Y-91775011D01*
X145208667Y-91798255D01*
X145154580Y-91788995D01*
X145133501Y-91780264D01*
X145133489Y-91780261D01*
X144978845Y-91749500D01*
X144978842Y-91749500D01*
X144821158Y-91749500D01*
X144821155Y-91749500D01*
X144666510Y-91780261D01*
X144666498Y-91780264D01*
X144520827Y-91840602D01*
X144520814Y-91840609D01*
X144389711Y-91928210D01*
X144389707Y-91928213D01*
X144278213Y-92039707D01*
X144278210Y-92039711D01*
X144190609Y-92170814D01*
X144190602Y-92170827D01*
X144130264Y-92316498D01*
X144130261Y-92316510D01*
X144099500Y-92471153D01*
X137750500Y-92471153D01*
X137750500Y-89471153D01*
X142499500Y-89471153D01*
X142499500Y-89628846D01*
X142530260Y-89783488D01*
X142530262Y-89783493D01*
X142530263Y-89783497D01*
X142558864Y-89852547D01*
X142558865Y-89852549D01*
X142566333Y-89922018D01*
X142558865Y-89947447D01*
X142530263Y-90016503D01*
X142530262Y-90016506D01*
X142530260Y-90016511D01*
X142499500Y-90171153D01*
X142499500Y-90328846D01*
X142530260Y-90483488D01*
X142530262Y-90483493D01*
X142530263Y-90483497D01*
X142558016Y-90550500D01*
X142558865Y-90552549D01*
X142566333Y-90622018D01*
X142558865Y-90647447D01*
X142530263Y-90716503D01*
X142530262Y-90716506D01*
X142530260Y-90716511D01*
X142499500Y-90871153D01*
X142499500Y-91028846D01*
X142530261Y-91183489D01*
X142530264Y-91183501D01*
X142590602Y-91329172D01*
X142590609Y-91329185D01*
X142678210Y-91460288D01*
X142678213Y-91460292D01*
X142789707Y-91571786D01*
X142789711Y-91571789D01*
X142920814Y-91659390D01*
X142920827Y-91659397D01*
X143066498Y-91719735D01*
X143066503Y-91719737D01*
X143216131Y-91749500D01*
X143221153Y-91750499D01*
X143221156Y-91750500D01*
X143221158Y-91750500D01*
X143378844Y-91750500D01*
X143378845Y-91750499D01*
X143533497Y-91719737D01*
X143679179Y-91659394D01*
X143810289Y-91571789D01*
X143921789Y-91460289D01*
X144009394Y-91329179D01*
X144012854Y-91320827D01*
X144023067Y-91296166D01*
X144069737Y-91183497D01*
X144100500Y-91028842D01*
X144100500Y-90871158D01*
X144100500Y-90871155D01*
X144100499Y-90871153D01*
X144082137Y-90778842D01*
X144069737Y-90716503D01*
X144041134Y-90647450D01*
X144033666Y-90577984D01*
X144041133Y-90552552D01*
X144069737Y-90483497D01*
X144100500Y-90328842D01*
X144100500Y-90171158D01*
X144100500Y-90171155D01*
X144100499Y-90171153D01*
X144090487Y-90120820D01*
X144069737Y-90016503D01*
X144041134Y-89947450D01*
X144033666Y-89877984D01*
X144041133Y-89852552D01*
X144069737Y-89783497D01*
X144100500Y-89628842D01*
X144100500Y-89471158D01*
X144100500Y-89471155D01*
X144100499Y-89471153D01*
X144094747Y-89442238D01*
X144069737Y-89316503D01*
X144061472Y-89296549D01*
X144009397Y-89170827D01*
X144009390Y-89170814D01*
X143921789Y-89039711D01*
X143921786Y-89039707D01*
X143810292Y-88928213D01*
X143810288Y-88928210D01*
X143679185Y-88840609D01*
X143679172Y-88840602D01*
X143533501Y-88780264D01*
X143533489Y-88780261D01*
X143378845Y-88749500D01*
X143378842Y-88749500D01*
X143221158Y-88749500D01*
X143221155Y-88749500D01*
X143066510Y-88780261D01*
X143066498Y-88780264D01*
X142920827Y-88840602D01*
X142920814Y-88840609D01*
X142789711Y-88928210D01*
X142789707Y-88928213D01*
X142678213Y-89039707D01*
X142678210Y-89039711D01*
X142590609Y-89170814D01*
X142590602Y-89170827D01*
X142530264Y-89316498D01*
X142530261Y-89316510D01*
X142499500Y-89471153D01*
X137750500Y-89471153D01*
X137750500Y-85771153D01*
X138199500Y-85771153D01*
X138199500Y-85928846D01*
X138230261Y-86083489D01*
X138230264Y-86083501D01*
X138290602Y-86229172D01*
X138290609Y-86229185D01*
X138378210Y-86360288D01*
X138378213Y-86360292D01*
X138489707Y-86471786D01*
X138489711Y-86471789D01*
X138620814Y-86559390D01*
X138620827Y-86559397D01*
X138747737Y-86611964D01*
X138766503Y-86619737D01*
X138921153Y-86650499D01*
X138921156Y-86650500D01*
X138921158Y-86650500D01*
X139078844Y-86650500D01*
X139078845Y-86650499D01*
X139233497Y-86619737D01*
X139379179Y-86559394D01*
X139510289Y-86471789D01*
X139621789Y-86360289D01*
X139709394Y-86229179D01*
X139769737Y-86083497D01*
X139800500Y-85928842D01*
X139800500Y-85871153D01*
X147699500Y-85871153D01*
X147699500Y-86028846D01*
X147730261Y-86183489D01*
X147730264Y-86183501D01*
X147790602Y-86329172D01*
X147790609Y-86329185D01*
X147878210Y-86460288D01*
X147878213Y-86460292D01*
X147989707Y-86571786D01*
X147989711Y-86571789D01*
X148120814Y-86659390D01*
X148120827Y-86659397D01*
X148220060Y-86700500D01*
X148266503Y-86719737D01*
X148421153Y-86750499D01*
X148421156Y-86750500D01*
X148421158Y-86750500D01*
X148578844Y-86750500D01*
X148578845Y-86750499D01*
X148726378Y-86721153D01*
X150099500Y-86721153D01*
X150099500Y-86878846D01*
X150130261Y-87033489D01*
X150130264Y-87033501D01*
X150190602Y-87179172D01*
X150190609Y-87179185D01*
X150278210Y-87310288D01*
X150278213Y-87310292D01*
X150389707Y-87421786D01*
X150389711Y-87421789D01*
X150520814Y-87509390D01*
X150520827Y-87509397D01*
X150666498Y-87569735D01*
X150666503Y-87569737D01*
X150821153Y-87600499D01*
X150821156Y-87600500D01*
X150821158Y-87600500D01*
X150978843Y-87600500D01*
X150991225Y-87598036D01*
X151036403Y-87589050D01*
X151105992Y-87595276D01*
X151161170Y-87638139D01*
X151184416Y-87704028D01*
X151175156Y-87758118D01*
X151130263Y-87866503D01*
X151130261Y-87866510D01*
X151099500Y-88021153D01*
X151099500Y-88178846D01*
X151130261Y-88333489D01*
X151130264Y-88333501D01*
X151190602Y-88479172D01*
X151190609Y-88479185D01*
X151278210Y-88610288D01*
X151278213Y-88610292D01*
X151389707Y-88721786D01*
X151389711Y-88721789D01*
X151520814Y-88809390D01*
X151520827Y-88809397D01*
X151629903Y-88854577D01*
X151666503Y-88869737D01*
X151821153Y-88900499D01*
X151821156Y-88900500D01*
X151821158Y-88900500D01*
X151978844Y-88900500D01*
X151978845Y-88900499D01*
X152133497Y-88869737D01*
X152203836Y-88840602D01*
X152277548Y-88810070D01*
X152347017Y-88802601D01*
X152372452Y-88810070D01*
X152479903Y-88854577D01*
X152516503Y-88869737D01*
X152671153Y-88900499D01*
X152671156Y-88900500D01*
X152671158Y-88900500D01*
X152828844Y-88900500D01*
X152828845Y-88900499D01*
X152983497Y-88869737D01*
X153101592Y-88820821D01*
X153129172Y-88809397D01*
X153129172Y-88809396D01*
X153129179Y-88809394D01*
X153260289Y-88721789D01*
X153371789Y-88610289D01*
X153459394Y-88479179D01*
X153519737Y-88333497D01*
X153550500Y-88178842D01*
X153550500Y-88072902D01*
X153570185Y-88005863D01*
X153622989Y-87960108D01*
X153692147Y-87950164D01*
X153755703Y-87979189D01*
X153789062Y-88025451D01*
X153790605Y-88029178D01*
X153790609Y-88029185D01*
X153878210Y-88160288D01*
X153878213Y-88160292D01*
X153989707Y-88271786D01*
X153989711Y-88271789D01*
X154120814Y-88359390D01*
X154120827Y-88359397D01*
X154210553Y-88396562D01*
X154266503Y-88419737D01*
X154421153Y-88450499D01*
X154421156Y-88450500D01*
X154421158Y-88450500D01*
X154578844Y-88450500D01*
X154578845Y-88450499D01*
X154733497Y-88419737D01*
X154851592Y-88370821D01*
X154879172Y-88359397D01*
X154879172Y-88359396D01*
X154879179Y-88359394D01*
X155010289Y-88271789D01*
X155074997Y-88207081D01*
X158073314Y-88207081D01*
X158073314Y-88364774D01*
X158104075Y-88519417D01*
X158104078Y-88519429D01*
X158164416Y-88665100D01*
X158164423Y-88665113D01*
X158252024Y-88796216D01*
X158252027Y-88796220D01*
X158339651Y-88883844D01*
X158373136Y-88945167D01*
X158375970Y-88971525D01*
X158375970Y-89105316D01*
X158406731Y-89259959D01*
X158406734Y-89259971D01*
X158467072Y-89405642D01*
X158467079Y-89405655D01*
X158554680Y-89536758D01*
X158554683Y-89536762D01*
X158666177Y-89648256D01*
X158666181Y-89648259D01*
X158797284Y-89735860D01*
X158797297Y-89735867D01*
X158912278Y-89783493D01*
X158942973Y-89796207D01*
X159071582Y-89821789D01*
X159097623Y-89826969D01*
X159097626Y-89826970D01*
X159247363Y-89826970D01*
X159314402Y-89846655D01*
X159360157Y-89899459D01*
X159368980Y-89926778D01*
X159380261Y-89983491D01*
X159380264Y-89983501D01*
X159440602Y-90129172D01*
X159440609Y-90129185D01*
X159528210Y-90260288D01*
X159528213Y-90260292D01*
X159639707Y-90371786D01*
X159639711Y-90371789D01*
X159770814Y-90459390D01*
X159770827Y-90459397D01*
X159905605Y-90515223D01*
X159916503Y-90519737D01*
X159999693Y-90536284D01*
X160061602Y-90568668D01*
X160096176Y-90629384D01*
X160099500Y-90657901D01*
X160099500Y-90778846D01*
X160130261Y-90933489D01*
X160130264Y-90933501D01*
X160190602Y-91079172D01*
X160190609Y-91079185D01*
X160278210Y-91210288D01*
X160278213Y-91210292D01*
X160389707Y-91321786D01*
X160389711Y-91321789D01*
X160520814Y-91409390D01*
X160520827Y-91409397D01*
X160658683Y-91466498D01*
X160666503Y-91469737D01*
X160821153Y-91500499D01*
X160821156Y-91500500D01*
X160821158Y-91500500D01*
X160978844Y-91500500D01*
X160978845Y-91500499D01*
X161133497Y-91469737D01*
X161279179Y-91409394D01*
X161410289Y-91321789D01*
X161521789Y-91210289D01*
X161609394Y-91079179D01*
X161612854Y-91070827D01*
X161650954Y-90978844D01*
X161669737Y-90933497D01*
X161700500Y-90778842D01*
X161700500Y-90731941D01*
X161720185Y-90664902D01*
X161772989Y-90619147D01*
X161842147Y-90609203D01*
X161905703Y-90638228D01*
X161912181Y-90644260D01*
X161939707Y-90671786D01*
X161939711Y-90671789D01*
X162070814Y-90759390D01*
X162070827Y-90759397D01*
X162170060Y-90800500D01*
X162216503Y-90819737D01*
X162371153Y-90850499D01*
X162371156Y-90850500D01*
X162475500Y-90850500D01*
X162542539Y-90870185D01*
X162588294Y-90922989D01*
X162599500Y-90974500D01*
X162599500Y-90978846D01*
X162630261Y-91133489D01*
X162630264Y-91133501D01*
X162690604Y-91279176D01*
X162726162Y-91332392D01*
X162747040Y-91399069D01*
X162737623Y-91448732D01*
X162730262Y-91466502D01*
X162730261Y-91466505D01*
X162699500Y-91621153D01*
X162699500Y-91778846D01*
X162730261Y-91933489D01*
X162730264Y-91933501D01*
X162790602Y-92079172D01*
X162790609Y-92079185D01*
X162825304Y-92131109D01*
X162846182Y-92197786D01*
X162827698Y-92265167D01*
X162825304Y-92268891D01*
X162790609Y-92320814D01*
X162790602Y-92320827D01*
X162730264Y-92466498D01*
X162730261Y-92466510D01*
X162699500Y-92621153D01*
X162699500Y-92778846D01*
X162730261Y-92933489D01*
X162730264Y-92933501D01*
X162790602Y-93079172D01*
X162790609Y-93079185D01*
X162878210Y-93210288D01*
X162878213Y-93210292D01*
X162989707Y-93321786D01*
X162989711Y-93321789D01*
X163120814Y-93409390D01*
X163120827Y-93409397D01*
X163266498Y-93469735D01*
X163266503Y-93469737D01*
X163421153Y-93500499D01*
X163421156Y-93500500D01*
X163421158Y-93500500D01*
X163578844Y-93500500D01*
X163578845Y-93500499D01*
X163733497Y-93469737D01*
X163879179Y-93409394D01*
X164010289Y-93321789D01*
X164121789Y-93210289D01*
X164209394Y-93079179D01*
X164269737Y-92933497D01*
X164300500Y-92778842D01*
X164300500Y-92621158D01*
X164300500Y-92621155D01*
X164300499Y-92621153D01*
X164269738Y-92466510D01*
X164269737Y-92466503D01*
X164221380Y-92349758D01*
X164209396Y-92320825D01*
X164209394Y-92320822D01*
X164209394Y-92320821D01*
X164174694Y-92268889D01*
X164153816Y-92202215D01*
X164172300Y-92134835D01*
X164174676Y-92131136D01*
X164209394Y-92079179D01*
X164269737Y-91933497D01*
X164300500Y-91778842D01*
X164300500Y-91621158D01*
X164300500Y-91621155D01*
X164300499Y-91621153D01*
X164270788Y-91471789D01*
X164269737Y-91466503D01*
X164230242Y-91371153D01*
X164209397Y-91320827D01*
X164209395Y-91320823D01*
X164209394Y-91320821D01*
X164173837Y-91267606D01*
X164152959Y-91200929D01*
X164162377Y-91151264D01*
X164169737Y-91133497D01*
X164200500Y-90978842D01*
X164200500Y-90821158D01*
X164200500Y-90821155D01*
X164200499Y-90821153D01*
X164196391Y-90800499D01*
X164169737Y-90666503D01*
X164161846Y-90647453D01*
X164109397Y-90520827D01*
X164109395Y-90520824D01*
X164109394Y-90520821D01*
X164108103Y-90518889D01*
X164107737Y-90517723D01*
X164106525Y-90515454D01*
X164106955Y-90515223D01*
X164087226Y-90452214D01*
X164105710Y-90384834D01*
X164108077Y-90381149D01*
X164109394Y-90379179D01*
X164169737Y-90233497D01*
X164200500Y-90078842D01*
X164200500Y-89921158D01*
X164200500Y-89921155D01*
X164200499Y-89921153D01*
X164182137Y-89828842D01*
X164169737Y-89766503D01*
X164157046Y-89735864D01*
X164109397Y-89620827D01*
X164109390Y-89620814D01*
X164021789Y-89489711D01*
X164021786Y-89489707D01*
X163910292Y-89378213D01*
X163910288Y-89378210D01*
X163779185Y-89290609D01*
X163779172Y-89290602D01*
X163633501Y-89230264D01*
X163633489Y-89230261D01*
X163478845Y-89199500D01*
X163478842Y-89199500D01*
X163321158Y-89199500D01*
X163321155Y-89199500D01*
X163166510Y-89230261D01*
X163166498Y-89230264D01*
X163020827Y-89290602D01*
X163020814Y-89290609D01*
X162955873Y-89334002D01*
X162889195Y-89354880D01*
X162835246Y-89341877D01*
X162834808Y-89342937D01*
X162683501Y-89280264D01*
X162683489Y-89280261D01*
X162528845Y-89249500D01*
X162528842Y-89249500D01*
X162371158Y-89249500D01*
X162371155Y-89249500D01*
X162216510Y-89280261D01*
X162216498Y-89280264D01*
X162070827Y-89340602D01*
X162070816Y-89340608D01*
X161986979Y-89396626D01*
X161920301Y-89417503D01*
X161852921Y-89399018D01*
X161806232Y-89347039D01*
X161803538Y-89341000D01*
X161785129Y-89296556D01*
X161785127Y-89296553D01*
X161785125Y-89296549D01*
X161697524Y-89165446D01*
X161697521Y-89165442D01*
X161586027Y-89053948D01*
X161586023Y-89053945D01*
X161454920Y-88966344D01*
X161454907Y-88966337D01*
X161309236Y-88905999D01*
X161309226Y-88905996D01*
X161176043Y-88879504D01*
X161114132Y-88847119D01*
X161079558Y-88786403D01*
X161076235Y-88757887D01*
X161076235Y-88696890D01*
X161076234Y-88696888D01*
X161071115Y-88671153D01*
X161045472Y-88542238D01*
X161024087Y-88490609D01*
X160985132Y-88396562D01*
X160985125Y-88396549D01*
X160897524Y-88265446D01*
X160897521Y-88265442D01*
X160786027Y-88153948D01*
X160786023Y-88153945D01*
X160654920Y-88066344D01*
X160654907Y-88066337D01*
X160509236Y-88005999D01*
X160509224Y-88005996D01*
X160354580Y-87975235D01*
X160354577Y-87975235D01*
X160196893Y-87975235D01*
X160196890Y-87975235D01*
X160042245Y-88005996D01*
X160042233Y-88005999D01*
X159896562Y-88066337D01*
X159896551Y-88066343D01*
X159828537Y-88111789D01*
X159761860Y-88132666D01*
X159694480Y-88114181D01*
X159647790Y-88062202D01*
X159645086Y-88056138D01*
X159643548Y-88052426D01*
X159613659Y-87980264D01*
X159583211Y-87906754D01*
X159583204Y-87906742D01*
X159495603Y-87775639D01*
X159495600Y-87775635D01*
X159384106Y-87664141D01*
X159384102Y-87664138D01*
X159252999Y-87576537D01*
X159252986Y-87576530D01*
X159107315Y-87516192D01*
X159107303Y-87516189D01*
X158952659Y-87485428D01*
X158952656Y-87485428D01*
X158794972Y-87485428D01*
X158794969Y-87485428D01*
X158640324Y-87516189D01*
X158640312Y-87516192D01*
X158494641Y-87576530D01*
X158494628Y-87576537D01*
X158363525Y-87664138D01*
X158363521Y-87664141D01*
X158252027Y-87775635D01*
X158252024Y-87775639D01*
X158164423Y-87906742D01*
X158164416Y-87906755D01*
X158104078Y-88052426D01*
X158104075Y-88052438D01*
X158073314Y-88207081D01*
X155074997Y-88207081D01*
X155121789Y-88160289D01*
X155209394Y-88029179D01*
X155212719Y-88021153D01*
X155229655Y-87980264D01*
X155269737Y-87883497D01*
X155300500Y-87728842D01*
X155300500Y-87571158D01*
X155300500Y-87571155D01*
X155300499Y-87571153D01*
X155298159Y-87559390D01*
X155269737Y-87416503D01*
X155261824Y-87397399D01*
X155209397Y-87270827D01*
X155209390Y-87270814D01*
X155121789Y-87139711D01*
X155121786Y-87139707D01*
X155010292Y-87028213D01*
X155010288Y-87028210D01*
X154879185Y-86940609D01*
X154879172Y-86940602D01*
X154733501Y-86880264D01*
X154733489Y-86880261D01*
X154578845Y-86849500D01*
X154578842Y-86849500D01*
X154421158Y-86849500D01*
X154421155Y-86849500D01*
X154266510Y-86880261D01*
X154266498Y-86880264D01*
X154120827Y-86940602D01*
X154120814Y-86940609D01*
X153989711Y-87028210D01*
X153989707Y-87028213D01*
X153878213Y-87139707D01*
X153878210Y-87139711D01*
X153790609Y-87270814D01*
X153790602Y-87270827D01*
X153730264Y-87416498D01*
X153730261Y-87416510D01*
X153699500Y-87571153D01*
X153699500Y-87677097D01*
X153679815Y-87744136D01*
X153627011Y-87789891D01*
X153557853Y-87799835D01*
X153494297Y-87770810D01*
X153460940Y-87724552D01*
X153459396Y-87720826D01*
X153459390Y-87720814D01*
X153371789Y-87589711D01*
X153371786Y-87589707D01*
X153260292Y-87478213D01*
X153260288Y-87478210D01*
X153129185Y-87390609D01*
X153129172Y-87390602D01*
X152983501Y-87330264D01*
X152983489Y-87330261D01*
X152828845Y-87299500D01*
X152828842Y-87299500D01*
X152671158Y-87299500D01*
X152671155Y-87299500D01*
X152516510Y-87330261D01*
X152516498Y-87330264D01*
X152372452Y-87389930D01*
X152302983Y-87397399D01*
X152277548Y-87389930D01*
X152133501Y-87330264D01*
X152133489Y-87330261D01*
X151978845Y-87299500D01*
X151978842Y-87299500D01*
X151821158Y-87299500D01*
X151821153Y-87299500D01*
X151763596Y-87310949D01*
X151694004Y-87304722D01*
X151638827Y-87261859D01*
X151615583Y-87195969D01*
X151624844Y-87141880D01*
X151669735Y-87033501D01*
X151669737Y-87033497D01*
X151700500Y-86878842D01*
X151700500Y-86771153D01*
X156399500Y-86771153D01*
X156399500Y-86928846D01*
X156430261Y-87083489D01*
X156430264Y-87083501D01*
X156490602Y-87229172D01*
X156490609Y-87229185D01*
X156578210Y-87360288D01*
X156578213Y-87360292D01*
X156689707Y-87471786D01*
X156689711Y-87471789D01*
X156820814Y-87559390D01*
X156820827Y-87559397D01*
X156920060Y-87600500D01*
X156966503Y-87619737D01*
X157121153Y-87650499D01*
X157121156Y-87650500D01*
X157121158Y-87650500D01*
X157278844Y-87650500D01*
X157278845Y-87650499D01*
X157433497Y-87619737D01*
X157579179Y-87559394D01*
X157710289Y-87471789D01*
X157821789Y-87360289D01*
X157909394Y-87229179D01*
X157969737Y-87083497D01*
X158000500Y-86928842D01*
X158000500Y-86771158D01*
X158000500Y-86771155D01*
X158000499Y-86771153D01*
X157980326Y-86669737D01*
X157969737Y-86616503D01*
X157951215Y-86571786D01*
X157909397Y-86470827D01*
X157909390Y-86470814D01*
X157821789Y-86339711D01*
X157821786Y-86339707D01*
X157710292Y-86228213D01*
X157710288Y-86228210D01*
X157579185Y-86140609D01*
X157579172Y-86140602D01*
X157433501Y-86080264D01*
X157433489Y-86080261D01*
X157278845Y-86049500D01*
X157278842Y-86049500D01*
X157121158Y-86049500D01*
X157121155Y-86049500D01*
X156966510Y-86080261D01*
X156966498Y-86080264D01*
X156820827Y-86140602D01*
X156820814Y-86140609D01*
X156689711Y-86228210D01*
X156689707Y-86228213D01*
X156578213Y-86339707D01*
X156578210Y-86339711D01*
X156490609Y-86470814D01*
X156490602Y-86470827D01*
X156430264Y-86616498D01*
X156430261Y-86616510D01*
X156399500Y-86771153D01*
X151700500Y-86771153D01*
X151700500Y-86721158D01*
X151700500Y-86721155D01*
X151700499Y-86721153D01*
X151680326Y-86619737D01*
X151669737Y-86566503D01*
X151651215Y-86521786D01*
X151609397Y-86420827D01*
X151609390Y-86420814D01*
X151521789Y-86289711D01*
X151521786Y-86289707D01*
X151410292Y-86178213D01*
X151410288Y-86178210D01*
X151279185Y-86090609D01*
X151279172Y-86090602D01*
X151133501Y-86030264D01*
X151133489Y-86030261D01*
X150978845Y-85999500D01*
X150978842Y-85999500D01*
X150821158Y-85999500D01*
X150821155Y-85999500D01*
X150666510Y-86030261D01*
X150666498Y-86030264D01*
X150520827Y-86090602D01*
X150520814Y-86090609D01*
X150389711Y-86178210D01*
X150389707Y-86178213D01*
X150278213Y-86289707D01*
X150278210Y-86289711D01*
X150190609Y-86420814D01*
X150190602Y-86420827D01*
X150130264Y-86566498D01*
X150130261Y-86566510D01*
X150099500Y-86721153D01*
X148726378Y-86721153D01*
X148733497Y-86719737D01*
X148879179Y-86659394D01*
X148892490Y-86650500D01*
X148950164Y-86611964D01*
X148981224Y-86591209D01*
X149010289Y-86571789D01*
X149121789Y-86460289D01*
X149209394Y-86329179D01*
X149269737Y-86183497D01*
X149300500Y-86028842D01*
X149300500Y-85871158D01*
X149300500Y-85871155D01*
X149294155Y-85839258D01*
X149294155Y-85839257D01*
X149290554Y-85821153D01*
X164099500Y-85821153D01*
X164099500Y-85978846D01*
X164130261Y-86133489D01*
X164130264Y-86133501D01*
X164190602Y-86279172D01*
X164190609Y-86279185D01*
X164278210Y-86410288D01*
X164278213Y-86410292D01*
X164389707Y-86521786D01*
X164389711Y-86521789D01*
X164520814Y-86609390D01*
X164520827Y-86609397D01*
X164666498Y-86669735D01*
X164666503Y-86669737D01*
X164821153Y-86700499D01*
X164821156Y-86700500D01*
X164821158Y-86700500D01*
X164978844Y-86700500D01*
X164978845Y-86700499D01*
X165133497Y-86669737D01*
X165262028Y-86616498D01*
X165279172Y-86609397D01*
X165279172Y-86609396D01*
X165279179Y-86609394D01*
X165410289Y-86521789D01*
X165521789Y-86410289D01*
X165609394Y-86279179D01*
X165669737Y-86133497D01*
X165700500Y-85978842D01*
X165700500Y-85821158D01*
X165700500Y-85821155D01*
X165700499Y-85821153D01*
X165679684Y-85716510D01*
X165669737Y-85666503D01*
X165669735Y-85666498D01*
X165609397Y-85520827D01*
X165609390Y-85520814D01*
X165521789Y-85389711D01*
X165521786Y-85389707D01*
X165410292Y-85278213D01*
X165410288Y-85278210D01*
X165279185Y-85190609D01*
X165279172Y-85190602D01*
X165133501Y-85130264D01*
X165133489Y-85130261D01*
X164978845Y-85099500D01*
X164978842Y-85099500D01*
X164821158Y-85099500D01*
X164821155Y-85099500D01*
X164666510Y-85130261D01*
X164666498Y-85130264D01*
X164520827Y-85190602D01*
X164520814Y-85190609D01*
X164389711Y-85278210D01*
X164389707Y-85278213D01*
X164278213Y-85389707D01*
X164278210Y-85389711D01*
X164190609Y-85520814D01*
X164190602Y-85520827D01*
X164130264Y-85666498D01*
X164130261Y-85666510D01*
X164099500Y-85821153D01*
X149290554Y-85821153D01*
X149269738Y-85716510D01*
X149269737Y-85716503D01*
X149269735Y-85716498D01*
X149209397Y-85570827D01*
X149209390Y-85570814D01*
X149121789Y-85439711D01*
X149121786Y-85439707D01*
X149010292Y-85328213D01*
X149010288Y-85328210D01*
X148879185Y-85240609D01*
X148879172Y-85240602D01*
X148733501Y-85180264D01*
X148733489Y-85180261D01*
X148578845Y-85149500D01*
X148578842Y-85149500D01*
X148421158Y-85149500D01*
X148421155Y-85149500D01*
X148266510Y-85180261D01*
X148266498Y-85180264D01*
X148120827Y-85240602D01*
X148120814Y-85240609D01*
X147989711Y-85328210D01*
X147989707Y-85328213D01*
X147878213Y-85439707D01*
X147878210Y-85439711D01*
X147790609Y-85570814D01*
X147790602Y-85570827D01*
X147730264Y-85716498D01*
X147730261Y-85716510D01*
X147699500Y-85871153D01*
X139800500Y-85871153D01*
X139800500Y-85771158D01*
X139800500Y-85771155D01*
X139800499Y-85771153D01*
X139779684Y-85666510D01*
X139769737Y-85616503D01*
X139730102Y-85520814D01*
X139709397Y-85470827D01*
X139709390Y-85470814D01*
X139621789Y-85339711D01*
X139621786Y-85339707D01*
X139510292Y-85228213D01*
X139510288Y-85228210D01*
X139379185Y-85140609D01*
X139379172Y-85140602D01*
X139233501Y-85080264D01*
X139233489Y-85080261D01*
X139078845Y-85049500D01*
X139078842Y-85049500D01*
X138921158Y-85049500D01*
X138921155Y-85049500D01*
X138766510Y-85080261D01*
X138766498Y-85080264D01*
X138620827Y-85140602D01*
X138620814Y-85140609D01*
X138489711Y-85228210D01*
X138489707Y-85228213D01*
X138378213Y-85339707D01*
X138378210Y-85339711D01*
X138290609Y-85470814D01*
X138290602Y-85470827D01*
X138230264Y-85616498D01*
X138230261Y-85616510D01*
X138199500Y-85771153D01*
X137750500Y-85771153D01*
X137750500Y-83971153D01*
X152849500Y-83971153D01*
X152849500Y-84128846D01*
X152880261Y-84283489D01*
X152880264Y-84283501D01*
X152940602Y-84429172D01*
X152940609Y-84429185D01*
X153028210Y-84560288D01*
X153028213Y-84560292D01*
X153139707Y-84671786D01*
X153139711Y-84671789D01*
X153270814Y-84759390D01*
X153270827Y-84759397D01*
X153416498Y-84819735D01*
X153416503Y-84819737D01*
X153571153Y-84850499D01*
X153571156Y-84850500D01*
X153571158Y-84850500D01*
X153728844Y-84850500D01*
X153728845Y-84850499D01*
X153883497Y-84819737D01*
X154029179Y-84759394D01*
X154160289Y-84671789D01*
X154271789Y-84560289D01*
X154297939Y-84521153D01*
X162099500Y-84521153D01*
X162099500Y-84678846D01*
X162130261Y-84833489D01*
X162130264Y-84833501D01*
X162190602Y-84979172D01*
X162190609Y-84979185D01*
X162278210Y-85110288D01*
X162278213Y-85110292D01*
X162389707Y-85221786D01*
X162389711Y-85221789D01*
X162520814Y-85309390D01*
X162520827Y-85309397D01*
X162594013Y-85339711D01*
X162666503Y-85369737D01*
X162821153Y-85400499D01*
X162821156Y-85400500D01*
X162821158Y-85400500D01*
X162978844Y-85400500D01*
X162978845Y-85400499D01*
X163133497Y-85369737D01*
X163279179Y-85309394D01*
X163410289Y-85221789D01*
X163521789Y-85110289D01*
X163609394Y-84979179D01*
X163669737Y-84833497D01*
X163700500Y-84678842D01*
X163700500Y-84521158D01*
X163700500Y-84521155D01*
X163700499Y-84521153D01*
X163685585Y-84446175D01*
X163669737Y-84366503D01*
X163635352Y-84283489D01*
X163609397Y-84220827D01*
X163609390Y-84220814D01*
X163521789Y-84089711D01*
X163519766Y-84087688D01*
X163519043Y-84086365D01*
X163517924Y-84085001D01*
X163518182Y-84084788D01*
X163486276Y-84026368D01*
X163491255Y-83956676D01*
X163519757Y-83912320D01*
X163621789Y-83810289D01*
X163709394Y-83679179D01*
X163712854Y-83670827D01*
X163723067Y-83646166D01*
X163769737Y-83533497D01*
X163800500Y-83378842D01*
X163800500Y-83221158D01*
X163800500Y-83221155D01*
X163800499Y-83221153D01*
X163782204Y-83129179D01*
X163769737Y-83066503D01*
X163733569Y-82979185D01*
X163709397Y-82920827D01*
X163709390Y-82920814D01*
X163621789Y-82789711D01*
X163621786Y-82789707D01*
X163569760Y-82737681D01*
X163536275Y-82676358D01*
X163541259Y-82606666D01*
X163569760Y-82562319D01*
X163621786Y-82510292D01*
X163621789Y-82510289D01*
X163709394Y-82379179D01*
X163712854Y-82370827D01*
X163740407Y-82304307D01*
X163769737Y-82233497D01*
X163800500Y-82078842D01*
X163800500Y-81921158D01*
X163800500Y-81921155D01*
X163800499Y-81921153D01*
X163789175Y-81864223D01*
X163769737Y-81766503D01*
X163738298Y-81690602D01*
X163709397Y-81620827D01*
X163709390Y-81620814D01*
X163621789Y-81489711D01*
X163621786Y-81489707D01*
X163510292Y-81378213D01*
X163510288Y-81378210D01*
X163379185Y-81290609D01*
X163379172Y-81290602D01*
X163233501Y-81230264D01*
X163233489Y-81230261D01*
X163078845Y-81199500D01*
X163078842Y-81199500D01*
X162921158Y-81199500D01*
X162921155Y-81199500D01*
X162766510Y-81230261D01*
X162766498Y-81230264D01*
X162620827Y-81290602D01*
X162620814Y-81290609D01*
X162489711Y-81378210D01*
X162489707Y-81378213D01*
X162378213Y-81489707D01*
X162378210Y-81489711D01*
X162290609Y-81620814D01*
X162290602Y-81620827D01*
X162230264Y-81766498D01*
X162230261Y-81766510D01*
X162199500Y-81921153D01*
X162199500Y-82078846D01*
X162230261Y-82233489D01*
X162230264Y-82233501D01*
X162290602Y-82379172D01*
X162290609Y-82379185D01*
X162378210Y-82510288D01*
X162378213Y-82510292D01*
X162430240Y-82562319D01*
X162463725Y-82623642D01*
X162458741Y-82693334D01*
X162430240Y-82737681D01*
X162378213Y-82789707D01*
X162378210Y-82789711D01*
X162290609Y-82920814D01*
X162290602Y-82920827D01*
X162230264Y-83066498D01*
X162230261Y-83066510D01*
X162199500Y-83221153D01*
X162199500Y-83378846D01*
X162230261Y-83533489D01*
X162230264Y-83533501D01*
X162290602Y-83679172D01*
X162290609Y-83679185D01*
X162378210Y-83810288D01*
X162380233Y-83812311D01*
X162380955Y-83813633D01*
X162382076Y-83814999D01*
X162381817Y-83815211D01*
X162413723Y-83873631D01*
X162408744Y-83943323D01*
X162380241Y-83987680D01*
X162278210Y-84089711D01*
X162190609Y-84220814D01*
X162190602Y-84220827D01*
X162130264Y-84366498D01*
X162130261Y-84366510D01*
X162099500Y-84521153D01*
X154297939Y-84521153D01*
X154359394Y-84429179D01*
X154419737Y-84283497D01*
X154432203Y-84220827D01*
X154436484Y-84199308D01*
X154468869Y-84137397D01*
X154529585Y-84102823D01*
X154558101Y-84099500D01*
X154628844Y-84099500D01*
X154628845Y-84099499D01*
X154783497Y-84068737D01*
X154929179Y-84008394D01*
X155060289Y-83920789D01*
X155171789Y-83809289D01*
X155258726Y-83679179D01*
X155259390Y-83678185D01*
X155259390Y-83678184D01*
X155259394Y-83678179D01*
X155319737Y-83532497D01*
X155328468Y-83488599D01*
X155360851Y-83426691D01*
X155421566Y-83392116D01*
X155474277Y-83391175D01*
X155521155Y-83400500D01*
X155521158Y-83400500D01*
X155678844Y-83400500D01*
X155678845Y-83400499D01*
X155833497Y-83369737D01*
X155979179Y-83309394D01*
X156110289Y-83221789D01*
X156221789Y-83110289D01*
X156309394Y-82979179D01*
X156312719Y-82971153D01*
X156337929Y-82910288D01*
X156369737Y-82833497D01*
X156400500Y-82678842D01*
X156400500Y-82521158D01*
X156400500Y-82521155D01*
X156400499Y-82521153D01*
X156398338Y-82510288D01*
X156369737Y-82366503D01*
X156368084Y-82362512D01*
X156350953Y-82321153D01*
X156699500Y-82321153D01*
X156699500Y-82478846D01*
X156730261Y-82633489D01*
X156730264Y-82633501D01*
X156790602Y-82779172D01*
X156790609Y-82779185D01*
X156878210Y-82910288D01*
X156878213Y-82910292D01*
X156989707Y-83021786D01*
X156989711Y-83021789D01*
X157120814Y-83109390D01*
X157120827Y-83109397D01*
X157266498Y-83169735D01*
X157266503Y-83169737D01*
X157421153Y-83200499D01*
X157421156Y-83200500D01*
X157421158Y-83200500D01*
X157578844Y-83200500D01*
X157578845Y-83200499D01*
X157733497Y-83169737D01*
X157879179Y-83109394D01*
X158010289Y-83021789D01*
X158121789Y-82910289D01*
X158209394Y-82779179D01*
X158212719Y-82771153D01*
X158250954Y-82678844D01*
X158269737Y-82633497D01*
X158300500Y-82478842D01*
X158300500Y-82321158D01*
X158300500Y-82321155D01*
X158300499Y-82321153D01*
X158286246Y-82249500D01*
X158269737Y-82166503D01*
X158262378Y-82148736D01*
X158209397Y-82020827D01*
X158209390Y-82020814D01*
X158121789Y-81889711D01*
X158121786Y-81889707D01*
X158010292Y-81778213D01*
X158010288Y-81778210D01*
X157879185Y-81690609D01*
X157879172Y-81690602D01*
X157733501Y-81630264D01*
X157733489Y-81630261D01*
X157578845Y-81599500D01*
X157578842Y-81599500D01*
X157421158Y-81599500D01*
X157421155Y-81599500D01*
X157266510Y-81630261D01*
X157266498Y-81630264D01*
X157120827Y-81690602D01*
X157120814Y-81690609D01*
X156989711Y-81778210D01*
X156989707Y-81778213D01*
X156878213Y-81889707D01*
X156878210Y-81889711D01*
X156790609Y-82020814D01*
X156790602Y-82020827D01*
X156730264Y-82166498D01*
X156730261Y-82166510D01*
X156699500Y-82321153D01*
X156350953Y-82321153D01*
X156309397Y-82220827D01*
X156309390Y-82220814D01*
X156221789Y-82089711D01*
X156221786Y-82089707D01*
X156110292Y-81978213D01*
X156110288Y-81978210D01*
X155979185Y-81890609D01*
X155979172Y-81890602D01*
X155833501Y-81830264D01*
X155833489Y-81830261D01*
X155678845Y-81799500D01*
X155678842Y-81799500D01*
X155521158Y-81799500D01*
X155521155Y-81799500D01*
X155366505Y-81830261D01*
X155366502Y-81830263D01*
X155302540Y-81856756D01*
X155233071Y-81864223D01*
X155186198Y-81845296D01*
X155179184Y-81840609D01*
X155179181Y-81840607D01*
X155179179Y-81840606D01*
X155179176Y-81840604D01*
X155179171Y-81840602D01*
X155033501Y-81780264D01*
X155033489Y-81780261D01*
X154878845Y-81749500D01*
X154878842Y-81749500D01*
X154721158Y-81749500D01*
X154721155Y-81749500D01*
X154566510Y-81780261D01*
X154566498Y-81780264D01*
X154420827Y-81840602D01*
X154420814Y-81840609D01*
X154289711Y-81928210D01*
X154289707Y-81928213D01*
X154178213Y-82039707D01*
X154178210Y-82039711D01*
X154090609Y-82170814D01*
X154090602Y-82170827D01*
X154030264Y-82316498D01*
X154030261Y-82316510D01*
X153999500Y-82471153D01*
X153999500Y-82628841D01*
X154001266Y-82637721D01*
X153995037Y-82707312D01*
X153967331Y-82749589D01*
X153928212Y-82788708D01*
X153928208Y-82788714D01*
X153840609Y-82919814D01*
X153840602Y-82919827D01*
X153780264Y-83065498D01*
X153780261Y-83065508D01*
X153763516Y-83149692D01*
X153731131Y-83211603D01*
X153670415Y-83246177D01*
X153641899Y-83249500D01*
X153571155Y-83249500D01*
X153416510Y-83280261D01*
X153416498Y-83280264D01*
X153270827Y-83340602D01*
X153270814Y-83340609D01*
X153139711Y-83428210D01*
X153139707Y-83428213D01*
X153028213Y-83539707D01*
X153028210Y-83539711D01*
X152940609Y-83670814D01*
X152940602Y-83670827D01*
X152880264Y-83816498D01*
X152880261Y-83816510D01*
X152849500Y-83971153D01*
X137750500Y-83971153D01*
X137750500Y-82771153D01*
X141949500Y-82771153D01*
X141949500Y-82928846D01*
X141980261Y-83083489D01*
X141980264Y-83083501D01*
X142040602Y-83229172D01*
X142040609Y-83229185D01*
X142128210Y-83360288D01*
X142128213Y-83360292D01*
X142239707Y-83471786D01*
X142239711Y-83471789D01*
X142370814Y-83559390D01*
X142370827Y-83559397D01*
X142516498Y-83619735D01*
X142516503Y-83619737D01*
X142671153Y-83650499D01*
X142671156Y-83650500D01*
X142671158Y-83650500D01*
X142828844Y-83650500D01*
X142828845Y-83650499D01*
X142983497Y-83619737D01*
X143129179Y-83559394D01*
X143260289Y-83471789D01*
X143371789Y-83360289D01*
X143459394Y-83229179D01*
X143462719Y-83221153D01*
X143492318Y-83149692D01*
X143519737Y-83083497D01*
X143550500Y-82928842D01*
X143550500Y-82771158D01*
X143550500Y-82771155D01*
X143550499Y-82771153D01*
X143543841Y-82737681D01*
X143519737Y-82616503D01*
X143519735Y-82616498D01*
X143459394Y-82470820D01*
X143426207Y-82421153D01*
X144999500Y-82421153D01*
X144999500Y-82578846D01*
X145030261Y-82733489D01*
X145030264Y-82733501D01*
X145090602Y-82879172D01*
X145090609Y-82879185D01*
X145178210Y-83010288D01*
X145178213Y-83010292D01*
X145289707Y-83121786D01*
X145289711Y-83121789D01*
X145420814Y-83209390D01*
X145420827Y-83209397D01*
X145566498Y-83269735D01*
X145566503Y-83269737D01*
X145721153Y-83300499D01*
X145721156Y-83300500D01*
X145721158Y-83300500D01*
X145878844Y-83300500D01*
X145878845Y-83300499D01*
X146033497Y-83269737D01*
X146179179Y-83209394D01*
X146310289Y-83121789D01*
X146421789Y-83010289D01*
X146509394Y-82879179D01*
X146569737Y-82733497D01*
X146582138Y-82671153D01*
X148149500Y-82671153D01*
X148149500Y-82828846D01*
X148180261Y-82983489D01*
X148180264Y-82983501D01*
X148240602Y-83129172D01*
X148240609Y-83129185D01*
X148328210Y-83260288D01*
X148328213Y-83260292D01*
X148439707Y-83371786D01*
X148439711Y-83371789D01*
X148570814Y-83459390D01*
X148570827Y-83459397D01*
X148641338Y-83488603D01*
X148716503Y-83519737D01*
X148871153Y-83550499D01*
X148871156Y-83550500D01*
X148871158Y-83550500D01*
X149028844Y-83550500D01*
X149028845Y-83550499D01*
X149083102Y-83539707D01*
X149163667Y-83523682D01*
X149233258Y-83529909D01*
X149275539Y-83557618D01*
X149339707Y-83621786D01*
X149339711Y-83621789D01*
X149470814Y-83709390D01*
X149470827Y-83709397D01*
X149616498Y-83769735D01*
X149616503Y-83769737D01*
X149771153Y-83800499D01*
X149771156Y-83800500D01*
X149771158Y-83800500D01*
X149928844Y-83800500D01*
X149928845Y-83800499D01*
X150083497Y-83769737D01*
X150139120Y-83746697D01*
X150234808Y-83707063D01*
X150235332Y-83708329D01*
X150296910Y-83695497D01*
X150355871Y-83715996D01*
X150420821Y-83759394D01*
X150420823Y-83759395D01*
X150420827Y-83759397D01*
X150555064Y-83814999D01*
X150566503Y-83819737D01*
X150721153Y-83850499D01*
X150721156Y-83850500D01*
X150721158Y-83850500D01*
X150878844Y-83850500D01*
X150878845Y-83850499D01*
X150889179Y-83848443D01*
X150914287Y-83843450D01*
X150914292Y-83843449D01*
X150999800Y-83826439D01*
X151033497Y-83819737D01*
X151179179Y-83759394D01*
X151310289Y-83671789D01*
X151421789Y-83560289D01*
X151509394Y-83429179D01*
X151569737Y-83283497D01*
X151600500Y-83128842D01*
X151600500Y-82971158D01*
X151600500Y-82971155D01*
X151600499Y-82971153D01*
X151569737Y-82816503D01*
X151569735Y-82816498D01*
X151509397Y-82670827D01*
X151509390Y-82670814D01*
X151421789Y-82539711D01*
X151421786Y-82539707D01*
X151310292Y-82428213D01*
X151310288Y-82428210D01*
X151179185Y-82340609D01*
X151179172Y-82340602D01*
X151033501Y-82280264D01*
X151033489Y-82280261D01*
X150878845Y-82249500D01*
X150878842Y-82249500D01*
X150721158Y-82249500D01*
X150721155Y-82249500D01*
X150566510Y-82280261D01*
X150566498Y-82280264D01*
X150415193Y-82342937D01*
X150414671Y-82341678D01*
X150353046Y-82354498D01*
X150294126Y-82334002D01*
X150229185Y-82290609D01*
X150229172Y-82290602D01*
X150083501Y-82230264D01*
X150083489Y-82230261D01*
X149928845Y-82199500D01*
X149928842Y-82199500D01*
X149771158Y-82199500D01*
X149771155Y-82199500D01*
X149636333Y-82226318D01*
X149566742Y-82220091D01*
X149524461Y-82192382D01*
X149460292Y-82128213D01*
X149460288Y-82128210D01*
X149329185Y-82040609D01*
X149329172Y-82040602D01*
X149183501Y-81980264D01*
X149183489Y-81980261D01*
X149028845Y-81949500D01*
X149028842Y-81949500D01*
X148871158Y-81949500D01*
X148871155Y-81949500D01*
X148716510Y-81980261D01*
X148716498Y-81980264D01*
X148570827Y-82040602D01*
X148570814Y-82040609D01*
X148439711Y-82128210D01*
X148439707Y-82128213D01*
X148328213Y-82239707D01*
X148328210Y-82239711D01*
X148240609Y-82370814D01*
X148240602Y-82370827D01*
X148180264Y-82516498D01*
X148180261Y-82516510D01*
X148149500Y-82671153D01*
X146582138Y-82671153D01*
X146593010Y-82616498D01*
X146600500Y-82578844D01*
X146600500Y-82421155D01*
X146600499Y-82421153D01*
X146589628Y-82366503D01*
X146569737Y-82266503D01*
X146561583Y-82246817D01*
X146509397Y-82120827D01*
X146509390Y-82120814D01*
X146421789Y-81989711D01*
X146421786Y-81989707D01*
X146310292Y-81878213D01*
X146310288Y-81878210D01*
X146177592Y-81789545D01*
X146132787Y-81735933D01*
X146124080Y-81666608D01*
X146154235Y-81603580D01*
X146199031Y-81571882D01*
X146229172Y-81559397D01*
X146229172Y-81559396D01*
X146229179Y-81559394D01*
X146360289Y-81471789D01*
X146471789Y-81360289D01*
X146559394Y-81229179D01*
X146619737Y-81083497D01*
X146650500Y-80928842D01*
X146650500Y-80771158D01*
X146650500Y-80771155D01*
X146650499Y-80771153D01*
X146637440Y-80705500D01*
X146619737Y-80616503D01*
X146560594Y-80473717D01*
X146559397Y-80470827D01*
X146559390Y-80470814D01*
X146471789Y-80339711D01*
X146471786Y-80339707D01*
X146360292Y-80228213D01*
X146360288Y-80228210D01*
X146229185Y-80140609D01*
X146229175Y-80140604D01*
X146209313Y-80132377D01*
X146209311Y-80132376D01*
X146083501Y-80080264D01*
X146083489Y-80080261D01*
X145928845Y-80049500D01*
X145928842Y-80049500D01*
X145771158Y-80049500D01*
X145771155Y-80049500D01*
X145616510Y-80080261D01*
X145616498Y-80080264D01*
X145470827Y-80140602D01*
X145470814Y-80140609D01*
X145339711Y-80228210D01*
X145339707Y-80228213D01*
X145228213Y-80339707D01*
X145228210Y-80339711D01*
X145140609Y-80470814D01*
X145140602Y-80470827D01*
X145080264Y-80616498D01*
X145080261Y-80616510D01*
X145049500Y-80771153D01*
X145049500Y-80928846D01*
X145080261Y-81083489D01*
X145080264Y-81083501D01*
X145140602Y-81229172D01*
X145140609Y-81229185D01*
X145228210Y-81360288D01*
X145228213Y-81360292D01*
X145339707Y-81471786D01*
X145339711Y-81471789D01*
X145472407Y-81560454D01*
X145517212Y-81614066D01*
X145525919Y-81683391D01*
X145495765Y-81746418D01*
X145450972Y-81778116D01*
X145420823Y-81790604D01*
X145420814Y-81790609D01*
X145289711Y-81878210D01*
X145289707Y-81878213D01*
X145178213Y-81989707D01*
X145178210Y-81989711D01*
X145090609Y-82120814D01*
X145090602Y-82120827D01*
X145030264Y-82266498D01*
X145030261Y-82266510D01*
X144999500Y-82421153D01*
X143426207Y-82421153D01*
X143371789Y-82339711D01*
X143371786Y-82339707D01*
X143260292Y-82228213D01*
X143260288Y-82228210D01*
X143129185Y-82140609D01*
X143129172Y-82140602D01*
X142983501Y-82080264D01*
X142983489Y-82080261D01*
X142828845Y-82049500D01*
X142828842Y-82049500D01*
X142671158Y-82049500D01*
X142671155Y-82049500D01*
X142516510Y-82080261D01*
X142516498Y-82080264D01*
X142370827Y-82140602D01*
X142370814Y-82140609D01*
X142239711Y-82228210D01*
X142239707Y-82228213D01*
X142128213Y-82339707D01*
X142128210Y-82339711D01*
X142040609Y-82470814D01*
X142040602Y-82470827D01*
X141980264Y-82616498D01*
X141980261Y-82616510D01*
X141949500Y-82771153D01*
X137750500Y-82771153D01*
X137750500Y-82125523D01*
X137770185Y-82058484D01*
X137822989Y-82012729D01*
X137892147Y-82002785D01*
X137955703Y-82031810D01*
X137977602Y-82056632D01*
X138039141Y-82148733D01*
X138126263Y-82235855D01*
X138126267Y-82235858D01*
X138228707Y-82304307D01*
X138228713Y-82304310D01*
X138228714Y-82304311D01*
X138342548Y-82351463D01*
X138463389Y-82375499D01*
X138463393Y-82375500D01*
X138463394Y-82375500D01*
X138586607Y-82375500D01*
X138586608Y-82375499D01*
X138707452Y-82351463D01*
X138821286Y-82304311D01*
X138923733Y-82235858D01*
X139010858Y-82148733D01*
X139079311Y-82046286D01*
X139126463Y-81932452D01*
X139150500Y-81811606D01*
X139150500Y-81688394D01*
X139150499Y-81688389D01*
X140649500Y-81688389D01*
X140649500Y-81811610D01*
X140673535Y-81932444D01*
X140673538Y-81932454D01*
X140720687Y-82046283D01*
X140720692Y-82046292D01*
X140789141Y-82148732D01*
X140789144Y-82148736D01*
X140876263Y-82235855D01*
X140876267Y-82235858D01*
X140978707Y-82304307D01*
X140978713Y-82304310D01*
X140978714Y-82304311D01*
X141092548Y-82351463D01*
X141213389Y-82375499D01*
X141213393Y-82375500D01*
X141213394Y-82375500D01*
X141336607Y-82375500D01*
X141336608Y-82375499D01*
X141457452Y-82351463D01*
X141571286Y-82304311D01*
X141673733Y-82235858D01*
X141760858Y-82148733D01*
X141829311Y-82046286D01*
X141876463Y-81932452D01*
X141900500Y-81811606D01*
X141900500Y-81688394D01*
X141876463Y-81567548D01*
X141829311Y-81453714D01*
X141829310Y-81453713D01*
X141829307Y-81453707D01*
X141760858Y-81351267D01*
X141760855Y-81351263D01*
X141673736Y-81264144D01*
X141673732Y-81264141D01*
X141571292Y-81195692D01*
X141571283Y-81195687D01*
X141457454Y-81148538D01*
X141457455Y-81148538D01*
X141457452Y-81148537D01*
X141457448Y-81148536D01*
X141457444Y-81148535D01*
X141336610Y-81124500D01*
X141336606Y-81124500D01*
X141213394Y-81124500D01*
X141213389Y-81124500D01*
X141092555Y-81148535D01*
X141092545Y-81148538D01*
X140978716Y-81195687D01*
X140978707Y-81195692D01*
X140876267Y-81264141D01*
X140876263Y-81264144D01*
X140789144Y-81351263D01*
X140789141Y-81351267D01*
X140720692Y-81453707D01*
X140720687Y-81453716D01*
X140673538Y-81567545D01*
X140673535Y-81567555D01*
X140649500Y-81688389D01*
X139150499Y-81688389D01*
X139126463Y-81567548D01*
X139079311Y-81453714D01*
X139079310Y-81453713D01*
X139079307Y-81453707D01*
X139010858Y-81351267D01*
X139010855Y-81351263D01*
X138923736Y-81264144D01*
X138923732Y-81264141D01*
X138821292Y-81195692D01*
X138821283Y-81195687D01*
X138707454Y-81148538D01*
X138707455Y-81148538D01*
X138707452Y-81148537D01*
X138707448Y-81148536D01*
X138707444Y-81148535D01*
X138586610Y-81124500D01*
X138586606Y-81124500D01*
X138463394Y-81124500D01*
X138463389Y-81124500D01*
X138342555Y-81148535D01*
X138342545Y-81148538D01*
X138228716Y-81195687D01*
X138228707Y-81195692D01*
X138126267Y-81264141D01*
X138126263Y-81264144D01*
X138039144Y-81351263D01*
X138039141Y-81351267D01*
X137977602Y-81443367D01*
X137923990Y-81488172D01*
X137854665Y-81496879D01*
X137791637Y-81466724D01*
X137754918Y-81407281D01*
X137750500Y-81374476D01*
X137750500Y-80025943D01*
X148909500Y-80025943D01*
X148909500Y-80184056D01*
X148950423Y-80336783D01*
X148950426Y-80336790D01*
X149029475Y-80473709D01*
X149029479Y-80473714D01*
X149029480Y-80473716D01*
X149141284Y-80585520D01*
X149141286Y-80585521D01*
X149141290Y-80585524D01*
X149278209Y-80664573D01*
X149278216Y-80664577D01*
X149430943Y-80705500D01*
X149430945Y-80705500D01*
X149589055Y-80705500D01*
X149589057Y-80705500D01*
X149741784Y-80664577D01*
X149878716Y-80585520D01*
X149990520Y-80473716D01*
X150069577Y-80336784D01*
X150110500Y-80184057D01*
X150110500Y-80025943D01*
X154689500Y-80025943D01*
X154689500Y-80184056D01*
X154730423Y-80336783D01*
X154730426Y-80336790D01*
X154809475Y-80473709D01*
X154809479Y-80473714D01*
X154809480Y-80473716D01*
X154921284Y-80585520D01*
X154921286Y-80585521D01*
X154921290Y-80585524D01*
X155058209Y-80664573D01*
X155058216Y-80664577D01*
X155210943Y-80705500D01*
X155210945Y-80705500D01*
X155369055Y-80705500D01*
X155369057Y-80705500D01*
X155521784Y-80664577D01*
X155658716Y-80585520D01*
X155770520Y-80473716D01*
X155849577Y-80336784D01*
X155890500Y-80184057D01*
X155890500Y-80025943D01*
X155849577Y-79873216D01*
X155795289Y-79779185D01*
X155770524Y-79736290D01*
X155770518Y-79736282D01*
X155658717Y-79624481D01*
X155658709Y-79624475D01*
X155521790Y-79545426D01*
X155521786Y-79545424D01*
X155521784Y-79545423D01*
X155369057Y-79504500D01*
X155210943Y-79504500D01*
X155058216Y-79545423D01*
X155058209Y-79545426D01*
X154921290Y-79624475D01*
X154921282Y-79624481D01*
X154809481Y-79736282D01*
X154809475Y-79736290D01*
X154730426Y-79873209D01*
X154730423Y-79873216D01*
X154689500Y-80025943D01*
X150110500Y-80025943D01*
X150069577Y-79873216D01*
X150015289Y-79779185D01*
X149990524Y-79736290D01*
X149990518Y-79736282D01*
X149878717Y-79624481D01*
X149878709Y-79624475D01*
X149741790Y-79545426D01*
X149741786Y-79545424D01*
X149741784Y-79545423D01*
X149589057Y-79504500D01*
X149430943Y-79504500D01*
X149278216Y-79545423D01*
X149278209Y-79545426D01*
X149141290Y-79624475D01*
X149141282Y-79624481D01*
X149029481Y-79736282D01*
X149029475Y-79736290D01*
X148950426Y-79873209D01*
X148950423Y-79873216D01*
X148909500Y-80025943D01*
X137750500Y-80025943D01*
X137750500Y-79321153D01*
X162199500Y-79321153D01*
X162199500Y-79478846D01*
X162230261Y-79633489D01*
X162230264Y-79633501D01*
X162290602Y-79779172D01*
X162290609Y-79779185D01*
X162378210Y-79910288D01*
X162378213Y-79910292D01*
X162489707Y-80021786D01*
X162489711Y-80021789D01*
X162620814Y-80109390D01*
X162620827Y-80109397D01*
X162696181Y-80140609D01*
X162766503Y-80169737D01*
X162921153Y-80200499D01*
X162921156Y-80200500D01*
X162921158Y-80200500D01*
X163078844Y-80200500D01*
X163078845Y-80200499D01*
X163233497Y-80169737D01*
X163379179Y-80109394D01*
X163510289Y-80021789D01*
X163621789Y-79910289D01*
X163709394Y-79779179D01*
X163769737Y-79633497D01*
X163800500Y-79478842D01*
X163800500Y-79321158D01*
X163800500Y-79321155D01*
X163800499Y-79321153D01*
X163769738Y-79166510D01*
X163769737Y-79166503D01*
X163769735Y-79166498D01*
X163709397Y-79020827D01*
X163709390Y-79020814D01*
X163621789Y-78889711D01*
X163621786Y-78889707D01*
X163510292Y-78778213D01*
X163510288Y-78778210D01*
X163379185Y-78690609D01*
X163379172Y-78690602D01*
X163233501Y-78630264D01*
X163233489Y-78630261D01*
X163078845Y-78599500D01*
X163078842Y-78599500D01*
X162921158Y-78599500D01*
X162921155Y-78599500D01*
X162766510Y-78630261D01*
X162766498Y-78630264D01*
X162620827Y-78690602D01*
X162620814Y-78690609D01*
X162489711Y-78778210D01*
X162489707Y-78778213D01*
X162378213Y-78889707D01*
X162378210Y-78889711D01*
X162290609Y-79020814D01*
X162290602Y-79020827D01*
X162230264Y-79166498D01*
X162230261Y-79166510D01*
X162199500Y-79321153D01*
X137750500Y-79321153D01*
X137750500Y-78427350D01*
X137770185Y-78360311D01*
X137822989Y-78314556D01*
X137892147Y-78304612D01*
X137943391Y-78324248D01*
X138070814Y-78409390D01*
X138070827Y-78409397D01*
X138216498Y-78469735D01*
X138216503Y-78469737D01*
X138371153Y-78500499D01*
X138371156Y-78500500D01*
X138371158Y-78500500D01*
X138528844Y-78500500D01*
X138528845Y-78500499D01*
X138683497Y-78469737D01*
X138829179Y-78409394D01*
X138960289Y-78321789D01*
X139071789Y-78210289D01*
X139159394Y-78079179D01*
X139219737Y-77933497D01*
X139241099Y-77826103D01*
X139247031Y-77796284D01*
X139279416Y-77734373D01*
X139340132Y-77699799D01*
X139409901Y-77703538D01*
X139441533Y-77720157D01*
X139522307Y-77778842D01*
X139587361Y-77826106D01*
X139804815Y-77936904D01*
X140036924Y-78012321D01*
X140277973Y-78050500D01*
X140277974Y-78050500D01*
X140522026Y-78050500D01*
X140522027Y-78050500D01*
X140763076Y-78012321D01*
X140995185Y-77936904D01*
X141212639Y-77826106D01*
X141410083Y-77682655D01*
X141582655Y-77510083D01*
X141726106Y-77312639D01*
X141836904Y-77095185D01*
X141860959Y-77021153D01*
X147949500Y-77021153D01*
X147949500Y-77178846D01*
X147980261Y-77333489D01*
X147980264Y-77333501D01*
X148040602Y-77479172D01*
X148040609Y-77479185D01*
X148128210Y-77610288D01*
X148128213Y-77610292D01*
X148239707Y-77721786D01*
X148239711Y-77721789D01*
X148370814Y-77809390D01*
X148370827Y-77809397D01*
X148516498Y-77869735D01*
X148516503Y-77869737D01*
X148671153Y-77900499D01*
X148671156Y-77900500D01*
X148671158Y-77900500D01*
X148828844Y-77900500D01*
X148828845Y-77900499D01*
X148983497Y-77869737D01*
X149129179Y-77809394D01*
X149260289Y-77721789D01*
X149371789Y-77610289D01*
X149459394Y-77479179D01*
X149519737Y-77333497D01*
X149550500Y-77178842D01*
X149550500Y-77021158D01*
X149550500Y-77021155D01*
X149550499Y-77021153D01*
X155199500Y-77021153D01*
X155199500Y-77178846D01*
X155230261Y-77333489D01*
X155230264Y-77333501D01*
X155290602Y-77479172D01*
X155290609Y-77479185D01*
X155378210Y-77610288D01*
X155378213Y-77610292D01*
X155489707Y-77721786D01*
X155489711Y-77721789D01*
X155620814Y-77809390D01*
X155620827Y-77809397D01*
X155766498Y-77869735D01*
X155766503Y-77869737D01*
X155921153Y-77900499D01*
X155921156Y-77900500D01*
X155921158Y-77900500D01*
X156078844Y-77900500D01*
X156078845Y-77900499D01*
X156233497Y-77869737D01*
X156379179Y-77809394D01*
X156510289Y-77721789D01*
X156621789Y-77610289D01*
X156709394Y-77479179D01*
X156769737Y-77333497D01*
X156800500Y-77178842D01*
X156800500Y-77021158D01*
X156800500Y-77021155D01*
X156800499Y-77021153D01*
X156782277Y-76929547D01*
X156769737Y-76866503D01*
X156744119Y-76804654D01*
X156709397Y-76720827D01*
X156709390Y-76720814D01*
X156621789Y-76589711D01*
X156621786Y-76589707D01*
X156510292Y-76478213D01*
X156510287Y-76478209D01*
X156507286Y-76476204D01*
X156507284Y-76476203D01*
X156379185Y-76390609D01*
X156379172Y-76390602D01*
X156348682Y-76377973D01*
X163049500Y-76377973D01*
X163049500Y-76622026D01*
X163078425Y-76804654D01*
X163087679Y-76863076D01*
X163163096Y-77095185D01*
X163273198Y-77311274D01*
X163273896Y-77312642D01*
X163417339Y-77510076D01*
X163417343Y-77510081D01*
X163589918Y-77682656D01*
X163589923Y-77682660D01*
X163722307Y-77778842D01*
X163787361Y-77826106D01*
X164004815Y-77936904D01*
X164236924Y-78012321D01*
X164477973Y-78050500D01*
X164477974Y-78050500D01*
X164722026Y-78050500D01*
X164722027Y-78050500D01*
X164963076Y-78012321D01*
X165195185Y-77936904D01*
X165412639Y-77826106D01*
X165610083Y-77682655D01*
X165782655Y-77510083D01*
X165926106Y-77312639D01*
X166036904Y-77095185D01*
X166112321Y-76863076D01*
X166150500Y-76622027D01*
X166150500Y-76377973D01*
X166112321Y-76136924D01*
X166036904Y-75904815D01*
X165926106Y-75687361D01*
X165844053Y-75574424D01*
X165782660Y-75489923D01*
X165782656Y-75489918D01*
X165610081Y-75317343D01*
X165610076Y-75317339D01*
X165412642Y-75173896D01*
X165412641Y-75173895D01*
X165412639Y-75173894D01*
X165195185Y-75063096D01*
X164963076Y-74987679D01*
X164963074Y-74987678D01*
X164963072Y-74987678D01*
X164794769Y-74961021D01*
X164722027Y-74949500D01*
X164477973Y-74949500D01*
X164422093Y-74958350D01*
X164236927Y-74987678D01*
X164004812Y-75063097D01*
X163787357Y-75173896D01*
X163589923Y-75317339D01*
X163589918Y-75317343D01*
X163417343Y-75489918D01*
X163417339Y-75489923D01*
X163273896Y-75687357D01*
X163163097Y-75904812D01*
X163087678Y-76136927D01*
X163049500Y-76377973D01*
X156348682Y-76377973D01*
X156233501Y-76330264D01*
X156233489Y-76330261D01*
X156078845Y-76299500D01*
X156078842Y-76299500D01*
X155921158Y-76299500D01*
X155921155Y-76299500D01*
X155766510Y-76330261D01*
X155766498Y-76330264D01*
X155620827Y-76390602D01*
X155620814Y-76390609D01*
X155489711Y-76478210D01*
X155489707Y-76478213D01*
X155378213Y-76589707D01*
X155378210Y-76589711D01*
X155290609Y-76720814D01*
X155290602Y-76720827D01*
X155230264Y-76866498D01*
X155230261Y-76866510D01*
X155199500Y-77021153D01*
X149550499Y-77021153D01*
X149532277Y-76929547D01*
X149519737Y-76866503D01*
X149494119Y-76804654D01*
X149459397Y-76720827D01*
X149459390Y-76720814D01*
X149371789Y-76589711D01*
X149371786Y-76589707D01*
X149260292Y-76478213D01*
X149260288Y-76478210D01*
X149129185Y-76390609D01*
X149129172Y-76390602D01*
X148983501Y-76330264D01*
X148983489Y-76330261D01*
X148828845Y-76299500D01*
X148828842Y-76299500D01*
X148671158Y-76299500D01*
X148671155Y-76299500D01*
X148516510Y-76330261D01*
X148516498Y-76330264D01*
X148370827Y-76390602D01*
X148370814Y-76390609D01*
X148239711Y-76478210D01*
X148239707Y-76478213D01*
X148128213Y-76589707D01*
X148128210Y-76589711D01*
X148040609Y-76720814D01*
X148040602Y-76720827D01*
X147980264Y-76866498D01*
X147980261Y-76866510D01*
X147949500Y-77021153D01*
X141860959Y-77021153D01*
X141912321Y-76863076D01*
X141950500Y-76622027D01*
X141950500Y-76377973D01*
X141912321Y-76136924D01*
X141836904Y-75904815D01*
X141726106Y-75687361D01*
X141644053Y-75574424D01*
X141582660Y-75489923D01*
X141582656Y-75489918D01*
X141410081Y-75317343D01*
X141410076Y-75317339D01*
X141212642Y-75173896D01*
X141212641Y-75173895D01*
X141212639Y-75173894D01*
X140995185Y-75063096D01*
X140763076Y-74987679D01*
X140763074Y-74987678D01*
X140763072Y-74987678D01*
X140594769Y-74961021D01*
X140522027Y-74949500D01*
X140277973Y-74949500D01*
X140222093Y-74958350D01*
X140036927Y-74987678D01*
X139804812Y-75063097D01*
X139587357Y-75173896D01*
X139389923Y-75317339D01*
X139389918Y-75317343D01*
X139217343Y-75489918D01*
X139217339Y-75489923D01*
X139073896Y-75687357D01*
X138963097Y-75904812D01*
X138887678Y-76136927D01*
X138849500Y-76377973D01*
X138849500Y-76622026D01*
X138878765Y-76806801D01*
X138869810Y-76876095D01*
X138824814Y-76929547D01*
X138758062Y-76950186D01*
X138708840Y-76940760D01*
X138683501Y-76930264D01*
X138683489Y-76930261D01*
X138528845Y-76899500D01*
X138528842Y-76899500D01*
X138371158Y-76899500D01*
X138371155Y-76899500D01*
X138216510Y-76930261D01*
X138216498Y-76930264D01*
X138070827Y-76990602D01*
X138070814Y-76990609D01*
X137943391Y-77075751D01*
X137876713Y-77096629D01*
X137809333Y-77078144D01*
X137762643Y-77026165D01*
X137750500Y-76972649D01*
X137750500Y-73974500D01*
X137770185Y-73907461D01*
X137822989Y-73861706D01*
X137874500Y-73850500D01*
X167125500Y-73850500D01*
X167192539Y-73870185D01*
G37*
%TD.AperFunction*%
%TD*%
M02*
