%TF.GenerationSoftware,KiCad,Pcbnew,9.0.6-9.0.6~ubuntu25.04.1*%
%TF.CreationDate,2025-11-12T09:18:29-08:00*%
%TF.ProjectId,stm32g431,73746d33-3267-4343-9331-2e6b69636164,rev?*%
%TF.SameCoordinates,Original*%
%TF.FileFunction,Paste,Top*%
%TF.FilePolarity,Positive*%
%FSLAX46Y46*%
G04 Gerber Fmt 4.6, Leading zero omitted, Abs format (unit mm)*
G04 Created by KiCad (PCBNEW 9.0.6-9.0.6~ubuntu25.04.1) date 2025-11-12 09:18:29*
%MOMM*%
%LPD*%
G01*
G04 APERTURE LIST*
G04 Aperture macros list*
%AMRoundRect*
0 Rectangle with rounded corners*
0 $1 Rounding radius*
0 $2 $3 $4 $5 $6 $7 $8 $9 X,Y pos of 4 corners*
0 Add a 4 corners polygon primitive as box body*
4,1,4,$2,$3,$4,$5,$6,$7,$8,$9,$2,$3,0*
0 Add four circle primitives for the rounded corners*
1,1,$1+$1,$2,$3*
1,1,$1+$1,$4,$5*
1,1,$1+$1,$6,$7*
1,1,$1+$1,$8,$9*
0 Add four rect primitives between the rounded corners*
20,1,$1+$1,$2,$3,$4,$5,0*
20,1,$1+$1,$4,$5,$6,$7,0*
20,1,$1+$1,$6,$7,$8,$9,0*
20,1,$1+$1,$8,$9,$2,$3,0*%
G04 Aperture macros list end*
%ADD10RoundRect,0.250000X0.250000X0.475000X-0.250000X0.475000X-0.250000X-0.475000X0.250000X-0.475000X0*%
%ADD11R,0.600000X1.150000*%
%ADD12R,0.300000X1.150000*%
%ADD13R,1.500000X1.500000*%
%ADD14RoundRect,0.250000X-0.262500X-0.450000X0.262500X-0.450000X0.262500X0.450000X-0.262500X0.450000X0*%
%ADD15RoundRect,0.090000X-0.210000X-1.060000X0.210000X-1.060000X0.210000X1.060000X-0.210000X1.060000X0*%
%ADD16R,1.000000X1.200000*%
%ADD17RoundRect,0.147500X-0.147500X-0.172500X0.147500X-0.172500X0.147500X0.172500X-0.147500X0.172500X0*%
%ADD18RoundRect,0.067500X-0.067500X0.067500X-0.067500X-0.067500X0.067500X-0.067500X0.067500X0.067500X0*%
%ADD19RoundRect,0.067500X-0.067500X-0.067500X0.067500X-0.067500X0.067500X0.067500X-0.067500X0.067500X0*%
%ADD20RoundRect,0.112500X0.237500X-0.112500X0.237500X0.112500X-0.237500X0.112500X-0.237500X-0.112500X0*%
%ADD21RoundRect,0.140000X-0.170000X0.140000X-0.170000X-0.140000X0.170000X-0.140000X0.170000X0.140000X0*%
%ADD22RoundRect,0.375000X-0.625000X-0.375000X0.625000X-0.375000X0.625000X0.375000X-0.625000X0.375000X0*%
%ADD23RoundRect,0.500000X-0.500000X-1.400000X0.500000X-1.400000X0.500000X1.400000X-0.500000X1.400000X0*%
%ADD24RoundRect,0.250000X-0.475000X0.250000X-0.475000X-0.250000X0.475000X-0.250000X0.475000X0.250000X0*%
%ADD25R,0.970000X0.940000*%
%ADD26R,2.400000X0.740000*%
%ADD27RoundRect,0.125000X-0.625000X-0.125000X0.625000X-0.125000X0.625000X0.125000X-0.625000X0.125000X0*%
%ADD28RoundRect,0.125000X-0.125000X-0.625000X0.125000X-0.625000X0.125000X0.625000X-0.125000X0.625000X0*%
G04 APERTURE END LIST*
D10*
%TO.C,C5*%
X142215000Y-95500000D03*
X140315000Y-95500000D03*
%TD*%
D11*
%TO.C,J2*%
X155600000Y-81180000D03*
X154800000Y-81180000D03*
D12*
X153650000Y-81180000D03*
X152650000Y-81180000D03*
X152150000Y-81180000D03*
X151150000Y-81180000D03*
D11*
X149200000Y-81180000D03*
X150000000Y-81180000D03*
D12*
X150650000Y-81180000D03*
X151650000Y-81180000D03*
X153150000Y-81180000D03*
X154150000Y-81180000D03*
D13*
X157520000Y-80605000D03*
X157520000Y-76675000D03*
X147280000Y-80605000D03*
X147280000Y-76675000D03*
%TD*%
D14*
%TO.C,R5*%
X144225000Y-96550000D03*
X146050000Y-96550000D03*
%TD*%
D15*
%TO.C,C1*%
X140700000Y-99000000D03*
X141500000Y-99000000D03*
X142300000Y-99000000D03*
X143100000Y-99000000D03*
X143900000Y-99000000D03*
X144700000Y-99000000D03*
X145500000Y-99000000D03*
X146300000Y-99000000D03*
X150300000Y-99000000D03*
X151100000Y-99000000D03*
X151900000Y-99000000D03*
X152700000Y-99000000D03*
X153500000Y-99000000D03*
X154300000Y-99000000D03*
X155100000Y-99000000D03*
X155900000Y-99000000D03*
X156700000Y-99000000D03*
X157500000Y-99000000D03*
X158300000Y-99000000D03*
X159100000Y-99000000D03*
X159900000Y-99000000D03*
X160700000Y-99000000D03*
X161500000Y-99000000D03*
X162300000Y-99000000D03*
X163100000Y-99000000D03*
X163900000Y-99000000D03*
%TD*%
D16*
%TO.C,S1*%
X140750000Y-84550000D03*
X139050000Y-84550000D03*
X140750000Y-78950000D03*
X139050000Y-78950000D03*
%TD*%
D17*
%TO.C,D4*%
X144015000Y-94700000D03*
X144985000Y-94700000D03*
%TD*%
D18*
%TO.C,C8*%
X155050000Y-86575000D03*
X155050000Y-87125000D03*
%TD*%
D19*
%TO.C,R8*%
X151850000Y-91800000D03*
X152400000Y-91800000D03*
%TD*%
D20*
%TO.C,D1*%
X145750000Y-85100000D03*
X145750000Y-83800000D03*
X143750000Y-84450000D03*
%TD*%
D18*
%TO.C,C7*%
X165350000Y-95525000D03*
X165350000Y-96075000D03*
%TD*%
D21*
%TO.C,C6*%
X142750000Y-81020000D03*
X142750000Y-81980000D03*
%TD*%
D22*
%TO.C,U2*%
X141650000Y-87950000D03*
X141650000Y-90250000D03*
D23*
X147950000Y-90250000D03*
D22*
X141650000Y-92550000D03*
%TD*%
D24*
%TO.C,C4*%
X138850000Y-87950000D03*
X138850000Y-89850000D03*
%TD*%
D25*
%TO.C,D2*%
X152350000Y-84050000D03*
X150850000Y-84050000D03*
%TD*%
D26*
%TO.C,J1*%
X164850000Y-84540000D03*
X160950000Y-84540000D03*
X164850000Y-83270000D03*
X160950000Y-83270000D03*
X164850000Y-82000000D03*
X160950000Y-82000000D03*
X164850000Y-80730000D03*
X160950000Y-80730000D03*
X164850000Y-79460000D03*
X160950000Y-79460000D03*
%TD*%
D25*
%TO.C,D3*%
X150850000Y-85700000D03*
X152350000Y-85700000D03*
%TD*%
D19*
%TO.C,R9*%
X146325000Y-94700000D03*
X146875000Y-94700000D03*
%TD*%
%TO.C,C9*%
X155900000Y-86500000D03*
X156450000Y-86500000D03*
%TD*%
D27*
%TO.C,U1*%
X156725000Y-88400000D03*
X156725000Y-89200000D03*
X156725000Y-90000000D03*
X156725000Y-90800000D03*
X156725000Y-91600000D03*
X156725000Y-92400000D03*
X156725000Y-93200000D03*
X156725000Y-94000000D03*
D28*
X158100000Y-95375000D03*
X158900000Y-95375000D03*
X159700000Y-95375000D03*
X160500000Y-95375000D03*
X161300000Y-95375000D03*
X162100000Y-95375000D03*
X162900000Y-95375000D03*
X163700000Y-95375000D03*
D27*
X165075000Y-94000000D03*
X165075000Y-93200000D03*
X165075000Y-92400000D03*
X165075000Y-91600000D03*
X165075000Y-90800000D03*
X165075000Y-90000000D03*
X165075000Y-89200000D03*
X165075000Y-88400000D03*
D28*
X163700000Y-87025000D03*
X162900000Y-87025000D03*
X162100000Y-87025000D03*
X161300000Y-87025000D03*
X160500000Y-87025000D03*
X159700000Y-87025000D03*
X158900000Y-87025000D03*
X158100000Y-87025000D03*
%TD*%
M02*
