%TF.GenerationSoftware,KiCad,Pcbnew,9.0.6-9.0.6~ubuntu25.04.1*%
%TF.CreationDate,2025-11-12T09:18:29-08:00*%
%TF.ProjectId,stm32g431,73746d33-3267-4343-9331-2e6b69636164,rev?*%
%TF.SameCoordinates,Original*%
%TF.FileFunction,Copper,L4,Bot*%
%TF.FilePolarity,Positive*%
%FSLAX46Y46*%
G04 Gerber Fmt 4.6, Leading zero omitted, Abs format (unit mm)*
G04 Created by KiCad (PCBNEW 9.0.6-9.0.6~ubuntu25.04.1) date 2025-11-12 09:18:29*
%MOMM*%
%LPD*%
G01*
G04 APERTURE LIST*
G04 Aperture macros list*
%AMRoundRect*
0 Rectangle with rounded corners*
0 $1 Rounding radius*
0 $2 $3 $4 $5 $6 $7 $8 $9 X,Y pos of 4 corners*
0 Add a 4 corners polygon primitive as box body*
4,1,4,$2,$3,$4,$5,$6,$7,$8,$9,$2,$3,0*
0 Add four circle primitives for the rounded corners*
1,1,$1+$1,$2,$3*
1,1,$1+$1,$4,$5*
1,1,$1+$1,$6,$7*
1,1,$1+$1,$8,$9*
0 Add four rect primitives between the rounded corners*
20,1,$1+$1,$2,$3,$4,$5,0*
20,1,$1+$1,$4,$5,$6,$7,0*
20,1,$1+$1,$6,$7,$8,$9,0*
20,1,$1+$1,$8,$9,$2,$3,0*%
G04 Aperture macros list end*
%TA.AperFunction,SMDPad,CuDef*%
%ADD10RoundRect,0.090000X-0.210000X-1.060000X0.210000X-1.060000X0.210000X1.060000X-0.210000X1.060000X0*%
%TD*%
%TA.AperFunction,SMDPad,CuDef*%
%ADD11RoundRect,0.075000X0.075000X-0.125000X0.075000X0.125000X-0.075000X0.125000X-0.075000X-0.125000X0*%
%TD*%
%TA.AperFunction,SMDPad,CuDef*%
%ADD12RoundRect,0.075000X-0.125000X-0.075000X0.125000X-0.075000X0.125000X0.075000X-0.125000X0.075000X0*%
%TD*%
%TA.AperFunction,SMDPad,CuDef*%
%ADD13RoundRect,0.075000X-0.075000X0.125000X-0.075000X-0.125000X0.075000X-0.125000X0.075000X0.125000X0*%
%TD*%
%TA.AperFunction,SMDPad,CuDef*%
%ADD14RoundRect,0.090000X0.210000X-0.260000X0.210000X0.260000X-0.210000X0.260000X-0.210000X-0.260000X0*%
%TD*%
%TA.AperFunction,ViaPad*%
%ADD15C,0.600000*%
%TD*%
%TA.AperFunction,Conductor*%
%ADD16C,0.500000*%
%TD*%
%TA.AperFunction,Conductor*%
%ADD17C,0.200000*%
%TD*%
%TA.AperFunction,Conductor*%
%ADD18C,0.400000*%
%TD*%
G04 APERTURE END LIST*
D10*
%TO.P,C1,2,2*%
%TO.N,GND*%
X141100000Y-99000000D03*
%TO.P,C1,4,4*%
X141900000Y-99000000D03*
%TO.P,C1,6,6*%
X142700000Y-99000000D03*
%TO.P,C1,8,8*%
X143500000Y-99000000D03*
%TO.P,C1,10,10*%
%TO.N,unconnected-(C1-Pad10)*%
X144300000Y-99000000D03*
%TO.P,C1,12,12*%
%TO.N,unconnected-(C1-Pad12)*%
X145100000Y-99000000D03*
%TO.P,C1,14,14*%
%TO.N,unconnected-(C1-Pad14)*%
X145900000Y-99000000D03*
%TO.P,C1,16,16*%
%TO.N,unconnected-(C1-Pad16)*%
X146700000Y-99000000D03*
%TO.P,C1,18,18*%
%TO.N,unconnected-(C1-Pad18)*%
X150700000Y-99000000D03*
%TO.P,C1,20,20*%
%TO.N,unconnected-(C1-Pad20)*%
X151500000Y-99000000D03*
%TO.P,C1,22,22*%
%TO.N,unconnected-(C1-Pad22)*%
X152300000Y-99000000D03*
%TO.P,C1,24,24*%
%TO.N,unconnected-(C1-Pad24)*%
X153100000Y-99000000D03*
%TO.P,C1,26,26*%
%TO.N,/PFR1*%
X153900000Y-99000000D03*
%TO.P,C1,28,28*%
%TO.N,/PFR0*%
X154700000Y-99000000D03*
%TO.P,C1,30,30*%
%TO.N,/PB8*%
X155500000Y-99000000D03*
%TO.P,C1,32,32*%
%TO.N,/PB7*%
X156300000Y-99000000D03*
%TO.P,C1,34,34*%
%TO.N,/PB6*%
X157100000Y-99000000D03*
%TO.P,C1,36,36*%
%TO.N,/PB5*%
X157900000Y-99000000D03*
%TO.P,C1,38,38*%
%TO.N,/PB4*%
X158700000Y-99000000D03*
%TO.P,C1,40,40*%
%TO.N,/PB3*%
X159500000Y-99000000D03*
%TO.P,C1,42,42*%
%TO.N,/PA15*%
X160300000Y-99000000D03*
%TO.P,C1,44,44*%
%TO.N,/PA12*%
X161100000Y-99000000D03*
%TO.P,C1,46,46*%
%TO.N,/PA11*%
X161900000Y-99000000D03*
%TO.P,C1,48,48*%
%TO.N,/PA10*%
X162700000Y-99000000D03*
%TO.P,C1,50,50*%
%TO.N,/PA9*%
X163500000Y-99000000D03*
%TO.P,C1,52,52*%
%TO.N,/PA8*%
X164300000Y-99000000D03*
%TD*%
D11*
%TO.P,R2,1*%
%TO.N,/PFR0*%
X154700000Y-96800000D03*
%TO.P,R2,2*%
%TO.N,/PF0*%
X154700000Y-96300000D03*
%TD*%
D12*
%TO.P,R1,1*%
%TO.N,/OSC_IN*%
X154650000Y-89200000D03*
%TO.P,R1,2*%
%TO.N,/PF0*%
X155150000Y-89200000D03*
%TD*%
D13*
%TO.P,R6,1*%
%TO.N,/DM*%
X164050000Y-90400000D03*
%TO.P,R6,2*%
%TO.N,/PA11*%
X164050000Y-90900000D03*
%TD*%
D12*
%TO.P,R3,1*%
%TO.N,/OSC_OUT*%
X154650000Y-90000000D03*
%TO.P,R3,2*%
%TO.N,/PF1*%
X155150000Y-90000000D03*
%TD*%
%TO.P,R7,1*%
%TO.N,/DP*%
X162900000Y-89350000D03*
%TO.P,R7,2*%
%TO.N,/PA12*%
X163400000Y-89350000D03*
%TD*%
D14*
%TO.P,Y2,1,1*%
%TO.N,/OSC_OUT*%
X152000000Y-90200000D03*
%TO.P,Y2,2,GND*%
%TO.N,GND*%
X152000000Y-89100000D03*
%TO.P,Y2,3,3*%
%TO.N,/OSC_IN*%
X152800000Y-89100000D03*
%TO.P,Y2,4,GND*%
%TO.N,GND*%
X152800000Y-90200000D03*
%TD*%
D13*
%TO.P,C10,1*%
%TO.N,+3V3*%
X164400000Y-94300000D03*
%TO.P,C10,2*%
%TO.N,GND*%
X164400000Y-94800000D03*
%TD*%
%TO.P,R4,1*%
%TO.N,/PF1*%
X153900000Y-96300000D03*
%TO.P,R4,2*%
%TO.N,/PFR1*%
X153900000Y-96800000D03*
%TD*%
%TO.P,C3,1*%
%TO.N,/OSC_OUT*%
X153800000Y-90050000D03*
%TO.P,C3,2*%
%TO.N,GND*%
X153800000Y-90550000D03*
%TD*%
D11*
%TO.P,C2,1*%
%TO.N,/OSC_IN*%
X153800000Y-89200000D03*
%TO.P,C2,2*%
%TO.N,GND*%
X153800000Y-88700000D03*
%TD*%
D15*
%TO.N,/VDD*%
X142000000Y-97150000D03*
X144900000Y-92550000D03*
%TO.N,GND*%
X152750000Y-88100000D03*
X143300000Y-89550000D03*
X157200000Y-86850000D03*
X138450000Y-77700000D03*
X143300000Y-90250000D03*
X163000000Y-79400000D03*
X164600000Y-95550000D03*
X140400000Y-94200000D03*
X150800000Y-83050000D03*
X142750000Y-82850000D03*
X154500000Y-87650000D03*
X155600000Y-82600000D03*
X157500000Y-82400000D03*
X145850000Y-80850000D03*
X163000000Y-82000000D03*
X146100000Y-90500000D03*
X148950000Y-82750000D03*
X140600000Y-97200000D03*
X143150000Y-94050000D03*
X150900000Y-86800000D03*
X156000000Y-77100000D03*
X148750000Y-77100000D03*
X146100000Y-89600000D03*
X146100000Y-88750000D03*
X146100000Y-91450000D03*
X139000000Y-85850000D03*
X151900000Y-88100000D03*
X152850000Y-90850000D03*
X143300000Y-90950000D03*
%TO.N,/PB6*%
X160275735Y-88775735D03*
%TO.N,/PA12*%
X163400000Y-90000000D03*
%TO.N,/PF1*%
X155800000Y-90000000D03*
%TO.N,/PB3*%
X160900000Y-90700000D03*
%TO.N,/PA11*%
X163400000Y-90900000D03*
%TO.N,/PB8*%
X158873814Y-88285928D03*
%TO.N,/PB5*%
X160150000Y-89750000D03*
%TO.N,/PA9*%
X163500000Y-92700000D03*
%TO.N,/PB4*%
X161075735Y-89675735D03*
%TO.N,/PA8*%
X164500000Y-97400000D03*
%TO.N,/PA10*%
X163500000Y-91700000D03*
%TO.N,/PB7*%
X159176470Y-89026470D03*
%TO.N,/PA15*%
X162450000Y-90050000D03*
%TO.N,/swclk*%
X163000000Y-83300000D03*
X164900000Y-85900000D03*
%TO.N,/swdio*%
X162900000Y-84600000D03*
X166400000Y-89200000D03*
%TO.N,/PF0*%
X155800000Y-89200000D03*
%TO.N,+3V3*%
X166350000Y-84550000D03*
X146850000Y-95400000D03*
X165300000Y-94800000D03*
X155900000Y-87500000D03*
%TO.N,/DM*%
X154550000Y-83299000D03*
%TO.N,/DP*%
X153650000Y-84050000D03*
%TO.N,Net-(C6-Pad1)*%
X148500000Y-85950000D03*
X145800000Y-82500000D03*
%TO.N,/VBUS*%
X149850000Y-83000000D03*
X154800000Y-82550000D03*
%TD*%
D16*
%TO.N,/VDD*%
X142000000Y-97150000D02*
X142000000Y-97012075D01*
X144801000Y-94211075D02*
X144801000Y-94049000D01*
X142000000Y-97012075D02*
X144801000Y-94211075D01*
X144801000Y-94049000D02*
X144800000Y-94048000D01*
X144800000Y-92650000D02*
X144900000Y-92550000D01*
X144800000Y-94048000D02*
X144800000Y-92650000D01*
D17*
%TO.N,GND*%
X153800000Y-88550000D02*
X153350000Y-88100000D01*
X164400000Y-94800000D02*
X164400000Y-95350000D01*
X164400000Y-95350000D02*
X164600000Y-95550000D01*
X153800000Y-88700000D02*
X153800000Y-88550000D01*
D16*
X140600000Y-98500000D02*
X141100000Y-99000000D01*
X140600000Y-97200000D02*
X140600000Y-98500000D01*
D18*
X141100000Y-99000000D02*
X143500000Y-99000000D01*
D17*
X153350000Y-88100000D02*
X152750000Y-88100000D01*
D18*
X151900000Y-89000000D02*
X152000000Y-89100000D01*
D17*
X153150000Y-90550000D02*
X152800000Y-90200000D01*
X153800000Y-90550000D02*
X153150000Y-90550000D01*
D18*
X152850000Y-90250000D02*
X152800000Y-90200000D01*
X152850000Y-90850000D02*
X152850000Y-90250000D01*
X151900000Y-88100000D02*
X151900000Y-89000000D01*
D17*
%TO.N,/PB6*%
X157100000Y-97650000D02*
X159200000Y-95550000D01*
X159200000Y-89851470D02*
X160275735Y-88775735D01*
X157100000Y-99000000D02*
X157100000Y-97650000D01*
X159200000Y-95550000D02*
X159200000Y-89851470D01*
%TO.N,/PA12*%
X161400000Y-93900000D02*
X161400000Y-97100000D01*
X163400000Y-90000000D02*
X161900000Y-91500000D01*
X163400000Y-90000000D02*
X163200000Y-90000000D01*
X161900000Y-93400000D02*
X161400000Y-93900000D01*
X163400000Y-89350000D02*
X163400000Y-90000000D01*
X161900000Y-91500000D02*
X161900000Y-93400000D01*
X161100000Y-97400000D02*
X161100000Y-99000000D01*
X161400000Y-97100000D02*
X161100000Y-97400000D01*
X161200000Y-98900000D02*
X161100000Y-99000000D01*
%TO.N,/PF1*%
X155800000Y-90000000D02*
X155450000Y-90000000D01*
X155450000Y-90000000D02*
X155450000Y-94800000D01*
X155450000Y-94800000D02*
X155100000Y-95150000D01*
X153900000Y-95750000D02*
X154200000Y-95450000D01*
X154500000Y-95150000D02*
X155100000Y-95150000D01*
X154200000Y-95450000D02*
X154500000Y-95150000D01*
X153900000Y-96300000D02*
X153900000Y-95750000D01*
X155450000Y-90000000D02*
X155150000Y-90000000D01*
%TO.N,/PB3*%
X160549000Y-96683900D02*
X159700000Y-97532900D01*
X160549000Y-93583900D02*
X160549000Y-96683900D01*
X159700000Y-97774548D02*
X159699000Y-97775548D01*
X159700000Y-97532900D02*
X159700000Y-97774548D01*
X160900000Y-93232900D02*
X160549000Y-93583900D01*
X159699000Y-98801000D02*
X159500000Y-99000000D01*
X160900000Y-90700000D02*
X160900000Y-93232900D01*
X159699000Y-97775548D02*
X159699000Y-98801000D01*
%TO.N,/PA11*%
X163400000Y-90900000D02*
X164050000Y-90900000D01*
X162300000Y-91700000D02*
X163100000Y-90900000D01*
X162300000Y-93600000D02*
X162300000Y-91700000D01*
X163100000Y-90900000D02*
X163400000Y-90900000D01*
X161900000Y-99000000D02*
X161900000Y-94000000D01*
X161900000Y-94000000D02*
X162300000Y-93600000D01*
%TO.N,/PB8*%
X158398000Y-88761742D02*
X158398000Y-94852000D01*
X155500000Y-97750000D02*
X155500000Y-99000000D01*
X158873814Y-88285928D02*
X158398000Y-88761742D01*
X158398000Y-94852000D02*
X155500000Y-97750000D01*
%TO.N,/PB5*%
X159650000Y-90250000D02*
X159650000Y-95682900D01*
X160150000Y-89750000D02*
X159650000Y-90250000D01*
X157900000Y-97432900D02*
X157900000Y-99000000D01*
X159650000Y-95682900D02*
X157900000Y-97432900D01*
%TO.N,/PA9*%
X163500000Y-92700000D02*
X163500000Y-99000000D01*
%TO.N,/PB4*%
X161075735Y-89675735D02*
X160100000Y-90651470D01*
X160100000Y-95800000D02*
X158700000Y-97200000D01*
X158700000Y-97200000D02*
X158700000Y-99000000D01*
X160100000Y-90651470D02*
X160100000Y-95800000D01*
%TO.N,/PA8*%
X164300000Y-99000000D02*
X164300000Y-97600000D01*
X164300000Y-97600000D02*
X164500000Y-97400000D01*
%TO.N,/PA10*%
X162800000Y-98900000D02*
X162700000Y-99000000D01*
X163000000Y-91700000D02*
X162800000Y-91900000D01*
X163500000Y-91700000D02*
X163000000Y-91700000D01*
X162800000Y-91900000D02*
X162800000Y-98900000D01*
%TO.N,/PB7*%
X156300000Y-97700000D02*
X158799000Y-95201000D01*
X158799000Y-95201000D02*
X158799000Y-89403940D01*
X156300000Y-99000000D02*
X156300000Y-97700000D01*
X158799000Y-89403940D02*
X159176470Y-89026470D01*
%TO.N,/PA15*%
X160950000Y-96850000D02*
X160400000Y-97400000D01*
X162450000Y-90050000D02*
X162450000Y-90100000D01*
X160950000Y-93750000D02*
X160950000Y-96850000D01*
X162450000Y-90100000D02*
X161400000Y-91150000D01*
X160400000Y-97400000D02*
X160400000Y-98900000D01*
X161400000Y-91150000D02*
X161400000Y-93300000D01*
X161400000Y-93300000D02*
X160950000Y-93750000D01*
X160400000Y-98900000D02*
X160300000Y-99000000D01*
X160500000Y-98800000D02*
X160300000Y-99000000D01*
%TO.N,/swclk*%
X164200000Y-83600000D02*
X163900000Y-83300000D01*
X164900000Y-85900000D02*
X164900000Y-84300000D01*
X164900000Y-84300000D02*
X164200000Y-83600000D01*
X163900000Y-83300000D02*
X163000000Y-83300000D01*
%TO.N,/swdio*%
X164200000Y-86500000D02*
X164900000Y-87200000D01*
X166700000Y-87700000D02*
X166700000Y-87800000D01*
X164900000Y-87200000D02*
X166200000Y-87200000D01*
X164200000Y-85900000D02*
X164200000Y-86500000D01*
X166700000Y-87800000D02*
X166700000Y-88900000D01*
X166700000Y-88900000D02*
X166400000Y-89200000D01*
X162900000Y-84600000D02*
X164200000Y-85900000D01*
X166200000Y-87200000D02*
X166700000Y-87700000D01*
%TO.N,/PF0*%
X155150000Y-89200000D02*
X156250000Y-89200000D01*
X156250000Y-89200000D02*
X156500000Y-89450000D01*
X155800000Y-89200000D02*
X155150000Y-89200000D01*
X156500000Y-95250000D02*
X155450000Y-96300000D01*
X155450000Y-96300000D02*
X154700000Y-96300000D01*
X156500000Y-89450000D02*
X156500000Y-95250000D01*
%TO.N,+3V3*%
X165300000Y-94800000D02*
X164800000Y-94300000D01*
X164800000Y-94300000D02*
X164400000Y-94300000D01*
%TO.N,/DM*%
X161817100Y-88700000D02*
X163483824Y-88700000D01*
X163483824Y-88700000D02*
X164050000Y-89266176D01*
X164050000Y-89266176D02*
X164050000Y-90400000D01*
X154550000Y-83299000D02*
X156416100Y-83299000D01*
X156416100Y-83299000D02*
X161817100Y-88700000D01*
%TO.N,/DP*%
X156600000Y-84050000D02*
X161900000Y-89350000D01*
X161900000Y-89350000D02*
X162900000Y-89350000D01*
X153650000Y-84050000D02*
X156600000Y-84050000D01*
%TO.N,/OSC_IN*%
X154650000Y-89200000D02*
X153800000Y-89200000D01*
X153300000Y-89200000D02*
X153800000Y-89200000D01*
X153200000Y-89100000D02*
X153300000Y-89200000D01*
X152800000Y-89100000D02*
X153200000Y-89100000D01*
%TO.N,/OSC_OUT*%
X152000000Y-90200000D02*
X152000000Y-91200000D01*
X154650000Y-91150000D02*
X154650000Y-90000000D01*
X152000000Y-91200000D02*
X152200000Y-91400000D01*
X154400000Y-91400000D02*
X154650000Y-91150000D01*
X154650000Y-90000000D02*
X153850000Y-90000000D01*
X153850000Y-90000000D02*
X153800000Y-90050000D01*
X152200000Y-91400000D02*
X154400000Y-91400000D01*
%TO.N,Net-(C6-Pad1)*%
X145800000Y-82500000D02*
X148500000Y-85200000D01*
X148500000Y-85200000D02*
X148500000Y-85950000D01*
D18*
%TO.N,/VBUS*%
X154699000Y-82449000D02*
X150401000Y-82449000D01*
X154800000Y-82550000D02*
X154699000Y-82449000D01*
X150401000Y-82449000D02*
X150000000Y-82850000D01*
D17*
%TO.N,/PFR1*%
X153900000Y-99000000D02*
X153900000Y-96800000D01*
%TO.N,/PFR0*%
X154700000Y-99000000D02*
X154700000Y-96800000D01*
%TD*%
M02*
