M48
; DRILL file {KiCad 9.0.6-9.0.6~ubuntu25.04.1} date 2025-11-12T09:27:55-0800
; FORMAT={-:-/ absolute / metric / decimal}
; #@! TF.CreationDate,2025-11-12T09:27:55-08:00
; #@! TF.GenerationSoftware,Kicad,Pcbnew,9.0.6-9.0.6~ubuntu25.04.1
; #@! TF.FileFunction,Plated,1,4,PTH
FMAT,2
METRIC
; #@! TA.AperFunction,Plated,PTH,ViaDrill
T1C0.300
%
G90
G05
T1
X138.45Y-77.7
X139.0Y-85.85
X140.4Y-94.2
X140.6Y-97.2
X142.0Y-97.15
X142.75Y-82.85
X143.15Y-94.05
X143.3Y-89.55
X143.3Y-90.25
X143.3Y-90.95
X144.9Y-92.55
X145.8Y-82.5
X145.85Y-80.85
X146.1Y-88.75
X146.1Y-89.6
X146.1Y-90.5
X146.1Y-91.45
X146.85Y-95.4
X148.5Y-85.95
X148.75Y-77.1
X148.95Y-82.75
X149.85Y-83.0
X150.8Y-83.05
X150.9Y-86.8
X151.9Y-88.1
X152.75Y-88.1
X152.85Y-90.85
X153.65Y-84.05
X154.5Y-87.65
X154.55Y-83.299
X154.8Y-82.55
X155.6Y-82.6
X155.8Y-89.2
X155.8Y-90.0
X155.9Y-87.5
X156.0Y-77.1
X157.2Y-86.85
X157.5Y-82.4
X158.874Y-88.286
X159.176Y-89.026
X160.15Y-89.75
X160.276Y-88.776
X160.9Y-90.7
X161.076Y-89.676
X162.45Y-90.05
X162.9Y-84.6
X163.0Y-79.4
X163.0Y-82.0
X163.0Y-83.3
X163.4Y-90.0
X163.4Y-90.9
X163.5Y-91.7
X163.5Y-92.7
X164.5Y-97.4
X164.6Y-95.55
X164.9Y-85.9
X165.3Y-94.8
X166.35Y-84.55
X166.4Y-89.2
M30
