%TF.GenerationSoftware,KiCad,Pcbnew,9.0.6-9.0.6~ubuntu25.04.1*%
%TF.CreationDate,2025-11-12T09:18:30-08:00*%
%TF.ProjectId,stm32g431,73746d33-3267-4343-9331-2e6b69636164,rev?*%
%TF.SameCoordinates,Original*%
%TF.FileFunction,Legend,Top*%
%TF.FilePolarity,Positive*%
%FSLAX46Y46*%
G04 Gerber Fmt 4.6, Leading zero omitted, Abs format (unit mm)*
G04 Created by KiCad (PCBNEW 9.0.6-9.0.6~ubuntu25.04.1) date 2025-11-12 09:18:30*
%MOMM*%
%LPD*%
G01*
G04 APERTURE LIST*
%ADD10C,0.125000*%
%ADD11C,0.100000*%
%ADD12C,0.150000*%
%ADD13C,0.120000*%
%ADD14C,0.127000*%
%ADD15C,0.200000*%
G04 APERTURE END LIST*
D10*
X138781666Y-95677190D02*
X138757857Y-95701000D01*
X138757857Y-95701000D02*
X138686428Y-95724809D01*
X138686428Y-95724809D02*
X138638809Y-95724809D01*
X138638809Y-95724809D02*
X138567381Y-95701000D01*
X138567381Y-95701000D02*
X138519762Y-95653380D01*
X138519762Y-95653380D02*
X138495952Y-95605761D01*
X138495952Y-95605761D02*
X138472143Y-95510523D01*
X138472143Y-95510523D02*
X138472143Y-95439095D01*
X138472143Y-95439095D02*
X138495952Y-95343857D01*
X138495952Y-95343857D02*
X138519762Y-95296238D01*
X138519762Y-95296238D02*
X138567381Y-95248619D01*
X138567381Y-95248619D02*
X138638809Y-95224809D01*
X138638809Y-95224809D02*
X138686428Y-95224809D01*
X138686428Y-95224809D02*
X138757857Y-95248619D01*
X138757857Y-95248619D02*
X138781666Y-95272428D01*
X139234047Y-95224809D02*
X138995952Y-95224809D01*
X138995952Y-95224809D02*
X138972143Y-95462904D01*
X138972143Y-95462904D02*
X138995952Y-95439095D01*
X138995952Y-95439095D02*
X139043571Y-95415285D01*
X139043571Y-95415285D02*
X139162619Y-95415285D01*
X139162619Y-95415285D02*
X139210238Y-95439095D01*
X139210238Y-95439095D02*
X139234047Y-95462904D01*
X139234047Y-95462904D02*
X139257857Y-95510523D01*
X139257857Y-95510523D02*
X139257857Y-95629571D01*
X139257857Y-95629571D02*
X139234047Y-95677190D01*
X139234047Y-95677190D02*
X139210238Y-95701000D01*
X139210238Y-95701000D02*
X139162619Y-95724809D01*
X139162619Y-95724809D02*
X139043571Y-95724809D01*
X139043571Y-95724809D02*
X138995952Y-95701000D01*
X138995952Y-95701000D02*
X138972143Y-95677190D01*
X144933333Y-74474809D02*
X144933333Y-74831952D01*
X144933333Y-74831952D02*
X144909524Y-74903380D01*
X144909524Y-74903380D02*
X144861905Y-74951000D01*
X144861905Y-74951000D02*
X144790476Y-74974809D01*
X144790476Y-74974809D02*
X144742857Y-74974809D01*
X145147619Y-74522428D02*
X145171428Y-74498619D01*
X145171428Y-74498619D02*
X145219047Y-74474809D01*
X145219047Y-74474809D02*
X145338095Y-74474809D01*
X145338095Y-74474809D02*
X145385714Y-74498619D01*
X145385714Y-74498619D02*
X145409523Y-74522428D01*
X145409523Y-74522428D02*
X145433333Y-74570047D01*
X145433333Y-74570047D02*
X145433333Y-74617666D01*
X145433333Y-74617666D02*
X145409523Y-74689095D01*
X145409523Y-74689095D02*
X145123809Y-74974809D01*
X145123809Y-74974809D02*
X145433333Y-74974809D01*
X147416666Y-96374809D02*
X147250000Y-96136714D01*
X147130952Y-96374809D02*
X147130952Y-95874809D01*
X147130952Y-95874809D02*
X147321428Y-95874809D01*
X147321428Y-95874809D02*
X147369047Y-95898619D01*
X147369047Y-95898619D02*
X147392857Y-95922428D01*
X147392857Y-95922428D02*
X147416666Y-95970047D01*
X147416666Y-95970047D02*
X147416666Y-96041476D01*
X147416666Y-96041476D02*
X147392857Y-96089095D01*
X147392857Y-96089095D02*
X147369047Y-96112904D01*
X147369047Y-96112904D02*
X147321428Y-96136714D01*
X147321428Y-96136714D02*
X147130952Y-96136714D01*
X147869047Y-95874809D02*
X147630952Y-95874809D01*
X147630952Y-95874809D02*
X147607143Y-96112904D01*
X147607143Y-96112904D02*
X147630952Y-96089095D01*
X147630952Y-96089095D02*
X147678571Y-96065285D01*
X147678571Y-96065285D02*
X147797619Y-96065285D01*
X147797619Y-96065285D02*
X147845238Y-96089095D01*
X147845238Y-96089095D02*
X147869047Y-96112904D01*
X147869047Y-96112904D02*
X147892857Y-96160523D01*
X147892857Y-96160523D02*
X147892857Y-96279571D01*
X147892857Y-96279571D02*
X147869047Y-96327190D01*
X147869047Y-96327190D02*
X147845238Y-96351000D01*
X147845238Y-96351000D02*
X147797619Y-96374809D01*
X147797619Y-96374809D02*
X147678571Y-96374809D01*
X147678571Y-96374809D02*
X147630952Y-96351000D01*
X147630952Y-96351000D02*
X147607143Y-96327190D01*
D11*
X151833333Y-87562180D02*
X151785714Y-87609800D01*
X151785714Y-87609800D02*
X151642857Y-87657419D01*
X151642857Y-87657419D02*
X151547619Y-87657419D01*
X151547619Y-87657419D02*
X151404762Y-87609800D01*
X151404762Y-87609800D02*
X151309524Y-87514561D01*
X151309524Y-87514561D02*
X151261905Y-87419323D01*
X151261905Y-87419323D02*
X151214286Y-87228847D01*
X151214286Y-87228847D02*
X151214286Y-87085990D01*
X151214286Y-87085990D02*
X151261905Y-86895514D01*
X151261905Y-86895514D02*
X151309524Y-86800276D01*
X151309524Y-86800276D02*
X151404762Y-86705038D01*
X151404762Y-86705038D02*
X151547619Y-86657419D01*
X151547619Y-86657419D02*
X151642857Y-86657419D01*
X151642857Y-86657419D02*
X151785714Y-86705038D01*
X151785714Y-86705038D02*
X151833333Y-86752657D01*
X152785714Y-87657419D02*
X152214286Y-87657419D01*
X152500000Y-87657419D02*
X152500000Y-86657419D01*
X152500000Y-86657419D02*
X152404762Y-86800276D01*
X152404762Y-86800276D02*
X152309524Y-86895514D01*
X152309524Y-86895514D02*
X152214286Y-86943133D01*
D12*
X142907800Y-78537619D02*
X142938276Y-78446190D01*
X142938276Y-78446190D02*
X142938276Y-78293809D01*
X142938276Y-78293809D02*
X142907800Y-78232857D01*
X142907800Y-78232857D02*
X142877323Y-78202381D01*
X142877323Y-78202381D02*
X142816371Y-78171904D01*
X142816371Y-78171904D02*
X142755419Y-78171904D01*
X142755419Y-78171904D02*
X142694466Y-78202381D01*
X142694466Y-78202381D02*
X142663990Y-78232857D01*
X142663990Y-78232857D02*
X142633514Y-78293809D01*
X142633514Y-78293809D02*
X142603038Y-78415714D01*
X142603038Y-78415714D02*
X142572561Y-78476666D01*
X142572561Y-78476666D02*
X142542085Y-78507143D01*
X142542085Y-78507143D02*
X142481133Y-78537619D01*
X142481133Y-78537619D02*
X142420180Y-78537619D01*
X142420180Y-78537619D02*
X142359228Y-78507143D01*
X142359228Y-78507143D02*
X142328752Y-78476666D01*
X142328752Y-78476666D02*
X142298276Y-78415714D01*
X142298276Y-78415714D02*
X142298276Y-78263333D01*
X142298276Y-78263333D02*
X142328752Y-78171904D01*
X142938276Y-77562380D02*
X142938276Y-77928095D01*
X142938276Y-77745238D02*
X142298276Y-77745238D01*
X142298276Y-77745238D02*
X142389704Y-77806190D01*
X142389704Y-77806190D02*
X142450657Y-77867142D01*
X142450657Y-77867142D02*
X142481133Y-77928095D01*
D10*
X145580952Y-94374809D02*
X145580952Y-93874809D01*
X145580952Y-93874809D02*
X145700000Y-93874809D01*
X145700000Y-93874809D02*
X145771428Y-93898619D01*
X145771428Y-93898619D02*
X145819047Y-93946238D01*
X145819047Y-93946238D02*
X145842857Y-93993857D01*
X145842857Y-93993857D02*
X145866666Y-94089095D01*
X145866666Y-94089095D02*
X145866666Y-94160523D01*
X145866666Y-94160523D02*
X145842857Y-94255761D01*
X145842857Y-94255761D02*
X145819047Y-94303380D01*
X145819047Y-94303380D02*
X145771428Y-94351000D01*
X145771428Y-94351000D02*
X145700000Y-94374809D01*
X145700000Y-94374809D02*
X145580952Y-94374809D01*
X146295238Y-94041476D02*
X146295238Y-94374809D01*
X146176190Y-93851000D02*
X146057143Y-94208142D01*
X146057143Y-94208142D02*
X146366666Y-94208142D01*
X154477190Y-86933333D02*
X154501000Y-86957142D01*
X154501000Y-86957142D02*
X154524809Y-87028571D01*
X154524809Y-87028571D02*
X154524809Y-87076190D01*
X154524809Y-87076190D02*
X154501000Y-87147618D01*
X154501000Y-87147618D02*
X154453380Y-87195237D01*
X154453380Y-87195237D02*
X154405761Y-87219047D01*
X154405761Y-87219047D02*
X154310523Y-87242856D01*
X154310523Y-87242856D02*
X154239095Y-87242856D01*
X154239095Y-87242856D02*
X154143857Y-87219047D01*
X154143857Y-87219047D02*
X154096238Y-87195237D01*
X154096238Y-87195237D02*
X154048619Y-87147618D01*
X154048619Y-87147618D02*
X154024809Y-87076190D01*
X154024809Y-87076190D02*
X154024809Y-87028571D01*
X154024809Y-87028571D02*
X154048619Y-86957142D01*
X154048619Y-86957142D02*
X154072428Y-86933333D01*
X154239095Y-86647618D02*
X154215285Y-86695237D01*
X154215285Y-86695237D02*
X154191476Y-86719047D01*
X154191476Y-86719047D02*
X154143857Y-86742856D01*
X154143857Y-86742856D02*
X154120047Y-86742856D01*
X154120047Y-86742856D02*
X154072428Y-86719047D01*
X154072428Y-86719047D02*
X154048619Y-86695237D01*
X154048619Y-86695237D02*
X154024809Y-86647618D01*
X154024809Y-86647618D02*
X154024809Y-86552380D01*
X154024809Y-86552380D02*
X154048619Y-86504761D01*
X154048619Y-86504761D02*
X154072428Y-86480952D01*
X154072428Y-86480952D02*
X154120047Y-86457142D01*
X154120047Y-86457142D02*
X154143857Y-86457142D01*
X154143857Y-86457142D02*
X154191476Y-86480952D01*
X154191476Y-86480952D02*
X154215285Y-86504761D01*
X154215285Y-86504761D02*
X154239095Y-86552380D01*
X154239095Y-86552380D02*
X154239095Y-86647618D01*
X154239095Y-86647618D02*
X154262904Y-86695237D01*
X154262904Y-86695237D02*
X154286714Y-86719047D01*
X154286714Y-86719047D02*
X154334333Y-86742856D01*
X154334333Y-86742856D02*
X154429571Y-86742856D01*
X154429571Y-86742856D02*
X154477190Y-86719047D01*
X154477190Y-86719047D02*
X154501000Y-86695237D01*
X154501000Y-86695237D02*
X154524809Y-86647618D01*
X154524809Y-86647618D02*
X154524809Y-86552380D01*
X154524809Y-86552380D02*
X154501000Y-86504761D01*
X154501000Y-86504761D02*
X154477190Y-86480952D01*
X154477190Y-86480952D02*
X154429571Y-86457142D01*
X154429571Y-86457142D02*
X154334333Y-86457142D01*
X154334333Y-86457142D02*
X154286714Y-86480952D01*
X154286714Y-86480952D02*
X154262904Y-86504761D01*
X154262904Y-86504761D02*
X154239095Y-86552380D01*
X152041666Y-93324809D02*
X151875000Y-93086714D01*
X151755952Y-93324809D02*
X151755952Y-92824809D01*
X151755952Y-92824809D02*
X151946428Y-92824809D01*
X151946428Y-92824809D02*
X151994047Y-92848619D01*
X151994047Y-92848619D02*
X152017857Y-92872428D01*
X152017857Y-92872428D02*
X152041666Y-92920047D01*
X152041666Y-92920047D02*
X152041666Y-92991476D01*
X152041666Y-92991476D02*
X152017857Y-93039095D01*
X152017857Y-93039095D02*
X151994047Y-93062904D01*
X151994047Y-93062904D02*
X151946428Y-93086714D01*
X151946428Y-93086714D02*
X151755952Y-93086714D01*
X152327381Y-93039095D02*
X152279762Y-93015285D01*
X152279762Y-93015285D02*
X152255952Y-92991476D01*
X152255952Y-92991476D02*
X152232143Y-92943857D01*
X152232143Y-92943857D02*
X152232143Y-92920047D01*
X152232143Y-92920047D02*
X152255952Y-92872428D01*
X152255952Y-92872428D02*
X152279762Y-92848619D01*
X152279762Y-92848619D02*
X152327381Y-92824809D01*
X152327381Y-92824809D02*
X152422619Y-92824809D01*
X152422619Y-92824809D02*
X152470238Y-92848619D01*
X152470238Y-92848619D02*
X152494047Y-92872428D01*
X152494047Y-92872428D02*
X152517857Y-92920047D01*
X152517857Y-92920047D02*
X152517857Y-92943857D01*
X152517857Y-92943857D02*
X152494047Y-92991476D01*
X152494047Y-92991476D02*
X152470238Y-93015285D01*
X152470238Y-93015285D02*
X152422619Y-93039095D01*
X152422619Y-93039095D02*
X152327381Y-93039095D01*
X152327381Y-93039095D02*
X152279762Y-93062904D01*
X152279762Y-93062904D02*
X152255952Y-93086714D01*
X152255952Y-93086714D02*
X152232143Y-93134333D01*
X152232143Y-93134333D02*
X152232143Y-93229571D01*
X152232143Y-93229571D02*
X152255952Y-93277190D01*
X152255952Y-93277190D02*
X152279762Y-93301000D01*
X152279762Y-93301000D02*
X152327381Y-93324809D01*
X152327381Y-93324809D02*
X152422619Y-93324809D01*
X152422619Y-93324809D02*
X152470238Y-93301000D01*
X152470238Y-93301000D02*
X152494047Y-93277190D01*
X152494047Y-93277190D02*
X152517857Y-93229571D01*
X152517857Y-93229571D02*
X152517857Y-93134333D01*
X152517857Y-93134333D02*
X152494047Y-93086714D01*
X152494047Y-93086714D02*
X152470238Y-93062904D01*
X152470238Y-93062904D02*
X152422619Y-93039095D01*
X147180952Y-84674809D02*
X147180952Y-84174809D01*
X147180952Y-84174809D02*
X147300000Y-84174809D01*
X147300000Y-84174809D02*
X147371428Y-84198619D01*
X147371428Y-84198619D02*
X147419047Y-84246238D01*
X147419047Y-84246238D02*
X147442857Y-84293857D01*
X147442857Y-84293857D02*
X147466666Y-84389095D01*
X147466666Y-84389095D02*
X147466666Y-84460523D01*
X147466666Y-84460523D02*
X147442857Y-84555761D01*
X147442857Y-84555761D02*
X147419047Y-84603380D01*
X147419047Y-84603380D02*
X147371428Y-84651000D01*
X147371428Y-84651000D02*
X147300000Y-84674809D01*
X147300000Y-84674809D02*
X147180952Y-84674809D01*
X147942857Y-84674809D02*
X147657143Y-84674809D01*
X147800000Y-84674809D02*
X147800000Y-84174809D01*
X147800000Y-84174809D02*
X147752381Y-84246238D01*
X147752381Y-84246238D02*
X147704762Y-84293857D01*
X147704762Y-84293857D02*
X147657143Y-84317666D01*
X166527190Y-95883333D02*
X166551000Y-95907142D01*
X166551000Y-95907142D02*
X166574809Y-95978571D01*
X166574809Y-95978571D02*
X166574809Y-96026190D01*
X166574809Y-96026190D02*
X166551000Y-96097618D01*
X166551000Y-96097618D02*
X166503380Y-96145237D01*
X166503380Y-96145237D02*
X166455761Y-96169047D01*
X166455761Y-96169047D02*
X166360523Y-96192856D01*
X166360523Y-96192856D02*
X166289095Y-96192856D01*
X166289095Y-96192856D02*
X166193857Y-96169047D01*
X166193857Y-96169047D02*
X166146238Y-96145237D01*
X166146238Y-96145237D02*
X166098619Y-96097618D01*
X166098619Y-96097618D02*
X166074809Y-96026190D01*
X166074809Y-96026190D02*
X166074809Y-95978571D01*
X166074809Y-95978571D02*
X166098619Y-95907142D01*
X166098619Y-95907142D02*
X166122428Y-95883333D01*
X166074809Y-95716666D02*
X166074809Y-95383333D01*
X166074809Y-95383333D02*
X166574809Y-95597618D01*
X144277190Y-81633333D02*
X144301000Y-81657142D01*
X144301000Y-81657142D02*
X144324809Y-81728571D01*
X144324809Y-81728571D02*
X144324809Y-81776190D01*
X144324809Y-81776190D02*
X144301000Y-81847618D01*
X144301000Y-81847618D02*
X144253380Y-81895237D01*
X144253380Y-81895237D02*
X144205761Y-81919047D01*
X144205761Y-81919047D02*
X144110523Y-81942856D01*
X144110523Y-81942856D02*
X144039095Y-81942856D01*
X144039095Y-81942856D02*
X143943857Y-81919047D01*
X143943857Y-81919047D02*
X143896238Y-81895237D01*
X143896238Y-81895237D02*
X143848619Y-81847618D01*
X143848619Y-81847618D02*
X143824809Y-81776190D01*
X143824809Y-81776190D02*
X143824809Y-81728571D01*
X143824809Y-81728571D02*
X143848619Y-81657142D01*
X143848619Y-81657142D02*
X143872428Y-81633333D01*
X143824809Y-81204761D02*
X143824809Y-81299999D01*
X143824809Y-81299999D02*
X143848619Y-81347618D01*
X143848619Y-81347618D02*
X143872428Y-81371428D01*
X143872428Y-81371428D02*
X143943857Y-81419047D01*
X143943857Y-81419047D02*
X144039095Y-81442856D01*
X144039095Y-81442856D02*
X144229571Y-81442856D01*
X144229571Y-81442856D02*
X144277190Y-81419047D01*
X144277190Y-81419047D02*
X144301000Y-81395237D01*
X144301000Y-81395237D02*
X144324809Y-81347618D01*
X144324809Y-81347618D02*
X144324809Y-81252380D01*
X144324809Y-81252380D02*
X144301000Y-81204761D01*
X144301000Y-81204761D02*
X144277190Y-81180952D01*
X144277190Y-81180952D02*
X144229571Y-81157142D01*
X144229571Y-81157142D02*
X144110523Y-81157142D01*
X144110523Y-81157142D02*
X144062904Y-81180952D01*
X144062904Y-81180952D02*
X144039095Y-81204761D01*
X144039095Y-81204761D02*
X144015285Y-81252380D01*
X144015285Y-81252380D02*
X144015285Y-81347618D01*
X144015285Y-81347618D02*
X144039095Y-81395237D01*
X144039095Y-81395237D02*
X144062904Y-81419047D01*
X144062904Y-81419047D02*
X144110523Y-81442856D01*
D12*
X149404819Y-93761904D02*
X150214342Y-93761904D01*
X150214342Y-93761904D02*
X150309580Y-93714285D01*
X150309580Y-93714285D02*
X150357200Y-93666666D01*
X150357200Y-93666666D02*
X150404819Y-93571428D01*
X150404819Y-93571428D02*
X150404819Y-93380952D01*
X150404819Y-93380952D02*
X150357200Y-93285714D01*
X150357200Y-93285714D02*
X150309580Y-93238095D01*
X150309580Y-93238095D02*
X150214342Y-93190476D01*
X150214342Y-93190476D02*
X149404819Y-93190476D01*
X149500057Y-92761904D02*
X149452438Y-92714285D01*
X149452438Y-92714285D02*
X149404819Y-92619047D01*
X149404819Y-92619047D02*
X149404819Y-92380952D01*
X149404819Y-92380952D02*
X149452438Y-92285714D01*
X149452438Y-92285714D02*
X149500057Y-92238095D01*
X149500057Y-92238095D02*
X149595295Y-92190476D01*
X149595295Y-92190476D02*
X149690533Y-92190476D01*
X149690533Y-92190476D02*
X149833390Y-92238095D01*
X149833390Y-92238095D02*
X150404819Y-92809523D01*
X150404819Y-92809523D02*
X150404819Y-92190476D01*
D10*
X139027190Y-91283333D02*
X139051000Y-91307142D01*
X139051000Y-91307142D02*
X139074809Y-91378571D01*
X139074809Y-91378571D02*
X139074809Y-91426190D01*
X139074809Y-91426190D02*
X139051000Y-91497618D01*
X139051000Y-91497618D02*
X139003380Y-91545237D01*
X139003380Y-91545237D02*
X138955761Y-91569047D01*
X138955761Y-91569047D02*
X138860523Y-91592856D01*
X138860523Y-91592856D02*
X138789095Y-91592856D01*
X138789095Y-91592856D02*
X138693857Y-91569047D01*
X138693857Y-91569047D02*
X138646238Y-91545237D01*
X138646238Y-91545237D02*
X138598619Y-91497618D01*
X138598619Y-91497618D02*
X138574809Y-91426190D01*
X138574809Y-91426190D02*
X138574809Y-91378571D01*
X138574809Y-91378571D02*
X138598619Y-91307142D01*
X138598619Y-91307142D02*
X138622428Y-91283333D01*
X138741476Y-90854761D02*
X139074809Y-90854761D01*
X138551000Y-90973809D02*
X138908142Y-91092856D01*
X138908142Y-91092856D02*
X138908142Y-90783333D01*
D13*
X148930952Y-84225069D02*
X148930952Y-83725069D01*
X148930952Y-83725069D02*
X149050000Y-83725069D01*
X149050000Y-83725069D02*
X149121428Y-83748879D01*
X149121428Y-83748879D02*
X149169047Y-83796498D01*
X149169047Y-83796498D02*
X149192857Y-83844117D01*
X149192857Y-83844117D02*
X149216666Y-83939355D01*
X149216666Y-83939355D02*
X149216666Y-84010783D01*
X149216666Y-84010783D02*
X149192857Y-84106021D01*
X149192857Y-84106021D02*
X149169047Y-84153640D01*
X149169047Y-84153640D02*
X149121428Y-84201260D01*
X149121428Y-84201260D02*
X149050000Y-84225069D01*
X149050000Y-84225069D02*
X148930952Y-84225069D01*
X149407143Y-83772688D02*
X149430952Y-83748879D01*
X149430952Y-83748879D02*
X149478571Y-83725069D01*
X149478571Y-83725069D02*
X149597619Y-83725069D01*
X149597619Y-83725069D02*
X149645238Y-83748879D01*
X149645238Y-83748879D02*
X149669047Y-83772688D01*
X149669047Y-83772688D02*
X149692857Y-83820307D01*
X149692857Y-83820307D02*
X149692857Y-83867926D01*
X149692857Y-83867926D02*
X149669047Y-83939355D01*
X149669047Y-83939355D02*
X149383333Y-84225069D01*
X149383333Y-84225069D02*
X149692857Y-84225069D01*
D10*
X159124809Y-77816666D02*
X159481952Y-77816666D01*
X159481952Y-77816666D02*
X159553380Y-77840475D01*
X159553380Y-77840475D02*
X159601000Y-77888094D01*
X159601000Y-77888094D02*
X159624809Y-77959523D01*
X159624809Y-77959523D02*
X159624809Y-78007142D01*
X159624809Y-77316666D02*
X159624809Y-77602380D01*
X159624809Y-77459523D02*
X159124809Y-77459523D01*
X159124809Y-77459523D02*
X159196238Y-77507142D01*
X159196238Y-77507142D02*
X159243857Y-77554761D01*
X159243857Y-77554761D02*
X159267666Y-77602380D01*
D13*
X149030952Y-86025069D02*
X149030952Y-85525069D01*
X149030952Y-85525069D02*
X149150000Y-85525069D01*
X149150000Y-85525069D02*
X149221428Y-85548879D01*
X149221428Y-85548879D02*
X149269047Y-85596498D01*
X149269047Y-85596498D02*
X149292857Y-85644117D01*
X149292857Y-85644117D02*
X149316666Y-85739355D01*
X149316666Y-85739355D02*
X149316666Y-85810783D01*
X149316666Y-85810783D02*
X149292857Y-85906021D01*
X149292857Y-85906021D02*
X149269047Y-85953640D01*
X149269047Y-85953640D02*
X149221428Y-86001260D01*
X149221428Y-86001260D02*
X149150000Y-86025069D01*
X149150000Y-86025069D02*
X149030952Y-86025069D01*
X149483333Y-85525069D02*
X149792857Y-85525069D01*
X149792857Y-85525069D02*
X149626190Y-85715545D01*
X149626190Y-85715545D02*
X149697619Y-85715545D01*
X149697619Y-85715545D02*
X149745238Y-85739355D01*
X149745238Y-85739355D02*
X149769047Y-85763164D01*
X149769047Y-85763164D02*
X149792857Y-85810783D01*
X149792857Y-85810783D02*
X149792857Y-85929831D01*
X149792857Y-85929831D02*
X149769047Y-85977450D01*
X149769047Y-85977450D02*
X149745238Y-86001260D01*
X149745238Y-86001260D02*
X149697619Y-86025069D01*
X149697619Y-86025069D02*
X149554762Y-86025069D01*
X149554762Y-86025069D02*
X149507143Y-86001260D01*
X149507143Y-86001260D02*
X149483333Y-85977450D01*
D10*
X147766666Y-94974809D02*
X147600000Y-94736714D01*
X147480952Y-94974809D02*
X147480952Y-94474809D01*
X147480952Y-94474809D02*
X147671428Y-94474809D01*
X147671428Y-94474809D02*
X147719047Y-94498619D01*
X147719047Y-94498619D02*
X147742857Y-94522428D01*
X147742857Y-94522428D02*
X147766666Y-94570047D01*
X147766666Y-94570047D02*
X147766666Y-94641476D01*
X147766666Y-94641476D02*
X147742857Y-94689095D01*
X147742857Y-94689095D02*
X147719047Y-94712904D01*
X147719047Y-94712904D02*
X147671428Y-94736714D01*
X147671428Y-94736714D02*
X147480952Y-94736714D01*
X148004762Y-94974809D02*
X148100000Y-94974809D01*
X148100000Y-94974809D02*
X148147619Y-94951000D01*
X148147619Y-94951000D02*
X148171428Y-94927190D01*
X148171428Y-94927190D02*
X148219047Y-94855761D01*
X148219047Y-94855761D02*
X148242857Y-94760523D01*
X148242857Y-94760523D02*
X148242857Y-94570047D01*
X148242857Y-94570047D02*
X148219047Y-94522428D01*
X148219047Y-94522428D02*
X148195238Y-94498619D01*
X148195238Y-94498619D02*
X148147619Y-94474809D01*
X148147619Y-94474809D02*
X148052381Y-94474809D01*
X148052381Y-94474809D02*
X148004762Y-94498619D01*
X148004762Y-94498619D02*
X147980952Y-94522428D01*
X147980952Y-94522428D02*
X147957143Y-94570047D01*
X147957143Y-94570047D02*
X147957143Y-94689095D01*
X147957143Y-94689095D02*
X147980952Y-94736714D01*
X147980952Y-94736714D02*
X148004762Y-94760523D01*
X148004762Y-94760523D02*
X148052381Y-94784333D01*
X148052381Y-94784333D02*
X148147619Y-94784333D01*
X148147619Y-94784333D02*
X148195238Y-94760523D01*
X148195238Y-94760523D02*
X148219047Y-94736714D01*
X148219047Y-94736714D02*
X148242857Y-94689095D01*
X156091666Y-85927190D02*
X156067857Y-85951000D01*
X156067857Y-85951000D02*
X155996428Y-85974809D01*
X155996428Y-85974809D02*
X155948809Y-85974809D01*
X155948809Y-85974809D02*
X155877381Y-85951000D01*
X155877381Y-85951000D02*
X155829762Y-85903380D01*
X155829762Y-85903380D02*
X155805952Y-85855761D01*
X155805952Y-85855761D02*
X155782143Y-85760523D01*
X155782143Y-85760523D02*
X155782143Y-85689095D01*
X155782143Y-85689095D02*
X155805952Y-85593857D01*
X155805952Y-85593857D02*
X155829762Y-85546238D01*
X155829762Y-85546238D02*
X155877381Y-85498619D01*
X155877381Y-85498619D02*
X155948809Y-85474809D01*
X155948809Y-85474809D02*
X155996428Y-85474809D01*
X155996428Y-85474809D02*
X156067857Y-85498619D01*
X156067857Y-85498619D02*
X156091666Y-85522428D01*
X156329762Y-85974809D02*
X156425000Y-85974809D01*
X156425000Y-85974809D02*
X156472619Y-85951000D01*
X156472619Y-85951000D02*
X156496428Y-85927190D01*
X156496428Y-85927190D02*
X156544047Y-85855761D01*
X156544047Y-85855761D02*
X156567857Y-85760523D01*
X156567857Y-85760523D02*
X156567857Y-85570047D01*
X156567857Y-85570047D02*
X156544047Y-85522428D01*
X156544047Y-85522428D02*
X156520238Y-85498619D01*
X156520238Y-85498619D02*
X156472619Y-85474809D01*
X156472619Y-85474809D02*
X156377381Y-85474809D01*
X156377381Y-85474809D02*
X156329762Y-85498619D01*
X156329762Y-85498619D02*
X156305952Y-85522428D01*
X156305952Y-85522428D02*
X156282143Y-85570047D01*
X156282143Y-85570047D02*
X156282143Y-85689095D01*
X156282143Y-85689095D02*
X156305952Y-85736714D01*
X156305952Y-85736714D02*
X156329762Y-85760523D01*
X156329762Y-85760523D02*
X156377381Y-85784333D01*
X156377381Y-85784333D02*
X156472619Y-85784333D01*
X156472619Y-85784333D02*
X156520238Y-85760523D01*
X156520238Y-85760523D02*
X156544047Y-85736714D01*
X156544047Y-85736714D02*
X156567857Y-85689095D01*
D12*
X164838095Y-86454819D02*
X164838095Y-87264342D01*
X164838095Y-87264342D02*
X164885714Y-87359580D01*
X164885714Y-87359580D02*
X164933333Y-87407200D01*
X164933333Y-87407200D02*
X165028571Y-87454819D01*
X165028571Y-87454819D02*
X165219047Y-87454819D01*
X165219047Y-87454819D02*
X165314285Y-87407200D01*
X165314285Y-87407200D02*
X165361904Y-87359580D01*
X165361904Y-87359580D02*
X165409523Y-87264342D01*
X165409523Y-87264342D02*
X165409523Y-86454819D01*
X166409523Y-87454819D02*
X165838095Y-87454819D01*
X166123809Y-87454819D02*
X166123809Y-86454819D01*
X166123809Y-86454819D02*
X166028571Y-86597676D01*
X166028571Y-86597676D02*
X165933333Y-86692914D01*
X165933333Y-86692914D02*
X165838095Y-86740533D01*
D13*
%TO.C,C5*%
X141526252Y-94765000D02*
X141003748Y-94765000D01*
X141526252Y-96235000D02*
X141003748Y-96235000D01*
D14*
%TO.C,J2*%
X147930000Y-73825000D02*
X147930000Y-75611500D01*
X147930000Y-79541500D02*
X147930000Y-77738500D01*
X156870000Y-73825000D02*
X156870000Y-75611500D01*
X156870000Y-79541500D02*
X156870000Y-77738500D01*
D15*
X155750000Y-82355000D02*
G75*
G02*
X155550000Y-82355000I-100000J0D01*
G01*
X155550000Y-82355000D02*
G75*
G02*
X155750000Y-82355000I100000J0D01*
G01*
D13*
%TO.C,R5*%
X144910436Y-95815000D02*
X145364564Y-95815000D01*
X144910436Y-97285000D02*
X145364564Y-97285000D01*
D15*
%TO.C,S1*%
X138050000Y-79300000D02*
X138050000Y-84200000D01*
X138050000Y-84200000D02*
X138200000Y-84200000D01*
X138200000Y-79300000D02*
X138050000Y-79300000D01*
X141600000Y-79300000D02*
X141750000Y-79300000D01*
X141750000Y-79300000D02*
X141750000Y-84200000D01*
X141750000Y-84200000D02*
X141600000Y-84200000D01*
X141400000Y-83450000D02*
G75*
G02*
X141200000Y-83450000I-100000J0D01*
G01*
X141200000Y-83450000D02*
G75*
G02*
X141400000Y-83450000I100000J0D01*
G01*
D11*
%TO.C,D4*%
X143460000Y-94700000D02*
G75*
G02*
X143360000Y-94700000I-50000J0D01*
G01*
X143360000Y-94700000D02*
G75*
G02*
X143460000Y-94700000I50000J0D01*
G01*
D13*
%TO.C,D1*%
X144020000Y-83950000D02*
X144020000Y-83290000D01*
X144020000Y-85610000D02*
X144020000Y-84950000D01*
X145430000Y-83290000D02*
X144020000Y-83290000D01*
X145430000Y-85610000D02*
X144020000Y-85610000D01*
X146040000Y-85920000D02*
X145560000Y-85920000D01*
X145800000Y-85590000D01*
X146040000Y-85920000D01*
G36*
X146040000Y-85920000D02*
G01*
X145560000Y-85920000D01*
X145800000Y-85590000D01*
X146040000Y-85920000D01*
G37*
%TO.C,C6*%
X142390000Y-81392164D02*
X142390000Y-81607836D01*
X143110000Y-81392164D02*
X143110000Y-81607836D01*
%TO.C,U2*%
X142950000Y-86840000D02*
X146710000Y-86840000D01*
X142950000Y-93660000D02*
X146710000Y-93660000D01*
X146710000Y-86840000D02*
X146710000Y-88100000D01*
X146710000Y-93660000D02*
X146710000Y-92400000D01*
X141670000Y-86940000D02*
X141430000Y-86610000D01*
X141910000Y-86610000D01*
X141670000Y-86940000D01*
G36*
X141670000Y-86940000D02*
G01*
X141430000Y-86610000D01*
X141910000Y-86610000D01*
X141670000Y-86940000D01*
G37*
%TO.C,C4*%
X138115000Y-88638748D02*
X138115000Y-89161252D01*
X139585000Y-88638748D02*
X139585000Y-89161252D01*
%TO.C,J1*%
X161085000Y-78780000D02*
X161085000Y-78715000D01*
X161085000Y-85285000D02*
X161085000Y-85220000D01*
X164715000Y-78715000D02*
X161085000Y-78715000D01*
X164715000Y-78780000D02*
X164715000Y-78715000D01*
X164715000Y-85285000D02*
X161085000Y-85285000D01*
X164715000Y-85285000D02*
X164715000Y-85220000D01*
X165990000Y-85220000D02*
X164715000Y-85220000D01*
%TO.C,U1*%
X157290000Y-87590000D02*
X157590000Y-87590000D01*
X157290000Y-87890000D02*
X157290000Y-87590000D01*
X157290000Y-94810000D02*
X157290000Y-94510000D01*
X157590000Y-94810000D02*
X157290000Y-94810000D01*
X164210000Y-87590000D02*
X164510000Y-87590000D01*
X164510000Y-87590000D02*
X164510000Y-87890000D01*
X164510000Y-94510000D02*
X164510000Y-94810000D01*
X164510000Y-94810000D02*
X164210000Y-94810000D01*
X156650000Y-87880000D02*
X156310000Y-87410000D01*
X156990000Y-87410000D01*
X156650000Y-87880000D01*
G36*
X156650000Y-87880000D02*
G01*
X156310000Y-87410000D01*
X156990000Y-87410000D01*
X156650000Y-87880000D01*
G37*
%TD*%
M02*
