%TF.GenerationSoftware,KiCad,Pcbnew,9.0.6-9.0.6~ubuntu25.04.1*%
%TF.CreationDate,2025-11-12T09:18:31-08:00*%
%TF.ProjectId,stm32g431,73746d33-3267-4343-9331-2e6b69636164,rev?*%
%TF.SameCoordinates,Original*%
%TF.FileFunction,Soldermask,Top*%
%TF.FilePolarity,Negative*%
%FSLAX46Y46*%
G04 Gerber Fmt 4.6, Leading zero omitted, Abs format (unit mm)*
G04 Created by KiCad (PCBNEW 9.0.6-9.0.6~ubuntu25.04.1) date 2025-11-12 09:18:31*
%MOMM*%
%LPD*%
G01*
G04 APERTURE LIST*
G04 Aperture macros list*
%AMRoundRect*
0 Rectangle with rounded corners*
0 $1 Rounding radius*
0 $2 $3 $4 $5 $6 $7 $8 $9 X,Y pos of 4 corners*
0 Add a 4 corners polygon primitive as box body*
4,1,4,$2,$3,$4,$5,$6,$7,$8,$9,$2,$3,0*
0 Add four circle primitives for the rounded corners*
1,1,$1+$1,$2,$3*
1,1,$1+$1,$4,$5*
1,1,$1+$1,$6,$7*
1,1,$1+$1,$8,$9*
0 Add four rect primitives between the rounded corners*
20,1,$1+$1,$2,$3,$4,$5,0*
20,1,$1+$1,$4,$5,$6,$7,0*
20,1,$1+$1,$6,$7,$8,$9,0*
20,1,$1+$1,$8,$9,$2,$3,0*%
G04 Aperture macros list end*
%ADD10C,0.010000*%
%ADD11RoundRect,0.250000X0.250000X0.475000X-0.250000X0.475000X-0.250000X-0.475000X0.250000X-0.475000X0*%
%ADD12C,0.700000*%
%ADD13RoundRect,0.102000X0.750000X0.750000X-0.750000X0.750000X-0.750000X-0.750000X0.750000X-0.750000X0*%
%ADD14RoundRect,0.250000X-0.262500X-0.450000X0.262500X-0.450000X0.262500X0.450000X-0.262500X0.450000X0*%
%ADD15RoundRect,0.090000X-0.210000X-1.060000X0.210000X-1.060000X0.210000X1.060000X-0.210000X1.060000X0*%
%ADD16C,0.750000*%
%ADD17RoundRect,0.102000X-0.500000X0.600000X-0.500000X-0.600000X0.500000X-0.600000X0.500000X0.600000X0*%
%ADD18RoundRect,0.147500X-0.147500X-0.172500X0.147500X-0.172500X0.147500X0.172500X-0.147500X0.172500X0*%
%ADD19RoundRect,0.075000X-0.075000X0.125000X-0.075000X-0.125000X0.075000X-0.125000X0.075000X0.125000X0*%
%ADD20RoundRect,0.075000X-0.125000X-0.075000X0.125000X-0.075000X0.125000X0.075000X-0.125000X0.075000X0*%
%ADD21RoundRect,0.112500X0.237500X-0.112500X0.237500X0.112500X-0.237500X0.112500X-0.237500X-0.112500X0*%
%ADD22RoundRect,0.140000X-0.170000X0.140000X-0.170000X-0.140000X0.170000X-0.140000X0.170000X0.140000X0*%
%ADD23RoundRect,0.375000X-0.625000X-0.375000X0.625000X-0.375000X0.625000X0.375000X-0.625000X0.375000X0*%
%ADD24RoundRect,0.500000X-0.500000X-1.400000X0.500000X-1.400000X0.500000X1.400000X-0.500000X1.400000X0*%
%ADD25RoundRect,0.250000X-0.475000X0.250000X-0.475000X-0.250000X0.475000X-0.250000X0.475000X0.250000X0*%
%ADD26RoundRect,0.102000X0.485000X0.470000X-0.485000X0.470000X-0.485000X-0.470000X0.485000X-0.470000X0*%
%ADD27R,2.400000X0.740000*%
%ADD28RoundRect,0.102000X-0.485000X-0.470000X0.485000X-0.470000X0.485000X0.470000X-0.485000X0.470000X0*%
%ADD29RoundRect,0.125000X-0.625000X-0.125000X0.625000X-0.125000X0.625000X0.125000X-0.625000X0.125000X0*%
%ADD30RoundRect,0.125000X-0.125000X-0.625000X0.125000X-0.625000X0.125000X0.625000X-0.125000X0.625000X0*%
G04 APERTURE END LIST*
D10*
%TO.C,J2*%
X149550000Y-81805000D02*
X148850000Y-81805000D01*
X148850000Y-80555000D01*
X149550000Y-80555000D01*
X149550000Y-81805000D01*
G36*
X149550000Y-81805000D02*
G01*
X148850000Y-81805000D01*
X148850000Y-80555000D01*
X149550000Y-80555000D01*
X149550000Y-81805000D01*
G37*
X150350000Y-81805000D02*
X149650000Y-81805000D01*
X149650000Y-80555000D01*
X150350000Y-80555000D01*
X150350000Y-81805000D01*
G36*
X150350000Y-81805000D02*
G01*
X149650000Y-81805000D01*
X149650000Y-80555000D01*
X150350000Y-80555000D01*
X150350000Y-81805000D01*
G37*
X150850000Y-81805000D02*
X150450000Y-81805000D01*
X150450000Y-80555000D01*
X150850000Y-80555000D01*
X150850000Y-81805000D01*
G36*
X150850000Y-81805000D02*
G01*
X150450000Y-81805000D01*
X150450000Y-80555000D01*
X150850000Y-80555000D01*
X150850000Y-81805000D01*
G37*
X151350000Y-81805000D02*
X150950000Y-81805000D01*
X150950000Y-80555000D01*
X151350000Y-80555000D01*
X151350000Y-81805000D01*
G36*
X151350000Y-81805000D02*
G01*
X150950000Y-81805000D01*
X150950000Y-80555000D01*
X151350000Y-80555000D01*
X151350000Y-81805000D01*
G37*
X151850000Y-81805000D02*
X151450000Y-81805000D01*
X151450000Y-80555000D01*
X151850000Y-80555000D01*
X151850000Y-81805000D01*
G36*
X151850000Y-81805000D02*
G01*
X151450000Y-81805000D01*
X151450000Y-80555000D01*
X151850000Y-80555000D01*
X151850000Y-81805000D01*
G37*
X152350000Y-81805000D02*
X151950000Y-81805000D01*
X151950000Y-80555000D01*
X152350000Y-80555000D01*
X152350000Y-81805000D01*
G36*
X152350000Y-81805000D02*
G01*
X151950000Y-81805000D01*
X151950000Y-80555000D01*
X152350000Y-80555000D01*
X152350000Y-81805000D01*
G37*
X152850000Y-81805000D02*
X152450000Y-81805000D01*
X152450000Y-80555000D01*
X152850000Y-80555000D01*
X152850000Y-81805000D01*
G36*
X152850000Y-81805000D02*
G01*
X152450000Y-81805000D01*
X152450000Y-80555000D01*
X152850000Y-80555000D01*
X152850000Y-81805000D01*
G37*
X153350000Y-81805000D02*
X152950000Y-81805000D01*
X152950000Y-80555000D01*
X153350000Y-80555000D01*
X153350000Y-81805000D01*
G36*
X153350000Y-81805000D02*
G01*
X152950000Y-81805000D01*
X152950000Y-80555000D01*
X153350000Y-80555000D01*
X153350000Y-81805000D01*
G37*
X153850000Y-81805000D02*
X153450000Y-81805000D01*
X153450000Y-80555000D01*
X153850000Y-80555000D01*
X153850000Y-81805000D01*
G36*
X153850000Y-81805000D02*
G01*
X153450000Y-81805000D01*
X153450000Y-80555000D01*
X153850000Y-80555000D01*
X153850000Y-81805000D01*
G37*
X154350000Y-81805000D02*
X153950000Y-81805000D01*
X153950000Y-80555000D01*
X154350000Y-80555000D01*
X154350000Y-81805000D01*
G36*
X154350000Y-81805000D02*
G01*
X153950000Y-81805000D01*
X153950000Y-80555000D01*
X154350000Y-80555000D01*
X154350000Y-81805000D01*
G37*
X155150000Y-81805000D02*
X154450000Y-81805000D01*
X154450000Y-80555000D01*
X155150000Y-80555000D01*
X155150000Y-81805000D01*
G36*
X155150000Y-81805000D02*
G01*
X154450000Y-81805000D01*
X154450000Y-80555000D01*
X155150000Y-80555000D01*
X155150000Y-81805000D01*
G37*
X155950000Y-81805000D02*
X155250000Y-81805000D01*
X155250000Y-80555000D01*
X155950000Y-80555000D01*
X155950000Y-81805000D01*
G36*
X155950000Y-81805000D02*
G01*
X155250000Y-81805000D01*
X155250000Y-80555000D01*
X155950000Y-80555000D01*
X155950000Y-81805000D01*
G37*
%TD*%
D11*
%TO.C,C5*%
X142215000Y-95500000D03*
X140315000Y-95500000D03*
%TD*%
D12*
%TO.C,J2*%
X155290000Y-80105000D03*
X149510000Y-80105000D03*
D13*
X157520000Y-80605000D03*
X157520000Y-76675000D03*
X147280000Y-80605000D03*
X147280000Y-76675000D03*
%TD*%
D14*
%TO.C,R5*%
X144225000Y-96550000D03*
X146050000Y-96550000D03*
%TD*%
D15*
%TO.C,C1*%
X140700000Y-99000000D03*
X141500000Y-99000000D03*
X142300000Y-99000000D03*
X143100000Y-99000000D03*
X143900000Y-99000000D03*
X144700000Y-99000000D03*
X145500000Y-99000000D03*
X146300000Y-99000000D03*
X150300000Y-99000000D03*
X151100000Y-99000000D03*
X151900000Y-99000000D03*
X152700000Y-99000000D03*
X153500000Y-99000000D03*
X154300000Y-99000000D03*
X155100000Y-99000000D03*
X155900000Y-99000000D03*
X156700000Y-99000000D03*
X157500000Y-99000000D03*
X158300000Y-99000000D03*
X159100000Y-99000000D03*
X159900000Y-99000000D03*
X160700000Y-99000000D03*
X161500000Y-99000000D03*
X162300000Y-99000000D03*
X163100000Y-99000000D03*
X163900000Y-99000000D03*
%TD*%
D16*
%TO.C,S1*%
X141275000Y-81750000D03*
X138525000Y-81750000D03*
D17*
X140750000Y-84550000D03*
X139050000Y-84550000D03*
X140750000Y-78950000D03*
X139050000Y-78950000D03*
%TD*%
D18*
%TO.C,D4*%
X144015000Y-94700000D03*
X144985000Y-94700000D03*
%TD*%
D19*
%TO.C,C8*%
X155050000Y-86600000D03*
X155050000Y-87100000D03*
%TD*%
D20*
%TO.C,R8*%
X151875000Y-91800000D03*
X152375000Y-91800000D03*
%TD*%
D21*
%TO.C,D1*%
X145750000Y-85100000D03*
X145750000Y-83800000D03*
X143750000Y-84450000D03*
%TD*%
D19*
%TO.C,C7*%
X165350000Y-95550000D03*
X165350000Y-96050000D03*
%TD*%
D22*
%TO.C,C6*%
X142750000Y-81020000D03*
X142750000Y-81980000D03*
%TD*%
D23*
%TO.C,U2*%
X141650000Y-87950000D03*
X141650000Y-90250000D03*
D24*
X147950000Y-90250000D03*
D23*
X141650000Y-92550000D03*
%TD*%
D25*
%TO.C,C4*%
X138850000Y-87950000D03*
X138850000Y-89850000D03*
%TD*%
D26*
%TO.C,D2*%
X152350000Y-84050000D03*
X150850000Y-84050000D03*
%TD*%
D27*
%TO.C,J1*%
X164850000Y-84540000D03*
X160950000Y-84540000D03*
X164850000Y-83270000D03*
X160950000Y-83270000D03*
X164850000Y-82000000D03*
X160950000Y-82000000D03*
X164850000Y-80730000D03*
X160950000Y-80730000D03*
X164850000Y-79460000D03*
X160950000Y-79460000D03*
%TD*%
D28*
%TO.C,D3*%
X150850000Y-85700000D03*
X152350000Y-85700000D03*
%TD*%
D20*
%TO.C,R9*%
X146350000Y-94700000D03*
X146850000Y-94700000D03*
%TD*%
%TO.C,C9*%
X155925000Y-86500000D03*
X156425000Y-86500000D03*
%TD*%
D29*
%TO.C,U1*%
X156725000Y-88400000D03*
X156725000Y-89200000D03*
X156725000Y-90000000D03*
X156725000Y-90800000D03*
X156725000Y-91600000D03*
X156725000Y-92400000D03*
X156725000Y-93200000D03*
X156725000Y-94000000D03*
D30*
X158100000Y-95375000D03*
X158900000Y-95375000D03*
X159700000Y-95375000D03*
X160500000Y-95375000D03*
X161300000Y-95375000D03*
X162100000Y-95375000D03*
X162900000Y-95375000D03*
X163700000Y-95375000D03*
D29*
X165075000Y-94000000D03*
X165075000Y-93200000D03*
X165075000Y-92400000D03*
X165075000Y-91600000D03*
X165075000Y-90800000D03*
X165075000Y-90000000D03*
X165075000Y-89200000D03*
X165075000Y-88400000D03*
D30*
X163700000Y-87025000D03*
X162900000Y-87025000D03*
X162100000Y-87025000D03*
X161300000Y-87025000D03*
X160500000Y-87025000D03*
X159700000Y-87025000D03*
X158900000Y-87025000D03*
X158100000Y-87025000D03*
%TD*%
M02*
